<?xml version="1.0" encoding="UTF-8"?>
<svg version="1.1" xmlns="http://www.w3.org/2000/svg" width="1024" height="1024">
<path d="M0 0 C1.52896866 1.3210868 3.08280302 2.60425422 4.64941406 3.88037109 C12.6442767 10.45142478 20.03062089 17.6056263 27.36035156 24.89990234 C27.84840271 25.3827771 28.33645386 25.86565186 28.83929443 26.36315918 C35.53987939 33.00762628 41.66687124 39.95697925 47.54785156 47.33740234 C48.41133796 48.36486991 49.27974672 49.38826564 50.15722656 50.40380859 C70.26242202 73.84764053 86.2800956 100.52601414 99.54785156 128.33740234 C100.01457275 129.3085498 100.01457275 129.3085498 100.49072266 130.29931641 C122.11237364 175.73498443 134.55097401 226.97789836 135.54785156 277.33740234 C135.56831543 278.17835449 135.5887793 279.01930664 135.60986328 279.88574219 C136.81887715 336.68941011 126.09546661 393.55892797 102.54785156 445.33740234 C101.947229 446.67665771 101.947229 446.67665771 101.33447266 448.04296875 C86.4987008 480.94695409 66.49524521 511.35190652 42.54785156 538.33740234 C41.27629213 539.79510261 40.00533681 541.2533304 38.73535156 542.71240234 C38.20167969 543.31697266 37.66800781 543.92154297 37.11816406 544.54443359 C36.01700701 545.80172486 34.92955786 547.07109187 33.85253906 548.34912109 C30.38960235 552.42544795 26.7849004 555.97816871 22.70410156 559.43115234 C20.26346869 561.58881329 18.00974517 563.88042915 15.73535156 566.21240234 C10.65238917 571.34976954 5.1919398 575.83652178 -0.45214844 580.33740234 C-1.27972656 581.03220703 -2.10730469 581.72701172 -2.95996094 582.44287109 C-56.94471061 627.76034444 -123.88909694 655.13138365 -193.45214844 664.33740234 C-194.29793457 664.45067871 -195.1437207 664.56395508 -196.01513672 664.68066406 C-278.93530128 675.45637011 -365.20341704 654.02605191 -435.45214844 609.33740234 C-436.77061768 608.50039795 -436.77061768 608.50039795 -438.11572266 607.64648438 C-440.69648108 605.99613621 -443.26518729 604.32926064 -445.82714844 602.64990234 C-446.60179443 602.14426758 -447.37644043 601.63863281 -448.17456055 601.11767578 C-449.97192411 599.91265116 -451.71843805 598.63233417 -453.45214844 597.33740234 C-453.45214844 596.67740234 -453.45214844 596.01740234 -453.45214844 595.33740234 C-454.45375 595.02996094 -454.45375 595.02996094 -455.47558594 594.71630859 C-459.5433181 592.83191298 -462.65576222 590.14130434 -466.07714844 587.27490234 C-467.5055294 586.09390737 -468.93391483 584.91291781 -470.36230469 583.73193359 C-471.05855957 583.15266113 -471.75481445 582.57338867 -472.47216797 581.9765625 C-474.20273711 580.54388171 -475.9445423 579.12830154 -477.69824219 577.72412109 C-482.32986543 574.00468994 -486.70912416 570.23238921 -490.83496094 565.95849609 C-492.51236324 564.27704209 -494.26189547 562.74329165 -496.07714844 561.21240234 C-505.71694745 553.06549256 -513.7362766 543.07310951 -521.93457031 533.515625 C-524.13020982 530.96543931 -526.29735934 528.48764669 -528.71386719 526.14208984 C-530.52905131 524.25756161 -531.30854475 522.67487801 -532.45214844 520.33740234 C-534.11549273 518.02293696 -535.7997818 515.73787032 -537.51464844 513.46240234 C-542.84931617 506.30012518 -547.72576446 498.91128679 -552.45214844 491.33740234 C-553.11214844 491.66740234 -553.77214844 491.99740234 -554.45214844 492.33740234 C-554.51660156 491.52142578 -554.58105469 490.70544922 -554.64746094 489.86474609 C-555.69913706 485.25472891 -557.86118102 481.89314069 -560.32714844 477.89990234 C-566.81041287 467.07231494 -572.17941243 455.79196676 -577.45214844 444.33740234 C-577.88438721 443.40871338 -578.31662598 442.48002441 -578.76196289 441.52319336 C-581.3810197 435.84931053 -583.76862701 430.15246998 -585.88964844 424.27490234 C-586.1804126 423.47560303 -586.47117676 422.67630371 -586.77075195 421.8527832 C-588.86530796 416.05426592 -590.90491356 410.23690057 -592.88964844 404.39990234 C-593.14866943 403.64894287 -593.40769043 402.8979834 -593.67456055 402.12426758 C-594.83672471 398.6489459 -595.45214844 396.04286006 -595.45214844 392.33740234 C-596.11214844 392.00740234 -596.77214844 391.67740234 -597.45214844 391.33740234 C-598.01464844 389.36865234 -598.01464844 389.36865234 -598.45214844 386.83740234 C-598.61714844 385.94150391 -598.78214844 385.04560547 -598.95214844 384.12255859 C-599.11714844 383.20345703 -599.28214844 382.28435547 -599.45214844 381.33740234 C-599.77353972 379.64758726 -600.1059707 377.95981431 -600.45214844 376.27490234 C-600.59652344 375.54142578 -600.74089844 374.80794922 -600.88964844 374.05224609 C-601.07527344 373.48634766 -601.26089844 372.92044922 -601.45214844 372.33740234 C-602.11214844 372.00740234 -602.77214844 371.67740234 -603.45214844 371.33740234 C-603.45214844 368.69740234 -603.45214844 366.05740234 -603.45214844 363.33740234 C-604.11214844 363.00740234 -604.77214844 362.67740234 -605.45214844 362.33740234 C-605.42967041 361.79317627 -605.40719238 361.2489502 -605.3840332 360.68823242 C-605.22237242 353.38369808 -606.10970054 346.33558118 -607.10510254 339.10864258 C-608.91469741 325.85691183 -610.20451294 312.71745793 -610.45214844 299.33740234 C-610.47792969 298.45906738 -610.50371094 297.58073242 -610.53027344 296.67578125 C-611.46767477 263.60309041 -607.65057109 229.29092647 -599.38256836 197.2902832 C-599.13224854 196.31841064 -598.88192871 195.34653809 -598.62402344 194.34521484 C-598.39811523 193.49588379 -598.17220703 192.64655273 -597.93945312 191.77148438 C-597.43106501 189.23209082 -597.3656503 186.92023686 -597.45214844 184.33740234 C-596.79214844 184.33740234 -596.13214844 184.33740234 -595.45214844 184.33740234 C-595.35998047 183.76272217 -595.2678125 183.18804199 -595.17285156 182.59594727 C-593.87142023 175.29419449 -591.57160957 168.57505265 -588.95214844 161.64990234 C-588.51 160.47234375 -588.06785156 159.29478516 -587.61230469 158.08154297 C-580.97504936 140.60469077 -573.50549795 123.71521107 -564.53027344 107.31298828 C-563.57380811 105.56033488 -562.63654912 103.79723042 -561.70214844 102.03271484 C-556.77455961 92.76782127 -550.76096929 84.2491467 -544.76464844 75.64990234 C-544.16177002 74.78502197 -543.5588916 73.9201416 -542.93774414 73.02905273 C-538.73291603 67.04455565 -534.36953514 61.22617362 -529.74047852 55.56323242 C-527.77336403 53.13866695 -526.45066723 51.33295873 -525.45214844 48.33740234 C-523.47257901 46.64652013 -521.47269648 44.97909763 -519.45214844 43.33740234 C-519.12214844 42.67740234 -518.79214844 42.01740234 -518.45214844 41.33740234 C-517.79214844 41.33740234 -517.13214844 41.33740234 -516.45214844 41.33740234 C-516.20980469 40.76634766 -515.96746094 40.19529297 -515.71777344 39.60693359 C-514.21595552 36.91385887 -512.42788381 35.15600611 -510.20214844 33.02490234 C-507.45246734 30.34538855 -504.8229377 27.6819537 -502.38964844 24.71240234 C-499.68719304 21.47244201 -496.65560336 18.80613766 -493.44433594 16.07958984 C-491.57709109 14.44666592 -489.85952448 12.74811096 -488.13964844 10.96240234 C-484.4663868 7.23096688 -480.46032471 3.98565577 -476.38183594 0.70849609 C-473.50747674 -1.61781862 -470.70066248 -4.0103876 -467.88964844 -6.41259766 C-456.84395518 -15.62212372 -445.12337999 -23.99041848 -432.66308594 -31.17431641 C-431.93347656 -31.66544922 -431.20386719 -32.15658203 -430.45214844 -32.66259766 C-430.45214844 -33.32259766 -430.45214844 -33.98259766 -430.45214844 -34.66259766 C-429.77796875 -34.74380859 -429.10378906 -34.82501953 -428.40917969 -34.90869141 C-424.59641206 -35.88077087 -421.49560333 -37.74160496 -418.13964844 -39.72509766 C-403.40126491 -48.19819012 -388.17694805 -55.21310268 -372.45214844 -61.66259766 C-371.72850098 -61.96520508 -371.00485352 -62.2678125 -370.25927734 -62.57958984 C-338.01135875 -75.92933004 -302.12316785 -83.02775796 -267.45214844 -85.66259766 C-266.72205566 -85.71899414 -265.99196289 -85.77539062 -265.23974609 -85.83349609 C-171.00947953 -92.78608944 -71.48828901 -62.65896859 0 0 Z M-378.45214844 -26.66259766 C-379.21253418 -26.33324219 -379.97291992 -26.00388672 -380.75634766 -25.66455078 C-398.54629349 -17.94646376 -415.64145998 -7.87111389 -431.45214844 3.33740234 C-432.30679688 3.93166016 -433.16144531 4.52591797 -434.04199219 5.13818359 C-451.17267395 17.2881385 -466.47067851 31.3036953 -481.32714844 46.08740234 C-482.12419189 46.87969238 -482.92123535 47.67198242 -483.74243164 48.48828125 C-488.51813187 53.27751037 -493.05903048 58.196716 -497.45214844 63.33740234 C-497.96841797 63.92569824 -498.4846875 64.51399414 -499.01660156 65.12011719 C-522.11227465 91.48500755 -539.50959533 122.33460255 -553.45214844 154.33740234 C-553.97566895 155.52849609 -553.97566895 155.52849609 -554.50976562 156.74365234 C-589.62964812 237.77259754 -587.26931789 335.19289863 -555.80102539 416.65185547 C-542.45542114 450.27958163 -525.118942 481.97242566 -501.76757812 509.76171875 C-499.68585182 512.2553085 -497.67130195 514.80296589 -495.63964844 517.33740234 C-492.65027441 520.98390004 -489.55048901 524.36985266 -486.15136719 527.63427734 C-483.57243166 530.21914146 -481.26212718 533.02422432 -478.93261719 535.83349609 C-478.4440625 536.32978516 -477.95550781 536.82607422 -477.45214844 537.33740234 C-476.79214844 537.33740234 -476.13214844 537.33740234 -475.45214844 537.33740234 C-475.06542969 538.22878906 -475.06542969 538.22878906 -474.67089844 539.13818359 C-473.34517897 541.53042738 -472.0483598 542.78521874 -469.95214844 544.52490234 C-466.89710266 547.10072525 -463.93837581 549.73858796 -461.01464844 552.46240234 C-454.47852156 558.36307244 -447.44109701 563.60810138 -440.39697266 568.88037109 C-438.785806 570.08743143 -437.18239381 571.30483444 -435.58105469 572.52490234 C-426.91111572 579.01721233 -417.68966675 584.69700008 -408.45214844 590.33740234 C-407.47665039 590.93488281 -407.47665039 590.93488281 -406.48144531 591.54443359 C-389.00928287 602.12116508 -370.00982101 610.58251914 -350.82714844 617.52490234 C-349.82756104 617.88712891 -348.82797363 618.24935547 -347.7980957 618.62255859 C-342.46269571 620.48635915 -337.26045598 621.83002202 -331.70385742 622.83642578 C-328.43384805 623.56396121 -325.5183874 625.00381009 -322.45214844 626.33740234 C-319.08824289 627.30301527 -315.68718483 628.04795787 -312.26464844 628.77490234 C-311.26780029 628.98735596 -310.27095215 629.19980957 -309.24389648 629.41870117 C-266.52897483 638.22776874 -220.31225165 641.29674352 -177.45214844 631.33740234 C-177.12214844 631.00740234 -176.79214844 630.67740234 -176.45214844 630.33740234 C-175.02886586 630.17474148 -173.60020662 630.05868293 -172.17089844 629.96240234 C-165.91973905 629.38605432 -160.01234241 627.93494087 -153.95214844 626.33740234 C-152.78594971 626.0319751 -151.61975098 625.72654785 -150.41821289 625.41186523 C-131.63518949 620.36309959 -112.84631348 614.1322049 -95.45214844 605.33740234 C-94.40027344 604.82306641 -93.34839844 604.30873047 -92.26464844 603.77880859 C-76.82899933 596.19638447 -61.5044314 588.29753697 -47.45214844 578.33740234 C-46.33776424 577.56107474 -45.22317093 576.78504727 -44.10839844 576.00927734 C-31.949383 567.49017881 -20.35030185 558.42892078 -9.45214844 548.33740234 C-8.52015625 547.49693359 -7.58816406 546.65646484 -6.62792969 545.79052734 C3.62359227 536.53931872 13.7328682 526.98734143 22.54785156 516.33740234 C22.99032227 515.81404297 23.43279297 515.29068359 23.88867188 514.75146484 C40.74818746 494.78596223 55.2791264 472.85797789 66.59619141 449.29199219 C67.55096043 447.33101712 68.53724927 445.38952093 69.53613281 443.45068359 C89.90943962 403.83729496 101.04372479 359.66355686 104.54785156 315.33740234 C104.71414063 313.3709375 104.71414063 313.3709375 104.88378906 311.36474609 C108.42968697 269.32693345 108.42968697 269.32693345 99.54785156 229.33740234 C99.42925781 228.09216797 99.31066406 226.84693359 99.18847656 225.56396484 C98.52575909 219.13457794 96.89038126 212.9645715 95.29785156 206.71240234 C94.9857373 205.47433838 94.67362305 204.23627441 94.35205078 202.96069336 C92.1259476 194.26565529 89.62514237 185.76816188 86.54785156 177.33740234 C86.21785156 176.34740234 85.88785156 175.35740234 85.54785156 174.33740234 C84.57903976 171.64563078 83.59997304 168.95898362 82.61035156 166.27490234 C82.21299805 165.1756543 82.21299805 165.1756543 81.80761719 164.05419922 C80.27800899 159.83442647 80.27800899 159.83442647 77.54785156 156.33740234 C76.88785156 156.66740234 76.22785156 156.99740234 75.54785156 157.33740234 C75.76803955 156.48057861 75.98822754 155.62375488 76.21508789 154.7409668 C76.62290987 150.569693 75.70952309 148.62059482 73.87207031 144.88037109 C73.58685013 144.29193924 73.30162994 143.70350739 73.00776672 143.09724426 C72.40557478 141.86253785 71.79582184 140.63149335 71.17895508 139.40405273 C70.2332338 137.52068491 69.31173687 135.62690319 68.39355469 133.72998047 C65.95762574 127.63131637 65.95762574 127.63131637 61.54785156 123.33740234 C61.21785156 123.66740234 60.88785156 123.99740234 60.54785156 124.33740234 C60.54785156 123.01740234 60.54785156 121.69740234 60.54785156 120.33740234 C53.87751775 104.82752048 42.84563745 90.57794424 32.54785156 77.33740234 C31.82597656 76.40025391 31.10410156 75.46310547 30.36035156 74.49755859 C26.1115164 69.07515404 21.56814168 63.97138015 16.89941406 58.90771484 C15.00289417 56.8347745 13.17198584 54.73349218 11.36035156 52.58740234 C3.20102324 43.20417477 -5.87519384 34.26571292 -15.45214844 26.33740234 C-16.39703125 25.53818359 -17.34191406 24.73896484 -18.31542969 23.91552734 C-27.03450225 16.55799575 -36.05257334 9.80121974 -45.45214844 3.33740234 C-46.49628906 2.60779297 -47.54042969 1.87818359 -48.61621094 1.12646484 C-81.82088779 -21.78292036 -122.17070963 -41.82375718 -162.45214844 -47.66259766 C-162.45214844 -47.00259766 -162.45214844 -46.34259766 -162.45214844 -45.66259766 C-163.11214844 -45.66259766 -163.77214844 -45.66259766 -164.45214844 -45.66259766 C-164.45214844 -46.65259766 -164.45214844 -47.64259766 -164.45214844 -48.66259766 C-167.63820207 -49.29511285 -170.82623852 -49.91707896 -174.01464844 -50.53759766 C-174.89056641 -50.71162109 -175.76648438 -50.88564453 -176.66894531 -51.06494141 C-190.07587923 -53.65983184 -203.3902192 -55.00204874 -217.00732422 -55.66796875 C-219.47757384 -55.78884176 -221.94725852 -55.91835675 -224.41699219 -56.04931641 C-226.01201892 -56.13183916 -227.60707026 -56.2138879 -229.20214844 -56.29541016 C-230.29136597 -56.35162033 -230.29136597 -56.35162033 -231.40258789 -56.40896606 C-281.58060685 -58.84496952 -332.82892781 -46.90953906 -378.45214844 -26.66259766 Z " fill="#090A09" transform="translate(749.4521484375,210.66259765625)"/>
<path d="M0 0 C1.65902844 1.5084437 3.32569218 3.00853391 5 4.5 C7.57509466 6.8151482 10.14699403 9.13343839 12.7109375 11.4609375 C14.02964844 12.65589844 14.02964844 12.65589844 15.375 13.875 C16.16648437 14.59429687 16.95796875 15.31359375 17.7734375 16.0546875 C19.95173165 18.02216634 19.95173165 18.02216634 22.2890625 19.6328125 C22.85367187 20.08398438 23.41828125 20.53515625 24 21 C24 21.66 24 22.32 24 23 C24.59296875 23.26425781 25.1859375 23.52851563 25.796875 23.80078125 C28.08029054 25.04370425 29.47426723 26.30401646 31.25 28.1875 C33.62823921 30.63598256 36.03799459 32.96071053 38.625 35.1875 C42.28143897 38.34082431 45.83484201 41.59272752 49.375 44.875 C54.04403 49.20206722 58.7454916 53.48801261 63.48828125 57.734375 C65.75945435 59.78302259 68.00926732 61.8530768 70.25439453 63.93017578 C74.97688712 68.29497386 79.77507623 72.53758923 84.6875 76.6875 C91.71978849 82.64047822 98.39152227 88.94946114 105.07421875 95.2890625 C110.20471484 100.15365994 115.42982806 104.90571988 120.77294922 109.53662109 C126.31726217 114.3515969 131.6695902 119.34521728 137 124.39453125 C141.5737082 128.70918175 146.2523637 132.87827756 151 137 C153.09634057 138.84005385 155.17753015 140.69563232 157.25 142.5625 C157.75273438 143.00529297 158.25546875 143.44808594 158.7734375 143.90429688 C163.85885529 148.50380432 167.70164187 153.19593389 168.25 160.1875 C167.67724633 168.92199349 163.85540403 174.55193851 157.375 180.25 C156.67632813 180.848125 155.97765625 181.44625 155.2578125 182.0625 C145.82672046 190.15561704 136.74496832 198.67544589 127.62890625 207.12109375 C122.5239465 211.84937972 117.41163606 216.54900678 112.1484375 221.1015625 C108.68573391 224.16133331 105.30936359 227.3141355 101.92016602 230.45483398 C97.8255749 234.24651647 93.69158422 237.99095463 89.53515625 241.71484375 C86.63086734 244.33273129 83.75229225 246.97753203 80.875 249.625 C77.63788971 252.60224819 74.3886208 255.55953021 71.0625 258.4375 C63.98825161 264.57823933 57.18367318 271.03121427 50.33203125 277.41796875 C39.97938957 287.06320985 39.97938957 287.06320985 36.0625 290.4375 C30.85966758 294.92883397 25.89060073 299.67737692 20.875 304.375 C16.31785886 308.64279885 11.73433466 312.88134256 7.13671875 317.10546875 C4.99880533 319.07128181 2.8791482 321.05464626 0.76953125 323.05078125 C0.24125732 323.54618408 -0.2870166 324.04158691 -0.83129883 324.55200195 C-2.27426043 325.90550587 -3.71156656 327.26503201 -5.1484375 328.625 C-11.17659485 333.64571188 -16.53686998 336.20116293 -24.375 336.3125 C-25.04789063 336.34150391 -25.72078125 336.37050781 -26.4140625 336.40039062 C-29.86297946 336.44452047 -31.61831605 336.31421456 -34.3203125 334.08984375 C-34.87460937 333.40019531 -35.42890625 332.71054687 -36 332 C-36.825 331.4225 -37.65 330.845 -38.5 330.25 C-43.02916294 326.17375336 -45.16394223 321.30238868 -45.51225281 315.22380066 C-45.5382381 313.43868637 -45.54296658 311.65317646 -45.5300293 309.86791992 C-45.53876068 308.88645996 -45.54749207 307.905 -45.55648804 306.89379883 C-45.58074763 303.67249963 -45.57746109 300.45184728 -45.57421875 297.23046875 C-45.58666954 294.98463351 -45.60100532 292.738808 -45.61714172 290.49299622 C-45.65510155 284.59723895 -45.6703452 278.70164957 -45.67993164 272.80578613 C-45.69970693 263.35160524 -45.7564619 253.89755182 -45.80869484 244.44350624 C-45.82405705 241.1402385 -45.831234 237.83703437 -45.83683777 234.53373718 C-45.84385176 232.51752694 -45.8509525 230.501317 -45.8581543 228.48510742 C-45.85762558 227.56403702 -45.85709686 226.64296661 -45.85655212 225.69398499 C-45.86256439 224.43039658 -45.86256439 224.43039658 -45.86869812 223.14128113 C-45.8699554 222.40962832 -45.87121267 221.67797552 -45.87250805 220.92415142 C-45.93321099 218.77900901 -45.93321099 218.77900901 -47 216 C-50.37456218 214.24333313 -53.19134275 213.75125046 -56.9629631 213.75949097 C-57.94271882 213.75674227 -58.92247453 213.75399357 -59.93191981 213.75116158 C-61.00068205 213.7583515 -62.06944429 213.76554142 -63.17059326 213.77294922 C-64.8825683 213.77250264 -64.8825683 213.77250264 -66.62912869 213.77204704 C-70.46213696 213.77343848 -74.29495466 213.78913425 -78.12792969 213.8046875 C-80.87264897 213.80965101 -83.61736822 213.81155671 -86.36209106 213.8135376 C-92.27755897 213.81931045 -98.19297696 213.83218869 -104.10842133 213.84967041 C-112.67094629 213.87478792 -121.23345277 213.8869344 -129.7960085 213.89553714 C-143.70125989 213.90967286 -157.60648804 213.93127565 -171.51171875 213.95898438 C-172.34390258 213.96064 -173.17608642 213.96229562 -174.03348795 213.96400142 C-180.7834501 213.97748666 -187.53341151 213.99133328 -194.28337288 214.00520706 C-200.17784722 214.01730949 -206.07232181 214.02927149 -211.96679688 214.04101562 C-212.79675339 214.04267188 -213.62670991 214.04432813 -214.48181662 214.04603457 C-228.33031356 214.07342594 -242.17881089 214.09293444 -256.02732778 214.10683632 C-264.56566673 214.11578934 -273.10393617 214.13185012 -281.6422427 214.15712595 C-287.49602459 214.17400463 -293.34979052 214.1837652 -299.20359513 214.18797636 C-302.57889805 214.19066075 -305.95404035 214.19775332 -309.32932663 214.21149445 C-312.99343086 214.2259408 -316.65734424 214.22800139 -320.32147217 214.22705078 C-321.38131152 214.2342407 -322.44115087 214.24143063 -323.53310657 214.24883842 C-333.22200553 214.22194262 -341.40220091 213.43671135 -348.62890625 206.41796875 C-357.52986301 196.23012667 -355.28989974 179.83630844 -355.1875 167.125 C-355.17794743 165.29305071 -355.16850806 163.46110083 -355.15917969 161.62915039 C-355.13155797 157.20384168 -355.08635381 152.77897342 -355.02996826 148.35394287 C-355.00294835 146.23158663 -354.97997566 144.10922439 -354.95751953 141.98681641 C-354.91440799 138.80234055 -354.84226011 135.62087954 -354.75 132.4375 C-354.73606201 131.56689941 -354.72212402 130.69629883 -354.70776367 129.79931641 C-354.45633215 123.5940114 -352.91585292 118.08271216 -348.55371094 113.47094727 C-335.97096005 102.57077353 -312.13879904 106.86399157 -296.57226562 106.88647461 C-293.8211718 106.88731651 -291.07007882 106.88664142 -288.31898499 106.8860321 C-282.42553753 106.88551101 -276.53210126 106.88861422 -270.63865662 106.89426994 C-262.11801589 106.90244152 -253.59738049 106.90500593 -245.07673627 106.90625793 C-231.24825732 106.90843962 -217.41978432 106.91507562 -203.59130859 106.92456055 C-190.16845733 106.93375761 -176.74560769 106.94082719 -163.32275391 106.94506836 C-162.49358572 106.94533108 -161.66441753 106.94559381 -160.81012303 106.94586449 C-156.64989731 106.94716965 -152.48967158 106.94843333 -148.32944584 106.94967639 C-113.88629295 106.96002147 -79.44314712 106.97761559 -45 107 C-45.00999275 105.14743591 -45.00999275 105.14743591 -45.02018738 103.25744629 C-45.08106543 91.60477928 -45.12600486 79.95214465 -45.15543652 68.29935455 C-45.1710764 62.30887715 -45.1922843 56.31852838 -45.22631836 50.328125 C-45.25897123 44.54447672 -45.27686564 38.76095199 -45.28463173 32.97721863 C-45.29016456 30.77327022 -45.30096883 28.56932839 -45.31719017 26.36543274 C-45.3390429 23.27277132 -45.3419636 20.18061712 -45.34057617 17.08789062 C-45.35675491 15.72842316 -45.35675491 15.72842316 -45.3732605 14.3414917 C-45.33702363 6.85147703 -43.84884966 0.15054235 -38.6484375 -5.6171875 C-24.28244735 -17.66827876 -11.93488951 -11.74574705 0 0 Z M-16 26 C-16.00364563 27.1974585 -16.00729126 28.39491699 -16.01104736 29.62866211 C-16.04803147 40.92833133 -16.1058418 52.22772889 -16.18390274 63.52719116 C-16.22336669 69.33600982 -16.25556066 75.14467713 -16.27099609 80.95361328 C-16.28616953 86.56238518 -16.320628 92.17074095 -16.36830902 97.77932739 C-16.3831156 99.91623309 -16.3910406 102.0531982 -16.39188385 104.19015503 C-16.39425736 107.18971828 -16.42136893 110.18813513 -16.45410156 113.1875 C-16.4490712 114.06575943 -16.44404083 114.94401886 -16.43885803 115.84889221 C-16.53695692 121.68124928 -17.72856143 126.11659109 -21 131 C-23.25390625 133.05859375 -23.25390625 133.05859375 -25.5625 134.4375 C-26.70912109 135.14712891 -26.70912109 135.14712891 -27.87890625 135.87109375 C-31.34227414 137.71439637 -34.0544345 138.12704561 -37.91379833 138.1386652 C-38.93343959 138.14413964 -39.95308085 138.14961409 -41.00362033 138.15525442 C-42.12714776 138.15623253 -43.25067519 138.15721064 -44.4082489 138.15821838 C-45.59912591 138.16315636 -46.79000292 138.16809434 -48.01696712 138.17318195 C-51.32805621 138.18591139 -54.63910306 138.19418569 -57.95020688 138.20060861 C-61.51870692 138.20860604 -65.08718553 138.22230608 -68.65567017 138.23532104 C-74.84017453 138.25709312 -81.02468105 138.27523494 -87.20920372 138.29092598 C-96.15103549 138.31361795 -105.09284354 138.34176171 -114.03465519 138.37124526 C-128.54140354 138.41892942 -143.04816158 138.46219137 -157.55493164 138.50268555 C-171.64868932 138.54203628 -185.74243838 138.58346149 -199.83618164 138.62768555 C-200.70460918 138.63040982 -201.57303673 138.63313409 -202.46778025 138.63594092 C-206.82433319 138.64962033 -211.180886 138.66334061 -215.53743875 138.67708123 C-251.69160809 138.79105896 -287.84579617 138.89759348 -324 139 C-324 153.52 -324 168.04 -324 183 C-318.69967964 182.99000725 -318.69967964 182.99000725 -313.2922821 182.97981262 C-280.8688511 182.92008155 -248.44542776 182.87531225 -216.02195386 182.84680401 C-211.77008827 182.84305201 -207.51822282 182.83916903 -203.26635742 182.83520508 C-202.41990824 182.83441815 -201.57345906 182.83363122 -200.70135991 182.83282044 C-187.00620145 182.8197761 -173.31108088 182.79612761 -159.61594488 182.76854161 C-145.55740986 182.74046036 -131.49889463 182.72381799 -117.44033271 182.71773452 C-108.76950043 182.71362371 -100.09877524 182.70065265 -91.42797593 182.6762506 C-85.47740361 182.66035982 -79.52688643 182.65560719 -73.57629444 182.65949587 C-70.14608196 182.66141223 -66.71605627 182.65853046 -63.28587723 182.64238358 C-59.55861632 182.62741032 -55.83180987 182.63106453 -52.10453796 182.63923645 C-51.0315499 182.63049793 -49.95856184 182.6217594 -48.85305899 182.61275607 C-39.77903095 182.66635699 -30.04566565 183.79310407 -23 190 C-19.50895794 194.69911384 -16.89641302 199.03486235 -16.84178162 205.0052948 C-16.8319928 205.81717758 -16.82220398 206.62906036 -16.81211853 207.46554565 C-16.80636307 208.35243073 -16.8006076 209.2393158 -16.79467773 210.15307617 C-16.78477814 211.08985703 -16.77487854 212.02663788 -16.76467896 212.99180603 C-16.73305911 216.09216778 -16.70830454 219.19254486 -16.68359375 222.29296875 C-16.66302465 224.44102886 -16.64202819 226.58908492 -16.62062073 228.73713684 C-16.56539557 234.39404013 -16.5159882 240.05097997 -16.46777344 245.70794678 C-16.41756169 251.47915912 -16.36187392 257.2503183 -16.30664062 263.02148438 C-16.1990536 274.34761085 -16.09760979 285.67378346 -16 297 C-13.96166576 295.7260411 -11.96147874 294.38938077 -10 293 C-10 292.34 -10 291.68 -10 291 C-9.40558105 290.72776611 -8.81116211 290.45553223 -8.19873047 290.17504883 C-6.0512731 289.02740145 -4.57600943 287.87005063 -2.8203125 286.19921875 C-2.22806885 285.64049072 -1.6358252 285.0817627 -1.02563477 284.50610352 C-0.39842529 283.90596436 0.22878418 283.3058252 0.875 282.6875 C2.21725824 281.41907008 3.55971081 280.15084579 4.90234375 278.8828125 C5.58280762 278.23731445 6.26327148 277.59181641 6.96435547 276.92675781 C10.10524031 273.95387905 13.26897851 271.00587151 16.4375 268.0625 C17.0243457 267.51698486 17.61119141 266.97146973 18.21582031 266.40942383 C21.7388827 263.14339812 25.30751999 259.94286903 28.9453125 256.8046875 C31.66924703 254.41218226 34.33343269 251.95594058 37 249.5 C40.90976768 245.8998211 44.85866603 242.35582277 48.875 238.875 C52.15508581 235.98080664 55.36268057 233.00781108 58.58032227 230.04467773 C61.33473428 227.51259884 64.10742499 225.00964732 66.9375 222.5625 C71.12109857 218.93787911 75.1643461 215.16614933 79.22241211 211.40258789 C82.11364128 208.72598962 85.01889404 206.07688821 88 203.5 C91.5278977 200.44844292 94.95336929 197.29439668 98.375 194.125 C112.73282607 180.83840798 112.73282607 180.83840798 118.28515625 176.29296875 C118.84001709 175.83809082 119.39487793 175.38321289 119.96655273 174.91455078 C121.54793724 173.62532549 123.13706297 172.34561305 124.7265625 171.06640625 C125.47679687 170.38449219 126.22703125 169.70257813 127 169 C127 168.34 127 167.68 127 167 C127.61875 166.7525 128.2375 166.505 128.875 166.25 C131.37480203 164.77952822 131.83316022 163.58596924 133 161 C132.55269531 160.62488281 132.10539062 160.24976563 131.64453125 159.86328125 C131.03996094 159.35152344 130.43539063 158.83976563 129.8125 158.3125 C129.22082031 157.81363281 128.62914062 157.31476563 128.01953125 156.80078125 C125.58093416 154.6263262 123.30875954 152.31208629 121 150 C118.62163885 147.73120817 116.21834624 145.48958857 113.8125 143.25 C113.15121094 142.63382812 112.48992187 142.01765625 111.80859375 141.3828125 C104.83624166 134.89879635 97.80728271 128.49500521 90.53125 122.3515625 C89.00563545 121.00497415 87.59695405 119.59181556 86.1875 118.125 C84.26919324 115.76773811 84.26919324 115.76773811 82 116 C82 115.34 82 114.68 82 114 C80.55316948 112.49726114 80.55316948 112.49726114 78.625 110.9375 C70.7913286 104.26996182 63.23278856 97.30582614 55.69018555 90.31298828 C52.7086423 87.55513829 49.70109775 84.84033624 46.625 82.1875 C43.51946648 79.50426706 40.63985713 76.65778747 37.76171875 73.734375 C35.35977162 71.36970864 32.81892327 69.18767364 30.26953125 66.984375 C22.63282063 60.30718223 15.2659522 53.32124678 7.875 46.375 C1.15244089 40.06417349 1.15244089 40.06417349 -5.625 33.8125 C-6.33914063 33.15894531 -7.05328125 32.50539063 -7.7890625 31.83203125 C-10.39702073 29.67101992 -13.1733486 27.8623297 -16 26 Z " fill="#090A09" transform="translate(603,341)"/>
<path d="M0 0 C0.66 0.33 1.32 0.66 2 1 C-8.46472407 11.6378537 -8.46472407 11.6378537 -12.75 15.25 C-19.56670437 21.04992704 -25.71600734 27.63623009 -32 34 C-32.66 33.67 -33.32 33.34 -34 33 C-28.52745742 26.87356906 -23.13235934 20.86618782 -16.828125 15.57421875 C-14.95536509 13.96156438 -13.22957423 12.26463317 -11.5 10.5 C-7.85099458 6.78357646 -3.9577764 3.38209983 0 0 Z " fill="#252525" transform="translate(273,211)"/>
<path d="M0 0 C0 3 0 3 -2.125 5.453125 C-3.07501156 6.3938952 -4.03391996 7.32573819 -5 8.25 C-5.49967285 8.73799072 -5.9993457 9.22598145 -6.51416016 9.72875977 C-12.08537847 15.12961261 -17.88414634 20.22198933 -24 25 C-24.66 24.67 -25.32 24.34 -26 24 C-21.77712794 19.65835967 -17.44012915 15.56682823 -12.796875 11.67578125 C-10.92421912 10.02843921 -10.92421912 10.02843921 -9.421875 7.890625 C-7.62522613 5.5016743 -5.57454338 4.48036244 -3 3 C-1.24850835 1.41754725 -1.24850835 1.41754725 0 0 Z " fill="#252524" transform="translate(675,558)"/>
<path d="M0 0 C1.98 0 3.96 0 6 0 C6 0.33 6 0.66 6 1 C13.59 1.33 21.18 1.66 29 2 C29 2.33 29 2.66 29 3 C13.655 3.495 13.655 3.495 -2 4 C-1.34 2.68 -0.68 1.36 0 0 Z " fill="#323131" transform="translate(476,152)"/>
<path d="M0 0 C0.66 0.33 1.32 0.66 2 1 C0.25311063 2.77399627 -1.49733451 4.54422553 -3.25 6.3125 C-3.74113281 6.81201172 -4.23226563 7.31152344 -4.73828125 7.82617188 C-7.35140196 10.45671339 -9.95657911 12.87685162 -13 15 C-13.66 14.67 -14.32 14.34 -15 14 C-10.20922972 9.0744893 -5.22325977 4.46351289 0 0 Z " fill="#303030" transform="translate(273,211)"/>
<path d="M0 0 C0.66 0 1.32 0 2 0 C4.21538462 7.38461538 4.21538462 7.38461538 3.125 10.5 C2.75375 10.995 2.3825 11.49 2 12 C-0.29632557 7.56043724 -1.20238143 4.94312365 0 0 Z " fill="#1F1F1F" transform="translate(835,382)"/>
<path d="M0 0 C0.33 0.99 0.66 1.98 1 3 C-1.64 5.64 -4.28 8.28 -7 11 C-7.66 10.67 -8.32 10.34 -9 10 C-8.34 9.01 -7.68 8.02 -7 7 C-6.34 7 -5.68 7 -5 7 C-4.731875 6.401875 -4.46375 5.80375 -4.1875 5.1875 C-3.01506533 3.02775192 -1.80630718 1.64209744 0 0 Z " fill="#242424" transform="translate(238,245)"/>
<path d="M0 0 C0.99 0.33 1.98 0.66 3 1 C-1.455 4.465 -1.455 4.465 -6 8 C-6.66 7.34 -7.32 6.68 -8 6 C-6.7391988 4.96680187 -5.46596742 3.94875621 -4.1875 2.9375 C-3.47980469 2.36902344 -2.77210938 1.80054688 -2.04296875 1.21484375 C-1.36878906 0.81394531 -0.69460938 0.41304687 0 0 Z " fill="#242423" transform="translate(309,184)"/>
<path d="M0 0 C0 0.33 0 0.66 0 1 C-1.58086048 1.36504603 -3.16483907 1.71660506 -4.75 2.0625 C-5.63171875 2.25972656 -6.5134375 2.45695313 -7.421875 2.66015625 C-9.98679028 2.99825872 -11.57091639 2.81158635 -14 2 C-9.32380218 -1.77112727 -5.55498905 -1.00449693 0 0 Z " fill="#2D2C2C" transform="translate(592,868)"/>
<path d="M0 0 C0.33 0.99 0.66 1.98 1 3 C-1.31 5.31 -3.62 7.62 -6 10 C-6 6.80366562 -5.66189865 5.65903784 -4 3 C-1.875 1.25 -1.875 1.25 0 0 Z " fill="#313131" transform="translate(228,256)"/>
<path d="M0 0 C-2.90092502 1.93395001 -3.89674737 2.30131941 -7.1875 2.625 C-8.445625 2.74875 -9.70375 2.8725 -11 3 C-10.01 2.67 -9.02 2.34 -8 2 C-8 1.34 -8 0.68 -8 0 C-5.13822943 -1.43088528 -3.06624227 -0.59991697 0 0 Z " fill="#292827" transform="translate(603,865)"/>
<path d="M0 0 C0.99 0.33 1.98 0.66 3 1 C-1.39453125 5.00390625 -1.39453125 5.00390625 -3 6 C-3.99 5.67 -4.98 5.34 -6 5 C-1.60546875 0.99609375 -1.60546875 0.99609375 0 0 Z " fill="#262625" transform="translate(296,193)"/>
<path d="M0 0 C0.66 0.99 1.32 1.98 2 3 C0.625 5.5 0.625 5.5 -1 8 C-1.66 8 -2.32 8 -3 8 C-1.125 2.25 -1.125 2.25 0 0 Z " fill="#2B2B2A" transform="translate(181,325)"/>
<path d="M0 0 C0.33 0.99 0.66 1.98 1 3 C-1.31 4.98 -3.62 6.96 -6 9 C-4.25618453 5.51236907 -2.47193291 2.96631949 0 0 Z " fill="#2B2B2B" transform="translate(220,266)"/>
<path d="M0 0 C-1 3 -1 3 -2.9375 4.125 C-3.618125 4.41375 -4.29875 4.7025 -5 5 C-5.99 5.495 -5.99 5.495 -7 6 C-7.66 5.34 -8.32 4.68 -9 4 C-2.25 0 -2.25 0 0 0 Z " fill="#2E2E2E" transform="translate(336,169)"/>
<path d="M0 0 C0.33 0.66 0.66 1.32 1 2 C1.66 2.33 2.32 2.66 3 3 C2.34 3 1.68 3 1 3 C0.67 3.99 0.34 4.98 0 6 C0 4.02 0 2.04 0 0 Z " fill="#292929" transform="translate(588,630)"/>
<path d="M0 0 C0.99 0.495 0.99 0.495 2 1 C2.625 3.5625 2.625 3.5625 3 6 C2.34 5.67 1.68 5.34 1 5 C0.375 2.4375 0.375 2.4375 0 0 Z " fill="#2E2D2D" transform="translate(840,410)"/>
<path d="M0 0 C0.99 0.33 1.98 0.66 3 1 C1.35 1.33 -0.3 1.66 -2 2 C-1.34 1.34 -0.68 0.68 0 0 Z " fill="#333131" transform="translate(524,878)"/>
<path d="M0 0 C0.99 0.33 1.98 0.66 3 1 C2.67 1.66 2.34 2.32 2 3 C1.34 2.67 0.68 2.34 0 2 C0 1.34 0 0.68 0 0 Z " fill="#2C2D2A" transform="translate(666,560)"/>
<path d="M0 0 C1.485 0.99 1.485 0.99 3 2 C2.01 2 1.02 2 0 2 C0 1.34 0 0.68 0 0 Z " fill="#31312F" transform="translate(656,810)"/>
<path d="M0 0 C1.32 0.33 2.64 0.66 4 1 C3.01 1.495 3.01 1.495 2 2 C1.34 1.34 0.68 0.68 0 0 Z " fill="#2B2929" transform="translate(632,592)"/>
<path d="M0 0 C0.33 0 0.66 0 1 0 C1 1.65 1 3.3 1 5 C0.67 5 0.34 5 0 5 C0 3.35 0 1.7 0 0 Z " fill="#323130" transform="translate(138,480)"/>
<path d="M0 0 C4 1 4 1 4 1 Z " fill="#333231" transform="translate(432,870)"/>
<path d="M0 0 C0.99 0.33 1.98 0.66 3 1 C2.01 1 1.02 1 0 1 C0 0.67 0 0.34 0 0 Z " fill="#2B2B29" transform="translate(648,579)"/>
<path d="M0 0 C0.66 0.66 1.32 1.32 2 2 C1.01 1.67 0.02 1.34 -1 1 C-0.67 0.67 -0.34 0.34 0 0 Z " fill="#2A2B2A" transform="translate(660,568)"/>
<path d="M0 0 C0.99 1.485 0.99 1.485 2 3 C1.34 3 0.68 3 0 3 C0 2.01 0 1.02 0 0 Z " fill="#2C2B2B" transform="translate(664,561)"/>
<path d="M0 0 C0 3 0 3 0 3 Z " fill="#282726" transform="translate(713,521)"/>
<path d="M0 0 C1 4 1 4 1 4 Z " fill="#292A2A" transform="translate(556,417)"/>
<path d="M0 0 C0.99 0.495 0.99 0.495 2 1 C1.01 1.495 1.01 1.495 0 2 C0 1.34 0 0.68 0 0 Z " fill="#363634" transform="translate(485,878)"/>
<path d="M0 0 C0.99 0.495 0.99 0.495 2 1 C1.01 1.495 1.01 1.495 0 2 C0 1.34 0 0.68 0 0 Z " fill="#323231" transform="translate(621,862)"/>
<path d="M0 0 C0.66 0 1.32 0 2 0 C1.67 0.66 1.34 1.32 1 2 C0.67 1.34 0.34 0.68 0 0 Z " fill="#31302F" transform="translate(378,853)"/>
<path d="M0 0 C3 1 3 1 3 1 Z " fill="#2F2E2E" transform="translate(603,832)"/>
<path d="M0 0 C3 1 3 1 3 1 Z " fill="#30302E" transform="translate(640,819)"/>
<path d="M0 0 C3 1 3 1 3 1 Z " fill="#30302E" transform="translate(663,808)"/>
<path d="M0 0 C0.99 0.495 0.99 0.495 2 1 C1.01 1.495 1.01 1.495 0 2 C0 1.34 0 0.68 0 0 Z " fill="#323230" transform="translate(660,808)"/>
<path d="M0 0 C3 1 3 1 3 1 Z " fill="#2F2F2E" transform="translate(677,800)"/>
<path d="M0 0 C3 1 3 1 3 1 Z " fill="#302F2E" transform="translate(169,655)"/>
<path d="" fill="#2F2E2E" transform="translate(0,0)"/>
<path d="" fill="#2C2C2A" transform="translate(0,0)"/>
<path d="" fill="#2C2B2B" transform="translate(0,0)"/>
<path d="M0 0 C0.99 0.495 0.99 0.495 2 1 C1.01 1.495 1.01 1.495 0 2 C0 1.34 0 0.68 0 0 Z " fill="#31302F" transform="translate(849,540)"/>
<path d="" fill="#30302E" transform="translate(0,0)"/>
<path d="" fill="#302F30" transform="translate(0,0)"/>
<path d="" fill="#343333" transform="translate(0,0)"/>
<path d="M0 0 C0.33 0.66 0.66 1.32 1 2 C0.34 1.67 -0.32 1.34 -1 1 C-0.67 0.67 -0.34 0.34 0 0 Z " fill="#2D2C2A" transform="translate(705,476)"/>
<path d="" fill="#343432" transform="translate(0,0)"/>
<path d="" fill="#2C2B2B" transform="translate(0,0)"/>
<path d="M0 0 C0.66 0.66 1.32 1.32 2 2 C1.34 2 0.68 2 0 2 C0 1.34 0 0.68 0 0 Z " fill="#2C2C2A" transform="translate(636,413)"/>
<path d="M0 0 C0.66 0.66 1.32 1.32 2 2 C1.34 2 0.68 2 0 2 C0 1.34 0 0.68 0 0 Z " fill="#292928" transform="translate(620,398)"/>
<path d="" fill="#292928" transform="translate(0,0)"/>
<path d="" fill="#2C2B29" transform="translate(0,0)"/>
<path d="M0 0 C0.99 0.495 0.99 0.495 2 1 C1.01 1.495 1.01 1.495 0 2 C0 1.34 0 0.68 0 0 Z " fill="#2D2C2C" transform="translate(240,240)"/>
<path d="M0 0 C0.66 0 1.32 0 2 0 C1.67 0.66 1.34 1.32 1 2 C0.67 1.34 0.34 0.68 0 0 Z " fill="#2D2C2C" transform="translate(699,213)"/>
<path d="M0 0 C0.66 0 1.32 0 2 0 C1.67 0.66 1.34 1.32 1 2 C0.67 1.34 0.34 0.68 0 0 Z " fill="#2E2D2B" transform="translate(688,206)"/>
<path d="M0 0 C0.99 0.495 0.99 0.495 2 1 C1.01 1.495 1.01 1.495 0 2 C0 1.34 0 0.68 0 0 Z " fill="#313031" transform="translate(305,184)"/>
<path d="M0 0 C0.66 0 1.32 0 2 0 C1.67 0.66 1.34 1.32 1 2 C0.67 1.34 0.34 0.68 0 0 Z " fill="#353433" transform="translate(316,176)"/>
<path d="M0 0 C3 1 3 1 3 1 Z " fill="#333331" transform="translate(524,156)"/>
<path d="M0 0 C3 1 3 1 3 1 Z " fill="#302F2E" transform="translate(635,144)"/>
<path d="M0 0 C3 1 3 1 3 1 Z " fill="#2F2E2D" transform="translate(609,136)"/>
<path d="M0 0 C3 1 3 1 3 1 Z " fill="#30302F" transform="translate(573,128)"/>
<path d="M0 0 C2 1 2 1 2 1 Z " fill="#313130" transform="translate(550,876)"/>
<path d="M0 0 C2 1 2 1 2 1 Z " fill="#323030" transform="translate(436,871)"/>
<path d="M0 0 C2 1 2 1 2 1 Z " fill="#30302F" transform="translate(557,842)"/>
<path d="M0 0 C2 1 2 1 2 1 Z " fill="#2D2D2A" transform="translate(564,841)"/>
<path d="M0 0 C2 1 2 1 2 1 Z " fill="#333130" transform="translate(568,840)"/>
<path d="" fill="#302E2C" transform="translate(0,0)"/>
<path d="M0 0 C2 1 2 1 2 1 Z " fill="#32312F" transform="translate(708,823)"/>
<path d="" fill="#323230" transform="translate(0,0)"/>
<path d="M0 0 C2 1 2 1 2 1 Z " fill="#2F2E2C" transform="translate(376,817)"/>
<path d="" fill="#32322F" transform="translate(0,0)"/>
<path d="M0 0 C2 1 2 1 2 1 Z " fill="#2E2D2B" transform="translate(704,784)"/>
<path d="M0 0 C2 1 2 1 2 1 Z " fill="#2F2E2D" transform="translate(720,771)"/>
<path d="" fill="#30302E" transform="translate(0,0)"/>
<path d="M0 0 C2 1 2 1 2 1 Z " fill="#302F2D" transform="translate(176,669)"/>
<path d="" fill="#2E2E2E" transform="translate(0,0)"/>
<path d="" fill="#2B2C2B" transform="translate(0,0)"/>
<path d="" fill="#2B2A2C" transform="translate(0,0)"/>
<path d="" fill="#2F2D2E" transform="translate(0,0)"/>
<path d="" fill="#292829" transform="translate(0,0)"/>
<path d="" fill="#323332" transform="translate(0,0)"/>
<path d="" fill="#2B2C2B" transform="translate(0,0)"/>
<path d="" fill="#2B2C2B" transform="translate(0,0)"/>
<path d="" fill="#2E2D2A" transform="translate(0,0)"/>
<path d="" fill="#2E2E2F" transform="translate(0,0)"/>
<path d="" fill="#333231" transform="translate(0,0)"/>
<path d="" fill="#302F2F" transform="translate(0,0)"/>
<path d="" fill="#353433" transform="translate(0,0)"/>
<path d="" fill="#2F2E2D" transform="translate(0,0)"/>
<path d="M0 0 C2 1 2 1 2 1 Z " fill="#353534" transform="translate(579,528)"/>
<path d="M0 0 C2 1 2 1 2 1 Z " fill="#383737" transform="translate(431,522)"/>
<path d="M0 0 C2 1 2 1 2 1 Z " fill="#292727" transform="translate(714,520)"/>
<path d="M0 0 C2 1 2 1 2 1 Z " fill="#292829" transform="translate(722,512)"/>
<path d="M0 0 C2 1 2 1 2 1 Z " fill="#292927" transform="translate(731,504)"/>
<path d="" fill="#2C2C2C" transform="translate(0,0)"/>
<path d="" fill="#2D2B2A" transform="translate(0,0)"/>
<path d="" fill="#302E2D" transform="translate(0,0)"/>
<path d="" fill="#2F2E2D" transform="translate(0,0)"/>
<path d="" fill="#2F2D2E" transform="translate(0,0)"/>
<path d="" fill="#272929" transform="translate(0,0)"/>
<path d="" fill="#2D2E2D" transform="translate(0,0)"/>
<path d="" fill="#29292A" transform="translate(0,0)"/>
<path d="" fill="#272A28" transform="translate(0,0)"/>
<path d="" fill="#2F2E2D" transform="translate(0,0)"/>
<path d="" fill="#272727" transform="translate(0,0)"/>
<path d="" fill="#2B2C2C" transform="translate(0,0)"/>
<path d="" fill="#302F2F" transform="translate(0,0)"/>
<path d="" fill="#2F2E2E" transform="translate(0,0)"/>
<path d="" fill="#302D2C" transform="translate(0,0)"/>
<path d="" fill="#2F2D2E" transform="translate(0,0)"/>
<path d="M0 0 C2 1 2 1 2 1 Z " fill="#323130" transform="translate(590,328)"/>
<path d="M0 0 C2 1 2 1 2 1 Z " fill="#323433" transform="translate(574,328)"/>
<path d="M0 0 C2 1 2 1 2 1 Z " fill="#2D2D2C" transform="translate(789,303)"/>
<path d="" fill="#322F30" transform="translate(0,0)"/>
<path d="M0 0 C2 1 2 1 2 1 Z " fill="#2E2E2D" transform="translate(713,223)"/>
<path d="M0 0 C2 1 2 1 2 1 Z " fill="#2F2F2C" transform="translate(591,165)"/>
<path d="M0 0 C2 1 2 1 2 1 Z " fill="#302F2F" transform="translate(673,160)"/>
<path d="M0 0 C2 1 2 1 2 1 Z " fill="#31302F" transform="translate(552,158)"/>
<path d="M0 0 C2 1 2 1 2 1 Z " fill="#32312E" transform="translate(480,157)"/>
<path d="M0 0 C2 1 2 1 2 1 Z " fill="#353333" transform="translate(521,156)"/>
<path d="M0 0 C2 1 2 1 2 1 Z " fill="#323230" transform="translate(492,156)"/>
<path d="M0 0 C2 1 2 1 2 1 Z " fill="#333231" transform="translate(489,156)"/>
<path d="M0 0 C2 1 2 1 2 1 Z " fill="#343332" transform="translate(641,146)"/>
<path d="M0 0 C2 1 2 1 2 1 Z " fill="#353434" transform="translate(591,131)"/>
<path d="M0 0 C2 1 2 1 2 1 Z " fill="#323230" transform="translate(585,130)"/>
<path d="M0 0 C2 1 2 1 2 1 Z " fill="#313231" transform="translate(581,129)"/>
<path d="" fill="#363533" transform="translate(0,0)"/>
<path d="M0 0 C2 1 2 1 2 1 Z " fill="#363634" transform="translate(590,128)"/>
<path d="M0 0 C2 1 2 1 2 1 Z " fill="#373735" transform="translate(475,124)"/>
<path d="" fill="#5E5E5E" transform="translate(0,0)"/>
<path d="" fill="#343232" transform="translate(0,0)"/>
<path d="" fill="#323131" transform="translate(0,0)"/>
<path d="" fill="#323231" transform="translate(0,0)"/>
<path d="" fill="#333232" transform="translate(0,0)"/>
<path d="" fill="#363432" transform="translate(0,0)"/>
<path d="" fill="#363332" transform="translate(0,0)"/>
<path d="" fill="#363534" transform="translate(0,0)"/>
<path d="" fill="#333230" transform="translate(0,0)"/>
<path d="" fill="#343432" transform="translate(0,0)"/>
<path d="" fill="#312E30" transform="translate(0,0)"/>
<path d="" fill="#343534" transform="translate(0,0)"/>
<path d="" fill="#323132" transform="translate(0,0)"/>
<path d="" fill="#333333" transform="translate(0,0)"/>
<path d="" fill="#353435" transform="translate(0,0)"/>
<path d="" fill="#31302E" transform="translate(0,0)"/>
<path d="" fill="#343234" transform="translate(0,0)"/>
<path d="" fill="#333432" transform="translate(0,0)"/>
<path d="" fill="#373836" transform="translate(0,0)"/>
<path d="" fill="#343232" transform="translate(0,0)"/>
<path d="" fill="#312F2F" transform="translate(0,0)"/>
<path d="" fill="#343532" transform="translate(0,0)"/>
<path d="" fill="#313132" transform="translate(0,0)"/>
<path d="" fill="#332E30" transform="translate(0,0)"/>
<path d="" fill="#343330" transform="translate(0,0)"/>
<path d="" fill="#333331" transform="translate(0,0)"/>
<path d="" fill="#363433" transform="translate(0,0)"/>
<path d="" fill="#312F31" transform="translate(0,0)"/>
<path d="" fill="#30302E" transform="translate(0,0)"/>
<path d="" fill="#2F2F2E" transform="translate(0,0)"/>
<path d="" fill="#312F2C" transform="translate(0,0)"/>
<path d="" fill="#323131" transform="translate(0,0)"/>
<path d="" fill="#2F2D2F" transform="translate(0,0)"/>
<path d="" fill="#323232" transform="translate(0,0)"/>
<path d="" fill="#313231" transform="translate(0,0)"/>
<path d="" fill="#343132" transform="translate(0,0)"/>
<path d="" fill="#31312F" transform="translate(0,0)"/>
<path d="" fill="#2F302F" transform="translate(0,0)"/>
<path d="" fill="#323230" transform="translate(0,0)"/>
<path d="" fill="#313230" transform="translate(0,0)"/>
<path d="" fill="#31322F" transform="translate(0,0)"/>
<path d="" fill="#32322F" transform="translate(0,0)"/>
<path d="" fill="#323030" transform="translate(0,0)"/>
<path d="" fill="#2F2F2F" transform="translate(0,0)"/>
<path d="" fill="#303230" transform="translate(0,0)"/>
<path d="" fill="#31302F" transform="translate(0,0)"/>
<path d="" fill="#343331" transform="translate(0,0)"/>
<path d="" fill="#31302F" transform="translate(0,0)"/>
<path d="" fill="#31312F" transform="translate(0,0)"/>
<path d="" fill="#2E2E2C" transform="translate(0,0)"/>
<path d="" fill="#2F302E" transform="translate(0,0)"/>
<path d="" fill="#2D2A2A" transform="translate(0,0)"/>
<path d="" fill="#31312F" transform="translate(0,0)"/>
<path d="" fill="#2E2E2A" transform="translate(0,0)"/>
<path d="" fill="#313130" transform="translate(0,0)"/>
<path d="" fill="#30302D" transform="translate(0,0)"/>
<path d="" fill="#313131" transform="translate(0,0)"/>
<path d="" fill="#323232" transform="translate(0,0)"/>
<path d="" fill="#30312E" transform="translate(0,0)"/>
<path d="" fill="#2C2D2F" transform="translate(0,0)"/>
<path d="" fill="#2F2F30" transform="translate(0,0)"/>
<path d="" fill="#2E2D2C" transform="translate(0,0)"/>
<path d="" fill="#2F2E2D" transform="translate(0,0)"/>
<path d="" fill="#302F2E" transform="translate(0,0)"/>
<path d="" fill="#32312F" transform="translate(0,0)"/>
<path d="" fill="#32312F" transform="translate(0,0)"/>
<path d="" fill="#32302F" transform="translate(0,0)"/>
<path d="" fill="#2D2D2E" transform="translate(0,0)"/>
<path d="" fill="#2C2C2D" transform="translate(0,0)"/>
<path d="" fill="#302F2F" transform="translate(0,0)"/>
<path d="" fill="#31322F" transform="translate(0,0)"/>
<path d="" fill="#30302D" transform="translate(0,0)"/>
<path d="" fill="#2B2B2D" transform="translate(0,0)"/>
<path d="" fill="#32302F" transform="translate(0,0)"/>
<path d="" fill="#31322F" transform="translate(0,0)"/>
<path d="" fill="#2E2D2D" transform="translate(0,0)"/>
<path d="" fill="#2C2A27" transform="translate(0,0)"/>
<path d="" fill="#2E2E2D" transform="translate(0,0)"/>
<path d="" fill="#323230" transform="translate(0,0)"/>
<path d="" fill="#333332" transform="translate(0,0)"/>
<path d="" fill="#2C2B2A" transform="translate(0,0)"/>
<path d="" fill="#2F2E2C" transform="translate(0,0)"/>
<path d="" fill="#2F2D2E" transform="translate(0,0)"/>
<path d="" fill="#333331" transform="translate(0,0)"/>
<path d="" fill="#333232" transform="translate(0,0)"/>
<path d="" fill="#2A2B2B" transform="translate(0,0)"/>
<path d="" fill="#302E2D" transform="translate(0,0)"/>
<path d="" fill="#2A292A" transform="translate(0,0)"/>
<path d="" fill="#302E2E" transform="translate(0,0)"/>
<path d="" fill="#2E2F2F" transform="translate(0,0)"/>
<path d="" fill="#323132" transform="translate(0,0)"/>
<path d="" fill="#2E2D2E" transform="translate(0,0)"/>
<path d="" fill="#322F30" transform="translate(0,0)"/>
<path d="" fill="#343332" transform="translate(0,0)"/>
<path d="" fill="#2F2E2D" transform="translate(0,0)"/>
<path d="" fill="#323130" transform="translate(0,0)"/>
<path d="" fill="#2B2A2A" transform="translate(0,0)"/>
<path d="" fill="#323131" transform="translate(0,0)"/>
<path d="" fill="#323131" transform="translate(0,0)"/>
<path d="" fill="#2F2E2C" transform="translate(0,0)"/>
<path d="" fill="#2C2C2B" transform="translate(0,0)"/>
<path d="" fill="#2E2D2C" transform="translate(0,0)"/>
<path d="" fill="#303130" transform="translate(0,0)"/>
<path d="" fill="#2E2F2C" transform="translate(0,0)"/>
<path d="" fill="#2D2E2D" transform="translate(0,0)"/>
<path d="" fill="#30312D" transform="translate(0,0)"/>
<path d="" fill="#2F2E2E" transform="translate(0,0)"/>
<path d="" fill="#2F2F2C" transform="translate(0,0)"/>
<path d="" fill="#32302D" transform="translate(0,0)"/>
<path d="" fill="#2F2D2E" transform="translate(0,0)"/>
<path d="" fill="#2D2F2C" transform="translate(0,0)"/>
<path d="" fill="#303232" transform="translate(0,0)"/>
<path d="" fill="#302F2E" transform="translate(0,0)"/>
<path d="" fill="#2A2A28" transform="translate(0,0)"/>
<path d="" fill="#2F2D2D" transform="translate(0,0)"/>
<path d="" fill="#323131" transform="translate(0,0)"/>
<path d="" fill="#31332F" transform="translate(0,0)"/>
<path d="" fill="#2E302B" transform="translate(0,0)"/>
<path d="" fill="#2E2D2D" transform="translate(0,0)"/>
<path d="" fill="#303130" transform="translate(0,0)"/>
<path d="" fill="#303130" transform="translate(0,0)"/>
<path d="" fill="#2F2C2A" transform="translate(0,0)"/>
<path d="" fill="#2F2D2E" transform="translate(0,0)"/>
<path d="" fill="#30302E" transform="translate(0,0)"/>
<path d="" fill="#2A2B29" transform="translate(0,0)"/>
<path d="" fill="#323331" transform="translate(0,0)"/>
<path d="" fill="#373634" transform="translate(0,0)"/>
<path d="" fill="#32302F" transform="translate(0,0)"/>
<path d="" fill="#353433" transform="translate(0,0)"/>
<path d="" fill="#373537" transform="translate(0,0)"/>
<path d="" fill="#313030" transform="translate(0,0)"/>
<path d="" fill="#373634" transform="translate(0,0)"/>
<path d="" fill="#353332" transform="translate(0,0)"/>
<path d="" fill="#2F302E" transform="translate(0,0)"/>
<path d="" fill="#333333" transform="translate(0,0)"/>
<path d="" fill="#2E2C2D" transform="translate(0,0)"/>
<path d="" fill="#2F2F2E" transform="translate(0,0)"/>
<path d="" fill="#313130" transform="translate(0,0)"/>
<path d="" fill="#323132" transform="translate(0,0)"/>
<path d="" fill="#302E2E" transform="translate(0,0)"/>
<path d="" fill="#32312F" transform="translate(0,0)"/>
<path d="" fill="#2D2C2D" transform="translate(0,0)"/>
<path d="" fill="#312E2F" transform="translate(0,0)"/>
<path d="" fill="#2C2D2C" transform="translate(0,0)"/>
<path d="" fill="#302E2C" transform="translate(0,0)"/>
<path d="" fill="#302E2E" transform="translate(0,0)"/>
<path d="" fill="#2F2E2D" transform="translate(0,0)"/>
<path d="" fill="#2F2F2F" transform="translate(0,0)"/>
<path d="" fill="#2B2C2A" transform="translate(0,0)"/>
<path d="" fill="#2F2E2C" transform="translate(0,0)"/>
<path d="" fill="#322F30" transform="translate(0,0)"/>
<path d="" fill="#322E2F" transform="translate(0,0)"/>
<path d="" fill="#323030" transform="translate(0,0)"/>
<path d="" fill="#313030" transform="translate(0,0)"/>
<path d="" fill="#2B2D28" transform="translate(0,0)"/>
<path d="" fill="#2B2C2B" transform="translate(0,0)"/>
<path d="" fill="#2A2929" transform="translate(0,0)"/>
<path d="" fill="#2A2A2A" transform="translate(0,0)"/>
<path d="" fill="#31312F" transform="translate(0,0)"/>
<path d="" fill="#2F2E2B" transform="translate(0,0)"/>
<path d="" fill="#2B2928" transform="translate(0,0)"/>
<path d="" fill="#333232" transform="translate(0,0)"/>
<path d="" fill="#262425" transform="translate(0,0)"/>
<path d="" fill="#2E2F2E" transform="translate(0,0)"/>
<path d="" fill="#2B2928" transform="translate(0,0)"/>
<path d="" fill="#31302E" transform="translate(0,0)"/>
<path d="" fill="#2D2D2C" transform="translate(0,0)"/>
<path d="" fill="#2B2C29" transform="translate(0,0)"/>
<path d="" fill="#292C28" transform="translate(0,0)"/>
<path d="" fill="#2B2929" transform="translate(0,0)"/>
<path d="" fill="#2B2B29" transform="translate(0,0)"/>
<path d="" fill="#2A2927" transform="translate(0,0)"/>
<path d="" fill="#323130" transform="translate(0,0)"/>
<path d="" fill="#2C2B2A" transform="translate(0,0)"/>
<path d="" fill="#323130" transform="translate(0,0)"/>
<path d="" fill="#2A2C2B" transform="translate(0,0)"/>
<path d="" fill="#2D2F2D" transform="translate(0,0)"/>
<path d="" fill="#2B2C2B" transform="translate(0,0)"/>
<path d="" fill="#2A2A2A" transform="translate(0,0)"/>
<path d="" fill="#332F30" transform="translate(0,0)"/>
<path d="" fill="#302E2F" transform="translate(0,0)"/>
<path d="" fill="#2A2B2B" transform="translate(0,0)"/>
<path d="" fill="#303030" transform="translate(0,0)"/>
<path d="" fill="#2F2D2B" transform="translate(0,0)"/>
<path d="" fill="#313230" transform="translate(0,0)"/>
<path d="" fill="#2E2D2E" transform="translate(0,0)"/>
<path d="" fill="#2A2A2A" transform="translate(0,0)"/>
<path d="" fill="#2B2927" transform="translate(0,0)"/>
<path d="" fill="#272826" transform="translate(0,0)"/>
<path d="" fill="#2B2C28" transform="translate(0,0)"/>
<path d="" fill="#2F2D2D" transform="translate(0,0)"/>
<path d="" fill="#2C2B2B" transform="translate(0,0)"/>
<path d="" fill="#2D2B2D" transform="translate(0,0)"/>
<path d="" fill="#2B2A2A" transform="translate(0,0)"/>
<path d="" fill="#323332" transform="translate(0,0)"/>
<path d="" fill="#333333" transform="translate(0,0)"/>
<path d="" fill="#343434" transform="translate(0,0)"/>
<path d="" fill="#343332" transform="translate(0,0)"/>
<path d="" fill="#313130" transform="translate(0,0)"/>
<path d="" fill="#333333" transform="translate(0,0)"/>
<path d="" fill="#323331" transform="translate(0,0)"/>
<path d="" fill="#313130" transform="translate(0,0)"/>
<path d="" fill="#323432" transform="translate(0,0)"/>
<path d="" fill="#2D2C2D" transform="translate(0,0)"/>
<path d="" fill="#323132" transform="translate(0,0)"/>
<path d="" fill="#313130" transform="translate(0,0)"/>
<path d="" fill="#323131" transform="translate(0,0)"/>
<path d="" fill="#303330" transform="translate(0,0)"/>
<path d="" fill="#313130" transform="translate(0,0)"/>
<path d="" fill="#343133" transform="translate(0,0)"/>
<path d="" fill="#323433" transform="translate(0,0)"/>
<path d="" fill="#343333" transform="translate(0,0)"/>
<path d="" fill="#313032" transform="translate(0,0)"/>
<path d="" fill="#2F2F2D" transform="translate(0,0)"/>
<path d="" fill="#323231" transform="translate(0,0)"/>
<path d="" fill="#2C2A29" transform="translate(0,0)"/>
<path d="" fill="#2D2C2C" transform="translate(0,0)"/>
<path d="" fill="#32302F" transform="translate(0,0)"/>
<path d="" fill="#313330" transform="translate(0,0)"/>
<path d="" fill="#2E2E2B" transform="translate(0,0)"/>
<path d="" fill="#333332" transform="translate(0,0)"/>
<path d="" fill="#343434" transform="translate(0,0)"/>
<path d="" fill="#2F2D2C" transform="translate(0,0)"/>
<path d="" fill="#2D2B2C" transform="translate(0,0)"/>
<path d="" fill="#353433" transform="translate(0,0)"/>
<path d="" fill="#2F2D2E" transform="translate(0,0)"/>
<path d="" fill="#343232" transform="translate(0,0)"/>
<path d="" fill="#363534" transform="translate(0,0)"/>
<path d="" fill="#32312F" transform="translate(0,0)"/>
<path d="" fill="#282629" transform="translate(0,0)"/>
<path d="" fill="#2E2E2D" transform="translate(0,0)"/>
<path d="" fill="#2F302F" transform="translate(0,0)"/>
<path d="" fill="#313130" transform="translate(0,0)"/>
<path d="" fill="#373537" transform="translate(0,0)"/>
<path d="" fill="#3A3937" transform="translate(0,0)"/>
<path d="" fill="#393837" transform="translate(0,0)"/>
<path d="" fill="#3A3737" transform="translate(0,0)"/>
<path d="" fill="#393837" transform="translate(0,0)"/>
<path d="" fill="#373837" transform="translate(0,0)"/>
<path d="" fill="#393736" transform="translate(0,0)"/>
<path d="" fill="#393636" transform="translate(0,0)"/>
<path d="" fill="#3B3737" transform="translate(0,0)"/>
<path d="" fill="#383736" transform="translate(0,0)"/>
<path d="" fill="#373736" transform="translate(0,0)"/>
<path d="" fill="#383538" transform="translate(0,0)"/>
<path d="" fill="#353836" transform="translate(0,0)"/>
<path d="" fill="#373838" transform="translate(0,0)"/>
<path d="" fill="#292A27" transform="translate(0,0)"/>
<path d="" fill="#313130" transform="translate(0,0)"/>
<path d="" fill="#2C2A29" transform="translate(0,0)"/>
<path d="" fill="#2A2927" transform="translate(0,0)"/>
<path d="" fill="#373634" transform="translate(0,0)"/>
<path d="" fill="#2B2B2A" transform="translate(0,0)"/>
<path d="" fill="#2B2929" transform="translate(0,0)"/>
<path d="" fill="#2D2D2C" transform="translate(0,0)"/>
<path d="" fill="#282626" transform="translate(0,0)"/>
<path d="" fill="#2F2E2D" transform="translate(0,0)"/>
<path d="" fill="#2D2C2A" transform="translate(0,0)"/>
<path d="" fill="#2B2C29" transform="translate(0,0)"/>
<path d="" fill="#2E2C2C" transform="translate(0,0)"/>
<path d="" fill="#2E2E2D" transform="translate(0,0)"/>
<path d="" fill="#2F2F2F" transform="translate(0,0)"/>
<path d="" fill="#2F2E2F" transform="translate(0,0)"/>
<path d="" fill="#2C2B2B" transform="translate(0,0)"/>
<path d="" fill="#313130" transform="translate(0,0)"/>
<path d="" fill="#2C2B2C" transform="translate(0,0)"/>
<path d="" fill="#2B2B2B" transform="translate(0,0)"/>
<path d="" fill="#353534" transform="translate(0,0)"/>
<path d="" fill="#353434" transform="translate(0,0)"/>
<path d="" fill="#2A2928" transform="translate(0,0)"/>
<path d="" fill="#282624" transform="translate(0,0)"/>
<path d="" fill="#2A2C2B" transform="translate(0,0)"/>
<path d="" fill="#2D2B2B" transform="translate(0,0)"/>
<path d="" fill="#292B2A" transform="translate(0,0)"/>
<path d="" fill="#2C2B2B" transform="translate(0,0)"/>
<path d="" fill="#323333" transform="translate(0,0)"/>
<path d="" fill="#333132" transform="translate(0,0)"/>
<path d="" fill="#2F2F2B" transform="translate(0,0)"/>
<path d="" fill="#2A2A2A" transform="translate(0,0)"/>
<path d="" fill="#333332" transform="translate(0,0)"/>
<path d="" fill="#2B2B29" transform="translate(0,0)"/>
<path d="" fill="#292927" transform="translate(0,0)"/>
<path d="" fill="#343131" transform="translate(0,0)"/>
<path d="" fill="#2B2A2D" transform="translate(0,0)"/>
<path d="" fill="#2E2E2C" transform="translate(0,0)"/>
<path d="" fill="#2A2A2A" transform="translate(0,0)"/>
<path d="" fill="#2E2D2B" transform="translate(0,0)"/>
<path d="" fill="#2E2E2E" transform="translate(0,0)"/>
<path d="" fill="#2F2F2F" transform="translate(0,0)"/>
<path d="" fill="#303130" transform="translate(0,0)"/>
<path d="" fill="#303031" transform="translate(0,0)"/>
<path d="" fill="#31322F" transform="translate(0,0)"/>
<path d="" fill="#303030" transform="translate(0,0)"/>
<path d="" fill="#303230" transform="translate(0,0)"/>
<path d="" fill="#313230" transform="translate(0,0)"/>
<path d="" fill="#2B2B2B" transform="translate(0,0)"/>
<path d="" fill="#2F2C2C" transform="translate(0,0)"/>
<path d="" fill="#2F2E2C" transform="translate(0,0)"/>
<path d="" fill="#2C2927" transform="translate(0,0)"/>
<path d="" fill="#2D2A2B" transform="translate(0,0)"/>
<path d="" fill="#2E2D2A" transform="translate(0,0)"/>
<path d="" fill="#2B2C2C" transform="translate(0,0)"/>
<path d="" fill="#2D2C2B" transform="translate(0,0)"/>
<path d="" fill="#2B2B2A" transform="translate(0,0)"/>
<path d="" fill="#30302F" transform="translate(0,0)"/>
<path d="" fill="#2C2B2C" transform="translate(0,0)"/>
<path d="" fill="#2B2B2C" transform="translate(0,0)"/>
<path d="" fill="#2F2E2D" transform="translate(0,0)"/>
<path d="" fill="#2E2E2B" transform="translate(0,0)"/>
<path d="" fill="#2E2C2D" transform="translate(0,0)"/>
<path d="" fill="#2D2D2C" transform="translate(0,0)"/>
<path d="" fill="#2D2C2D" transform="translate(0,0)"/>
<path d="" fill="#2C2C29" transform="translate(0,0)"/>
<path d="" fill="#2B2A2A" transform="translate(0,0)"/>
<path d="" fill="#2B2B29" transform="translate(0,0)"/>
<path d="" fill="#323131" transform="translate(0,0)"/>
<path d="" fill="#2E2D2E" transform="translate(0,0)"/>
<path d="" fill="#2C2E2E" transform="translate(0,0)"/>
<path d="" fill="#2E2E2E" transform="translate(0,0)"/>
<path d="" fill="#2D2F2D" transform="translate(0,0)"/>
<path d="" fill="#2A292A" transform="translate(0,0)"/>
<path d="" fill="#2C2C2B" transform="translate(0,0)"/>
<path d="" fill="#2A2C2B" transform="translate(0,0)"/>
<path d="" fill="#323231" transform="translate(0,0)"/>
<path d="" fill="#2B2B29" transform="translate(0,0)"/>
<path d="" fill="#2A2B29" transform="translate(0,0)"/>
<path d="" fill="#2C2C2B" transform="translate(0,0)"/>
<path d="" fill="#343432" transform="translate(0,0)"/>
<path d="" fill="#2A2A2B" transform="translate(0,0)"/>
<path d="" fill="#242522" transform="translate(0,0)"/>
<path d="" fill="#2A292A" transform="translate(0,0)"/>
<path d="" fill="#2C2B29" transform="translate(0,0)"/>
<path d="" fill="#292928" transform="translate(0,0)"/>
<path d="" fill="#292929" transform="translate(0,0)"/>
<path d="" fill="#292828" transform="translate(0,0)"/>
<path d="" fill="#2A2C29" transform="translate(0,0)"/>
<path d="" fill="#2E2E2E" transform="translate(0,0)"/>
<path d="" fill="#282928" transform="translate(0,0)"/>
<path d="" fill="#2A2828" transform="translate(0,0)"/>
<path d="" fill="#2A2A29" transform="translate(0,0)"/>
<path d="" fill="#2C2A2A" transform="translate(0,0)"/>
<path d="" fill="#32322E" transform="translate(0,0)"/>
<path d="" fill="#31312F" transform="translate(0,0)"/>
<path d="" fill="#2B282A" transform="translate(0,0)"/>
<path d="" fill="#262423" transform="translate(0,0)"/>
<path d="" fill="#272626" transform="translate(0,0)"/>
<path d="" fill="#262826" transform="translate(0,0)"/>
<path d="" fill="#2A2B2B" transform="translate(0,0)"/>
<path d="" fill="#313130" transform="translate(0,0)"/>
<path d="" fill="#2C2D2C" transform="translate(0,0)"/>
<path d="" fill="#2C2A28" transform="translate(0,0)"/>
<path d="" fill="#262626" transform="translate(0,0)"/>
<path d="" fill="#2B2B2A" transform="translate(0,0)"/>
<path d="" fill="#292B28" transform="translate(0,0)"/>
<path d="" fill="#2F2F2D" transform="translate(0,0)"/>
<path d="" fill="#272627" transform="translate(0,0)"/>
<path d="" fill="#292929" transform="translate(0,0)"/>
<path d="" fill="#2C2C2B" transform="translate(0,0)"/>
<path d="" fill="#2E2C2C" transform="translate(0,0)"/>
<path d="" fill="#2F2E30" transform="translate(0,0)"/>
<path d="" fill="#2F2E2D" transform="translate(0,0)"/>
<path d="" fill="#2C2C2D" transform="translate(0,0)"/>
<path d="" fill="#323332" transform="translate(0,0)"/>
<path d="" fill="#2E2D2E" transform="translate(0,0)"/>
<path d="" fill="#2A2725" transform="translate(0,0)"/>
<path d="" fill="#2A2A29" transform="translate(0,0)"/>
<path d="" fill="#2F2F2F" transform="translate(0,0)"/>
<path d="" fill="#2D2D2B" transform="translate(0,0)"/>
<path d="" fill="#2E2D2D" transform="translate(0,0)"/>
<path d="" fill="#312F2F" transform="translate(0,0)"/>
<path d="" fill="#323132" transform="translate(0,0)"/>
<path d="" fill="#302E2E" transform="translate(0,0)"/>
<path d="" fill="#292728" transform="translate(0,0)"/>
<path d="" fill="#303232" transform="translate(0,0)"/>
<path d="" fill="#303030" transform="translate(0,0)"/>
<path d="" fill="#353536" transform="translate(0,0)"/>
<path d="" fill="#2F302F" transform="translate(0,0)"/>
<path d="" fill="#2F302F" transform="translate(0,0)"/>
<path d="" fill="#333333" transform="translate(0,0)"/>
<path d="" fill="#323131" transform="translate(0,0)"/>
<path d="" fill="#363635" transform="translate(0,0)"/>
<path d="" fill="#313230" transform="translate(0,0)"/>
<path d="" fill="#333030" transform="translate(0,0)"/>
<path d="" fill="#2C2C2B" transform="translate(0,0)"/>
<path d="" fill="#2D2C2D" transform="translate(0,0)"/>
<path d="" fill="#2D2C2C" transform="translate(0,0)"/>
<path d="" fill="#2A2A28" transform="translate(0,0)"/>
<path d="" fill="#2F2E2D" transform="translate(0,0)"/>
<path d="" fill="#2B2B2A" transform="translate(0,0)"/>
<path d="" fill="#2C2C2B" transform="translate(0,0)"/>
<path d="" fill="#2F2F30" transform="translate(0,0)"/>
<path d="" fill="#282827" transform="translate(0,0)"/>
<path d="" fill="#2E2D2B" transform="translate(0,0)"/>
<path d="" fill="#2D2E2F" transform="translate(0,0)"/>
<path d="" fill="#2E2B2E" transform="translate(0,0)"/>
<path d="" fill="#2F2E2D" transform="translate(0,0)"/>
<path d="" fill="#2C2C2B" transform="translate(0,0)"/>
<path d="" fill="#2F2D2C" transform="translate(0,0)"/>
<path d="" fill="#2C2A27" transform="translate(0,0)"/>
<path d="" fill="#333332" transform="translate(0,0)"/>
<path d="" fill="#2C2A2A" transform="translate(0,0)"/>
<path d="" fill="#2D2C2C" transform="translate(0,0)"/>
<path d="" fill="#31302F" transform="translate(0,0)"/>
<path d="" fill="#2D2D2B" transform="translate(0,0)"/>
<path d="" fill="#2B292A" transform="translate(0,0)"/>
<path d="" fill="#2D2E2D" transform="translate(0,0)"/>
<path d="" fill="#2E2F2D" transform="translate(0,0)"/>
<path d="" fill="#323030" transform="translate(0,0)"/>
<path d="" fill="#2C2A28" transform="translate(0,0)"/>
<path d="" fill="#2F2D2B" transform="translate(0,0)"/>
<path d="" fill="#2B2C28" transform="translate(0,0)"/>
<path d="" fill="#2C292A" transform="translate(0,0)"/>
<path d="" fill="#2C2C29" transform="translate(0,0)"/>
<path d="" fill="#2E2A29" transform="translate(0,0)"/>
<path d="" fill="#2C2B2A" transform="translate(0,0)"/>
<path d="" fill="#2E2F2D" transform="translate(0,0)"/>
<path d="" fill="#2C2D2A" transform="translate(0,0)"/>
<path d="" fill="#312F30" transform="translate(0,0)"/>
<path d="" fill="#2E2D2D" transform="translate(0,0)"/>
<path d="" fill="#302E2D" transform="translate(0,0)"/>
<path d="" fill="#2F2E2B" transform="translate(0,0)"/>
<path d="" fill="#2A2929" transform="translate(0,0)"/>
<path d="" fill="#2D2E2D" transform="translate(0,0)"/>
<path d="" fill="#2D2C2C" transform="translate(0,0)"/>
<path d="" fill="#2C2D2C" transform="translate(0,0)"/>
<path d="" fill="#2F2F2C" transform="translate(0,0)"/>
<path d="" fill="#2B2A28" transform="translate(0,0)"/>
<path d="" fill="#2E2B2D" transform="translate(0,0)"/>
<path d="" fill="#2B2928" transform="translate(0,0)"/>
<path d="" fill="#2D2B2B" transform="translate(0,0)"/>
<path d="" fill="#2F3130" transform="translate(0,0)"/>
<path d="" fill="#2E2B2D" transform="translate(0,0)"/>
<path d="" fill="#2E2C2B" transform="translate(0,0)"/>
<path d="" fill="#2E2D2D" transform="translate(0,0)"/>
<path d="" fill="#32302F" transform="translate(0,0)"/>
<path d="" fill="#2F2C2C" transform="translate(0,0)"/>
<path d="" fill="#2F2D2D" transform="translate(0,0)"/>
<path d="" fill="#2E2F2E" transform="translate(0,0)"/>
<path d="" fill="#2B2B29" transform="translate(0,0)"/>
<path d="" fill="#312F2E" transform="translate(0,0)"/>
<path d="" fill="#2F2F2D" transform="translate(0,0)"/>
<path d="" fill="#313030" transform="translate(0,0)"/>
<path d="" fill="#2F2F2D" transform="translate(0,0)"/>
<path d="" fill="#30302C" transform="translate(0,0)"/>
<path d="" fill="#302D2D" transform="translate(0,0)"/>
<path d="" fill="#2E2F2C" transform="translate(0,0)"/>
<path d="" fill="#302E2F" transform="translate(0,0)"/>
<path d="" fill="#302F2C" transform="translate(0,0)"/>
<path d="" fill="#2E2D2C" transform="translate(0,0)"/>
<path d="" fill="#302E2D" transform="translate(0,0)"/>
<path d="" fill="#343431" transform="translate(0,0)"/>
<path d="" fill="#343430" transform="translate(0,0)"/>
<path d="" fill="#363633" transform="translate(0,0)"/>
<path d="" fill="#363431" transform="translate(0,0)"/>
<path d="" fill="#2E2D2D" transform="translate(0,0)"/>
<path d="" fill="#2D2C2C" transform="translate(0,0)"/>
<path d="" fill="#2F2D2D" transform="translate(0,0)"/>
<path d="" fill="#2F2B2D" transform="translate(0,0)"/>
<path d="" fill="#30302E" transform="translate(0,0)"/>
<path d="" fill="#302E2C" transform="translate(0,0)"/>
<path d="" fill="#2E2D2D" transform="translate(0,0)"/>
<path d="" fill="#30302D" transform="translate(0,0)"/>
<path d="" fill="#2D2C2B" transform="translate(0,0)"/>
<path d="" fill="#2E2C2D" transform="translate(0,0)"/>
<path d="" fill="#2F2B2D" transform="translate(0,0)"/>
<path d="" fill="#2A2727" transform="translate(0,0)"/>
<path d="" fill="#353431" transform="translate(0,0)"/>
<path d="" fill="#363733" transform="translate(0,0)"/>
<path d="" fill="#2F2E2F" transform="translate(0,0)"/>
<path d="" fill="#2F2D2F" transform="translate(0,0)"/>
<path d="" fill="#31312F" transform="translate(0,0)"/>
<path d="" fill="#2F2E2E" transform="translate(0,0)"/>
<path d="" fill="#33302F" transform="translate(0,0)"/>
<path d="" fill="#312F2F" transform="translate(0,0)"/>
<path d="" fill="#323132" transform="translate(0,0)"/>
<path d="" fill="#302F2E" transform="translate(0,0)"/>
<path d="" fill="#2D2D2B" transform="translate(0,0)"/>
<path d="" fill="#2E2E2C" transform="translate(0,0)"/>
<path d="" fill="#32302F" transform="translate(0,0)"/>
<path d="" fill="#302F2D" transform="translate(0,0)"/>
<path d="" fill="#2F2F2E" transform="translate(0,0)"/>
<path d="" fill="#30302F" transform="translate(0,0)"/>
<path d="" fill="#323332" transform="translate(0,0)"/>
<path d="" fill="#353533" transform="translate(0,0)"/>
<path d="" fill="#2F3031" transform="translate(0,0)"/>
<path d="" fill="#2B2A29" transform="translate(0,0)"/>
<path d="" fill="#353231" transform="translate(0,0)"/>
<path d="" fill="#322D2F" transform="translate(0,0)"/>
<path d="" fill="#2C2C2B" transform="translate(0,0)"/>
<path d="" fill="#2F2D2D" transform="translate(0,0)"/>
<path d="" fill="#32312E" transform="translate(0,0)"/>
<path d="" fill="#343231" transform="translate(0,0)"/>
<path d="" fill="#32312F" transform="translate(0,0)"/>
<path d="" fill="#33312F" transform="translate(0,0)"/>
<path d="" fill="#333132" transform="translate(0,0)"/>
<path d="" fill="#323131" transform="translate(0,0)"/>
<path d="" fill="#333430" transform="translate(0,0)"/>
<path d="" fill="#343533" transform="translate(0,0)"/>
<path d="" fill="#313130" transform="translate(0,0)"/>
<path d="" fill="#302F30" transform="translate(0,0)"/>
<path d="" fill="#383634" transform="translate(0,0)"/>
<path d="" fill="#353333" transform="translate(0,0)"/>
<path d="" fill="#353636" transform="translate(0,0)"/>
<path d="" fill="#363534" transform="translate(0,0)"/>
<path d="" fill="#333330" transform="translate(0,0)"/>
<path d="" fill="#333232" transform="translate(0,0)"/>
<path d="" fill="#353333" transform="translate(0,0)"/>
<path d="" fill="#353636" transform="translate(0,0)"/>
<path d="" fill="#323335" transform="translate(0,0)"/>
<path d="" fill="#393836" transform="translate(0,0)"/>
<path d="" fill="#3A3839" transform="translate(0,0)"/>
<path d="" fill="#353336" transform="translate(0,0)"/>
<path d="" fill="#383533" transform="translate(0,0)"/>
<path d="" fill="#373636" transform="translate(0,0)"/>
<path d="" fill="#393534" transform="translate(0,0)"/>
<path d="" fill="#3A3C37" transform="translate(0,0)"/>
<path d="" fill="#383837" transform="translate(0,0)"/>
</svg>
