<?xml version="1.0" encoding="UTF-8"?>
<svg version="1.1" xmlns="http://www.w3.org/2000/svg" width="1024" height="1024">
<path d="M0 0 C5.13721205 2.84528358 9.82451188 6.40489297 14.46289062 9.99023438 C15.97207772 11.18301691 15.97207772 11.18301691 18 11 C19.34878092 12.31770467 20.67973542 13.65372477 22 15 C23.47205653 16.09837551 24.97429162 17.15714503 26.5 18.1796875 C27.3770459 18.77168945 28.2540918 19.36369141 29.15771484 19.97363281 C30.564646 20.91480957 30.564646 20.91480957 32 21.875 C33.99290821 23.22028712 35.98508015 24.56666552 37.9765625 25.9140625 C39.48718262 26.9354834 39.48718262 26.9354834 41.02832031 27.97753906 C46.34107858 31.59328746 51.59620913 35.29058211 56.84814453 38.99389648 C60.73571236 41.73110935 64.6353945 44.44014096 68.59375 47.07421875 C69.67970459 47.8017334 69.67970459 47.8017334 70.78759766 48.54394531 C72.12005266 49.43349539 73.45779871 50.31520436 74.80224609 51.18652344 C80.20445454 54.80543628 84.60491695 59.08852232 87.4375 65 C88.10724339 68.57196472 87.57626469 71.43304776 87 75 C108.66256676 72.02759548 129.37763253 67.00390954 150.25634766 60.54931641 C177.29002076 52.20858724 200.96441234 47.58132989 228.91503906 52.63623047 C231.93445936 53.16303799 234.96333489 53.58517705 238 54 C238 54.66 238 55.32 238 56 C239.6626783 56.35268934 241.33065717 56.68033861 243 57 C243.99128906 57.28230469 244.98257812 57.56460938 246.00390625 57.85546875 C251.85733034 58.06717617 255.78353888 55.56347391 260.875 52.875 C267.95356024 49.30748695 274.85795299 46.0330187 282.5 43.875 C283.16241699 43.6879248 283.82483398 43.50084961 284.50732422 43.30810547 C313.69461303 35.57035932 343.28036608 43.91217065 371 53 C372.8974352 53.61043426 374.79487655 54.2208504 376.69273376 54.82997131 C379.81894857 55.83591937 382.94066798 56.85554585 386.0625 57.875 C387.24094482 58.25615967 388.41938965 58.63731934 389.63354492 59.0300293 C390.71482666 59.3887915 391.7961084 59.74755371 392.91015625 60.1171875 C393.87058838 60.43284668 394.83102051 60.74850586 395.82055664 61.07373047 C398 62 398 62 399 64 C400.86501199 64.67245777 400.86501199 64.67245777 403.25 65.1875 C409.00548221 66.65443695 414.5726064 68.5165489 420.1875 70.4375 C437.21540432 76.31351211 437.21540432 76.31351211 455 78 C455 78.66 455 79.32 455 80 C466.1952557 80.24939926 476.9252571 79.66940943 488 78 C487.94199219 76.17662109 487.94199219 76.17662109 487.8828125 74.31640625 C487.89532917 68.63008499 489.67522321 64.60003364 493 60 C496.05167501 57.19148635 499.46412827 55.14995216 503 53 C504.95727117 51.74458915 506.90569588 50.47604071 508.85449219 49.20751953 C511.06553527 47.76988865 513.28246996 46.34166309 515.5 44.9140625 C519.69103532 42.20779995 523.85194557 39.45909203 528 36.6875 C528.69834961 36.22134277 529.39669922 35.75518555 530.11621094 35.27490234 C534.05373671 32.64404808 537.98803662 30.00841566 541.91992188 27.36914062 C545.61084473 24.89174799 549.30416161 22.41795264 552.99853516 19.94570923 C554.49062665 18.94618833 555.98184931 17.94536913 557.47216797 16.94320679 C559.58867468 15.52010489 561.70809296 14.10143669 563.828125 12.68359375 C564.46188049 12.25592712 565.09563599 11.8282605 565.74859619 11.38763428 C575.98366192 4.56300312 575.98366192 4.56300312 582.6875 4.75 C583.61949219 4.76546875 584.55148437 4.7809375 585.51171875 4.796875 C588.63613793 5.05192963 590.45430187 5.39247401 592.5859375 7.765625 C598.96725955 16.62702418 604.61695256 25.92193583 610.30761719 35.23583984 C612.9577685 39.56431837 615.6365225 43.87496059 618.3125 48.1875 C625.2579125 59.40044706 632.16744589 70.63546477 639.07568359 81.87133789 C640.39044722 84.00895473 641.70590857 86.14614255 643.02197266 88.28295898 C647.28153704 95.19926198 651.52601459 102.1244133 655.75 109.0625 C656.34200195 110.0326001 656.93400391 111.0027002 657.54394531 112.00219727 C660.56338945 116.95851417 663.55698382 121.92755875 666.5 126.9296875 C667.04817383 127.85773193 667.59634766 128.78577637 668.16113281 129.74194336 C669.20323363 131.5098959 670.23926514 133.28144303 671.26855469 135.05688477 C671.73165039 135.84119873 672.19474609 136.6255127 672.671875 137.43359375 C673.0750293 138.12509521 673.47818359 138.81659668 673.89355469 139.52905273 C674.25868164 140.01446533 674.62380859 140.49987793 675 141 C675.66 141 676.32 141 677 141 C677.17281494 142.10746582 677.17281494 142.10746582 677.34912109 143.23730469 C678.00939792 146.03989006 678.87307817 147.79236548 680.4140625 150.203125 C680.92090576 151.00709717 681.42774902 151.81106934 681.94995117 152.6394043 C682.77910034 153.93164917 682.77910034 153.93164917 683.625 155.25 C684.80261088 157.11473123 685.97830713 158.9806726 687.15234375 160.84765625 C688.08602783 162.33096436 688.08602783 162.33096436 689.03857422 163.84423828 C691.10331796 167.16622952 693.12515189 170.51213552 695.12890625 173.87109375 C695.46863464 174.44048676 695.80836304 175.00987976 696.15838623 175.5965271 C697.82598367 178.39495004 699.48878666 181.19616969 701.14892578 183.99902344 C701.75333496 185.01383789 702.35774414 186.02865234 702.98046875 187.07421875 C703.78327271 188.42906372 703.78327271 188.42906372 704.60229492 189.8112793 C705.94766421 192.09125201 705.94766421 192.09125201 708 194 C709.01274282 195.75184761 709.98739089 197.52590807 710.9375 199.3125 C712.43793998 202.12534529 713.928551 204.88701487 715.6328125 207.58203125 C717.74293043 211.31392553 718.21324495 214.74245419 718 219 C711.29391499 236.37485661 684.23173098 248.98782629 669.58056641 259.19873047 C666.91909248 261.05647452 664.26173541 262.91997531 661.60546875 264.78515625 C660.71907715 265.40720947 659.83268555 266.0292627 658.91943359 266.67016602 C657.24089115 267.84835253 655.56279553 269.02717602 653.88525391 270.20678711 C651.59553037 271.81237133 649.29802233 273.40632584 647 275 C646.21874756 275.55405518 645.43749512 276.10811035 644.63256836 276.67895508 C638.65565643 280.82911981 633.45910919 283.2743814 626 283 C623.57992732 281.9017822 621.81012028 280.71715246 619.81640625 278.96875 C617.96097771 277.71650936 617.96097771 277.71650936 615.5546875 278.62890625 C612.94354625 280.03029857 610.83764101 281.54089198 608.5625 283.4375 C604.49323268 286.77731348 600.39515111 290.06794428 596.25 293.3125 C595.04424054 294.25907599 593.83851169 295.20569098 592.6328125 296.15234375 C590.27546519 298.00130536 587.91587915 299.84735737 585.5546875 301.69140625 C578.49759669 307.21019404 571.50804281 312.80212795 564.59228516 318.49755859 C560.50650993 321.84447285 556.32859064 324.97277919 552 328 C552.48418169 331.67978081 553.33073692 334.95718829 554.5625 338.4375 C558.3962791 351.11554176 556.17744438 364.99006818 550.6796875 376.84765625 C543.04651381 390.34127204 531.69747873 399.86897675 516.78125 404.32421875 C513.17228429 405.20111632 509.70176841 405.71524858 506 406 C505.90203125 406.75023437 505.8040625 407.50046875 505.703125 408.2734375 C503.8192518 421.16822478 499.20779047 433.2380722 489 442 C488.34 442 487.68 442 487 442 C487 442.66 487 443.32 487 444 C475.31120855 453.57486108 462.22849485 457.74522683 447.1796875 456.828125 C445.11308324 456.60785997 443.05454307 456.31340488 441 456 C440.84724609 457.27423828 440.84724609 457.27423828 440.69140625 458.57421875 C438.19456088 470.94559382 430.06722623 481.43751529 420.125 488.8125 C408.83432262 496.27056212 397.45312709 498.31310634 384.1015625 497.97265625 C381.48233461 497.99574768 379.47504277 498.21359479 377 499 C378 497 378 497 379 496 C378.01 496 377.02 496 376 496 C375.79375 496.763125 375.5875 497.52625 375.375 498.3125 C369.4560537 514.18603779 358.63998265 525.78175095 343.25 532.8125 C329.88190141 537.96194614 315.60367025 538.09869022 302 533.625 C294.25459575 530.12917157 287.62588127 524.22831052 281 519 C279.83115179 518.08669845 278.66190274 517.17390959 277.4921875 516.26171875 C275.22760347 514.49121388 272.96931114 512.71305312 270.71484375 510.9296875 C266.39092329 507.51264344 262.03933971 504.13136957 257.6875 500.75 C256.95869629 500.18361816 256.22989258 499.61723633 255.47900391 499.03369141 C254.05147626 497.9244704 252.62019207 496.82006581 251.18505859 495.72070312 C249.63695578 494.50159378 248.12167521 493.24026988 246.63134766 491.95117188 C245.85194824 491.29181641 245.07254883 490.63246094 244.26953125 489.953125 C243.57061768 489.34114258 242.8717041 488.72916016 242.15161133 488.09863281 C239.9892136 486.69479557 239.9892136 486.69479557 237.38647461 487.67456055 C234.34034335 489.36637094 232.36860389 491.44612188 230 494 C229.07051347 494.9701433 228.13813035 495.93751827 227.203125 496.90234375 C226.72399658 497.39734375 226.24486816 497.89234375 225.7512207 498.40234375 C220.58062397 503.68982338 215.52984067 508.40559229 209 512 C208.30777344 512.38671875 207.61554688 512.7734375 206.90234375 513.171875 C196.36390483 518.45065747 184.02286695 519.34364962 172.77734375 516.05859375 C159.62187039 511.39647863 148.78455785 503.58905628 142.1875 491.0625 C139.92622751 486.19618049 138.35670437 481.18415492 137 476 C136.01 476.33 135.02 476.66 134 477 C134 476.01 134 475.02 134 474 C132.97261719 473.78085937 131.94523437 473.56171875 130.88671875 473.3359375 C115.56459846 469.90320394 102.84888653 463.70376647 93.5625 450.4375 C91.08800558 446.45587725 89.45577688 442.44820714 88 438 C87.34 438 86.68 438 86 438 C85.67 435.69 85.34 433.38 85 431 C84.14019531 430.98582031 83.28039062 430.97164062 82.39453125 430.95703125 C65.97963479 430.29470718 54.92210433 424.40418624 43.6875 412.6875 C36.55848461 404.30550614 33 393.95962523 33 383 C32.27296875 382.97421875 31.5459375 382.9484375 30.796875 382.921875 C23.92989155 382.5345067 18.05226284 381.29867674 11.59375 378.9375 C9.40194112 378.14527992 7.26987376 377.51393368 5 377 C5 376.34 5 375.68 5 375 C3.70445248 373.97135926 2.36102173 373.00280048 1 372.0625 C-7.9075061 365.29783735 -12.81820482 356.17629986 -17 346 C-17.33 345.34 -17.66 344.68 -18 344 C-18.99804345 328.75120506 -17.10529384 315.21653304 -8.7578125 302.0390625 C-7.76450828 300.0094357 -7.76450828 300.0094357 -8.65625 297.953125 C-10.09358957 295.86396864 -11.55919374 294.37830356 -13.5 292.75 C-14.1084375 292.22921875 -14.716875 291.7084375 -15.34375 291.171875 C-16.93395821 289.80747003 -16.93395821 289.80747003 -19 290 C-20.16545155 288.86882644 -21.32476934 287.73067998 -22.453125 286.5625 C-27.49443619 281.47026647 -32.64142762 277.31175645 -39 274 C-39.763125 274.639375 -40.52625 275.27875 -41.3125 275.9375 C-45.42605182 279.09441186 -49.06413706 279.52078858 -54.11328125 279.4765625 C-61.86843154 278.19628059 -68.58296456 272.49197055 -74.66796875 267.7578125 C-77.73227248 265.44803582 -80.89455115 263.28874515 -84.0625 261.125 C-91.89971292 255.76625403 -99.69514795 250.34908645 -107.48388672 244.92016602 C-112.54060235 241.39809014 -117.6071457 237.89223768 -122.69848633 234.42041016 C-128.11663998 230.72140799 -133.51240255 226.99180419 -138.8125 223.125 C-140.21435547 222.10792969 -140.21435547 222.10792969 -141.64453125 221.0703125 C-145.45388199 217.72212694 -147.33104727 214.33858087 -147.9375 209.3125 C-148.52514521 199.19773056 -142.4346906 191.14874768 -136.875 183.1875 C-135.61818823 181.3713942 -134.36542824 179.5524762 -133.1171875 177.73046875 C-132.56659668 176.94051514 -132.01600586 176.15056152 -131.44873047 175.33666992 C-129.97492495 172.95955624 -129.02716719 170.59355624 -128 168 C-126.68364976 166.64989719 -125.34779859 165.31870941 -124 164 C-122.36535028 161.68702625 -120.79017763 159.37362818 -119.25 157 C-118.44287339 155.77072494 -117.63557551 154.54156233 -116.828125 153.3125 C-116.3844458 152.63445312 -115.9407666 151.95640625 -115.48364258 151.2578125 C-111.42725602 145.08478915 -107.30572266 138.95454702 -103.20263672 132.8125 C-89.7846535 112.72597665 -76.40525001 92.61541257 -63.125 72.4375 C-54.83791424 59.84935694 -46.54937374 47.26232287 -38.20184326 34.71414185 C-37.29887379 33.3563555 -36.39668928 31.99804669 -35.49542236 30.63912964 C-33.08616501 27.0076485 -30.66092119 23.38797949 -28.20953369 19.78479004 C-27.37463012 18.55280486 -26.54516196 17.31712474 -25.72015381 16.07849121 C-24.43570621 14.1542535 -23.13224411 12.24420279 -21.82421875 10.3359375 C-21.44368851 9.75792389 -21.06315826 9.17991028 -20.6710968 8.5843811 C-15.80653213 1.59362365 -8.44602967 -2.42402138 0 0 Z M-3 35 C-9.28805046 42.38711075 -14.37682404 51.00790276 -19.66189575 59.13116455 C-21.97545286 62.68652992 -24.29892299 66.23541343 -26.62109375 69.78515625 C-27.08382187 70.49299255 -27.54654999 71.20082886 -28.02330017 71.93011475 C-32.00439334 78.01658396 -36.02234684 84.07753412 -40.0625 90.125 C-40.68278076 91.05376953 -41.30306152 91.98253906 -41.94213867 92.93945312 C-43.96065143 95.96015374 -45.98033781 98.98006779 -48 102 C-51.15413588 106.71815116 -54.30652657 111.43746392 -57.45724487 116.15789795 C-58.78377356 118.14447988 -60.11170164 120.13012117 -61.43969727 122.11572266 C-62.2580455 123.34142446 -63.07632673 124.567171 -63.89453125 125.79296875 C-64.61487549 126.8708667 -65.33521973 127.94876465 -66.07739258 129.05932617 C-67.78570985 131.67223812 -69.40512512 134.31709126 -71 137 C-72.46833542 139.23733082 -73.94606469 141.46572266 -75.4375 143.6875 C-76.34770087 145.04814724 -77.2578553 146.40882554 -78.16796875 147.76953125 C-78.63895996 148.47287598 -79.10995117 149.1762207 -79.59521484 149.90087891 C-82.29231758 153.93106475 -84.98073441 157.96705519 -87.66674805 162.00463867 C-90.81550795 166.73446537 -93.97685762 171.45560959 -97.14801025 176.17044067 C-99.17468729 179.18527757 -101.19757883 182.20264504 -103.22009277 185.22027588 C-104.23935574 186.73908586 -105.26026947 188.25678932 -106.28283691 189.77337646 C-107.72924569 191.91902963 -109.16988675 194.06845006 -110.609375 196.21875 C-111.05253052 196.87316071 -111.49568604 197.52757141 -111.95227051 198.20181274 C-114.24422293 201.3285472 -114.24422293 201.3285472 -115 205 C-113.23610528 206.37212902 -111.40126752 207.6532463 -109.54296875 208.89453125 C-108.97252335 209.27847046 -108.40207794 209.66240967 -107.81434631 210.0579834 C-105.94282794 211.3157211 -104.06516439 212.56396068 -102.1875 213.8125 C-100.9021615 214.67461779 -99.61733233 215.53749542 -98.33300781 216.40112305 C-95.761463 218.1295853 -93.18798281 219.85509839 -90.61279297 221.578125 C-85.80696681 224.79623454 -81.02485058 228.04864704 -76.25 231.3125 C-75.52063232 231.80790283 -74.79126465 232.30330566 -74.03979492 232.8137207 C-73.35119385 233.28382568 -72.66259277 233.75393066 -71.953125 234.23828125 C-70.97182617 234.90657959 -70.97182617 234.90657959 -69.97070312 235.58837891 C-68.57647267 236.58707074 -67.21824771 237.63693647 -65.88867188 238.72021484 C-65.19837891 239.28047363 -64.50808594 239.84073242 -63.796875 240.41796875 C-62.88180176 241.19370239 -62.88180176 241.19370239 -61.94824219 241.98510742 C-59.99517896 243.19845172 -59.99517896 243.19845172 -57.4909668 242.96411133 C-54.17421211 241.68038456 -53.26115156 240.13728532 -51.34765625 237.15625 C-50.66445312 236.11049805 -49.98125 235.06474609 -49.27734375 233.98730469 C-48.53896643 232.82493081 -47.80068812 231.66249404 -47.0625 230.5 C-46.28290025 229.29743117 -45.50161212 228.09595542 -44.71875 226.89550781 C-43.0346934 224.31101815 -41.35760563 221.72218007 -39.68408203 219.13085938 C-35.49738214 212.66665487 -31.20244136 206.27418977 -26.91989136 199.87329102 C-24.66154565 196.49618394 -22.40908343 193.11516058 -20.15625 189.734375 C-19.2890929 188.43357348 -18.42190563 187.13279208 -17.5546875 185.83203125 C-17.1309082 185.1963623 -16.70712891 184.56069336 -16.27050781 183.90576172 C-13.77779134 180.16668701 -11.28507487 176.4276123 -8.7923584 172.6885376 C-8.38070435 172.07105652 -7.96905029 171.45357544 -7.54492188 170.81738281 C-4.88411458 166.82617188 -2.22330729 162.83496094 0.4375 158.84375 C1.12277771 157.81583344 1.12277771 157.81583344 1.82189941 156.76715088 C8.7890625 146.31640625 8.7890625 146.31640625 10.17900085 144.23150635 C11.09796574 142.85305395 12.01692129 141.47459534 12.93586731 140.09613037 C15.18187826 136.72702601 17.42804518 133.35802586 19.67456055 129.98925781 C23.31388258 124.53161404 26.95273092 119.07369135 30.58203125 113.609375 C36.4266591 104.81329838 42.30124149 96.03857312 48.25 87.3125 C48.79889893 86.50458008 49.34779785 85.69666016 49.91333008 84.86425781 C50.4214624 84.12143555 50.92959473 83.37861328 51.453125 82.61328125 C51.89817383 81.96141846 52.34322266 81.30955566 52.80175781 80.63793945 C54 79 54 79 56 77 C56.06771893 75.01425852 56.06771893 75.01425852 55 73 C52.76791006 71.03895783 52.76791006 71.03895783 49.8125 69.1875 C48.62740381 68.39743587 47.44252469 67.60704608 46.2578125 66.81640625 C45.58911133 66.37570801 44.92041016 65.93500977 44.23144531 65.48095703 C39.85254075 62.57478252 35.52608852 59.59085822 31.1875 56.625 C29.28659816 55.33052382 27.3855573 54.03625174 25.484375 52.7421875 C22.05084994 50.40245462 18.62284407 48.05517751 15.203125 45.6953125 C14.11414917 44.94386963 14.11414917 44.94386963 13.00317383 44.17724609 C11.67135063 43.257043 10.34039163 42.33558727 9.01049805 41.41259766 C3.45728297 36.98882116 3.45728297 36.98882116 -3 35 Z M573.55493164 41.16357422 C572.8500914 41.63731476 572.14525116 42.1110553 571.41905212 42.59915161 C570.65299149 43.12072845 569.88693085 43.6423053 569.09765625 44.1796875 C568.2990065 44.71810272 567.50035675 45.25651794 566.67750549 45.81124878 C564.97859953 46.95670564 563.28089467 48.1039456 561.58428955 49.25280762 C558.27143358 51.49257085 554.94722112 53.71511948 551.62289429 55.93780518 C548.37447647 58.11181605 545.13144019 60.29377421 541.88891602 62.4765625 C540.22538834 63.59519002 538.56063203 64.71199217 536.89477539 65.82714844 C534.44647586 67.46642618 532.00213521 69.11145354 529.55859375 70.7578125 C528.4370414 71.50612839 528.4370414 71.50612839 527.29283142 72.26956177 C523.57338326 74.58811298 523.57338326 74.58811298 521 78 C522.318315 80.42051279 523.69052756 82.69216749 525.1875 85 C525.63802734 85.70697021 526.08855469 86.41394043 526.55273438 87.14233398 C531.44874743 94.78523809 536.49827547 102.32781841 541.5625 109.85986328 C543.71700558 113.06747128 545.85852318 116.28368562 548 119.5 C550.60665635 123.41285931 553.21608528 127.32381239 555.83203125 131.23046875 C562.75547963 141.5784308 569.57268951 151.99160837 576.34130859 162.44140625 C578.58346757 165.90002063 580.83204099 169.35444564 583.08032227 172.80908203 C587.96110253 180.30974011 592.82072168 187.82304887 597.65234375 195.35546875 C600.43671447 199.68684596 603.25173647 203.99822595 606.0625 208.3125 C611.96564148 217.37560524 617.80183572 226.48068881 623.61938477 235.59887695 C626.70337691 240.42924006 629.79278702 245.25038689 633 250 C638.1061912 247.21778044 642.65804104 244.1182464 647.25 240.5625 C653.32878499 235.92072881 659.53511421 231.52749822 665.875 227.25 C672.50538733 222.77214595 678.90047705 218.19008251 685 213 C683.7527532 210.79007241 682.50229753 208.58206337 681.25 206.375 C680.72792969 205.44880859 680.72792969 205.44880859 680.1953125 204.50390625 C678.50121815 201.52355507 676.76305637 198.64458456 674.859375 195.7890625 C673.36474805 193.54712208 672.18263529 191.40469176 671 189 C670.01975643 187.48701535 669.01872869 185.98734389 668 184.5 C666.57397036 182.41799673 665.20397184 180.41158216 664.08300781 178.1496582 C662.90765915 175.81671298 661.59728385 173.61531375 660.234375 171.38671875 C659.68040039 170.47881592 659.12642578 169.57091309 658.55566406 168.63549805 C657.95979492 167.66265869 657.36392578 166.68981934 656.75 165.6875 C655.48942943 163.62509406 654.22901765 161.56259106 652.96875 159.5 C651.99228516 157.90285156 651.99228516 157.90285156 650.99609375 156.2734375 C648.99975769 152.99960264 647.01388648 149.71964673 645.03125 146.4375 C644.39735352 145.38989502 643.76345703 144.34229004 643.11035156 143.26293945 C641.88624437 141.23930712 640.66418166 139.21443642 639.44433594 137.18823242 C638.89036133 136.27404541 638.33638672 135.3598584 637.765625 134.41796875 C637.27868164 133.61125732 636.79173828 132.8045459 636.29003906 131.97338867 C635.01991016 129.88327599 635.01991016 129.88327599 633 128 C632.15537319 126.58113846 631.34651307 125.14073295 630.5625 123.6875 C628.78496756 120.40547303 626.92298051 117.19887442 625 114 C623.65619082 111.72735352 622.31388136 109.45385685 620.97265625 107.1796875 C612.57774554 92.96665985 604.12958386 78.81493559 595.21972656 64.91650391 C593.34129009 61.96499743 591.5145003 58.98363737 589.6875 56 C588.76130859 54.49373047 588.76130859 54.49373047 587.81640625 52.95703125 C586.54938675 50.894378 585.28670075 48.82905926 584.02734375 46.76171875 C583.39957031 45.74722656 582.77179687 44.73273438 582.125 43.6875 C581.29355469 42.33205078 581.29355469 42.33205078 580.4453125 40.94921875 C579.96835937 40.30597656 579.49140625 39.66273438 579 39 C576.47396341 39 575.63707307 39.75378126 573.55493164 41.16357422 Z M246 97 C245.00033203 97.68908447 245.00033203 97.68908447 243.98046875 98.39208984 C221.64320319 113.86746767 200.31289503 131.23714768 180.4609375 149.78515625 C178 152 178 152 175 154 C175 154.66 175 155.32 175 156 C174.34 156 173.68 156 173 156 C173 156.66 173 157.32 173 158 C172.41806885 158.25813477 171.8361377 158.51626953 171.23657227 158.78222656 C167.17294848 160.99479675 164.17938015 164.49352993 160.9375 167.75 C160.21755859 168.45382812 159.49761719 169.15765625 158.75585938 169.8828125 C153.77256642 174.86147844 149.57480071 179.39517259 149.5625 186.8125 C149.83970322 194.19719383 152.3046292 199.73771889 157.625 204.875 C163.42257162 209.51952299 170.52331653 211.63893655 177.9453125 211.28125 C191.93173463 209.36675876 202.28153545 200.43824919 213 192 C214.33107214 190.99699216 215.66462029 189.99726567 217 189 C217.71381836 188.46463623 218.42763672 187.92927246 219.16308594 187.37768555 C223.43684896 184.17236328 227.71061198 180.96704102 231.984375 177.76171875 C233.2537793 176.80918213 233.2537793 176.80918213 234.54882812 175.83740234 C236.11397252 174.66416761 237.68026451 173.49246121 239.24804688 172.32275391 C242.01771 170.25460874 244.76690419 168.19163165 247.4375 165.99609375 C262.85592664 153.98570349 278.45190258 145.87641765 298.1875 145.6875 C299.17814453 145.65849609 300.16878906 145.62949219 301.18945312 145.59960938 C308.32441109 145.53878678 313.59048667 146.93965239 320 150 C321.15886719 150.495 322.31773437 150.99 323.51171875 151.5 C332.45063872 155.7220729 339.65186848 161.17832375 347.20361328 167.51416016 C349.91089026 169.75342187 352.70097894 171.8773911 355.5 174 C360.22032998 177.60145848 364.87287661 181.27964639 369.5 185 C376.25960707 190.43222834 383.10857324 195.73661781 390 201 C402.20839453 210.33983366 402.20839453 210.33983366 407.75 214.8125 C412.91716563 218.97307492 418.19417635 222.9843494 423.47070312 227.00439453 C428.09252413 230.52980557 432.68630614 234.08719534 437.25 237.6875 C446.7382804 245.1699412 456.32617665 252.50981999 466.00390625 259.74609375 C469.53227321 262.40041935 473.03072555 265.09207848 476.52709961 267.78833008 C488.91517798 277.33489185 501.36786616 286.79751797 513.875 296.1875 C514.688479 296.79875732 515.50195801 297.41001465 516.34008789 298.03979492 C517.85710198 299.1765661 519.37858603 300.30740591 520.90527344 301.43115234 C522.27603826 302.45778809 523.6246787 303.51481925 524.94628906 304.60400391 C526.91932344 306.24515766 526.91932344 306.24515766 530 308 C534.80214057 307.37330555 538.63336809 303.23879687 542.25 300.1875 C548.01142049 295.41120673 553.84547185 290.76692722 559.8125 286.25 C565.29225188 282.09345406 570.67223131 277.85408841 575.96875 273.46484375 C584.16503633 266.80008 592.53669483 260.32244125 601 254 C599.33311397 249.24893846 596.82071899 245.16133527 594.19140625 240.8984375 C593.70877823 240.11270355 593.22615021 239.3269696 592.72889709 238.51742554 C587.06337081 229.37508861 581.00886258 220.5005202 574.9375 211.625 C573.24692563 209.14912813 571.55764265 206.67240444 569.87123108 204.19369507 C568.83541651 202.67162071 567.79716857 201.15119846 566.75608826 199.63272095 C566.29122513 198.9503537 565.826362 198.26798645 565.34741211 197.56494141 C564.94090927 196.97081451 564.53440643 196.37668762 564.11558533 195.76455688 C562.93549385 193.89796857 561.97232258 191.98136135 561 190 C560.05313294 188.50028145 559.08223277 187.01559048 558.09375 185.54296875 C557.52011719 184.68574219 556.94648437 183.82851563 556.35546875 182.9453125 C555.74316406 182.03523438 555.13085938 181.12515625 554.5 180.1875 C553.21874142 178.27474533 551.93749145 176.36198489 550.65625 174.44921875 C550.02847656 173.51384277 549.40070313 172.5784668 548.75390625 171.61474609 C546.4954971 168.24788056 544.24686504 164.87457458 542 161.5 C541.20840958 160.31244917 540.4167407 159.12495064 539.625 157.9375 C533.625 148.9375 533.625 148.9375 531.82714844 146.24047852 C530.61195428 144.41784965 529.3964609 142.59542026 528.18066406 140.77319336 C525.52494653 136.79215253 522.87142277 132.8098442 520.234375 128.81640625 C514.67389427 120.40716941 508.91311692 112.16513379 503 104 C501.80375 104.268125 500.6075 104.53625 499.375 104.8125 C498.54548828 104.99321045 497.71597656 105.1739209 496.86132812 105.36010742 C494.88069613 105.80304569 492.90557166 106.27107853 490.93554688 106.7590332 C482.23432003 108.82055269 474.05119082 109.47726969 465.125 109.375 C464.4654834 109.36901794 463.8059668 109.36303589 463.12646484 109.35687256 C436.83746524 109.078199 413.18368892 99.45275689 388.8125 90.4375 C333.68920611 70.04751524 296.65896117 61.92243998 246 97 Z M148.61657715 91.76278687 C147.83560669 92.0060672 147.05463623 92.24934753 146.25 92.5 C145.46983521 92.74303864 144.68967041 92.98607727 143.88586426 93.23648071 C120.02050842 100.64180931 97.05250439 105.59727116 72 103 C65.08685982 112.66582691 58.57305223 122.60186464 52 132.5 C38.93919587 152.16781985 38.93919587 152.16781985 33.61572266 159.68994141 C30.21900737 164.54635121 26.96600866 169.50091165 23.6875 174.4375 C22.90507371 175.61369046 22.12251887 176.78979541 21.33984375 177.96582031 C19.71353876 180.4096672 18.08778324 182.85387826 16.46240234 185.29833984 C12.86455799 190.7081969 9.25943274 196.11319904 5.6546936 201.51846313 C3.76949376 204.34544079 1.88477233 207.1727373 0 210 C-7 220.5 -7 220.5 -8.29736328 222.4453125 C-9.07789343 223.61658308 -9.85756709 224.78842505 -10.63623047 225.9609375 C-12.67634915 229.03057302 -14.73795274 232.0838255 -16.8203125 235.125 C-17.52317383 236.15898926 -17.52317383 236.15898926 -18.24023438 237.21386719 C-19.1394902 238.5361157 -20.04414535 239.85471411 -20.95507812 241.16894531 C-23.43664795 244.75190574 -23.43664795 244.75190574 -24 249 C-22.05468486 250.74207399 -22.05468486 250.74207399 -19.4375 252.4375 C-14.68857287 255.75992014 -10.13008229 259.22921829 -5.625 262.875 C1.1694365 268.35784672 8.05657462 273.70754086 15 279 C18.43361084 276.20957275 21.56467696 273.55297791 24.3125 270.0625 C31.20853494 261.5096255 41.87011068 257.37662977 52 254 C55.24593348 253.77171035 58.49685728 253.81483703 61.75 253.8125 C62.63171875 253.80025391 63.5134375 253.78800781 64.421875 253.77539062 C76.69107129 253.74800403 88.27792192 258.61359681 97.1953125 267.10546875 C105.77205352 276.10919038 109.93563336 286.02111221 113 298 C113.59425781 297.97679687 114.18851563 297.95359375 114.80078125 297.9296875 C129.0892113 297.61858638 142.19816531 301.25622505 152.9375 311.0625 C160.14980022 318.9194751 163.82333844 328.98457374 167 339 C167.56807373 339.05422119 168.13614746 339.10844238 168.72143555 339.16430664 C183.89638656 340.70895191 196.48727546 343.06921759 207.2890625 354.828125 C213.99339821 363.33865161 218.02031349 372.30576961 219.6875 382.9375 C219.81705078 383.71673828 219.94660156 384.49597656 220.08007812 385.29882812 C220.3946519 387.19792168 220.69845882 389.09879356 221 391 C222.01578125 391.268125 223.0315625 391.53625 224.078125 391.8125 C238.51861368 395.83118234 249.13616581 401.72265676 257 415 C258.60521009 417.93647714 259.90604087 420.83840083 261 424 C261.23589844 424.6703125 261.47179687 425.340625 261.71484375 426.03125 C264.68571346 436.43900271 262.73585133 447.58138674 258.7421875 457.4140625 C257.82435713 460.61197673 257.7046791 461.91115785 259 465 C261.19998536 467.2828878 263.65938572 469.1574281 266.1875 471.0625 C266.84814453 471.57876953 267.50878906 472.09503906 268.18945312 472.62695312 C271.11136559 474.89121895 274.05370895 477.03558301 277.13671875 479.078125 C280.15670492 481.10518256 282.86174394 483.32388841 285.625 485.6875 C291.56845671 490.71003413 297.69991907 495.43003838 304 500 C305.22396484 500.90298828 305.22396484 500.90298828 306.47265625 501.82421875 C313.62356867 506.88995945 319.70615688 508.77026014 328.48046875 507.59765625 C336.05064677 505.8019396 341.70628755 501.39224715 346 495 C348.79698111 489.8882759 350.70014105 483.88710147 350 478 C347.44760667 475.16563753 344.64702309 472.87097706 341.5859375 470.609375 C340.74772461 469.98651611 339.90951172 469.36365723 339.04589844 468.72192383 C338.16450195 468.07118896 337.28310547 467.4204541 336.375 466.75 C330.3445141 462.26569641 324.36673854 457.75309342 318.53515625 453.01171875 C314.45349669 449.77280554 310.26571385 446.67646201 306.09057617 443.55957031 C300.83940238 439.6373479 295.632062 435.66465779 290.44921875 431.65234375 C287.82191551 429.62297309 285.17395381 427.62266258 282.51953125 425.62890625 C281.74988037 425.04810303 280.98022949 424.4672998 280.18725586 423.86889648 C278.67704847 422.72990257 277.16366548 421.59510371 275.64672852 420.46508789 C271.1880808 417.09287458 267.8162973 414.44889191 266 409 C265.60665706 403.788206 266.02656912 400.36103195 269 396 C273.34333479 393.03863537 276.80222575 392.44309562 282 393 C287.20882349 395.20258822 291.34758765 398.40481489 295.75 401.875 C301.75126012 406.53856665 307.8166653 411.0807363 314 415.5 C322.08927582 421.2963695 330.00826652 427.29184606 337.88671875 433.37060547 C364.82235317 457.89411889 364.82235317 457.89411889 397 468 C403.68605499 466.18074414 408.13825174 461.57808082 412 456 C415.04632266 450.62032381 416.5829548 444.06635475 415 438 C412.71135233 435.08859106 410.16435325 432.91894514 407 431 C406.34 431 405.68 431 405 431 C405 430.34 405 429.68 405 429 C403.58606049 427.71537216 403.58606049 427.71537216 401.6953125 426.453125 C400.97585449 425.94515381 400.25639648 425.43718262 399.51513672 424.91381836 C398.7263916 424.3647583 397.93764648 423.81569824 397.125 423.25 C390.58968863 418.62098349 384.17285067 413.88497464 377.875 408.9375 C371.45479902 403.89910025 364.98346075 398.94274455 358.43432617 394.07299805 C354.10618438 390.85071053 349.8620259 387.54430428 345.69921875 384.109375 C343.9195454 382.72666063 343.9195454 382.72666063 341 383 C340.67 382.01 340.34 381.02 340 380 C338.5953845 378.63659325 338.5953845 378.63659325 336.82421875 377.3984375 C335.83784424 376.66947266 335.83784424 376.66947266 334.83154297 375.92578125 C334.12400879 375.41402344 333.41647461 374.90226562 332.6875 374.375 C331.22517396 373.29959673 329.76293518 372.22407478 328.30078125 371.1484375 C327.20950928 370.35131348 327.20950928 370.35131348 326.09619141 369.53808594 C323.16633055 367.38829285 320.27207837 365.19376249 317.375 363 C314.56836376 360.87692846 311.8214909 358.89092327 308.81640625 357.0546875 C304.49333362 353.90082314 303.28627002 350.07272738 302 345 C302.08317267 340.59184864 303.21760763 337.43161725 306 334 C311.15069364 330.97018021 315.28168438 330.56508492 321 332 C324.10546875 333.72265625 324.10546875 333.72265625 327.1875 336.0625 C327.7635498 336.49296631 328.33959961 336.92343262 328.93310547 337.36694336 C330.96810768 338.89517356 332.98339241 340.44758585 335 342 C336.71662377 343.30316968 338.43412157 344.60518855 340.15234375 345.90625 C343.79854321 348.67209519 347.43734316 351.4472705 351.0703125 354.23046875 C354.86343538 357.13518346 358.67188207 360.01660425 362.5 362.875 C367.08782641 366.30283621 371.63033922 369.78544371 376.1640625 373.28417969 C379.58983571 375.92454162 383.0350171 378.53610652 386.5 381.125 C392.19432954 385.38060266 397.84819368 389.68812354 403.5 394 C414.70721567 402.55682334 414.70721567 402.55682334 426 411 C426.71349609 411.52787109 427.42699219 412.05574219 428.16210938 412.59960938 C430.58240479 414.38559313 433.00910012 416.16255516 435.4375 417.9375 C436.20795654 418.50621826 436.97841309 419.07493652 437.7722168 419.66088867 C444.11101984 424.2683335 450.21273117 427.87943791 458.390625 426.63671875 C465.74777862 424.79743034 471.14338355 421.27685513 475.3828125 414.9296875 C478.20405751 409.42530038 479.48300301 403.07939123 478 397 C474.35029913 392.63289609 469.71649462 389.34340718 465.1875 385.9375 C464.44121338 385.37168213 463.69492676 384.80586426 462.92602539 384.22290039 C460.62075549 382.47736722 458.31110772 380.7377943 456 379 C455.30841797 378.47921875 454.61683594 377.9584375 453.90429688 377.421875 C449.93204243 374.43208892 445.95274944 371.4518244 441.97070312 368.47509766 C440.01473615 367.0110302 438.06158973 365.54328486 436.109375 364.07421875 C428.87431749 358.63211869 421.60959762 353.2336817 414.3125 347.875 C407.95452559 343.20494425 401.67140502 338.45945696 395.4375 333.625 C391.17648062 330.34729278 386.83441975 327.17956553 382.5 324 C376.02593476 319.24985096 369.60939893 314.44632658 363.27734375 309.5078125 C360.80636269 307.59494432 358.29037175 305.75476738 355.75390625 303.9296875 C355.0271167 303.40133301 354.30032715 302.87297852 353.55151367 302.32861328 C352.13846538 301.3037372 350.71838098 300.28846735 349.2902832 299.28466797 C344.55312572 295.82988654 341.6105048 292.64507276 340.6015625 286.62109375 C340.65161674 281.95770686 340.84668297 278.69699237 344 275 C347.60699959 271.92344152 351.02125302 271.339012 355.63671875 271.54296875 C360.22089323 272.42949505 363.37392558 275.18612433 367 278 C368.23259797 278.92035347 369.4671336 279.83811504 370.703125 280.75390625 C374.17487773 283.33289863 377.6283262 285.93521861 381.07666016 288.54541016 C383.71177088 290.53830045 386.35562534 292.51942471 389 294.5 C398.25 301.4375 407.5 308.375 416.75 315.3125 C417.70261719 316.02664063 418.65523437 316.74078125 419.63671875 317.4765625 C422.26598743 319.44831082 424.89290062 321.42317655 427.51953125 323.3984375 C436.56767785 330.19859183 445.64159284 336.95923509 454.77246094 343.64794922 C459.93216314 347.44034101 465.02462154 351.31169968 470.09643555 355.22070312 C488.92186269 370.79157254 488.92186269 370.79157254 512 375 C518.18257938 372.86419985 522.18232088 368.83000039 525.25 363.125 C528.47773631 356.09220869 528.58626339 349.27898566 526 342 C522.7820556 336.98978277 518.14897278 333.96118923 513.375 330.5625 C511.65478886 329.31711991 509.93607452 328.0696701 508.21875 326.8203125 C507.34734375 326.18641602 506.4759375 325.55251953 505.578125 324.89941406 C501.62067033 321.98378932 497.74415167 318.96883822 493.875 315.9375 C492.38152155 314.76951702 490.88803201 313.60154821 489.39453125 312.43359375 C488.66443848 311.86237793 487.9343457 311.29116211 487.18212891 310.70263672 C477.66770691 303.27887536 468.04671732 296.00778977 458.3125 288.875 C450.95516345 283.48352244 443.74721671 277.9372747 436.60449219 272.26611328 C433.48299285 269.80292162 430.32124306 267.39195828 427.16552734 264.97290039 C422.50964619 261.39996022 417.87886256 257.79534799 413.25 254.1875 C407.19196226 249.46632418 401.10877944 244.78031358 395 240.125 C389.78380178 236.14786254 384.60858384 232.13173772 379.50390625 228.01171875 C374.63620788 224.10085345 369.71034368 220.2632396 364.796875 216.41015625 C363.07167885 215.05625232 361.34801752 213.70042501 359.625 212.34375 C351.55388045 205.99001464 343.46001108 199.66595619 335.33984375 193.375 C332.64986556 191.28954442 329.97451317 189.1884015 327.31640625 187.0625 C319.33066969 180.7116477 311.53351658 174.58519537 301 174 C299.80375 173.896875 298.6075 173.79375 297.375 173.6875 C281.9315464 174.0148179 269.23640356 184.03249292 257.65625 193.16015625 C253.30967413 196.57026479 248.83674723 199.80559441 244.375 203.0625 C238.27652679 207.52682386 232.34111857 212.0937686 226.5234375 216.91796875 C214.59005309 226.76393453 202.45052602 235.00424915 187 238 C186.22785156 238.15339844 185.45570313 238.30679688 184.66015625 238.46484375 C169.79728242 240.66583505 153.15195754 236.58898415 141.0625 227.6875 C130.44004809 218.54538978 122.95396368 207.58234126 121.6640625 193.2734375 C121.4595459 172.86268103 129.67927183 158.60489284 143.63671875 144.2109375 C149.34381183 138.4150515 155.10371018 132.70907535 161.32421875 127.4609375 C163.08347981 125.92722273 164.69117576 124.30327942 166.3125 122.625 C169.09302556 119.79426179 172.03152597 117.2971282 175.125 114.8125 C179.3620829 111.40780446 183.36264539 107.85080447 187.3125 104.125 C192.8865618 98.88533162 198.74127618 94.126865 204.80859375 89.47265625 C207.94460659 87.0593776 211.00998712 84.59314843 214 82 C214 81.67 214 81.34 214 81 C191.27105367 78.07488343 170.05464314 85.08154754 148.61657715 91.76278687 Z M33.8125 300.125 C33.03197266 300.91003906 32.25144531 301.69507813 31.44726562 302.50390625 C29.94926759 304.01079825 28.45230372 305.51871925 26.95654297 307.02783203 C25.36995344 308.6270921 23.7776362 310.22066843 22.18359375 311.8125 C14.47063498 319.11263598 14.47063498 319.11263598 12 329 C11.67 329 11.34 329 11 329 C10.82595459 335.09158936 11.78633346 339.75101131 15 345 C19.84004429 350.04370952 24.28629746 353.01314601 31.375 353.3125 C44.29318746 352.92815723 52.88968355 341.23463846 61.3125 332.6875 C63.0770879 330.89743068 64.84391304 329.10956319 66.61328125 327.32421875 C67.38454346 326.54135498 68.15580566 325.75849121 68.95043945 324.9519043 C71 323 71 323 74 321 C74 320.34 74 319.68 74 319 C74.66 319 75.32 319 76 319 C77.78403608 317.12594741 77.78403608 317.12594741 79.5625 314.75 C80.18253906 313.96109375 80.80257812 313.1721875 81.44140625 312.359375 C84.28555359 308.05394894 84.34013567 304.10203499 84 299 C82.53349897 293.32809161 80.2871532 288.2113576 75.28125 284.84375 C57.33916264 274.87592369 45.91315503 287.89248536 33.8125 300.125 Z M103.1550293 332.17919922 C102.11854752 333.11587433 102.11854752 333.11587433 101.06112671 334.07147217 C97.92083951 337.00973464 94.85975651 340.01650919 91.83203125 343.0703125 C91.18932785 343.71443085 90.54662445 344.35854919 89.88444519 345.02218628 C87.85807085 347.05409005 85.83521951 349.08945857 83.8125 351.125 C82.44619838 352.49632777 81.0796637 353.86742337 79.71289062 355.23828125 C76.65626559 358.30479527 73.60040577 361.37205339 70.55151367 364.44625854 C69.09946126 365.90039592 67.62908965 367.33617544 66.1574707 368.77050781 C62.48181523 372.56886537 61.69926673 376.1911825 61.625 381.375 C61.7555901 387.44743973 63.07977465 391.07196656 67.4609375 395.46484375 C73.03212324 400.34316629 76.99285158 401.41562158 84.2578125 401.2421875 C92.88275037 400.48044085 98.37102696 394.63180723 104.18823242 388.81005859 C106.80983922 386.1900452 109.44692305 383.58693944 112.0891571 380.98779297 C114.75981539 378.35740496 117.42241993 375.71892552 120.0847168 373.08007812 C121.48928953 371.69067145 122.89653147 370.30395805 124.30639648 368.91992188 C126.35070779 366.91200992 128.38516484 364.89455295 130.41796875 362.875 C131.04817429 362.26027832 131.67837982 361.64555664 132.3276825 361.01220703 C136.60030679 356.74123958 139.23857095 353.04951086 139.4375 346.8125 C139.29566542 341.15802819 137.16445115 336.62176418 134 332 C129.45811098 328.05053128 124.55423571 326.46766259 118.625 325.6875 C112.60642001 326.40399762 107.69438433 328.07691077 103.1550293 332.17919922 Z M152.125 380.8125 C148.21702372 384.82212884 144.32535539 388.78057383 140.078125 392.43359375 C135.37079626 396.48434063 131.00366409 400.84969506 126.625 405.25 C125.81933594 406.05179688 125.01367188 406.85359375 124.18359375 407.6796875 C123.41402344 408.45054687 122.64445312 409.22140625 121.8515625 410.015625 C121.15885254 410.70946289 120.46614258 411.40330078 119.75244141 412.11816406 C115.33007181 416.86706694 115.58269528 420.59291066 115.6796875 426.828125 C116.08867949 430.87814324 117.24963042 433.02043295 120 436 C120.86625 437.0828125 120.86625 437.0828125 121.75 438.1875 C127.20827835 442.58444645 133.1503011 443.65235228 140 443 C151.86605615 439.39780438 160.68917153 427.4313338 169.1875 418.875 C170.45744687 417.60002588 171.72762749 416.32528454 172.99804688 415.05078125 C175.3298159 412.7109066 177.66023194 410.36970315 179.98901367 408.02685547 C187.68626794 400.28829433 187.68626794 400.28829433 190.3125 397.875 C192.96088554 393.36293575 192.69459095 389.09844075 192 384 C190.21928139 377.84651082 186.38964662 373.39216794 181 370 C178.12680099 368.99325074 178.12680099 368.99325074 175 369 C173.92878906 368.90912109 173.92878906 368.90912109 172.8359375 368.81640625 C163.23308103 368.28648273 158.43371568 374.3055104 152.125 380.8125 Z M201.6015625 426.76171875 C200.31233887 427.95740479 200.31233887 427.95740479 198.99707031 429.17724609 C198.52338013 429.62372498 198.04968994 430.07020386 197.56164551 430.5302124 C195.84479136 432.14607907 194.11523939 433.74777436 192.38574219 435.35009766 C189.02870598 438.47406656 185.71971222 441.6442945 182.42822266 444.8371582 C181.05274323 446.16046427 179.66581583 447.47196732 178.26806641 448.77172852 C169.99313902 456.02366281 169.99313902 456.02366281 165.04931641 465.50170898 C164.95966964 471.37800991 165.90737353 475.58427144 170 480 C174.86967218 484.76293964 179.43873638 487.2755244 186.3125 487.375 C193.90209959 487.20181451 198.50952684 484.67797316 203.8125 479.375 C204.35519531 478.78460937 204.89789063 478.19421875 205.45703125 477.5859375 C207 476 207 476 210 474 C210 473.34 210 472.68 210 472 C210.66 472 211.32 472 212 472 C212 471.34 212 470.68 212 470 C212.58193115 469.74114014 213.1638623 469.48228027 213.76342773 469.21557617 C217.81832634 467.01174033 220.81836792 463.55079206 224.0625 460.3125 C225.14241211 459.26932617 225.14241211 459.26932617 226.24414062 458.20507812 C231.22971521 453.24727833 234.34914497 449.26867082 235.43359375 442.15625 C235.44397869 435.09449102 234.60987525 430.80253713 229.609375 425.53515625 C225.27249535 421.59772605 221.24257645 420.20023004 215.5 419.6875 C209.73538556 420.20219772 205.76809621 422.88945292 201.6015625 426.76171875 Z M86 431 C87 433 87 433 87 433 Z " fill="#040404" transform="translate(227,242)"/>
<path d="M0 0 C0 3 0 3 -1.10095215 4.4617157 C-1.61613403 4.97023575 -2.13131592 5.4787558 -2.66210938 6.00268555 C-3.24271118 6.58306076 -3.82331299 7.16343597 -4.42150879 7.76139832 C-5.05584839 8.38025406 -5.69018799 8.9991098 -6.34375 9.63671875 C-7.30927795 10.59587944 -7.30927795 10.59587944 -8.29431152 11.57441711 C-10.35595596 13.61924143 -12.42777661 15.65340245 -14.5 17.6875 C-15.89781717 19.07027471 -17.29496153 20.45372991 -18.69140625 21.83789062 C-22.11984101 25.23321183 -25.55743964 28.61900414 -29 32 C-29.66 31.67 -30.32 31.34 -31 31 C-25.41854248 24.81397455 -19.79025296 18.68145866 -13.9375 12.75 C-13.03902344 11.83734375 -12.14054687 10.9246875 -11.21484375 9.984375 C-9 8 -9 8 -7 8 C-6.6596875 7.13375 -6.6596875 7.13375 -6.3125 6.25 C-4.66961977 3.4336339 -2.60466773 1.91922886 0 0 Z " fill="#262626" transform="translate(391,366)"/>
<path d="M0 0 C0 0.33 0 0.66 0 1 C-0.65226563 1.06316406 -1.30453125 1.12632812 -1.9765625 1.19140625 C-6.72442499 1.85666722 -10.21432662 2.53123934 -13.5625 6.125 C-16.4311618 9.96335029 -16.83429794 13.2774913 -17 18 C-17.33 18 -17.66 18 -18 18 C-18.57798165 8.17431193 -18.57798165 8.17431193 -15 4 C-10.10330705 -0.31375332 -6.21023414 -0.49681873 0 0 Z " fill="#363535" transform="translate(585,513)"/>
<path d="M0 0 C0 0.33 0 0.66 0 1 C-0.71285156 1.00257813 -1.42570313 1.00515625 -2.16015625 1.0078125 C-8.61438541 1.26841395 -12.23259603 2.12143633 -16.85546875 6.72265625 C-17.23316406 7.14417969 -17.61085938 7.56570313 -18 8 C-16.73317448 4.09395463 -15.56716435 2.09833197 -12 0 C-8.07703375 -1.68127125 -4.09178643 -0.61376796 0 0 Z " fill="#343434" transform="translate(548,573)"/>
<path d="M0 0 C0.66 0.33 1.32 0.66 2 1 C-1.96 4.96 -5.92 8.92 -10 13 C-10.66 12.67 -11.32 12.34 -12 12 C-8.27653164 7.57905197 -4.70478962 3.42166518 0 0 Z " fill="#262525" transform="translate(259,504)"/>
<path d="M0 0 C0 0.66 0 1.32 0 2 C0.85271484 1.98259766 0.85271484 1.98259766 1.72265625 1.96484375 C6.60670484 1.90776806 11.18503965 2.18043228 16 3 C16 3.33 16 3.66 16 4 C8.14453364 4.31918373 0.73059495 3.35709504 -7 2 C-7 1.67 -7 1.34 -7 1 C-2.25 0 -2.25 0 0 0 Z " fill="#3F3E3E" transform="translate(682,320)"/>
<path d="M0 0 C-0.33 2.97 -0.66 5.94 -1 9 C-3 6 -3 6 -3 2 C-5.31 2 -7.62 2 -10 2 C-10 1.67 -10 1.34 -10 1 C-3.375 0 -3.375 0 0 0 Z M-2 2 C-1 4 -1 4 -1 4 Z " fill="#3D3C3C" transform="translate(315,671)"/>
<path d="M0 0 C0.66 0.33 1.32 0.66 2 1 C-0.31 3.31 -2.62 5.62 -5 8 C-5.66 7.67 -6.32 7.34 -7 7 C-4.78071806 4.09197539 -3.07030857 2.04687238 0 0 Z " fill="#2B2C2B" transform="translate(725,298)"/>
<path d="M0 0 C0.66 0.33 1.32 0.66 2 1 C-0.31 3.31 -2.62 5.62 -5 8 C-5 5 -5 5 -2.5 2.3125 C-1.675 1.549375 -0.85 0.78625 0 0 Z " fill="#2B2A2A" transform="translate(499,635)"/>
<path d="M0 0 C0.66 0.33 1.32 0.66 2 1 C0.02 2.98 -1.96 4.96 -4 7 C-4.66 6.67 -5.32 6.34 -6 6 C-2.25 1.125 -2.25 1.125 0 0 Z " fill="#2D2D2C" transform="translate(213,244)"/>
<path d="M0 0 C1.32 0.33 2.64 0.66 4 1 C3.01 1 2.02 1 1 1 C0.67 1.66 0.34 2.32 0 3 C0 2.01 0 1.02 0 0 Z " fill="#262526" transform="translate(344,609)"/>
<path d="M0 0 C0.33 0 0.66 0 1 0 C1 1.65 1 3.3 1 5 C0.67 5 0.34 5 0 5 C0 3.35 0 1.7 0 0 Z " fill="#2D2C2D" transform="translate(752,592)"/>
<path d="M0 0 C0.66 0.33 1.32 0.66 2 1 C1.67 1.66 1.34 2.32 1 3 C0.34 2.67 -0.32 2.34 -1 2 C-0.67 1.34 -0.34 0.68 0 0 Z " fill="#2E2C2C" transform="translate(590,325)"/>
<path d="M0 0 C4 1 4 1 4 1 Z " fill="#343434" transform="translate(502,632)"/>
<path d="M0 0 C0 3 0 3 0 3 Z " fill="#2A2C2A" transform="translate(689,628)"/>
<path d="M0 0 C1.485 0.99 1.485 0.99 3 2 C2.01 2 1.02 2 0 2 C0 1.34 0 0.68 0 0 Z " fill="#282827" transform="translate(360,594)"/>
<path d="M0 0 C0.99 0.33 1.98 0.66 3 1 C2.01 1 1.02 1 0 1 C0 0.67 0 0.34 0 0 Z " fill="#2C2B2B" transform="translate(296,526)"/>
<path d="M0 0 C0.66 0 1.32 0 2 0 C1.67 0.99 1.34 1.98 1 3 C0.67 2.01 0.34 1.02 0 0 Z " fill="#2A2A29" transform="translate(673,525)"/>
<path d="M0 0 C0.66 0.33 1.32 0.66 2 1 C1.01 1 0.02 1 -1 1 C-0.67 0.67 -0.34 0.34 0 0 Z " fill="#2A2A28" transform="translate(861,488)"/>
<path d="M0 0 C0.99 0.33 1.98 0.66 3 1 C2.01 1 1.02 1 0 1 C0 0.67 0 0.34 0 0 Z " fill="#2C2B2A" transform="translate(602,469)"/>
<path d="M0 0 C4 1 4 1 4 1 Z " fill="#2E2F2E" transform="translate(664,351)"/>
<path d="M0 0 C0.99 0.33 1.98 0.66 3 1 C2.01 1 1.02 1 0 1 C0 0.67 0 0.34 0 0 Z " fill="#302F2F" transform="translate(658,349)"/>
<path d="M0 0 C0.66 0.66 1.32 1.32 2 2 C1.01 1.67 0.02 1.34 -1 1 C-0.67 0.67 -0.34 0.34 0 0 Z " fill="#2F2F2E" transform="translate(696,320)"/>
<path d="M0 0 C0.99 0.33 1.98 0.66 3 1 C2.01 1 1.02 1 0 1 C0 0.67 0 0.34 0 0 Z " fill="#383637" transform="translate(760,272)"/>
<path d="M0 0 C0.99 0.495 0.99 0.495 2 1 C1.01 1.495 1.01 1.495 0 2 C0 1.34 0 0.68 0 0 Z " fill="#282827" transform="translate(568,736)"/>
<path d="M0 0 C0.99 0.495 0.99 0.495 2 1 C1.01 1.495 1.01 1.495 0 2 C0 1.34 0 0.68 0 0 Z " fill="#292827" transform="translate(687,665)"/>
<path d="M0 0 C0.33 0.66 0.66 1.32 1 2 C0.34 1.67 -0.32 1.34 -1 1 C-0.67 0.67 -0.34 0.34 0 0 Z " fill="#282726" transform="translate(307,640)"/>
<path d="M0 0 C0.99 0.495 0.99 0.495 2 1 C1.01 1.495 1.01 1.495 0 2 C0 1.34 0 0.68 0 0 Z " fill="#242524" transform="translate(342,616)"/>
<path d="M0 0 C3 1 3 1 3 1 Z " fill="#272625" transform="translate(336,616)"/>
<path d="M0 0 C0.33 0.66 0.66 1.32 1 2 C0.34 1.67 -0.32 1.34 -1 1 C-0.67 0.67 -0.34 0.34 0 0 Z " fill="#272625" transform="translate(361,577)"/>
<path d="M0 0 C0.33 0.66 0.66 1.32 1 2 C0.34 1.67 -0.32 1.34 -1 1 C-0.67 0.67 -0.34 0.34 0 0 Z " fill="#2A2928" transform="translate(217,542)"/>
<path d="M0 0 C3 1 3 1 3 1 Z " fill="#2C2A2A" transform="translate(353,538)"/>
<path d="" fill="#2E2C2B" transform="translate(0,0)"/>
<path d="M0 0 C0.33 0.66 0.66 1.32 1 2 C0.34 1.67 -0.32 1.34 -1 1 C-0.67 0.67 -0.34 0.34 0 0 Z " fill="#2C2B29" transform="translate(169,480)"/>
<path d="M0 0 C0.33 0.66 0.66 1.32 1 2 C0.34 1.67 -0.32 1.34 -1 1 C-0.67 0.67 -0.34 0.34 0 0 Z " fill="#2B2929" transform="translate(809,467)"/>
<path d="M0 0 C0.99 0.495 0.99 0.495 2 1 C1.01 1.495 1.01 1.495 0 2 C0 1.34 0 0.68 0 0 Z " fill="#2B2B2B" transform="translate(410,449)"/>
<path d="" fill="#302F2E" transform="translate(0,0)"/>
<path d="M0 0 C3 1 3 1 3 1 Z " fill="#2A2A29" transform="translate(880,408)"/>
<path d="M0 0 C0.33 0.66 0.66 1.32 1 2 C0.34 1.67 -0.32 1.34 -1 1 C-0.67 0.67 -0.34 0.34 0 0 Z " fill="#2B2A29" transform="translate(865,381)"/>
<path d="M0 0 C0.33 0.66 0.66 1.32 1 2 C0.34 1.67 -0.32 1.34 -1 1 C-0.67 0.67 -0.34 0.34 0 0 Z " fill="#2B2A2B" transform="translate(729,350)"/>
<path d="M0 0 C0.99 0.495 0.99 0.495 2 1 C1.01 1.495 1.01 1.495 0 2 C0 1.34 0 0.68 0 0 Z " fill="#2B2C2B" transform="translate(416,337)"/>
<path d="M0 0 C0.66 0 1.32 0 2 0 C1.67 0.66 1.34 1.32 1 2 C0.67 1.34 0.34 0.68 0 0 Z " fill="#302F2F" transform="translate(567,318)"/>
<path d="" fill="#313130" transform="translate(0,0)"/>
<path d="M0 0 C3 1 3 1 3 1 Z " fill="#373735" transform="translate(330,313)"/>
<path d="M0 0 C0.99 0.495 0.99 0.495 2 1 C1.01 1.495 1.01 1.495 0 2 C0 1.34 0 0.68 0 0 Z " fill="#353534" transform="translate(716,304)"/>
<path d="M0 0 C3 1 3 1 3 1 Z " fill="#3A3A38" transform="translate(560,283)"/>
<path d="M0 0 C0.33 0.66 0.66 1.32 1 2 C0.34 1.67 -0.32 1.34 -1 1 C-0.67 0.67 -0.34 0.34 0 0 Z " fill="#3A3B3A" transform="translate(770,264)"/>
<path d="M0 0 C2 1 2 1 2 1 Z " fill="#3A3938" transform="translate(548,783)"/>
<path d="M0 0 C2 1 2 1 2 1 Z " fill="#333132" transform="translate(541,779)"/>
<path d="M0 0 C2 1 2 1 2 1 Z " fill="#2A2A28" transform="translate(559,745)"/>
<path d="" fill="#2A2A2A" transform="translate(0,0)"/>
<path d="M0 0 C2 1 2 1 2 1 Z " fill="#333131" transform="translate(615,741)"/>
<path d="M0 0 C2 1 2 1 2 1 Z " fill="#2F2E2C" transform="translate(362,719)"/>
<path d="" fill="#282826" transform="translate(0,0)"/>
<path d="M0 0 C2 1 2 1 2 1 Z " fill="#292928" transform="translate(633,701)"/>
<path d="M0 0 C2 1 2 1 2 1 Z " fill="#31302F" transform="translate(685,699)"/>
<path d="M0 0 C2 1 2 1 2 1 Z " fill="#2D2D2C" transform="translate(669,699)"/>
<path d="M0 0 C2 1 2 1 2 1 Z " fill="#272626" transform="translate(360,683)"/>
<path d="" fill="#2C2A2A" transform="translate(0,0)"/>
<path d="" fill="#292727" transform="translate(0,0)"/>
<path d="" fill="#2A2929" transform="translate(0,0)"/>
<path d="M0 0 C2 1 2 1 2 1 Z " fill="#2B292A" transform="translate(685,664)"/>
<path d="M0 0 C2 1 2 1 2 1 Z " fill="#2A292A" transform="translate(696,660)"/>
<path d="" fill="#2D2B2A" transform="translate(0,0)"/>
<path d="" fill="#2A2B2A" transform="translate(0,0)"/>
<path d="" fill="#2D2D2D" transform="translate(0,0)"/>
<path d="" fill="#2B2927" transform="translate(0,0)"/>
<path d="M0 0 C2 1 2 1 2 1 Z " fill="#242423" transform="translate(312,641)"/>
<path d="" fill="#272625" transform="translate(0,0)"/>
<path d="" fill="#292828" transform="translate(0,0)"/>
<path d="" fill="#292827" transform="translate(0,0)"/>
<path d="M0 0 C2 1 2 1 2 1 Z " fill="#2B2A29" transform="translate(572,631)"/>
<path d="" fill="#282626" transform="translate(0,0)"/>
<path d="" fill="#2C2D2C" transform="translate(0,0)"/>
<path d="" fill="#2C2928" transform="translate(0,0)"/>
<path d="M0 0 C2 1 2 1 2 1 Z " fill="#262726" transform="translate(336,618)"/>
<path d="" fill="#292928" transform="translate(0,0)"/>
<path d="M0 0 C2 1 2 1 2 1 Z " fill="#2A2A2A" transform="translate(715,608)"/>
<path d="" fill="#2D2C2B" transform="translate(0,0)"/>
<path d="" fill="#272726" transform="translate(0,0)"/>
<path d="" fill="#2D2C2A" transform="translate(0,0)"/>
<path d="M0 0 C2 1 2 1 2 1 Z " fill="#272825" transform="translate(259,593)"/>
<path d="M0 0 C2 1 2 1 2 1 Z " fill="#272626" transform="translate(251,592)"/>
<path d="M0 0 C2 1 2 1 2 1 Z " fill="#2B2927" transform="translate(682,584)"/>
<path d="M0 0 C2 1 2 1 2 1 Z " fill="#272625" transform="translate(360,581)"/>
<path d="" fill="#262523" transform="translate(0,0)"/>
<path d="M0 0 C2 1 2 1 2 1 Z " fill="#3A3A39" transform="translate(537,571)"/>
<path d="" fill="#2F2E2E" transform="translate(0,0)"/>
<path d="" fill="#2A2928" transform="translate(0,0)"/>
<path d="" fill="#333332" transform="translate(0,0)"/>
<path d="" fill="#333131" transform="translate(0,0)"/>
<path d="M0 0 C2 1 2 1 2 1 Z " fill="#313130" transform="translate(910,492)"/>
<path d="M0 0 C2 1 2 1 2 1 Z " fill="#2F2F2D" transform="translate(125,492)"/>
<path d="M0 0 C2 1 2 1 2 1 Z " fill="#2B2A2A" transform="translate(818,483)"/>
<path d="" fill="#2C2A28" transform="translate(0,0)"/>
<path d="" fill="#2B2B2A" transform="translate(0,0)"/>
<path d="" fill="#2B2A29" transform="translate(0,0)"/>
<path d="M0 0 C2 1 2 1 2 1 Z " fill="#2D2C2D" transform="translate(407,450)"/>
<path d="" fill="#302E2E" transform="translate(0,0)"/>
<path d="" fill="#272726" transform="translate(0,0)"/>
<path d="M0 0 C2 1 2 1 2 1 Z " fill="#2C2C2B" transform="translate(595,424)"/>
<path d="" fill="#2C2C2A" transform="translate(0,0)"/>
<path d="" fill="#2B2B2A" transform="translate(0,0)"/>
<path d="" fill="#353534" transform="translate(0,0)"/>
<path d="" fill="#323131" transform="translate(0,0)"/>
<path d="" fill="#313031" transform="translate(0,0)"/>
<path d="M0 0 C2 1 2 1 2 1 Z " fill="#302F2E" transform="translate(556,392)"/>
<path d="M0 0 C2 1 2 1 2 1 Z " fill="#31302F" transform="translate(514,385)"/>
<path d="" fill="#2A2A28" transform="translate(0,0)"/>
<path d="" fill="#323231" transform="translate(0,0)"/>
<path d="M0 0 C2 1 2 1 2 1 Z " fill="#2B2B2B" transform="translate(744,373)"/>
<path d="" fill="#2A292A" transform="translate(0,0)"/>
<path d="M0 0 C2 1 2 1 2 1 Z " fill="#2C2B29" transform="translate(849,359)"/>
<path d="" fill="#2A2928" transform="translate(0,0)"/>
<path d="" fill="#282627" transform="translate(0,0)"/>
<path d="M0 0 C2 1 2 1 2 1 Z " fill="#2C2D2A" transform="translate(418,336)"/>
<path d="M0 0 C2 1 2 1 2 1 Z " fill="#2E2C2C" transform="translate(610,332)"/>
<path d="" fill="#282627" transform="translate(0,0)"/>
<path d="M0 0 C2 1 2 1 2 1 Z " fill="#2C2B2C" transform="translate(424,329)"/>
<path d="M0 0 C2 1 2 1 2 1 Z " fill="#2F2B2D" transform="translate(428,328)"/>
<path d="" fill="#2E2E2E" transform="translate(0,0)"/>
<path d="M0 0 C2 1 2 1 2 1 Z " fill="#2E2C2B" transform="translate(404,327)"/>
<path d="M0 0 C2 1 2 1 2 1 Z " fill="#2F2E2D" transform="translate(592,326)"/>
<path d="M0 0 C2 1 2 1 2 1 Z " fill="#302F2E" transform="translate(421,324)"/>
<path d="M0 0 C2 1 2 1 2 1 Z " fill="#2B2928" transform="translate(704,320)"/>
<path d="M0 0 C2 1 2 1 2 1 Z " fill="#333433" transform="translate(687,320)"/>
<path d="M0 0 C2 1 2 1 2 1 Z " fill="#333331" transform="translate(683,320)"/>
<path d="M0 0 C2 1 2 1 2 1 Z " fill="#313130" transform="translate(512,318)"/>
<path d="M0 0 C2 1 2 1 2 1 Z " fill="#393735" transform="translate(336,312)"/>
<path d="M0 0 C2 1 2 1 2 1 Z " fill="#302F2F" transform="translate(316,312)"/>
<path d="M0 0 C2 1 2 1 2 1 Z " fill="#2C2D2C" transform="translate(258,303)"/>
<path d="M0 0 C2 1 2 1 2 1 Z " fill="#3B3939" transform="translate(393,296)"/>
<path d="M0 0 C2 1 2 1 2 1 Z " fill="#3D3D3B" transform="translate(546,281)"/>
<path d="M0 0 C2 1 2 1 2 1 Z " fill="#3E3E3D" transform="translate(244,249)"/>
<path d="" fill="#8D8E8E" transform="translate(0,0)"/>
<path d="" fill="#5B5C5C" transform="translate(0,0)"/>
<path d="" fill="#343233" transform="translate(0,0)"/>
<path d="" fill="#313230" transform="translate(0,0)"/>
<path d="" fill="#302F2E" transform="translate(0,0)"/>
<path d="" fill="#333133" transform="translate(0,0)"/>
<path d="" fill="#2F2E2B" transform="translate(0,0)"/>
<path d="" fill="#32312F" transform="translate(0,0)"/>
<path d="" fill="#363434" transform="translate(0,0)"/>
<path d="" fill="#2E2E2D" transform="translate(0,0)"/>
<path d="" fill="#2E2E2C" transform="translate(0,0)"/>
<path d="" fill="#363535" transform="translate(0,0)"/>
<path d="" fill="#2D2C2B" transform="translate(0,0)"/>
<path d="" fill="#2C2A2C" transform="translate(0,0)"/>
<path d="" fill="#323230" transform="translate(0,0)"/>
<path d="" fill="#2B2729" transform="translate(0,0)"/>
<path d="" fill="#2D2B29" transform="translate(0,0)"/>
<path d="" fill="#29292A" transform="translate(0,0)"/>
<path d="" fill="#292826" transform="translate(0,0)"/>
<path d="" fill="#2C2B2C" transform="translate(0,0)"/>
<path d="" fill="#333334" transform="translate(0,0)"/>
<path d="" fill="#282823" transform="translate(0,0)"/>
<path d="" fill="#272725" transform="translate(0,0)"/>
<path d="" fill="#252523" transform="translate(0,0)"/>
<path d="" fill="#292726" transform="translate(0,0)"/>
<path d="" fill="#2B2828" transform="translate(0,0)"/>
<path d="" fill="#2A2829" transform="translate(0,0)"/>
<path d="" fill="#292B2A" transform="translate(0,0)"/>
<path d="" fill="#2A2929" transform="translate(0,0)"/>
<path d="" fill="#292A28" transform="translate(0,0)"/>
<path d="" fill="#2A2828" transform="translate(0,0)"/>
<path d="" fill="#282627" transform="translate(0,0)"/>
<path d="" fill="#2B2828" transform="translate(0,0)"/>
<path d="" fill="#312E2D" transform="translate(0,0)"/>
<path d="" fill="#242524" transform="translate(0,0)"/>
<path d="" fill="#343133" transform="translate(0,0)"/>
<path d="" fill="#2B2A29" transform="translate(0,0)"/>
<path d="" fill="#2A2829" transform="translate(0,0)"/>
<path d="" fill="#2D292A" transform="translate(0,0)"/>
<path d="" fill="#282825" transform="translate(0,0)"/>
<path d="" fill="#2C2A2A" transform="translate(0,0)"/>
<path d="" fill="#2C2929" transform="translate(0,0)"/>
<path d="" fill="#2B2B2A" transform="translate(0,0)"/>
<path d="" fill="#282928" transform="translate(0,0)"/>
<path d="" fill="#242423" transform="translate(0,0)"/>
<path d="" fill="#282825" transform="translate(0,0)"/>
<path d="" fill="#363635" transform="translate(0,0)"/>
<path d="" fill="#2D2C2E" transform="translate(0,0)"/>
<path d="" fill="#2C2D2B" transform="translate(0,0)"/>
<path d="" fill="#2C2B29" transform="translate(0,0)"/>
<path d="" fill="#282826" transform="translate(0,0)"/>
<path d="" fill="#282827" transform="translate(0,0)"/>
<path d="" fill="#252828" transform="translate(0,0)"/>
<path d="" fill="#272726" transform="translate(0,0)"/>
<path d="" fill="#282824" transform="translate(0,0)"/>
<path d="" fill="#2B2A2C" transform="translate(0,0)"/>
<path d="" fill="#2A2826" transform="translate(0,0)"/>
<path d="" fill="#292828" transform="translate(0,0)"/>
<path d="" fill="#282626" transform="translate(0,0)"/>
<path d="" fill="#302F2F" transform="translate(0,0)"/>
<path d="" fill="#313230" transform="translate(0,0)"/>
<path d="" fill="#2B2B28" transform="translate(0,0)"/>
<path d="" fill="#2B2A2A" transform="translate(0,0)"/>
<path d="" fill="#232222" transform="translate(0,0)"/>
<path d="" fill="#252223" transform="translate(0,0)"/>
<path d="" fill="#292726" transform="translate(0,0)"/>
<path d="" fill="#262728" transform="translate(0,0)"/>
<path d="" fill="#2C2B2A" transform="translate(0,0)"/>
<path d="" fill="#2A2728" transform="translate(0,0)"/>
<path d="" fill="#282526" transform="translate(0,0)"/>
<path d="" fill="#2A2A28" transform="translate(0,0)"/>
<path d="" fill="#272627" transform="translate(0,0)"/>
<path d="" fill="#292A2A" transform="translate(0,0)"/>
<path d="" fill="#272826" transform="translate(0,0)"/>
<path d="" fill="#2B2C2A" transform="translate(0,0)"/>
<path d="" fill="#262626" transform="translate(0,0)"/>
<path d="" fill="#28292A" transform="translate(0,0)"/>
<path d="" fill="#29282A" transform="translate(0,0)"/>
<path d="" fill="#2A2B25" transform="translate(0,0)"/>
<path d="" fill="#2C292B" transform="translate(0,0)"/>
<path d="" fill="#333231" transform="translate(0,0)"/>
<path d="" fill="#32302F" transform="translate(0,0)"/>
<path d="" fill="#2B2A29" transform="translate(0,0)"/>
<path d="" fill="#2A2926" transform="translate(0,0)"/>
<path d="" fill="#333331" transform="translate(0,0)"/>
<path d="" fill="#2C2A29" transform="translate(0,0)"/>
<path d="" fill="#2B2929" transform="translate(0,0)"/>
<path d="" fill="#2D2D2B" transform="translate(0,0)"/>
<path d="" fill="#2D2C2A" transform="translate(0,0)"/>
<path d="" fill="#2A2928" transform="translate(0,0)"/>
<path d="" fill="#282826" transform="translate(0,0)"/>
<path d="" fill="#353332" transform="translate(0,0)"/>
<path d="" fill="#2C2B29" transform="translate(0,0)"/>
<path d="" fill="#2C2C2A" transform="translate(0,0)"/>
<path d="" fill="#282929" transform="translate(0,0)"/>
<path d="" fill="#292929" transform="translate(0,0)"/>
<path d="" fill="#272526" transform="translate(0,0)"/>
<path d="" fill="#272527" transform="translate(0,0)"/>
<path d="" fill="#323532" transform="translate(0,0)"/>
<path d="" fill="#30312F" transform="translate(0,0)"/>
<path d="" fill="#2A2929" transform="translate(0,0)"/>
<path d="" fill="#2A2826" transform="translate(0,0)"/>
<path d="" fill="#2A2927" transform="translate(0,0)"/>
<path d="" fill="#2A2A28" transform="translate(0,0)"/>
<path d="" fill="#282825" transform="translate(0,0)"/>
<path d="" fill="#313131" transform="translate(0,0)"/>
<path d="" fill="#2D2E2B" transform="translate(0,0)"/>
<path d="" fill="#252A2A" transform="translate(0,0)"/>
<path d="" fill="#2F2E2F" transform="translate(0,0)"/>
<path d="" fill="#2C2B27" transform="translate(0,0)"/>
<path d="" fill="#2C2B2A" transform="translate(0,0)"/>
<path d="" fill="#313130" transform="translate(0,0)"/>
<path d="" fill="#2A2B28" transform="translate(0,0)"/>
<path d="" fill="#2C2B2D" transform="translate(0,0)"/>
<path d="" fill="#2A2828" transform="translate(0,0)"/>
<path d="" fill="#2D2927" transform="translate(0,0)"/>
<path d="" fill="#282826" transform="translate(0,0)"/>
<path d="" fill="#2C2828" transform="translate(0,0)"/>
<path d="" fill="#2B2D2C" transform="translate(0,0)"/>
<path d="" fill="#2A2A27" transform="translate(0,0)"/>
<path d="" fill="#323030" transform="translate(0,0)"/>
<path d="" fill="#2B2C2A" transform="translate(0,0)"/>
<path d="" fill="#322F30" transform="translate(0,0)"/>
<path d="" fill="#2D2B2C" transform="translate(0,0)"/>
<path d="" fill="#282827" transform="translate(0,0)"/>
<path d="" fill="#2C2B2B" transform="translate(0,0)"/>
<path d="" fill="#313331" transform="translate(0,0)"/>
<path d="" fill="#323032" transform="translate(0,0)"/>
<path d="" fill="#292928" transform="translate(0,0)"/>
<path d="" fill="#282724" transform="translate(0,0)"/>
<path d="" fill="#2C2B2A" transform="translate(0,0)"/>
<path d="" fill="#343130" transform="translate(0,0)"/>
<path d="" fill="#2A2724" transform="translate(0,0)"/>
<path d="" fill="#2A2829" transform="translate(0,0)"/>
<path d="" fill="#373735" transform="translate(0,0)"/>
<path d="" fill="#2B292A" transform="translate(0,0)"/>
<path d="" fill="#2D2B2B" transform="translate(0,0)"/>
<path d="" fill="#333030" transform="translate(0,0)"/>
<path d="" fill="#2A2528" transform="translate(0,0)"/>
<path d="" fill="#313234" transform="translate(0,0)"/>
<path d="" fill="#282726" transform="translate(0,0)"/>
<path d="" fill="#282726" transform="translate(0,0)"/>
<path d="" fill="#262626" transform="translate(0,0)"/>
<path d="" fill="#272727" transform="translate(0,0)"/>
<path d="" fill="#292626" transform="translate(0,0)"/>
<path d="" fill="#2B2B2A" transform="translate(0,0)"/>
<path d="" fill="#2D2929" transform="translate(0,0)"/>
<path d="" fill="#2B2A29" transform="translate(0,0)"/>
<path d="" fill="#272828" transform="translate(0,0)"/>
<path d="" fill="#2B282A" transform="translate(0,0)"/>
<path d="" fill="#2A2A29" transform="translate(0,0)"/>
<path d="" fill="#2A2927" transform="translate(0,0)"/>
<path d="" fill="#2D2A2A" transform="translate(0,0)"/>
<path d="" fill="#262926" transform="translate(0,0)"/>
<path d="" fill="#2B2A28" transform="translate(0,0)"/>
<path d="" fill="#272625" transform="translate(0,0)"/>
<path d="" fill="#272826" transform="translate(0,0)"/>
<path d="" fill="#2B2929" transform="translate(0,0)"/>
<path d="" fill="#2E2A2A" transform="translate(0,0)"/>
<path d="" fill="#232223" transform="translate(0,0)"/>
<path d="" fill="#2C2C2D" transform="translate(0,0)"/>
<path d="" fill="#353432" transform="translate(0,0)"/>
<path d="" fill="#292828" transform="translate(0,0)"/>
<path d="" fill="#262726" transform="translate(0,0)"/>
<path d="" fill="#292725" transform="translate(0,0)"/>
<path d="" fill="#2D2C29" transform="translate(0,0)"/>
<path d="" fill="#2B2829" transform="translate(0,0)"/>
<path d="" fill="#2A2828" transform="translate(0,0)"/>
<path d="" fill="#2A2927" transform="translate(0,0)"/>
<path d="" fill="#262623" transform="translate(0,0)"/>
<path d="" fill="#343432" transform="translate(0,0)"/>
<path d="" fill="#282527" transform="translate(0,0)"/>
<path d="" fill="#2B2A29" transform="translate(0,0)"/>
<path d="" fill="#272526" transform="translate(0,0)"/>
<path d="" fill="#373534" transform="translate(0,0)"/>
<path d="" fill="#2A2A2A" transform="translate(0,0)"/>
<path d="" fill="#272927" transform="translate(0,0)"/>
<path d="" fill="#2C2A29" transform="translate(0,0)"/>
<path d="" fill="#252524" transform="translate(0,0)"/>
<path d="" fill="#2C2A29" transform="translate(0,0)"/>
<path d="" fill="#30312E" transform="translate(0,0)"/>
<path d="" fill="#343032" transform="translate(0,0)"/>
<path d="" fill="#2A2828" transform="translate(0,0)"/>
<path d="" fill="#292827" transform="translate(0,0)"/>
<path d="" fill="#2A2826" transform="translate(0,0)"/>
<path d="" fill="#2C2E2C" transform="translate(0,0)"/>
<path d="" fill="#2B2929" transform="translate(0,0)"/>
<path d="" fill="#2E2C2C" transform="translate(0,0)"/>
<path d="" fill="#2E302D" transform="translate(0,0)"/>
<path d="" fill="#292A28" transform="translate(0,0)"/>
<path d="" fill="#2A272A" transform="translate(0,0)"/>
<path d="" fill="#282625" transform="translate(0,0)"/>
<path d="" fill="#2A2B29" transform="translate(0,0)"/>
<path d="" fill="#31302F" transform="translate(0,0)"/>
<path d="" fill="#272826" transform="translate(0,0)"/>
<path d="" fill="#282726" transform="translate(0,0)"/>
<path d="" fill="#282727" transform="translate(0,0)"/>
<path d="" fill="#2B2927" transform="translate(0,0)"/>
<path d="" fill="#282727" transform="translate(0,0)"/>
<path d="" fill="#383937" transform="translate(0,0)"/>
<path d="" fill="#2B2B2C" transform="translate(0,0)"/>
<path d="" fill="#282628" transform="translate(0,0)"/>
<path d="" fill="#2D2B2A" transform="translate(0,0)"/>
<path d="" fill="#2E2A2A" transform="translate(0,0)"/>
<path d="" fill="#242422" transform="translate(0,0)"/>
<path d="" fill="#2D2C2C" transform="translate(0,0)"/>
<path d="" fill="#292825" transform="translate(0,0)"/>
<path d="" fill="#2D2E2C" transform="translate(0,0)"/>
<path d="" fill="#2A2828" transform="translate(0,0)"/>
<path d="" fill="#353534" transform="translate(0,0)"/>
<path d="" fill="#272626" transform="translate(0,0)"/>
<path d="" fill="#2E2D2E" transform="translate(0,0)"/>
<path d="" fill="#2B2B2A" transform="translate(0,0)"/>
<path d="" fill="#282825" transform="translate(0,0)"/>
<path d="" fill="#2E2D2C" transform="translate(0,0)"/>
<path d="" fill="#2C2C2A" transform="translate(0,0)"/>
<path d="" fill="#272625" transform="translate(0,0)"/>
<path d="" fill="#2C2A28" transform="translate(0,0)"/>
<path d="" fill="#3A383B" transform="translate(0,0)"/>
<path d="" fill="#272725" transform="translate(0,0)"/>
<path d="" fill="#2B2928" transform="translate(0,0)"/>
<path d="" fill="#2C2B2B" transform="translate(0,0)"/>
<path d="" fill="#2C2A2A" transform="translate(0,0)"/>
<path d="" fill="#292828" transform="translate(0,0)"/>
<path d="" fill="#272827" transform="translate(0,0)"/>
<path d="" fill="#2B2A2B" transform="translate(0,0)"/>
<path d="" fill="#393736" transform="translate(0,0)"/>
<path d="" fill="#2B2B28" transform="translate(0,0)"/>
<path d="" fill="#2D2D2D" transform="translate(0,0)"/>
<path d="" fill="#2A2828" transform="translate(0,0)"/>
<path d="" fill="#2B2C29" transform="translate(0,0)"/>
<path d="" fill="#2B2A2A" transform="translate(0,0)"/>
<path d="" fill="#2B2C2A" transform="translate(0,0)"/>
<path d="" fill="#2A2929" transform="translate(0,0)"/>
<path d="" fill="#2B2827" transform="translate(0,0)"/>
<path d="" fill="#252623" transform="translate(0,0)"/>
<path d="" fill="#2C292A" transform="translate(0,0)"/>
<path d="" fill="#2A2928" transform="translate(0,0)"/>
<path d="" fill="#2D2E2B" transform="translate(0,0)"/>
<path d="" fill="#2D2E2D" transform="translate(0,0)"/>
<path d="" fill="#313030" transform="translate(0,0)"/>
<path d="" fill="#322F2F" transform="translate(0,0)"/>
<path d="" fill="#2B2A27" transform="translate(0,0)"/>
<path d="" fill="#282826" transform="translate(0,0)"/>
<path d="" fill="#2C2A28" transform="translate(0,0)"/>
<path d="" fill="#2B2B2B" transform="translate(0,0)"/>
<path d="" fill="#2C2C2A" transform="translate(0,0)"/>
<path d="" fill="#292A29" transform="translate(0,0)"/>
<path d="" fill="#2A2727" transform="translate(0,0)"/>
<path d="" fill="#282928" transform="translate(0,0)"/>
<path d="" fill="#2B2828" transform="translate(0,0)"/>
<path d="" fill="#2C2E2A" transform="translate(0,0)"/>
<path d="" fill="#2F2D2B" transform="translate(0,0)"/>
<path d="" fill="#302C2D" transform="translate(0,0)"/>
<path d="" fill="#343330" transform="translate(0,0)"/>
<path d="" fill="#2D2B2B" transform="translate(0,0)"/>
<path d="" fill="#2E2E2D" transform="translate(0,0)"/>
<path d="" fill="#2D2B2C" transform="translate(0,0)"/>
<path d="" fill="#2F2D2D" transform="translate(0,0)"/>
<path d="" fill="#2E2E2E" transform="translate(0,0)"/>
<path d="" fill="#2A2A2B" transform="translate(0,0)"/>
<path d="" fill="#2F2C2C" transform="translate(0,0)"/>
<path d="" fill="#2C2A2C" transform="translate(0,0)"/>
<path d="" fill="#2D2D29" transform="translate(0,0)"/>
<path d="" fill="#2E2C2C" transform="translate(0,0)"/>
<path d="" fill="#2A2927" transform="translate(0,0)"/>
<path d="" fill="#2B2A28" transform="translate(0,0)"/>
<path d="" fill="#2C2A2B" transform="translate(0,0)"/>
<path d="" fill="#302F2C" transform="translate(0,0)"/>
<path d="" fill="#2B2929" transform="translate(0,0)"/>
<path d="" fill="#2C2B2A" transform="translate(0,0)"/>
<path d="" fill="#2C2A28" transform="translate(0,0)"/>
<path d="" fill="#292728" transform="translate(0,0)"/>
<path d="" fill="#303030" transform="translate(0,0)"/>
<path d="" fill="#292829" transform="translate(0,0)"/>
<path d="" fill="#2C2C29" transform="translate(0,0)"/>
<path d="" fill="#323230" transform="translate(0,0)"/>
<path d="" fill="#2A2A2A" transform="translate(0,0)"/>
<path d="" fill="#292829" transform="translate(0,0)"/>
<path d="" fill="#272A28" transform="translate(0,0)"/>
<path d="" fill="#444344" transform="translate(0,0)"/>
<path d="" fill="#444443" transform="translate(0,0)"/>
<path d="" fill="#2D2D2D" transform="translate(0,0)"/>
<path d="" fill="#2F2E2D" transform="translate(0,0)"/>
<path d="" fill="#343433" transform="translate(0,0)"/>
<path d="" fill="#2D2E2E" transform="translate(0,0)"/>
<path d="" fill="#292928" transform="translate(0,0)"/>
<path d="" fill="#2F2F2E" transform="translate(0,0)"/>
<path d="" fill="#2D2E2D" transform="translate(0,0)"/>
<path d="" fill="#282928" transform="translate(0,0)"/>
<path d="" fill="#323233" transform="translate(0,0)"/>
<path d="" fill="#383839" transform="translate(0,0)"/>
<path d="" fill="#332F2F" transform="translate(0,0)"/>
<path d="" fill="#363634" transform="translate(0,0)"/>
<path d="" fill="#312E2E" transform="translate(0,0)"/>
<path d="" fill="#292B28" transform="translate(0,0)"/>
<path d="" fill="#343231" transform="translate(0,0)"/>
<path d="" fill="#333030" transform="translate(0,0)"/>
<path d="" fill="#2B2828" transform="translate(0,0)"/>
<path d="" fill="#29282A" transform="translate(0,0)"/>
<path d="" fill="#2B2A29" transform="translate(0,0)"/>
<path d="" fill="#2C2C2B" transform="translate(0,0)"/>
<path d="" fill="#2C2E2C" transform="translate(0,0)"/>
<path d="" fill="#2F312D" transform="translate(0,0)"/>
<path d="" fill="#2B2B2A" transform="translate(0,0)"/>
<path d="" fill="#2D2B2B" transform="translate(0,0)"/>
<path d="" fill="#2C2D2B" transform="translate(0,0)"/>
<path d="" fill="#32332F" transform="translate(0,0)"/>
<path d="" fill="#353534" transform="translate(0,0)"/>
<path d="" fill="#2D2A2B" transform="translate(0,0)"/>
<path d="" fill="#2A2C2A" transform="translate(0,0)"/>
<path d="" fill="#2D2E2C" transform="translate(0,0)"/>
<path d="" fill="#2B2927" transform="translate(0,0)"/>
<path d="" fill="#2D302F" transform="translate(0,0)"/>
<path d="" fill="#323330" transform="translate(0,0)"/>
<path d="" fill="#343333" transform="translate(0,0)"/>
<path d="" fill="#2D2A29" transform="translate(0,0)"/>
<path d="" fill="#2D2C2B" transform="translate(0,0)"/>
<path d="" fill="#302F2D" transform="translate(0,0)"/>
<path d="" fill="#2D2F2B" transform="translate(0,0)"/>
<path d="" fill="#2A2A25" transform="translate(0,0)"/>
<path d="" fill="#272627" transform="translate(0,0)"/>
<path d="" fill="#2A2728" transform="translate(0,0)"/>
<path d="" fill="#353534" transform="translate(0,0)"/>
<path d="" fill="#2D2B2A" transform="translate(0,0)"/>
<path d="" fill="#2B2B2C" transform="translate(0,0)"/>
<path d="" fill="#313230" transform="translate(0,0)"/>
<path d="" fill="#292A2A" transform="translate(0,0)"/>
<path d="" fill="#2F2B29" transform="translate(0,0)"/>
<path d="" fill="#2B292A" transform="translate(0,0)"/>
<path d="" fill="#2A2C2A" transform="translate(0,0)"/>
<path d="" fill="#343333" transform="translate(0,0)"/>
<path d="" fill="#2D2C2D" transform="translate(0,0)"/>
<path d="" fill="#2B2729" transform="translate(0,0)"/>
<path d="" fill="#2D2E2C" transform="translate(0,0)"/>
<path d="" fill="#2A2C2C" transform="translate(0,0)"/>
<path d="" fill="#292827" transform="translate(0,0)"/>
<path d="" fill="#282627" transform="translate(0,0)"/>
<path d="" fill="#3A3A39" transform="translate(0,0)"/>
<path d="" fill="#2F3231" transform="translate(0,0)"/>
<path d="" fill="#2F2D2C" transform="translate(0,0)"/>
<path d="" fill="#373736" transform="translate(0,0)"/>
<path d="" fill="#282727" transform="translate(0,0)"/>
<path d="" fill="#2D2B2B" transform="translate(0,0)"/>
<path d="" fill="#312F2E" transform="translate(0,0)"/>
<path d="" fill="#302F2E" transform="translate(0,0)"/>
<path d="" fill="#2B2A29" transform="translate(0,0)"/>
<path d="" fill="#2D2C2B" transform="translate(0,0)"/>
<path d="" fill="#302E2E" transform="translate(0,0)"/>
<path d="" fill="#363737" transform="translate(0,0)"/>
<path d="" fill="#2B2B29" transform="translate(0,0)"/>
<path d="" fill="#2C2B2B" transform="translate(0,0)"/>
<path d="" fill="#2B2927" transform="translate(0,0)"/>
<path d="" fill="#2E2B2C" transform="translate(0,0)"/>
<path d="" fill="#2D2B2B" transform="translate(0,0)"/>
<path d="" fill="#2D2B2B" transform="translate(0,0)"/>
<path d="" fill="#31302F" transform="translate(0,0)"/>
<path d="" fill="#2D2C2C" transform="translate(0,0)"/>
<path d="" fill="#333232" transform="translate(0,0)"/>
<path d="" fill="#2F2F2E" transform="translate(0,0)"/>
<path d="" fill="#393B3A" transform="translate(0,0)"/>
<path d="" fill="#2D2D2B" transform="translate(0,0)"/>
<path d="" fill="#2E2E2D" transform="translate(0,0)"/>
<path d="" fill="#2A2929" transform="translate(0,0)"/>
<path d="" fill="#2E2D2D" transform="translate(0,0)"/>
<path d="" fill="#2B2A2C" transform="translate(0,0)"/>
<path d="" fill="#2E2E2B" transform="translate(0,0)"/>
<path d="" fill="#2C2C29" transform="translate(0,0)"/>
<path d="" fill="#2D2E2B" transform="translate(0,0)"/>
<path d="" fill="#302E2E" transform="translate(0,0)"/>
<path d="" fill="#2D2B29" transform="translate(0,0)"/>
<path d="" fill="#353433" transform="translate(0,0)"/>
<path d="" fill="#2E2F2D" transform="translate(0,0)"/>
<path d="" fill="#2C2B2A" transform="translate(0,0)"/>
<path d="" fill="#2F2E2B" transform="translate(0,0)"/>
<path d="" fill="#2C2A2C" transform="translate(0,0)"/>
<path d="" fill="#30302F" transform="translate(0,0)"/>
<path d="" fill="#3B3939" transform="translate(0,0)"/>
<path d="" fill="#2F2D2D" transform="translate(0,0)"/>
<path d="" fill="#2F2F2C" transform="translate(0,0)"/>
<path d="" fill="#302E2C" transform="translate(0,0)"/>
<path d="" fill="#2F2F2C" transform="translate(0,0)"/>
<path d="" fill="#2F2F2F" transform="translate(0,0)"/>
<path d="" fill="#2C2B2C" transform="translate(0,0)"/>
<path d="" fill="#2A2928" transform="translate(0,0)"/>
<path d="" fill="#282829" transform="translate(0,0)"/>
<path d="" fill="#292828" transform="translate(0,0)"/>
<path d="" fill="#2C2C29" transform="translate(0,0)"/>
<path d="" fill="#2C2B2A" transform="translate(0,0)"/>
<path d="" fill="#2B292A" transform="translate(0,0)"/>
<path d="" fill="#302F2C" transform="translate(0,0)"/>
<path d="" fill="#2C2E2C" transform="translate(0,0)"/>
<path d="" fill="#2C2829" transform="translate(0,0)"/>
<path d="" fill="#2B2928" transform="translate(0,0)"/>
<path d="" fill="#2B2B2A" transform="translate(0,0)"/>
<path d="" fill="#2D2C2C" transform="translate(0,0)"/>
<path d="" fill="#2B2C29" transform="translate(0,0)"/>
<path d="" fill="#2C2C2C" transform="translate(0,0)"/>
<path d="" fill="#2D2A2B" transform="translate(0,0)"/>
<path d="" fill="#2C2E2C" transform="translate(0,0)"/>
<path d="" fill="#242622" transform="translate(0,0)"/>
<path d="" fill="#2D2D2B" transform="translate(0,0)"/>
<path d="" fill="#2D2A2A" transform="translate(0,0)"/>
<path d="" fill="#2B2B2A" transform="translate(0,0)"/>
<path d="" fill="#232424" transform="translate(0,0)"/>
<path d="" fill="#2B2A2A" transform="translate(0,0)"/>
<path d="" fill="#292729" transform="translate(0,0)"/>
<path d="" fill="#2D2D2B" transform="translate(0,0)"/>
<path d="" fill="#292928" transform="translate(0,0)"/>
<path d="" fill="#2C292A" transform="translate(0,0)"/>
<path d="" fill="#2B292A" transform="translate(0,0)"/>
<path d="" fill="#2A292A" transform="translate(0,0)"/>
<path d="" fill="#2A2929" transform="translate(0,0)"/>
<path d="" fill="#2D2C2C" transform="translate(0,0)"/>
<path d="" fill="#302F2F" transform="translate(0,0)"/>
<path d="" fill="#2E2C2C" transform="translate(0,0)"/>
<path d="" fill="#2E2B2C" transform="translate(0,0)"/>
<path d="" fill="#2F2F2E" transform="translate(0,0)"/>
<path d="" fill="#2F2D2D" transform="translate(0,0)"/>
<path d="" fill="#2A2C2B" transform="translate(0,0)"/>
<path d="" fill="#2D2B29" transform="translate(0,0)"/>
<path d="" fill="#2C2D2D" transform="translate(0,0)"/>
<path d="" fill="#2B2C2C" transform="translate(0,0)"/>
<path d="" fill="#2C2B2A" transform="translate(0,0)"/>
<path d="" fill="#2A2A29" transform="translate(0,0)"/>
<path d="" fill="#2B2C2D" transform="translate(0,0)"/>
<path d="" fill="#2E2F2E" transform="translate(0,0)"/>
<path d="" fill="#3D3D3A" transform="translate(0,0)"/>
<path d="" fill="#2D2C2D" transform="translate(0,0)"/>
<path d="" fill="#2E2C2B" transform="translate(0,0)"/>
<path d="" fill="#2B2B29" transform="translate(0,0)"/>
<path d="" fill="#302E2E" transform="translate(0,0)"/>
<path d="" fill="#2A2A29" transform="translate(0,0)"/>
<path d="" fill="#2C2C2B" transform="translate(0,0)"/>
<path d="" fill="#383534" transform="translate(0,0)"/>
<path d="" fill="#302E2E" transform="translate(0,0)"/>
<path d="" fill="#2F2E2D" transform="translate(0,0)"/>
<path d="" fill="#6B6B6D" transform="translate(0,0)"/>
<path d="" fill="#2B2B2A" transform="translate(0,0)"/>
<path d="" fill="#2E2D2B" transform="translate(0,0)"/>
<path d="" fill="#333333" transform="translate(0,0)"/>
<path d="" fill="#2A2A28" transform="translate(0,0)"/>
<path d="" fill="#2A2928" transform="translate(0,0)"/>
<path d="" fill="#2D292A" transform="translate(0,0)"/>
<path d="" fill="#2C2B2A" transform="translate(0,0)"/>
<path d="" fill="#2D2C2D" transform="translate(0,0)"/>
<path d="" fill="#2C2C2C" transform="translate(0,0)"/>
<path d="" fill="#2C2D2C" transform="translate(0,0)"/>
<path d="" fill="#312F30" transform="translate(0,0)"/>
<path d="" fill="#2A2A29" transform="translate(0,0)"/>
<path d="" fill="#2F2D2D" transform="translate(0,0)"/>
<path d="" fill="#2B2A2B" transform="translate(0,0)"/>
<path d="" fill="#373637" transform="translate(0,0)"/>
<path d="" fill="#2A2A29" transform="translate(0,0)"/>
<path d="" fill="#383737" transform="translate(0,0)"/>
<path d="" fill="#31302F" transform="translate(0,0)"/>
<path d="" fill="#2F2E2C" transform="translate(0,0)"/>
<path d="" fill="#2F2F2E" transform="translate(0,0)"/>
<path d="" fill="#393838" transform="translate(0,0)"/>
<path d="" fill="#2C2A2B" transform="translate(0,0)"/>
<path d="" fill="#2E2E2D" transform="translate(0,0)"/>
<path d="" fill="#2E2E2D" transform="translate(0,0)"/>
<path d="" fill="#302D2C" transform="translate(0,0)"/>
<path d="" fill="#2D2B2A" transform="translate(0,0)"/>
<path d="" fill="#2B292A" transform="translate(0,0)"/>
<path d="" fill="#302F2E" transform="translate(0,0)"/>
<path d="" fill="#2C2928" transform="translate(0,0)"/>
<path d="" fill="#353436" transform="translate(0,0)"/>
<path d="" fill="#2A2A29" transform="translate(0,0)"/>
<path d="" fill="#353435" transform="translate(0,0)"/>
<path d="" fill="#2C2B29" transform="translate(0,0)"/>
<path d="" fill="#292A26" transform="translate(0,0)"/>
<path d="" fill="#2E2C2B" transform="translate(0,0)"/>
<path d="" fill="#3A3A39" transform="translate(0,0)"/>
<path d="" fill="#2F2E2F" transform="translate(0,0)"/>
<path d="" fill="#2C2B2C" transform="translate(0,0)"/>
<path d="" fill="#302F2D" transform="translate(0,0)"/>
<path d="" fill="#353634" transform="translate(0,0)"/>
<path d="" fill="#2D2D2D" transform="translate(0,0)"/>
<path d="" fill="#333432" transform="translate(0,0)"/>
<path d="" fill="#333231" transform="translate(0,0)"/>
<path d="" fill="#333431" transform="translate(0,0)"/>
<path d="" fill="#333332" transform="translate(0,0)"/>
<path d="" fill="#302D2C" transform="translate(0,0)"/>
<path d="" fill="#323030" transform="translate(0,0)"/>
<path d="" fill="#313130" transform="translate(0,0)"/>
<path d="" fill="#323332" transform="translate(0,0)"/>
<path d="" fill="#323132" transform="translate(0,0)"/>
<path d="" fill="#313030" transform="translate(0,0)"/>
<path d="" fill="#32302F" transform="translate(0,0)"/>
<path d="" fill="#333230" transform="translate(0,0)"/>
<path d="" fill="#2D2D2C" transform="translate(0,0)"/>
<path d="" fill="#323231" transform="translate(0,0)"/>
<path d="" fill="#2C2C29" transform="translate(0,0)"/>
<path d="" fill="#303031" transform="translate(0,0)"/>
<path d="" fill="#2E2D2E" transform="translate(0,0)"/>
<path d="" fill="#2C2B2A" transform="translate(0,0)"/>
<path d="" fill="#292926" transform="translate(0,0)"/>
<path d="" fill="#2E2D2B" transform="translate(0,0)"/>
<path d="" fill="#2D2B2B" transform="translate(0,0)"/>
<path d="" fill="#2E2E2D" transform="translate(0,0)"/>
<path d="" fill="#2F302F" transform="translate(0,0)"/>
<path d="" fill="#2E2E2D" transform="translate(0,0)"/>
<path d="" fill="#373837" transform="translate(0,0)"/>
<path d="" fill="#2D2E2C" transform="translate(0,0)"/>
<path d="" fill="#2C2A29" transform="translate(0,0)"/>
<path d="" fill="#292926" transform="translate(0,0)"/>
<path d="" fill="#2E2B2B" transform="translate(0,0)"/>
<path d="" fill="#2A2D2B" transform="translate(0,0)"/>
<path d="" fill="#2B2829" transform="translate(0,0)"/>
<path d="" fill="#2B2828" transform="translate(0,0)"/>
<path d="" fill="#292525" transform="translate(0,0)"/>
<path d="" fill="#2B282A" transform="translate(0,0)"/>
<path d="" fill="#2F2C2C" transform="translate(0,0)"/>
<path d="" fill="#2B2928" transform="translate(0,0)"/>
<path d="" fill="#2C2D2C" transform="translate(0,0)"/>
<path d="" fill="#2D2C2B" transform="translate(0,0)"/>
<path d="" fill="#2D2B2C" transform="translate(0,0)"/>
<path d="" fill="#2E2E2D" transform="translate(0,0)"/>
<path d="" fill="#32302F" transform="translate(0,0)"/>
<path d="" fill="#727574" transform="translate(0,0)"/>
<path d="" fill="#2B2C29" transform="translate(0,0)"/>
<path d="" fill="#2F2C2D" transform="translate(0,0)"/>
<path d="" fill="#303130" transform="translate(0,0)"/>
<path d="" fill="#302E2E" transform="translate(0,0)"/>
<path d="" fill="#292927" transform="translate(0,0)"/>
<path d="" fill="#31302E" transform="translate(0,0)"/>
<path d="" fill="#2F2F2F" transform="translate(0,0)"/>
<path d="" fill="#2F2E2D" transform="translate(0,0)"/>
<path d="" fill="#302E2F" transform="translate(0,0)"/>
<path d="" fill="#2C2B2A" transform="translate(0,0)"/>
<path d="" fill="#2D2B2D" transform="translate(0,0)"/>
<path d="" fill="#393A3A" transform="translate(0,0)"/>
<path d="" fill="#2A2A2C" transform="translate(0,0)"/>
<path d="" fill="#2F2B2C" transform="translate(0,0)"/>
<path d="" fill="#272726" transform="translate(0,0)"/>
<path d="" fill="#323232" transform="translate(0,0)"/>
<path d="" fill="#30302F" transform="translate(0,0)"/>
<path d="" fill="#373735" transform="translate(0,0)"/>
<path d="" fill="#32322F" transform="translate(0,0)"/>
<path d="" fill="#2C2D2C" transform="translate(0,0)"/>
<path d="" fill="#312E2F" transform="translate(0,0)"/>
<path d="" fill="#2D2A2A" transform="translate(0,0)"/>
<path d="" fill="#302E2E" transform="translate(0,0)"/>
<path d="" fill="#343432" transform="translate(0,0)"/>
<path d="" fill="#2C2D2C" transform="translate(0,0)"/>
<path d="" fill="#2B2A2C" transform="translate(0,0)"/>
<path d="" fill="#302F2D" transform="translate(0,0)"/>
<path d="" fill="#2F2D2F" transform="translate(0,0)"/>
<path d="" fill="#262626" transform="translate(0,0)"/>
<path d="" fill="#2D2A27" transform="translate(0,0)"/>
<path d="" fill="#2A2929" transform="translate(0,0)"/>
<path d="" fill="#2E2C2D" transform="translate(0,0)"/>
<path d="" fill="#2C2C2C" transform="translate(0,0)"/>
<path d="" fill="#30302D" transform="translate(0,0)"/>
<path d="" fill="#2F2D2E" transform="translate(0,0)"/>
<path d="" fill="#312F2D" transform="translate(0,0)"/>
<path d="" fill="#2E2D2D" transform="translate(0,0)"/>
<path d="" fill="#2C2B2A" transform="translate(0,0)"/>
<path d="" fill="#363634" transform="translate(0,0)"/>
<path d="" fill="#373636" transform="translate(0,0)"/>
<path d="" fill="#2E2D2C" transform="translate(0,0)"/>
<path d="" fill="#2E2D2D" transform="translate(0,0)"/>
<path d="" fill="#353433" transform="translate(0,0)"/>
<path d="" fill="#31302F" transform="translate(0,0)"/>
<path d="" fill="#272724" transform="translate(0,0)"/>
<path d="" fill="#2B2B29" transform="translate(0,0)"/>
<path d="" fill="#373433" transform="translate(0,0)"/>
<path d="" fill="#312F30" transform="translate(0,0)"/>
<path d="" fill="#333130" transform="translate(0,0)"/>
<path d="" fill="#2E2C2B" transform="translate(0,0)"/>
<path d="" fill="#373735" transform="translate(0,0)"/>
<path d="" fill="#312E2F" transform="translate(0,0)"/>
<path d="" fill="#2B2928" transform="translate(0,0)"/>
<path d="" fill="#2F302D" transform="translate(0,0)"/>
<path d="" fill="#30302E" transform="translate(0,0)"/>
<path d="" fill="#30312E" transform="translate(0,0)"/>
<path d="" fill="#2F302D" transform="translate(0,0)"/>
<path d="" fill="#312F30" transform="translate(0,0)"/>
<path d="" fill="#323230" transform="translate(0,0)"/>
<path d="" fill="#2B2B29" transform="translate(0,0)"/>
<path d="" fill="#363535" transform="translate(0,0)"/>
<path d="" fill="#363837" transform="translate(0,0)"/>
<path d="" fill="#2D2D2D" transform="translate(0,0)"/>
<path d="" fill="#312F2F" transform="translate(0,0)"/>
<path d="" fill="#2F2E2C" transform="translate(0,0)"/>
<path d="" fill="#2D2829" transform="translate(0,0)"/>
<path d="" fill="#3A3937" transform="translate(0,0)"/>
<path d="" fill="#393735" transform="translate(0,0)"/>
<path d="" fill="#333230" transform="translate(0,0)"/>
<path d="" fill="#323333" transform="translate(0,0)"/>
<path d="" fill="#363634" transform="translate(0,0)"/>
<path d="" fill="#292728" transform="translate(0,0)"/>
<path d="" fill="#2D2A29" transform="translate(0,0)"/>
<path d="" fill="#2F2D2D" transform="translate(0,0)"/>
<path d="" fill="#393739" transform="translate(0,0)"/>
<path d="" fill="#2F2F2C" transform="translate(0,0)"/>
<path d="" fill="#333632" transform="translate(0,0)"/>
<path d="" fill="#3A3837" transform="translate(0,0)"/>
<path d="" fill="#3B3A38" transform="translate(0,0)"/>
<path d="" fill="#383738" transform="translate(0,0)"/>
<path d="" fill="#353433" transform="translate(0,0)"/>
<path d="" fill="#3C3B38" transform="translate(0,0)"/>
<path d="" fill="#2F2E2E" transform="translate(0,0)"/>
<path d="" fill="#3A3B39" transform="translate(0,0)"/>
<path d="" fill="#363634" transform="translate(0,0)"/>
<path d="" fill="#3A3936" transform="translate(0,0)"/>
<path d="" fill="#3A3835" transform="translate(0,0)"/>
<path d="" fill="#2D2D2C" transform="translate(0,0)"/>
<path d="" fill="#2D2B2B" transform="translate(0,0)"/>
<path d="" fill="#393432" transform="translate(0,0)"/>
<path d="" fill="#3A3937" transform="translate(0,0)"/>
<path d="" fill="#3C3C3A" transform="translate(0,0)"/>
<path d="" fill="#393937" transform="translate(0,0)"/>
<path d="" fill="#32302F" transform="translate(0,0)"/>
<path d="" fill="#3A3B39" transform="translate(0,0)"/>
<path d="" fill="#353233" transform="translate(0,0)"/>
<path d="" fill="#373536" transform="translate(0,0)"/>
<path d="" fill="#393538" transform="translate(0,0)"/>
<path d="" fill="#373736" transform="translate(0,0)"/>
<path d="" fill="#3D3C3A" transform="translate(0,0)"/>
<path d="" fill="#3A3A39" transform="translate(0,0)"/>
<path d="" fill="#2D2A2C" transform="translate(0,0)"/>
<path d="" fill="#2D2B2B" transform="translate(0,0)"/>
<path d="" fill="#2E2E2D" transform="translate(0,0)"/>
<path d="" fill="#2B292A" transform="translate(0,0)"/>
<path d="" fill="#2C2C2D" transform="translate(0,0)"/>
<path d="" fill="#383A38" transform="translate(0,0)"/>
<path d="" fill="#3A3939" transform="translate(0,0)"/>
<path d="" fill="#3A3A38" transform="translate(0,0)"/>
<path d="" fill="#3B3B38" transform="translate(0,0)"/>
<path d="" fill="#3C3D39" transform="translate(0,0)"/>
<path d="" fill="#322F2F" transform="translate(0,0)"/>
<path d="" fill="#2A2A29" transform="translate(0,0)"/>
<path d="" fill="#393837" transform="translate(0,0)"/>
<path d="" fill="#343030" transform="translate(0,0)"/>
<path d="" fill="#383737" transform="translate(0,0)"/>
<path d="" fill="#2D2D2A" transform="translate(0,0)"/>
<path d="" fill="#2A2929" transform="translate(0,0)"/>
<path d="" fill="#2D2E2E" transform="translate(0,0)"/>
<path d="" fill="#383535" transform="translate(0,0)"/>
<path d="" fill="#3D3B3C" transform="translate(0,0)"/>
<path d="" fill="#3A3C39" transform="translate(0,0)"/>
<path d="" fill="#2C292A" transform="translate(0,0)"/>
<path d="" fill="#3A3B3B" transform="translate(0,0)"/>
<path d="" fill="#3C3B3A" transform="translate(0,0)"/>
<path d="" fill="#393939" transform="translate(0,0)"/>
<path d="" fill="#373537" transform="translate(0,0)"/>
<path d="" fill="#393635" transform="translate(0,0)"/>
<path d="" fill="#3C3A3C" transform="translate(0,0)"/>
<path d="" fill="#2D2B2A" transform="translate(0,0)"/>
<path d="" fill="#373636" transform="translate(0,0)"/>
<path d="" fill="#3A3B3A" transform="translate(0,0)"/>
<path d="" fill="#3A3936" transform="translate(0,0)"/>
<path d="" fill="#3D3B3B" transform="translate(0,0)"/>
<path d="" fill="#393939" transform="translate(0,0)"/>
<path d="" fill="#353736" transform="translate(0,0)"/>
<path d="" fill="#3A3A39" transform="translate(0,0)"/>
<path d="" fill="#3B3C3C" transform="translate(0,0)"/>
<path d="" fill="#39373A" transform="translate(0,0)"/>
<path d="" fill="#3C3938" transform="translate(0,0)"/>
<path d="" fill="#373635" transform="translate(0,0)"/>
<path d="" fill="#393838" transform="translate(0,0)"/>
<path d="" fill="#3B3939" transform="translate(0,0)"/>
<path d="" fill="#393837" transform="translate(0,0)"/>
<path d="" fill="#464543" transform="translate(0,0)"/>
<path d="" fill="#464444" transform="translate(0,0)"/>
<path d="" fill="#494948" transform="translate(0,0)"/>
<path d="" fill="#4A4A49" transform="translate(0,0)"/>
<path d="" fill="#4B4B4A" transform="translate(0,0)"/>
<path d="" fill="#474848" transform="translate(0,0)"/>
</svg>
