<?xml version="1.0" encoding="UTF-8"?>
<svg version="1.1" xmlns="http://www.w3.org/2000/svg" width="1024" height="1024">
<path d="M0 0 C2.54908635 0.32791317 5.09549861 0.58595515 7.65380859 0.82861328 C11.25254946 1.22049142 14.35196612 2.11808442 17.76708984 3.35595703 C19.2560677 3.77634995 20.74867627 4.18398244 22.24365234 4.58251953 C52.20527199 12.67171816 79.68404739 25.66346624 103.76708984 45.35595703 C104.33669434 45.81728027 104.90629883 46.27860352 105.49316406 46.75390625 C145.08205185 79.00383332 166.50451235 124.68656658 172.35693359 174.89501953 C173.65699288 187.62994811 173.15496705 200.58107192 172.76708984 213.35595703 C172.43708984 213.35595703 172.10708984 213.35595703 171.76708984 213.35595703 C171.58702393 214.41786255 171.58702393 214.41786255 171.40332031 215.5012207 C167.42519906 238.66825701 162.62135384 260.64110169 151.60009766 281.57226562 C150.60342886 283.47363593 149.67894519 285.41248654 148.76708984 287.35595703 C149.09708984 288.01595703 149.42708984 288.67595703 149.76708984 289.35595703 C148.77708984 289.35595703 147.78708984 289.35595703 146.76708984 289.35595703 C146.55310547 290.00177734 146.33912109 290.64759766 146.11865234 291.31298828 C144.24228223 295.53753256 141.72152499 299.21795629 139.14208984 303.04345703 C138.34109863 304.24131836 138.34109863 304.24131836 137.52392578 305.46337891 C133.95744473 310.74340076 130.23539851 315.75891274 126.09521484 320.60595703 C124.5655758 322.25532966 124.5655758 322.25532966 124.76708984 324.35595703 C123.38021157 325.46545965 121.99276545 326.57425743 120.60302734 327.68017578 C117.63164818 330.39234953 115.32492763 333.61052162 112.86474609 336.78173828 C110.23157686 340.01313218 107.34501976 342.8862314 104.33349609 345.76220703 C102.67241775 347.28862821 102.67241775 347.28862821 101.76708984 349.35595703 C101.10708984 349.35595703 100.44708984 349.35595703 99.76708984 349.35595703 C99.38447998 350.22643677 99.38447998 350.22643677 98.99414062 351.11450195 C97.63972518 353.58861421 96.13296719 355.23316706 94.13427734 357.21923828 C93.40982422 357.94175781 92.68537109 358.66427734 91.93896484 359.40869141 C91.18099609 360.15441406 90.42302734 360.90013672 89.64208984 361.66845703 C88.90732422 362.40257812 88.17255859 363.13669922 87.41552734 363.89306641 C83.95674849 367.32444296 80.46272086 370.66461347 76.76708984 373.84033203 C71.40077962 378.4649733 66.53114249 383.58034934 61.59521484 388.65478516 C60.87076172 389.39019531 60.14630859 390.12560547 59.39990234 390.88330078 C58.4236792 391.88478149 58.4236792 391.88478149 57.42773438 392.90649414 C55.76708984 394.35595703 55.76708984 394.35595703 53.76708984 394.35595703 C53.50283203 394.95408203 53.23857422 395.55220703 52.96630859 396.16845703 C51.71934109 398.44305574 50.51479712 399.65545453 48.57958984 401.35595703 C33.13486005 416.41376249 33.61977708 436.5144824 33.2902832 456.48876953 C32.80314077 484.77220074 32.80314077 484.77220074 26.76708984 492.35595703 C19.11364898 498.62448955 12.17202318 500.65866044 2.43212891 500.63061523 C1.0503949 500.63828163 1.0503949 500.63828163 -0.35925293 500.64610291 C-3.39533035 500.65996786 -6.43117989 500.65904402 -9.46728516 500.65673828 C-11.58709802 500.66062775 -13.70691011 500.66496294 -15.82672119 500.66972351 C-20.26845831 500.6771797 -24.71011595 500.67689939 -29.15185547 500.67163086 C-34.82534159 500.66584614 -40.4985002 500.68274618 -46.17193222 500.70597553 C-50.55073936 500.72075824 -54.92946853 500.72157824 -59.3082962 500.71846581 C-61.39893491 500.71897703 -63.4895782 500.7241773 -65.58019257 500.73427773 C-68.51379711 500.74670875 -71.44677546 500.73980992 -74.38037109 500.72827148 C-75.23266296 500.73591522 -76.08495483 500.74355896 -76.96307373 500.75143433 C-86.154462 500.67211772 -93.9079281 498.61390352 -100.60791016 492.18408203 C-112.30072231 479.02966836 -107.31186548 449.05069094 -106.46289062 433.03417969 C-103.79028328 390.28948507 -88.06818146 355.47357776 -60.23291016 323.35595703 C-59.57291016 322.36595703 -58.91291016 321.37595703 -58.23291016 320.35595703 C-56.49888858 318.82232946 -54.70144168 317.39345559 -52.88916016 315.95361328 C-51.09447523 314.22241956 -50.32427431 312.57161443 -49.23291016 310.35595703 C-47.89957682 310.0226237 -46.56624349 309.68929036 -45.23291016 309.35595703 C-44.98412109 308.80037109 -44.73533203 308.24478516 -44.47900391 307.67236328 C-42.71487847 304.39297023 -40.05281337 302.22298829 -37.29541016 299.79345703 C-33.28940554 296.25732053 -33.28940554 296.25732053 -29.47900391 292.51611328 C-28.23291016 291.35595703 -28.23291016 291.35595703 -26.23291016 291.35595703 C-26.23291016 290.69595703 -26.23291016 290.03595703 -26.23291016 289.35595703 C-25.01025391 288.15673828 -25.01025391 288.15673828 -23.17041016 286.66845703 C-17.89651702 282.22128228 -13.13636004 277.28355506 -8.33813477 272.33569336 C-7.39272827 271.37312622 -7.39272827 271.37312622 -6.42822266 270.39111328 C-5.86119629 269.80724854 -5.29416992 269.22338379 -4.70996094 268.62182617 C-3.23291016 267.35595703 -3.23291016 267.35595703 -1.23291016 267.35595703 C-1.23291016 266.69595703 -1.23291016 266.03595703 -1.23291016 265.35595703 C-0.57291016 265.35595703 0.08708984 265.35595703 0.76708984 265.35595703 C1.01458984 264.78490234 1.26208984 264.21384766 1.51708984 263.62548828 C2.96274682 261.00071734 4.683834 259.19739477 6.76708984 257.04345703 C18.40166267 244.24730045 27.85286794 229.03091379 28.76708984 211.35595703 C29.09708984 210.69595703 29.42708984 210.03595703 29.76708984 209.35595703 C31.21755275 188.95436403 26.22457801 170.32568984 12.72412109 154.52783203 C12.07830078 153.81111328 11.43248047 153.09439453 10.76708984 152.35595703 C10.21408203 151.72173828 9.66107422 151.08751953 9.09130859 150.43408203 C-2.70011068 137.71398296 -20.34950621 131.21980032 -37.41601562 130.22924805 C-56.12261874 129.85511598 -72.80279253 137.56049435 -86.23291016 150.35595703 C-99.65949575 164.66473815 -106.47541848 181.43937333 -111.35791016 200.16845703 C-117.59213583 223.88980608 -117.59213583 223.88980608 -125.22900391 228.58251953 C-137.12720778 234.65169508 -148.27085224 231.85890177 -160.83447266 229.39892578 C-162.44079347 229.09141837 -164.04727274 228.78473759 -165.65390015 228.47883606 C-169.8676959 227.67429678 -174.07930782 226.85885676 -178.29052734 226.04095459 C-182.52920269 225.2196004 -186.76978207 224.40821028 -191.01025391 223.59619141 C-195.80549843 222.6773269 -200.60054298 221.75750652 -205.39419556 220.83036804 C-206.12487936 220.68910649 -206.85556316 220.54784494 -207.6083889 220.40230274 C-209.04287034 220.12474662 -210.47726091 219.84672044 -211.91155434 219.56819439 C-215.50097008 218.87341129 -219.09252746 218.19590608 -222.69036865 217.54605103 C-223.41350943 217.41436429 -224.1366502 217.28267756 -224.88170433 217.14700031 C-226.86649653 216.78693804 -228.85220993 216.4319642 -230.83798218 216.0773468 C-238.3429237 214.48261841 -242.96754114 211.93105363 -248.23291016 206.35595703 C-249.22291016 206.35595703 -250.21291016 206.35595703 -251.23291016 206.35595703 C-251.32378906 205.4684375 -251.32378906 205.4684375 -251.41650391 204.56298828 C-251.50029297 203.77279297 -251.58408203 202.98259766 -251.67041016 202.16845703 C-251.75162109 201.39115234 -251.83283203 200.61384766 -251.91650391 199.81298828 C-252.18337557 197.36100219 -252.18337557 197.36100219 -252.81494141 195.03564453 C-253.36801507 191.48977039 -252.94880475 188.19495819 -252.48291016 184.66845703 C-252.38856689 183.92515137 -252.29422363 183.1818457 -252.19702148 182.41601562 C-251.889685 180.0605098 -251.5647578 177.70812821 -251.23291016 175.35595703 C-251.12962402 174.61555176 -251.02633789 173.87514648 -250.91992188 173.11230469 C-245.34634098 134.2006124 -229.2585943 97.79690606 -202.47900391 68.78955078 C-200.97069788 67.15533399 -199.48378367 65.50113368 -198.01806641 63.82861328 C-192.83676952 57.91883881 -187.43725897 52.21153436 -181.23291016 47.35595703 C-180.57291016 47.35595703 -179.91291016 47.35595703 -179.23291016 47.35595703 C-178.90291016 46.36595703 -178.57291016 45.37595703 -178.23291016 44.35595703 C-176.44775391 42.96142578 -176.44775391 42.96142578 -174.17041016 41.54345703 C-171.20472335 39.64987297 -168.36668861 37.7262268 -165.60791016 35.54345703 C-161.69895806 32.56407281 -157.56020896 30.01932835 -153.35791016 27.48095703 C-152.69065918 27.07514404 -152.0234082 26.66933105 -151.3359375 26.2512207 C-146.48004775 23.35595703 -146.48004775 23.35595703 -144.23291016 23.35595703 C-143.90291016 22.69595703 -143.57291016 22.03595703 -143.23291016 21.35595703 C-121.41010856 9.3268584 -96.60880145 3.30439458 -72.23291016 -0.64404297 C-71.43498047 -0.77681641 -70.63705078 -0.90958984 -69.81494141 -1.04638672 C-46.77521092 -4.72777992 -22.99446492 -3.08790392 0 0 Z M-154.23291016 66.35595703 C-155.58255859 67.37496094 -155.58255859 67.37496094 -156.95947266 68.41455078 C-174.28999122 81.93644506 -188.29994157 98.33921774 -199.23291016 117.35595703 C-199.56532715 117.93039551 -199.89774414 118.50483398 -200.24023438 119.09667969 C-211.65001221 138.99415248 -218.60895923 160.41420958 -220.23291016 183.35595703 C-216.5232068 184.51523933 -213.03830955 185.44606403 -209.17041016 185.85595703 C-205.23291016 186.35595703 -205.23291016 186.35595703 -202.65063477 187.25195312 C-198.03868533 188.7417192 -193.36758327 189.61025567 -188.61181641 190.52001953 C-187.5936937 190.71695404 -186.57557098 190.91388855 -185.52659607 191.11679077 C-183.37954399 191.5306444 -181.23207764 191.94235384 -179.08422852 192.35205078 C-175.80867474 192.9784205 -172.53544088 193.61602664 -169.26220703 194.25439453 C-167.17054193 194.65612289 -165.07874906 195.05718674 -162.98681641 195.45751953 C-161.52714195 195.74340439 -161.52714195 195.74340439 -160.03797913 196.0350647 C-155.0078607 196.98383026 -150.35173549 197.57073292 -145.23291016 197.35595703 C-145.00740479 196.63754639 -144.78189941 195.91913574 -144.54956055 195.17895508 C-133.46172451 160.14988576 -118.66435779 128.10515638 -85.23291016 109.35595703 C-75.70791708 104.54860353 -65.76302162 101.1395125 -55.23291016 99.35595703 C-54.46720703 99.22576172 -53.70150391 99.09556641 -52.91259766 98.96142578 C-39.77572559 97.24493553 -25.86628094 97.23730743 -13.23291016 101.35595703 C-12.62447266 101.48873047 -12.01603516 101.62150391 -11.38916016 101.75830078 C13.18264927 108.56896535 35.21479436 126.29697121 47.95849609 148.11767578 C48.55533203 149.18630859 49.15216797 150.25494141 49.76708984 151.35595703 C50.585 152.78875 50.585 152.78875 51.41943359 154.25048828 C63.17226397 176.11135088 65.77567201 204.56787032 58.76708984 228.35595703 C50.59910583 254.44994331 35.56812269 275.0088305 16.20458984 294.10595703 C15.310625 294.99927734 14.41666016 295.89259766 13.49560547 296.81298828 C8.96675762 301.31201928 4.36667839 305.65412357 -0.47485352 309.81396484 C-3.02196357 312.0480361 -5.3656379 314.43164207 -7.73291016 316.85595703 C-10.74005709 319.93556534 -13.77716819 322.86157405 -17.03369141 325.67626953 C-48.72245384 353.15829458 -69.92867685 385.99468982 -73.28735352 428.41333008 C-74.66040933 448.41791546 -74.66040933 448.41791546 -73.23291016 468.35595703 C-49.80291016 468.35595703 -26.37291016 468.35595703 -2.23291016 468.35595703 C-1.90291016 467.36595703 -1.57291016 466.37595703 -1.23291016 465.35595703 C-0.90291016 466.34595703 -0.57291016 467.33595703 -0.23291016 468.35595703 C-0.18803467 467.22279053 -0.14315918 466.08962402 -0.09692383 464.92211914 C0.07568089 460.64421909 0.26406686 456.36712494 0.45678711 452.09008789 C0.53746849 450.25270174 0.61409124 448.41513202 0.6862793 446.57739258 C1.7756851 419.04172182 7.80620824 397.48187718 27.22412109 377.05126953 C29.26207634 374.8912248 31.19180019 372.70758779 33.07958984 370.41845703 C34.94233209 368.19185551 36.87796254 366.36106271 39.14208984 364.54345703 C40.00833984 363.82158203 40.87458984 363.09970703 41.76708984 362.35595703 C41.76708984 361.69595703 41.76708984 361.03595703 41.76708984 360.35595703 C42.36328125 360.0864624 42.95947266 359.81696777 43.57373047 359.53930664 C45.7620948 358.35865193 47.14165955 357.19964653 48.86083984 355.42236328 C49.41642578 354.85582031 49.97201172 354.28927734 50.54443359 353.70556641 C51.11291016 353.11582031 51.68138672 352.52607422 52.26708984 351.91845703 C58.29439908 345.70663833 58.29439908 345.70663833 61.17333984 343.57080078 C61.69927734 343.16990234 62.22521484 342.76900391 62.76708984 342.35595703 C62.76708984 341.69595703 62.76708984 341.03595703 62.76708984 340.35595703 C63.59273437 340.01951172 63.59273437 340.01951172 64.43505859 339.67626953 C67.49292132 337.94501727 69.61530811 335.73357978 72.07958984 333.23095703 C72.56596924 332.73813232 73.05234863 332.24530762 73.5534668 331.73754883 C76.87261876 328.3479055 80.02325254 324.84798347 83.09912109 321.23876953 C84.86627112 319.24400065 86.72995397 317.39924313 88.64208984 315.54345703 C93.43242336 310.80850309 97.60608102 305.6446492 101.76708984 300.35595703 C102.48767578 299.45232422 103.20826172 298.54869141 103.95068359 297.61767578 C131.76781837 261.76778551 143.98947792 219.04850301 139.27099609 173.75439453 C137.50819448 160.0146 134.43328802 146.02620573 128.76708984 133.35595703 C128.43708984 132.36595703 128.10708984 131.37595703 127.76708984 130.35595703 C126.81273935 128.30257317 125.83046378 126.2620704 124.82958984 124.23095703 C124.30494141 123.15587891 123.78029297 122.08080078 123.23974609 120.97314453 C122.03200443 118.255001 122.03200443 118.255001 119.76708984 117.35595703 C119.59306641 116.30408203 119.59306641 116.30408203 119.41552734 115.23095703 C118.55075762 111.39679728 116.57819548 108.55240245 114.39208984 105.35595703 C113.94945801 104.70167725 113.50682617 104.04739746 113.05078125 103.37329102 C103.47522505 89.4798403 92.00145371 77.78627889 78.76708984 67.35595703 C77.41164063 66.25767578 77.41164063 66.25767578 76.02880859 65.13720703 C55.61940659 49.10326465 31.75484914 39.95033358 6.70458984 34.16845703 C6.04604004 34.01352783 5.38749023 33.85859863 4.70898438 33.69897461 C-8.51676812 30.79070225 -21.67743518 30.026604 -35.16870117 30.09521484 C-37.66496129 30.10593363 -40.16049975 30.0952467 -42.65673828 30.08251953 C-82.79541435 30.04425248 -122.40864045 41.33924108 -154.23291016 66.35595703 Z " fill="#030303" transform="translate(547.23291015625,166.64404296875)"/>
<path d="M0 0 C0 0.66 0 1.32 0 2 C1.30904297 2.38671875 1.30904297 2.38671875 2.64453125 2.78125 C21.78027111 9.73160022 35.38679795 27.78572948 43.94140625 45.4765625 C51.52978198 63.56545815 50.38156164 85.35859591 43.203125 103.3046875 C33.53538497 124.96293628 18.12633194 140.88773186 -4 150 C-26.26491898 157.53652572 -49.25369074 157.5929462 -70.5 147.125 C-76.080095 144.23331505 -81.24267792 141.13505632 -86 137 C-87.19496094 136.01773438 -87.19496094 136.01773438 -88.4140625 135.015625 C-103.90353584 121.81915526 -114.11873852 102.67148711 -115.875 82.328125 C-117.0638658 60.18549945 -111.84248308 40.14009137 -96.99365234 23.32421875 C-94.71974525 20.82299852 -92.37311624 18.40770977 -90 16 C-89.34257812 15.3296875 -88.68515625 14.659375 -88.0078125 13.96875 C-63.63479895 -9.04439584 -30.14999716 -8.46171582 0 0 Z M-70 40 C-80.01126628 51.83827577 -84.79975424 63.91161866 -83.75 79.5625 C-83.40960741 83.25175493 -82.68097153 85.73503607 -81 89 C-80.78150391 90.20076172 -80.78150391 90.20076172 -80.55859375 91.42578125 C-78.54222934 100.7179781 -70.14066417 109.20011488 -63 115 C-56.70746488 118.92167028 -50.29559485 121.70562027 -43 123 C-42.25621094 123.13277344 -41.51242187 123.26554687 -40.74609375 123.40234375 C-27.50766521 125.29354783 -13.98276283 121.67092599 -3.25 113.75 C8.12252948 104.21108487 13.52957453 94.38248846 16.8125 80.00390625 C17.32645224 77.00314387 17.32645224 77.00314387 15.5625 75.08984375 C15.046875 74.73019531 14.53125 74.37054687 14 74 C14.66 74 15.32 74 16 74 C16.92208814 62.01285424 11.81989251 51.81077938 4.1875 42.87890625 C-5.12232588 32.94967663 -17.98784828 26.6603989 -31.60546875 25.84375 C-46.44482029 25.38301981 -58.80271458 30.22055267 -70 40 Z " fill="#030303" transform="translate(546,704)"/>
<path d="M0 0 C0 3 0 3 -1.13891602 4.49967957 C-1.67186279 5.02596451 -2.20480957 5.55224945 -2.75390625 6.09448242 C-3.35452881 6.69487839 -3.95515137 7.29527435 -4.57397461 7.91386414 C-5.23018799 8.55459366 -5.88640137 9.19532318 -6.5625 9.85546875 C-7.22838135 10.51710526 -7.8942627 11.17874176 -8.58032227 11.86042786 C-10.71329379 13.9765774 -12.8564491 16.08207266 -15 18.1875 C-16.44599425 19.61845203 -17.89131571 21.05008428 -19.3359375 22.48242188 C-22.8828599 25.99622824 -26.43895178 29.50051246 -30 33 C-30 29.29900389 -29.42592032 28.7389423 -27 26 C-25.23402096 24.48338374 -23.44648743 23.00711263 -21.62109375 21.5625 C-19.84435133 19.84997718 -19.08237613 18.19262461 -18 16 C-16.66666667 15.66666667 -15.33333333 15.33333333 -14 15 C-13.63261719 14.17242187 -13.63261719 14.17242187 -13.2578125 13.328125 C-11.44687968 9.97621208 -8.69295959 7.74105013 -5.875 5.25 C-5.31167969 4.74339844 -4.74835938 4.23679687 -4.16796875 3.71484375 C-2.78348469 2.47115468 -1.39238512 1.23483695 0 0 Z " fill="#1F1E1E" transform="translate(516,461)"/>
<path d="M0 0 C0 3 0 3 -2.47851562 5.8190918 C-3.61342476 6.9535252 -4.75660841 8.07971791 -5.90625 9.19921875 C-6.50554321 9.79426712 -7.10483643 10.38931549 -7.72229004 11.00239563 C-9.64128092 12.90457052 -11.57043112 14.79606205 -13.5 16.6875 C-14.80146301 17.97392 -16.10225318 19.2610211 -17.40234375 20.54882812 C-20.59380369 23.70718002 -23.79441498 26.85598797 -27 30 C-27.66 29.67 -28.32 29.34 -29 29 C-26.93871085 26.76970325 -24.8760129 24.54073777 -22.8125 22.3125 C-21.9452832 21.37374023 -21.9452832 21.37374023 -21.06054688 20.41601562 C-16.52143692 15.51788002 -11.94667772 10.73067616 -6.875 6.375 C-4.49156207 4.32542886 -2.19575134 2.25030417 0 0 Z " fill="#1B1A1A" transform="translate(600,517)"/>
<path d="M0 0 C0.66 0.33 1.32 0.66 2 1 C-6.25 9.25 -14.5 17.5 -23 26 C-23.66 25.67 -24.32 25.34 -25 25 C-24.57589844 24.5875 -24.15179688 24.175 -23.71484375 23.75 C-20.58249021 20.66583652 -17.58028794 17.55232174 -14.75 14.1875 C-10.28403506 8.9857239 -5.13099334 4.52789285 0 0 Z " fill="#20201F" transform="translate(366,214)"/>
<path d="M0 0 C0.66 0.33 1.32 0.66 2 1 C-4.27 7.27 -10.54 13.54 -17 20 C-17 15.78773475 -14.62438852 14.02396665 -11.875 11.125 C-11.1634375 10.34962891 -11.1634375 10.34962891 -10.4375 9.55859375 C-7.17703371 6.06020154 -3.72611621 2.99637238 0 0 Z " fill="#1B1B1B" transform="translate(447,285)"/>
<path d="M0 0 C0.33 0 0.66 0 1 0 C1 1.98 1 3.96 1 6 C0.67 6 0.34 6 0 6 C0 4.02 0 2.04 0 0 Z " fill="#1A191A" transform="translate(576,367)"/>
<path d="M0 0 C0.33 0 0.66 0 1 0 C1 1.65 1 3.3 1 5 C0.67 5 0.34 5 0 5 C0 3.35 0 1.7 0 0 Z " fill="#191616" transform="translate(560,770)"/>
<path d="M0 0 C0.99 0.33 1.98 0.66 3 1 C2.34 1.66 1.68 2.32 1 3 C0.67 2.01 0.34 1.02 0 0 Z " fill="#1B1B1A" transform="translate(555,417)"/>
<path d="M0 0 C0.33 1.32 0.66 2.64 1 4 C0.34 3.01 -0.32 2.02 -1 1 C-0.67 0.67 -0.34 0.34 0 0 Z " fill="#1C1B1A" transform="translate(681,321)"/>
<path d="M0 0 C4 1 4 1 4 1 Z " fill="#201F1F" transform="translate(542,668)"/>
<path d="M0 0 C4 1 4 1 4 1 Z " fill="#1E1F1D" transform="translate(498,668)"/>
<path d="M0 0 C1 4 1 4 1 4 Z " fill="#1D1C1C" transform="translate(680,400)"/>
<path d="M0 0 C4 1 4 1 4 1 Z " fill="#1F1D1D" transform="translate(385,360)"/>
<path d="M0 0 C0.66 0.66 1.32 1.32 2 2 C1.01 1.67 0.02 1.34 -1 1 C-0.67 0.67 -0.34 0.34 0 0 Z " fill="#1B1817" transform="translate(561,324)"/>
<path d="M0 0 C0 3 0 3 0 3 Z " fill="#1B1C1A" transform="translate(657,269)"/>
<path d="M0 0 C0.66 0 1.32 0 2 0 C2 0.66 2 1.32 2 2 C1.34 2 0.68 2 0 2 C0 1.34 0 0.68 0 0 Z " fill="#1C1B1B" transform="translate(531,264)"/>
<path d="M0 0 C4 1 4 1 4 1 Z " fill="#201E1D" transform="translate(482,199)"/>
<path d="M0 0 C3 1 3 1 3 1 Z " fill="#21201F" transform="translate(513,860)"/>
<path d="M0 0 C3 1 3 1 3 1 Z " fill="#252524" transform="translate(505,860)"/>
<path d="M0 0 C0.33 0.66 0.66 1.32 1 2 C0.34 1.67 -0.32 1.34 -1 1 C-0.67 0.67 -0.34 0.34 0 0 Z " fill="#1C1C1A" transform="translate(516,824)"/>
<path d="M0 0 C3 1 3 1 3 1 Z " fill="#1B1A1B" transform="translate(499,824)"/>
<path d="" fill="#242323" transform="translate(0,0)"/>
<path d="M0 0 C0.33 0.66 0.66 1.32 1 2 C0.34 1.67 -0.32 1.34 -1 1 C-0.67 0.67 -0.34 0.34 0 0 Z " fill="#1C1A1A" transform="translate(487,739)"/>
<path d="M0 0 C0.99 0.495 0.99 0.495 2 1 C1.01 1.495 1.01 1.495 0 2 C0 1.34 0 0.68 0 0 Z " fill="#232322" transform="translate(456,713)"/>
<path d="M0 0 C0.33 0.66 0.66 1.32 1 2 C0.34 1.67 -0.32 1.34 -1 1 C-0.67 0.67 -0.34 0.34 0 0 Z " fill="#181714" transform="translate(508,696)"/>
<path d="M0 0 C3 1 3 1 3 1 Z " fill="#1F1E1D" transform="translate(528,668)"/>
<path d="" fill="#1A1918" transform="translate(0,0)"/>
<path d="M0 0 C0.99 0.495 0.99 0.495 2 1 C1.01 1.495 1.01 1.495 0 2 C0 1.34 0 0.68 0 0 Z " fill="#1F1E1E" transform="translate(632,482)"/>
<path d="M0 0 C0.99 0.495 0.99 0.495 2 1 C1.01 1.495 1.01 1.495 0 2 C0 1.34 0 0.68 0 0 Z " fill="#211E1E" transform="translate(640,473)"/>
<path d="M0 0 C0.99 0.495 0.99 0.495 2 1 C1.01 1.495 1.01 1.495 0 2 C0 1.34 0 0.68 0 0 Z " fill="#1C1C1B" transform="translate(551,424)"/>
<path d="M0 0 C3 1 3 1 3 1 Z " fill="#221F20" transform="translate(394,398)"/>
<path d="M0 0 C0.66 0.66 1.32 1.32 2 2 C1.34 2 0.68 2 0 2 C0 1.34 0 0.68 0 0 Z " fill="#1D1E1C" transform="translate(351,352)"/>
<path d="M0 0 C0.33 0.66 0.66 1.32 1 2 C0.34 1.67 -0.32 1.34 -1 1 C-0.67 0.67 -0.34 0.34 0 0 Z " fill="#181717" transform="translate(569,336)"/>
<path d="" fill="#2C2B2A" transform="translate(0,0)"/>
<path d="" fill="#1E1D1D" transform="translate(0,0)"/>
<path d="M0 0 C3 1 3 1 3 1 Z " fill="#1D1C1B" transform="translate(520,299)"/>
<path d="M0 0 C3 1 3 1 3 1 Z " fill="#1A1A1A" transform="translate(487,264)"/>
<path d="M0 0 C2 1 2 1 2 1 Z " fill="#262625" transform="translate(476,855)"/>
<path d="M0 0 C2 1 2 1 2 1 Z " fill="#232322" transform="translate(477,853)"/>
<path d="" fill="#191717" transform="translate(0,0)"/>
<path d="M0 0 C2 1 2 1 2 1 Z " fill="#1B1B1A" transform="translate(506,825)"/>
<path d="" fill="#282825" transform="translate(0,0)"/>
<path d="" fill="#272826" transform="translate(0,0)"/>
<path d="" fill="#1C1B1A" transform="translate(0,0)"/>
<path d="M0 0 C2 1 2 1 2 1 Z " fill="#1D1A1A" transform="translate(523,733)"/>
<path d="M0 0 C2 1 2 1 2 1 Z " fill="#1D1C1B" transform="translate(497,733)"/>
<path d="M0 0 C2 1 2 1 2 1 Z " fill="#1C1A1A" transform="translate(502,732)"/>
<path d="M0 0 C2 1 2 1 2 1 Z " fill="#212220" transform="translate(462,712)"/>
<path d="M0 0 C2 1 2 1 2 1 Z " fill="#1D1E1B" transform="translate(550,706)"/>
<path d="M0 0 C2 1 2 1 2 1 Z " fill="#1F1F1E" transform="translate(548,705)"/>
<path d="M0 0 C2 1 2 1 2 1 Z " fill="#201E1E" transform="translate(493,698)"/>
<path d="" fill="#1F1E1D" transform="translate(0,0)"/>
<path d="M0 0 C2 1 2 1 2 1 Z " fill="#1D1B1A" transform="translate(500,697)"/>
<path d="M0 0 C2 1 2 1 2 1 Z " fill="#1C191A" transform="translate(512,696)"/>
<path d="M0 0 C2 1 2 1 2 1 Z " fill="#1B1A19" transform="translate(504,696)"/>
<path d="M0 0 C2 1 2 1 2 1 Z " fill="#1E1F1C" transform="translate(537,668)"/>
<path d="M0 0 C2 1 2 1 2 1 Z " fill="#201F1E" transform="translate(489,668)"/>
<path d="M0 0 C2 1 2 1 2 1 Z " fill="#2C2C2A" transform="translate(440,651)"/>
<path d="" fill="#1E1C1B" transform="translate(0,0)"/>
<path d="M0 0 C2 1 2 1 2 1 Z " fill="#20211F" transform="translate(475,633)"/>
<path d="" fill="#272627" transform="translate(0,0)"/>
<path d="M0 0 C2 1 2 1 2 1 Z " fill="#242321" transform="translate(484,489)"/>
<path d="" fill="#252222" transform="translate(0,0)"/>
<path d="" fill="#1E1D1C" transform="translate(0,0)"/>
<path d="" fill="#201E1D" transform="translate(0,0)"/>
<path d="" fill="#19181A" transform="translate(0,0)"/>
<path d="" fill="#1C1C1C" transform="translate(0,0)"/>
<path d="" fill="#171716" transform="translate(0,0)"/>
<path d="M0 0 C2 1 2 1 2 1 Z " fill="#1C1B1B" transform="translate(391,361)"/>
<path d="M0 0 C2 1 2 1 2 1 Z " fill="#1E1E1C" transform="translate(355,354)"/>
<path d="M0 0 C2 1 2 1 2 1 Z " fill="#1E1E1C" transform="translate(344,352)"/>
<path d="" fill="#1A1717" transform="translate(0,0)"/>
<path d="" fill="#181717" transform="translate(0,0)"/>
<path d="" fill="#242324" transform="translate(0,0)"/>
<path d="" fill="#1E1D1B" transform="translate(0,0)"/>
<path d="" fill="#20201F" transform="translate(0,0)"/>
<path d="" fill="#282728" transform="translate(0,0)"/>
<path d="" fill="#171714" transform="translate(0,0)"/>
<path d="M0 0 C2 1 2 1 2 1 Z " fill="#1B1918" transform="translate(483,302)"/>
<path d="M0 0 C2 1 2 1 2 1 Z " fill="#1D1C19" transform="translate(525,300)"/>
<path d="" fill="#292928" transform="translate(0,0)"/>
<path d="M0 0 C2 1 2 1 2 1 Z " fill="#1D1D1C" transform="translate(464,272)"/>
<path d="M0 0 C2 1 2 1 2 1 Z " fill="#1D1B1B" transform="translate(570,207)"/>
<path d="M0 0 C2 1 2 1 2 1 Z " fill="#1B1B1B" transform="translate(561,204)"/>
<path d="M0 0 C2 1 2 1 2 1 Z " fill="#201F1D" transform="translate(507,198)"/>
<path d="M0 0 C2 1 2 1 2 1 Z " fill="#1F1D1D" transform="translate(499,198)"/>
<path d="M0 0 C2 1 2 1 2 1 Z " fill="#272626" transform="translate(408,184)"/>
<path d="M0 0 C2 1 2 1 2 1 Z " fill="#242624" transform="translate(589,176)"/>
<path d="" fill="#292A27" transform="translate(0,0)"/>
<path d="M0 0 C2 1 2 1 2 1 Z " fill="#232220" transform="translate(566,169)"/>
<path d="M0 0 C2 1 2 1 2 1 Z " fill="#292B28" transform="translate(502,162)"/>
<path d="" fill="#A0A1A1" transform="translate(0,0)"/>
<path d="" fill="#272424" transform="translate(0,0)"/>
<path d="" fill="#221F20" transform="translate(0,0)"/>
<path d="" fill="#242322" transform="translate(0,0)"/>
<path d="" fill="#232123" transform="translate(0,0)"/>
<path d="" fill="#242321" transform="translate(0,0)"/>
<path d="" fill="#242424" transform="translate(0,0)"/>
<path d="" fill="#222122" transform="translate(0,0)"/>
<path d="" fill="#21211E" transform="translate(0,0)"/>
<path d="" fill="#1F1C1D" transform="translate(0,0)"/>
<path d="" fill="#1E1C1C" transform="translate(0,0)"/>
<path d="" fill="#191819" transform="translate(0,0)"/>
<path d="" fill="#282425" transform="translate(0,0)"/>
<path d="" fill="#262425" transform="translate(0,0)"/>
<path d="" fill="#1F1D1C" transform="translate(0,0)"/>
<path d="" fill="#1F1F1D" transform="translate(0,0)"/>
<path d="" fill="#1E1E1D" transform="translate(0,0)"/>
<path d="" fill="#191919" transform="translate(0,0)"/>
<path d="" fill="#282928" transform="translate(0,0)"/>
<path d="" fill="#181718" transform="translate(0,0)"/>
<path d="" fill="#1C1C1A" transform="translate(0,0)"/>
<path d="" fill="#1C1819" transform="translate(0,0)"/>
<path d="" fill="#18161B" transform="translate(0,0)"/>
<path d="" fill="#222120" transform="translate(0,0)"/>
<path d="" fill="#161513" transform="translate(0,0)"/>
<path d="" fill="#1E1A19" transform="translate(0,0)"/>
<path d="" fill="#1B1918" transform="translate(0,0)"/>
<path d="" fill="#232121" transform="translate(0,0)"/>
<path d="" fill="#282826" transform="translate(0,0)"/>
<path d="" fill="#21201E" transform="translate(0,0)"/>
<path d="" fill="#191917" transform="translate(0,0)"/>
<path d="" fill="#1C1A18" transform="translate(0,0)"/>
<path d="" fill="#1A1918" transform="translate(0,0)"/>
<path d="" fill="#1D1B1B" transform="translate(0,0)"/>
<path d="" fill="#1B1B19" transform="translate(0,0)"/>
<path d="" fill="#272824" transform="translate(0,0)"/>
<path d="" fill="#1C1B1A" transform="translate(0,0)"/>
<path d="" fill="#1B1918" transform="translate(0,0)"/>
<path d="" fill="#1A1917" transform="translate(0,0)"/>
<path d="" fill="#1A1A18" transform="translate(0,0)"/>
<path d="" fill="#1F1E1E" transform="translate(0,0)"/>
<path d="" fill="#1D1C1C" transform="translate(0,0)"/>
<path d="" fill="#1D1C1C" transform="translate(0,0)"/>
<path d="" fill="#242221" transform="translate(0,0)"/>
<path d="" fill="#242222" transform="translate(0,0)"/>
<path d="" fill="#1C1B1A" transform="translate(0,0)"/>
<path d="" fill="#242322" transform="translate(0,0)"/>
<path d="" fill="#212022" transform="translate(0,0)"/>
<path d="" fill="#262625" transform="translate(0,0)"/>
<path d="" fill="#242222" transform="translate(0,0)"/>
<path d="" fill="#212320" transform="translate(0,0)"/>
<path d="" fill="#252525" transform="translate(0,0)"/>
<path d="" fill="#23201F" transform="translate(0,0)"/>
<path d="" fill="#212220" transform="translate(0,0)"/>
<path d="" fill="#222120" transform="translate(0,0)"/>
<path d="" fill="#20201E" transform="translate(0,0)"/>
<path d="" fill="#1E1E1C" transform="translate(0,0)"/>
<path d="" fill="#20201D" transform="translate(0,0)"/>
<path d="" fill="#1F201D" transform="translate(0,0)"/>
<path d="" fill="#1E1D1C" transform="translate(0,0)"/>
<path d="" fill="#22201E" transform="translate(0,0)"/>
<path d="" fill="#211E1E" transform="translate(0,0)"/>
<path d="" fill="#191818" transform="translate(0,0)"/>
<path d="" fill="#1C1B1C" transform="translate(0,0)"/>
<path d="" fill="#212020" transform="translate(0,0)"/>
<path d="" fill="#21201F" transform="translate(0,0)"/>
<path d="" fill="#1F1F1E" transform="translate(0,0)"/>
<path d="" fill="#1F1D1D" transform="translate(0,0)"/>
<path d="" fill="#1F1F1C" transform="translate(0,0)"/>
<path d="" fill="#1F201C" transform="translate(0,0)"/>
<path d="" fill="#1D1E1D" transform="translate(0,0)"/>
<path d="" fill="#21201F" transform="translate(0,0)"/>
<path d="" fill="#201E20" transform="translate(0,0)"/>
<path d="" fill="#242422" transform="translate(0,0)"/>
<path d="" fill="#252625" transform="translate(0,0)"/>
<path d="" fill="#282726" transform="translate(0,0)"/>
<path d="" fill="#282525" transform="translate(0,0)"/>
<path d="" fill="#2A2B2A" transform="translate(0,0)"/>
<path d="" fill="#1D1E1A" transform="translate(0,0)"/>
<path d="" fill="#1F1E1C" transform="translate(0,0)"/>
<path d="" fill="#201D1B" transform="translate(0,0)"/>
<path d="" fill="#22211E" transform="translate(0,0)"/>
<path d="" fill="#1F1E1F" transform="translate(0,0)"/>
<path d="" fill="#1D1E1C" transform="translate(0,0)"/>
<path d="" fill="#1F1E1C" transform="translate(0,0)"/>
<path d="" fill="#1F1E1D" transform="translate(0,0)"/>
<path d="" fill="#202020" transform="translate(0,0)"/>
<path d="" fill="#1C1A1B" transform="translate(0,0)"/>
<path d="" fill="#222122" transform="translate(0,0)"/>
<path d="" fill="#1D1C1D" transform="translate(0,0)"/>
<path d="" fill="#1C1A1B" transform="translate(0,0)"/>
<path d="" fill="#242425" transform="translate(0,0)"/>
<path d="" fill="#272627" transform="translate(0,0)"/>
<path d="" fill="#1D1E1E" transform="translate(0,0)"/>
<path d="" fill="#211F1F" transform="translate(0,0)"/>
<path d="" fill="#1E1D1E" transform="translate(0,0)"/>
<path d="" fill="#191B1A" transform="translate(0,0)"/>
<path d="" fill="#242425" transform="translate(0,0)"/>
<path d="" fill="#1C1C1B" transform="translate(0,0)"/>
<path d="" fill="#272726" transform="translate(0,0)"/>
<path d="" fill="#282625" transform="translate(0,0)"/>
<path d="" fill="#282627" transform="translate(0,0)"/>
<path d="" fill="#1D1B1E" transform="translate(0,0)"/>
<path d="" fill="#1E1F1A" transform="translate(0,0)"/>
<path d="" fill="#1D1C1C" transform="translate(0,0)"/>
<path d="" fill="#1D1C1B" transform="translate(0,0)"/>
<path d="" fill="#201F1E" transform="translate(0,0)"/>
<path d="" fill="#1E1D1C" transform="translate(0,0)"/>
<path d="" fill="#211F1C" transform="translate(0,0)"/>
<path d="" fill="#1D1D1D" transform="translate(0,0)"/>
<path d="" fill="#1C1A1A" transform="translate(0,0)"/>
<path d="" fill="#242324" transform="translate(0,0)"/>
<path d="" fill="#212220" transform="translate(0,0)"/>
<path d="" fill="#262623" transform="translate(0,0)"/>
<path d="" fill="#1D1C1B" transform="translate(0,0)"/>
<path d="" fill="#232323" transform="translate(0,0)"/>
<path d="" fill="#1F2020" transform="translate(0,0)"/>
<path d="" fill="#1E1D1D" transform="translate(0,0)"/>
<path d="" fill="#262524" transform="translate(0,0)"/>
<path d="" fill="#1C1A19" transform="translate(0,0)"/>
<path d="" fill="#222120" transform="translate(0,0)"/>
<path d="" fill="#1E1E1E" transform="translate(0,0)"/>
<path d="" fill="#242422" transform="translate(0,0)"/>
<path d="" fill="#201E1F" transform="translate(0,0)"/>
<path d="" fill="#1E1D1B" transform="translate(0,0)"/>
<path d="" fill="#232022" transform="translate(0,0)"/>
<path d="" fill="#1F1C1B" transform="translate(0,0)"/>
<path d="" fill="#212123" transform="translate(0,0)"/>
<path d="" fill="#222121" transform="translate(0,0)"/>
<path d="" fill="#1C1B1A" transform="translate(0,0)"/>
<path d="" fill="#212020" transform="translate(0,0)"/>
<path d="" fill="#201F1F" transform="translate(0,0)"/>
<path d="" fill="#262422" transform="translate(0,0)"/>
<path d="" fill="#262726" transform="translate(0,0)"/>
<path d="" fill="#1F201B" transform="translate(0,0)"/>
<path d="" fill="#222221" transform="translate(0,0)"/>
<path d="" fill="#242121" transform="translate(0,0)"/>
<path d="" fill="#242423" transform="translate(0,0)"/>
<path d="" fill="#282929" transform="translate(0,0)"/>
<path d="" fill="#242223" transform="translate(0,0)"/>
<path d="" fill="#222321" transform="translate(0,0)"/>
<path d="" fill="#22211E" transform="translate(0,0)"/>
<path d="" fill="#24211F" transform="translate(0,0)"/>
<path d="" fill="#222421" transform="translate(0,0)"/>
<path d="" fill="#1E1C1E" transform="translate(0,0)"/>
<path d="" fill="#242623" transform="translate(0,0)"/>
<path d="" fill="#20201F" transform="translate(0,0)"/>
<path d="" fill="#242426" transform="translate(0,0)"/>
<path d="" fill="#212020" transform="translate(0,0)"/>
<path d="" fill="#211F20" transform="translate(0,0)"/>
<path d="" fill="#202121" transform="translate(0,0)"/>
<path d="" fill="#242322" transform="translate(0,0)"/>
<path d="" fill="#1F1F21" transform="translate(0,0)"/>
<path d="" fill="#23221E" transform="translate(0,0)"/>
<path d="" fill="#212220" transform="translate(0,0)"/>
<path d="" fill="#232423" transform="translate(0,0)"/>
<path d="" fill="#1E1E20" transform="translate(0,0)"/>
<path d="" fill="#1E1E1F" transform="translate(0,0)"/>
<path d="" fill="#20211F" transform="translate(0,0)"/>
<path d="" fill="#1D1E1D" transform="translate(0,0)"/>
<path d="" fill="#21201F" transform="translate(0,0)"/>
<path d="" fill="#221E1F" transform="translate(0,0)"/>
<path d="" fill="#212220" transform="translate(0,0)"/>
<path d="" fill="#1F1F1D" transform="translate(0,0)"/>
<path d="" fill="#1D1E1E" transform="translate(0,0)"/>
<path d="" fill="#1C1A1A" transform="translate(0,0)"/>
<path d="" fill="#1C1B1C" transform="translate(0,0)"/>
<path d="" fill="#1E1D1C" transform="translate(0,0)"/>
<path d="" fill="#212222" transform="translate(0,0)"/>
<path d="" fill="#21211F" transform="translate(0,0)"/>
<path d="" fill="#242323" transform="translate(0,0)"/>
<path d="" fill="#201C1B" transform="translate(0,0)"/>
<path d="" fill="#242122" transform="translate(0,0)"/>
<path d="" fill="#201F1F" transform="translate(0,0)"/>
<path d="" fill="#1C1A19" transform="translate(0,0)"/>
<path d="" fill="#1C1B1A" transform="translate(0,0)"/>
<path d="" fill="#272527" transform="translate(0,0)"/>
<path d="" fill="#1D1D1A" transform="translate(0,0)"/>
<path d="" fill="#1B1B18" transform="translate(0,0)"/>
<path d="" fill="#1F1D1D" transform="translate(0,0)"/>
<path d="" fill="#212022" transform="translate(0,0)"/>
<path d="" fill="#1C1B1B" transform="translate(0,0)"/>
<path d="" fill="#1D1E1C" transform="translate(0,0)"/>
<path d="" fill="#1F1C1B" transform="translate(0,0)"/>
<path d="" fill="#201E1D" transform="translate(0,0)"/>
<path d="" fill="#191A19" transform="translate(0,0)"/>
<path d="" fill="#1D1D1B" transform="translate(0,0)"/>
<path d="" fill="#191A1A" transform="translate(0,0)"/>
<path d="" fill="#252425" transform="translate(0,0)"/>
<path d="" fill="#1E1A1A" transform="translate(0,0)"/>
<path d="" fill="#1A1917" transform="translate(0,0)"/>
<path d="" fill="#22211F" transform="translate(0,0)"/>
<path d="" fill="#221F21" transform="translate(0,0)"/>
<path d="" fill="#21221F" transform="translate(0,0)"/>
<path d="" fill="#1F201F" transform="translate(0,0)"/>
<path d="" fill="#21201E" transform="translate(0,0)"/>
<path d="" fill="#1E1E1D" transform="translate(0,0)"/>
<path d="" fill="#232022" transform="translate(0,0)"/>
<path d="" fill="#232422" transform="translate(0,0)"/>
<path d="" fill="#252221" transform="translate(0,0)"/>
<path d="" fill="#21201F" transform="translate(0,0)"/>
<path d="" fill="#242323" transform="translate(0,0)"/>
<path d="" fill="#262526" transform="translate(0,0)"/>
<path d="" fill="#2D2D2B" transform="translate(0,0)"/>
<path d="" fill="#2B2A28" transform="translate(0,0)"/>
<path d="" fill="#1D1B1A" transform="translate(0,0)"/>
<path d="" fill="#1D1B19" transform="translate(0,0)"/>
<path d="" fill="#1B1A1A" transform="translate(0,0)"/>
<path d="" fill="#1F1C1C" transform="translate(0,0)"/>
<path d="" fill="#1D1B1B" transform="translate(0,0)"/>
<path d="" fill="#161315" transform="translate(0,0)"/>
<path d="" fill="#1D1C1B" transform="translate(0,0)"/>
<path d="" fill="#1D1D1A" transform="translate(0,0)"/>
<path d="" fill="#1B1A18" transform="translate(0,0)"/>
<path d="" fill="#1C1B1B" transform="translate(0,0)"/>
<path d="" fill="#2B2B29" transform="translate(0,0)"/>
<path d="" fill="#1E2020" transform="translate(0,0)"/>
<path d="" fill="#1F2220" transform="translate(0,0)"/>
<path d="" fill="#1A1918" transform="translate(0,0)"/>
<path d="" fill="#1F1F1E" transform="translate(0,0)"/>
<path d="" fill="#181514" transform="translate(0,0)"/>
<path d="" fill="#1B1818" transform="translate(0,0)"/>
<path d="" fill="#1B1C1D" transform="translate(0,0)"/>
<path d="" fill="#4C4D4D" transform="translate(0,0)"/>
<path d="" fill="#1F1E1C" transform="translate(0,0)"/>
<path d="" fill="#1C1B1B" transform="translate(0,0)"/>
<path d="" fill="#2D2B29" transform="translate(0,0)"/>
<path d="" fill="#2B2C2D" transform="translate(0,0)"/>
<path d="" fill="#1A1917" transform="translate(0,0)"/>
<path d="" fill="#1B1B1A" transform="translate(0,0)"/>
<path d="" fill="#1C1A18" transform="translate(0,0)"/>
<path d="" fill="#1C1B19" transform="translate(0,0)"/>
<path d="" fill="#1C1B19" transform="translate(0,0)"/>
<path d="" fill="#1A1818" transform="translate(0,0)"/>
<path d="" fill="#201E1C" transform="translate(0,0)"/>
<path d="" fill="#262625" transform="translate(0,0)"/>
<path d="" fill="#1C1A1A" transform="translate(0,0)"/>
<path d="" fill="#1B1B19" transform="translate(0,0)"/>
<path d="" fill="#1E1B1A" transform="translate(0,0)"/>
<path d="" fill="#1D1D1A" transform="translate(0,0)"/>
<path d="" fill="#1B1916" transform="translate(0,0)"/>
<path d="" fill="#1C191A" transform="translate(0,0)"/>
<path d="" fill="#1D1A1B" transform="translate(0,0)"/>
<path d="" fill="#1C1D1A" transform="translate(0,0)"/>
<path d="" fill="#1C1C1B" transform="translate(0,0)"/>
<path d="" fill="#1B1B18" transform="translate(0,0)"/>
<path d="" fill="#1E1F1C" transform="translate(0,0)"/>
<path d="" fill="#1C1C1B" transform="translate(0,0)"/>
<path d="" fill="#1C1C1B" transform="translate(0,0)"/>
<path d="" fill="#1F1B1B" transform="translate(0,0)"/>
<path d="" fill="#1C191A" transform="translate(0,0)"/>
<path d="" fill="#232121" transform="translate(0,0)"/>
<path d="" fill="#181718" transform="translate(0,0)"/>
<path d="" fill="#1D1D1B" transform="translate(0,0)"/>
<path d="" fill="#1C1B18" transform="translate(0,0)"/>
<path d="" fill="#282626" transform="translate(0,0)"/>
<path d="" fill="#1F1E1E" transform="translate(0,0)"/>
<path d="" fill="#1B1A19" transform="translate(0,0)"/>
<path d="" fill="#1B1A19" transform="translate(0,0)"/>
<path d="" fill="#181717" transform="translate(0,0)"/>
<path d="" fill="#1B1A1A" transform="translate(0,0)"/>
<path d="" fill="#1A1E1B" transform="translate(0,0)"/>
<path d="" fill="#1B1A19" transform="translate(0,0)"/>
<path d="" fill="#201F1C" transform="translate(0,0)"/>
<path d="" fill="#1F1F1D" transform="translate(0,0)"/>
<path d="" fill="#201F1C" transform="translate(0,0)"/>
<path d="" fill="#1E1C1D" transform="translate(0,0)"/>
<path d="" fill="#1C1A1A" transform="translate(0,0)"/>
<path d="" fill="#1C1919" transform="translate(0,0)"/>
<path d="" fill="#1C1D1A" transform="translate(0,0)"/>
<path d="" fill="#222020" transform="translate(0,0)"/>
<path d="" fill="#272525" transform="translate(0,0)"/>
<path d="" fill="#1D1E1B" transform="translate(0,0)"/>
<path d="" fill="#1F1E1D" transform="translate(0,0)"/>
<path d="" fill="#201E1D" transform="translate(0,0)"/>
<path d="" fill="#221F1D" transform="translate(0,0)"/>
<path d="" fill="#181716" transform="translate(0,0)"/>
<path d="" fill="#171813" transform="translate(0,0)"/>
<path d="" fill="#181717" transform="translate(0,0)"/>
<path d="" fill="#191817" transform="translate(0,0)"/>
<path d="" fill="#1E1D1B" transform="translate(0,0)"/>
<path d="" fill="#1B1918" transform="translate(0,0)"/>
<path d="" fill="#1B1A19" transform="translate(0,0)"/>
<path d="" fill="#1C1B1C" transform="translate(0,0)"/>
<path d="" fill="#1D1C1B" transform="translate(0,0)"/>
<path d="" fill="#181716" transform="translate(0,0)"/>
<path d="" fill="#232224" transform="translate(0,0)"/>
<path d="" fill="#1A1A19" transform="translate(0,0)"/>
<path d="" fill="#272423" transform="translate(0,0)"/>
<path d="" fill="#282728" transform="translate(0,0)"/>
<path d="" fill="#1B1B1A" transform="translate(0,0)"/>
<path d="" fill="#171715" transform="translate(0,0)"/>
<path d="" fill="#1B191B" transform="translate(0,0)"/>
<path d="" fill="#191A18" transform="translate(0,0)"/>
<path d="" fill="#262624" transform="translate(0,0)"/>
<path d="" fill="#1B1B19" transform="translate(0,0)"/>
<path d="" fill="#292726" transform="translate(0,0)"/>
<path d="" fill="#242522" transform="translate(0,0)"/>
<path d="" fill="#1B1A1A" transform="translate(0,0)"/>
<path d="" fill="#1A1916" transform="translate(0,0)"/>
<path d="" fill="#231F1E" transform="translate(0,0)"/>
<path d="" fill="#282725" transform="translate(0,0)"/>
<path d="" fill="#272725" transform="translate(0,0)"/>
<path d="" fill="#242524" transform="translate(0,0)"/>
<path d="" fill="#282725" transform="translate(0,0)"/>
<path d="" fill="#272422" transform="translate(0,0)"/>
<path d="" fill="#1B1A19" transform="translate(0,0)"/>
<path d="" fill="#201E1E" transform="translate(0,0)"/>
<path d="" fill="#1C1B1C" transform="translate(0,0)"/>
<path d="" fill="#1C1B1A" transform="translate(0,0)"/>
<path d="" fill="#1C1B19" transform="translate(0,0)"/>
<path d="" fill="#292728" transform="translate(0,0)"/>
<path d="" fill="#1B1C19" transform="translate(0,0)"/>
<path d="" fill="#222020" transform="translate(0,0)"/>
<path d="" fill="#282727" transform="translate(0,0)"/>
<path d="" fill="#1C1A1B" transform="translate(0,0)"/>
<path d="" fill="#272722" transform="translate(0,0)"/>
<path d="" fill="#29292B" transform="translate(0,0)"/>
<path d="" fill="#1D1D1B" transform="translate(0,0)"/>
<path d="" fill="#1B181B" transform="translate(0,0)"/>
<path d="" fill="#1F1B1D" transform="translate(0,0)"/>
<path d="" fill="#1E1C1C" transform="translate(0,0)"/>
<path d="" fill="#201E1D" transform="translate(0,0)"/>
<path d="" fill="#1D1D1B" transform="translate(0,0)"/>
<path d="" fill="#222322" transform="translate(0,0)"/>
<path d="" fill="#2D2F2D" transform="translate(0,0)"/>
<path d="" fill="#2D2C2C" transform="translate(0,0)"/>
<path d="" fill="#2B2A29" transform="translate(0,0)"/>
<path d="" fill="#262725" transform="translate(0,0)"/>
<path d="" fill="#252422" transform="translate(0,0)"/>
<path d="" fill="#242526" transform="translate(0,0)"/>
<path d="" fill="#2E2D2E" transform="translate(0,0)"/>
<path d="" fill="#272624" transform="translate(0,0)"/>
<path d="" fill="#272223" transform="translate(0,0)"/>
<path d="" fill="#2A2D2A" transform="translate(0,0)"/>
<path d="" fill="#252423" transform="translate(0,0)"/>
<path d="" fill="#262626" transform="translate(0,0)"/>
<path d="" fill="#2C2D2B" transform="translate(0,0)"/>
<path d="" fill="#242525" transform="translate(0,0)"/>
<path d="" fill="#30302D" transform="translate(0,0)"/>
<path d="" fill="#272826" transform="translate(0,0)"/>
<path d="" fill="#272728" transform="translate(0,0)"/>
<path d="" fill="#272826" transform="translate(0,0)"/>
</svg>
