<?xml version="1.0" encoding="UTF-8"?>
<svg version="1.1" xmlns="http://www.w3.org/2000/svg" width="1024" height="1024">
<path d="M0 0 C0.74165405 0.24556641 0.74165405 0.24556641 1.49829102 0.49609375 C5.00571835 1.20257663 8.46678598 1.10200608 12.02734375 1.0625 C12.81210587 1.05871338 13.59686798 1.05492676 14.40541077 1.05102539 C17.74731032 1.03479846 21.08908506 1.00697805 24.4309082 0.97949219 C58.75889505 0.72156564 58.75889505 0.72156564 69.02368164 10.8034668 C79.07032777 21.96957863 77.83738052 34.91431473 77.75 49.0625 C77.75144317 52.30362987 77.76128124 55.54443913 77.78131104 58.7855072 C77.79150427 60.79098579 77.78979799 62.79656849 77.77484131 64.80201721 C77.77534485 65.70403366 77.77584839 66.60605011 77.77636719 67.53540039 C77.77159363 68.32749405 77.76682007 69.11958771 77.76190186 69.9356842 C77.87674291 72.30880054 77.87674291 72.30880054 80 75 C82.48732045 75.84706581 84.89794887 76.54331425 87.4375 77.1875 C104.62979458 81.93178657 121.32740177 89.48555319 136.15478516 99.44775391 C136.85265137 99.91487793 137.55051758 100.38200195 138.26953125 100.86328125 C139.20116089 101.5116394 139.20116089 101.5116394 140.15161133 102.1730957 C141.97824331 103.17730068 141.97824331 103.17730068 144.04956055 102.77416992 C151.55257342 99.7960683 157.43524289 91.58876628 162.44921875 85.57421875 C162.96097656 85.05472656 163.47273437 84.53523438 164 84 C164.66 84 165.32 84 166 84 C166 83.34 166 82.68 166 82 C167.12810842 80.80352137 168.26855163 79.61680851 169.4609375 78.484375 C170.51870445 77.46419368 171.5437511 76.40932621 172.5390625 75.328125 C179.19869528 68.19505862 187.01861112 62.95925556 196.9375 62.5625 C198.49791016 62.47162109 198.49791016 62.47162109 200.08984375 62.37890625 C213.83967015 64.56294461 222.54417336 74.71848787 231.828125 84.171875 C233.31195798 85.66183369 234.79698459 87.15060452 236.28314209 88.63824463 C239.3749531 91.739207 242.45674657 94.84965878 245.53076172 97.96826172 C249.47816076 101.97261854 253.44307795 105.95904642 257.41460037 109.93946457 C260.47125785 113.00441071 263.52221202 116.07497676 266.57106781 119.14768219 C268.03264341 120.62067012 269.49517162 122.09271345 270.95865631 123.56380463 C272.99111661 125.60994066 275.01663361 127.66268777 277.04003906 129.71777344 C277.647686 130.3276561 278.25533295 130.93753876 278.88139343 131.56590271 C283 135.77059113 283 135.77059113 283 138 C283.99 138.33 284.98 138.66 286 139 C287.5703125 141.1796875 287.5703125 141.1796875 289.125 143.875 C289.64320313 144.75929688 290.16140625 145.64359375 290.6953125 146.5546875 C294.23738522 153.1934226 294.25244545 161.63171466 292.19921875 168.79296875 C287.93876468 178.00199145 280.38598305 185.03166531 272.72265625 191.4609375 C270.52734854 193.42227817 268.81751497 195.69315407 267 198 C266.34 198 265.68 198 265 198 C264.773125 198.556875 264.54625 199.11375 264.3125 199.6875 C262.63575448 202.64176591 260.45423315 204.66847851 258 207 C257.34 207.66 256.68 208.32 256 209 C256.25313171 214.36119988 257.76681936 217.85595459 260.5625 222.375 C269.92402311 238.07244275 282 260.30779977 282 279 C282.61894638 279.00586624 283.23789276 279.01173248 283.87559509 279.01777649 C290.34907867 279.08197835 296.82207737 279.1664659 303.29516602 279.26245117 C305.70721014 279.29559475 308.11932985 279.32365918 310.53149414 279.34643555 C314.00960335 279.38017572 317.48702644 279.43250262 320.96484375 279.48828125 C322.03395493 279.49467117 323.1030661 279.5010611 324.20457458 279.50764465 C335.09374681 279.71888194 341.91371678 282.09432969 349.828125 289.65234375 C355.73871369 296.04130742 357.11642743 302.02736283 357.31640625 310.53125 C357.33727798 311.29480804 357.35814972 312.05836609 357.37965393 312.84506226 C357.44657858 315.39659823 357.50529385 317.94822851 357.5625 320.5 C357.58334656 321.38061096 357.60419312 322.26122192 357.62567139 323.16851807 C358.00200336 339.40305109 358.10762664 355.63650461 358.125 371.875 C358.1275882 372.99946533 358.13017639 374.12393066 358.13284302 375.2824707 C358.13873389 378.51907472 358.13710592 381.75558258 358.1328125 384.9921875 C358.13479141 385.94282074 358.13677032 386.89345398 358.1388092 387.87289429 C358.09420447 400.92798305 357.48636969 411.40119561 348.25 421.375 C336.13473951 432.58444662 319.22324623 430.120391 303.87744141 429.90405273 C301.56932841 429.87370169 299.26137469 429.85604975 296.953125 429.83984375 C296.25817932 429.82638412 295.56323364 429.8129245 294.847229 429.79905701 C290.24204592 429.77564804 286.28781701 430.2848732 282 432 C280.66414328 433.78287737 280.66414328 433.78287737 280.3203125 436.05078125 C280.11897705 436.88375732 279.9176416 437.7167334 279.71020508 438.57495117 C279.5170874 439.47834229 279.32396973 440.3817334 279.125 441.3125 C275.06731861 457.47784639 268.85522632 472.24539145 259.4543457 486.0534668 C257.32343915 489.27632475 256.06612375 491.68911454 255.25390625 495.5078125 C256.37278888 500.74488616 259.2430848 503.30771328 263 507 C263.46839294 507.46444519 263.93678589 507.92889038 264.41937256 508.40740967 C268.9057672 512.85446408 273.41635613 517.27842863 277.97436523 521.65209961 C286.4749064 529.82502184 293.0647316 536.83436968 294.3125 549.0625 C292.84225994 567.58752473 275.14451904 579.95840094 262.8125 592.1875 C259.58688877 595.38636645 256.36471356 598.58863829 253.14453125 601.79296875 C252.4162764 602.51292526 251.68802155 603.23288177 250.93769836 603.97465515 C247.67936633 607.21741672 244.55238997 610.47382029 241.6159668 614.01293945 C240.75269775 614.99866943 239.88942871 615.98439941 239 617 C238.34 617 237.68 617 237 617 C237 617.66 237 618.32 237 619 C235.37897032 620.71108689 233.70496537 622.37253306 232 624 C230.9171875 625.1446875 230.9171875 625.1446875 229.8125 626.3125 C228 628 228 628 226 628 C225.76539063 628.5671875 225.53078125 629.134375 225.2890625 629.71875 C220.86000153 637.55684578 211.91360077 643.26919002 203.4375 645.75 C194.49881133 646.66678858 186.78747909 645.39667162 179.5 639.9375 C174.37512054 635.64690324 169.40491429 631.03024659 165 626 C165 625.34 165 624.68 165 624 C164.4225 623.7525 163.845 623.505 163.25 623.25 C160.67060021 621.81700012 158.93878408 620.21575324 157 618 C157 617.34 157 616.68 157 616 C156.401875 615.74347656 155.80375 615.48695313 155.1875 615.22265625 C152.18921343 613.54682822 150.62336717 611.25228155 148.5625 608.55859375 C146.67974274 606.68054338 145.64614531 606.19970908 143 606 C140.91603439 606.74962975 140.91603439 606.74962975 138.875 608.0625 C138.08222656 608.53042969 137.28945313 608.99835937 136.47265625 609.48046875 C134.87596432 610.46169017 133.27958732 611.44342433 131.68359375 612.42578125 C118.68394929 620.37119821 105.6451666 626.41073744 90.7890625 630.0546875 C90.10255615 630.22524658 89.4160498 630.39580566 88.70874023 630.5715332 C86.79342236 631.03677106 84.87143424 631.47429339 82.94921875 631.91015625 C79.94967234 632.68491607 79.94967234 632.68491607 78.82788086 634.80195618 C77.94728933 637.13994812 77.76889451 638.77112146 77.8046875 641.25854492 C77.81129395 642.09008591 77.81790039 642.92162689 77.82470703 643.77836609 C77.84960205 645.11590691 77.84960205 645.11590691 77.875 646.48046875 C77.88257324 647.40789383 77.89014648 648.33531891 77.89794922 649.29084778 C77.93054542 653.25051707 77.98655051 657.20976997 78.04101562 661.16918945 C78.07743885 664.06459603 78.10147673 666.95993303 78.125 669.85546875 C78.14989502 671.17782784 78.14989502 671.17782784 78.17529297 672.52690125 C78.26253799 683.71640785 75.75838671 691.61159286 68.21484375 699.98046875 C57.29331377 710.49832822 43.74693226 709.60349335 29.58203125 709.609375 C27.51265684 709.62437533 25.44329431 709.64110633 23.37394714 709.65948486 C17.96043309 709.70296248 12.54708049 709.72311392 7.13342285 709.73822021 C1.5960137 709.75786219 -3.94122289 709.79982406 -9.47851562 709.83984375 C-20.31895693 709.91493351 -31.15935921 709.96535329 -42 710 C-42 709.34 -42 708.68 -42 708 C-42.969375 707.938125 -43.93875 707.87625 -44.9375 707.8125 C-52.08361387 706.75649532 -58.2913658 702.74609524 -62.61953735 697.02116394 C-67.56484216 689.78064079 -68.58209321 683.18084695 -68.5390625 674.54296875 C-68.55675186 672.94489128 -68.55675186 672.94489128 -68.57479858 671.31452942 C-68.60986979 667.93870148 -68.61921299 664.56349481 -68.625 661.1875 C-68.64135384 657.7938384 -68.66337294 654.4004514 -68.69662476 651.00691223 C-68.71622819 648.90240067 -68.72559252 646.79776288 -68.72354126 644.69316101 C-68.73050018 643.74149551 -68.73745911 642.78983002 -68.74462891 641.80932617 C-68.74651718 640.557649 -68.74651718 640.557649 -68.7484436 639.28068542 C-69.02796605 636.74645148 -69.63123452 635.14365586 -71 633 C-73.28080612 631.93451525 -73.28080612 631.93451525 -76.03125 631.359375 C-77.0612915 631.09753418 -78.09133301 630.83569336 -79.15258789 630.56591797 C-80.25723389 630.29666504 -81.36187988 630.02741211 -82.5 629.75 C-90.61448577 627.6305491 -98.41392645 625.33931505 -106.0625 621.875 C-107.10277344 621.40658691 -107.10277344 621.40658691 -108.1640625 620.92871094 C-112.47008711 618.90841857 -116.40140585 616.53555293 -120.33374023 613.85986328 C-120.88360596 613.5761084 -121.43347168 613.29235352 -122 613 C-122.66 613.33 -123.32 613.66 -124 614 C-124 613.01 -124 612.02 -124 611 C-125.134375 610.71125 -126.26875 610.4225 -127.4375 610.125 C-128.613125 609.75375 -129.78875 609.3825 -131 609 C-131.33 608.34 -131.66 607.68 -132 607 C-134.98331189 606.52132685 -137.12656684 606.39502589 -139.67788696 608.16217041 C-141.54622092 609.90147513 -143.30365723 611.70919833 -145.05078125 613.5703125 C-145.7090239 614.24415985 -146.36726654 614.9180072 -147.04545593 615.61227417 C-149.14922736 617.7694288 -151.23193381 619.94547388 -153.3125 622.125 C-155.38469228 624.28056328 -157.46125904 626.43139498 -159.54740906 628.57345581 C-160.84290456 629.90515411 -162.13031377 631.2447881 -163.40779114 632.59378052 C-170.71696716 640.14139715 -178.47695886 645.76376362 -189.25 646.375 C-197.21740057 646.11798708 -203.82130643 643.42412551 -209.65771484 638.01928711 C-210.95826813 636.8151265 -210.95826813 636.8151265 -212.28509521 635.5866394 C-216.93030611 631.16089099 -221.5006917 626.66383881 -226.0390625 622.12890625 C-227.056032 621.11515958 -228.07307237 620.10148401 -229.09017944 619.08787537 C-231.19778168 616.98619781 -233.30337214 614.88252884 -235.40771484 612.77758789 C-238.10837486 610.07682503 -240.81592523 607.38308041 -243.52515602 604.69091892 C-245.61654614 602.61060428 -247.70341919 600.52580436 -249.78901291 598.4396801 C-250.7865927 597.44328123 -251.78579645 596.44850554 -252.78664017 595.45538521 C-254.17448241 594.07727943 -255.55544447 592.6922551 -256.93603516 591.30688477 C-257.72305817 590.52128677 -258.51008118 589.73568878 -259.32095337 588.92628479 C-261 587 -261 587 -261 585 C-261.85658203 584.64808594 -261.85658203 584.64808594 -262.73046875 584.2890625 C-265.5294505 582.69927941 -267.1989295 580.8001626 -269.3125 578.375 C-270.09496094 577.48683594 -270.87742187 576.59867188 -271.68359375 575.68359375 C-273.14147911 573.9946102 -274.59296037 572.30005638 -276.03515625 570.59765625 C-276.64230469 569.88480469 -277.24945313 569.17195312 -277.875 568.4375 C-278.40867187 567.79683594 -278.94234375 567.15617188 -279.4921875 566.49609375 C-281.03827955 564.74072854 -281.03827955 564.74072854 -284 564 C-283.67 563.01 -283.34 562.02 -283 561 C-283.66373137 559.33216221 -284.33084404 557.66566879 -285 556 C-286.31305877 544.2130073 -283.42966246 536.7386605 -276.27612305 527.65332031 C-271.07003648 521.5844853 -265.18543357 516.12396229 -259.44750977 510.56396484 C-257.76454812 508.92930536 -256.09093198 507.2855065 -254.41796875 505.640625 C-253.90340622 505.14782043 -253.38884369 504.65501587 -252.85868835 504.14727783 C-249.97652356 501.30542197 -248.19559555 498.88204445 -247 495 C-247.66 494.67 -248.32 494.34 -249 494 C-249.44085938 492.67355469 -249.44085938 492.67355469 -249.890625 491.3203125 C-251.08746058 487.73823417 -252.70226125 485.04185179 -254.75 481.875 C-258.16878564 476.51177026 -261.0713418 471.03210856 -263.7734375 465.265625 C-264.79336979 462.86429662 -264.79336979 462.86429662 -267 462 C-266.95230469 461.17113281 -266.90460938 460.34226562 -266.85546875 459.48828125 C-267.0226566 455.45317995 -268.04171066 451.98135261 -269.3125 448.1875 C-269.65643799 447.13453735 -269.65643799 447.13453735 -270.00732422 446.06030273 C-270.46182122 444.67099168 -270.91940978 443.28268746 -271.38037109 441.89550781 C-271.91187591 440.26958056 -272.40690378 438.63180826 -272.89453125 436.9921875 C-273.50407378 434.96472519 -274.23768114 432.97509885 -275 431 C-278.86084946 429.71305018 -282.51233679 429.85712739 -286.53515625 429.8671875 C-287.36961777 429.86623077 -288.20407928 429.86527405 -289.06382751 429.86428833 C-290.82648799 429.8636082 -292.58915098 429.86545085 -294.35180664 429.86962891 C-297.05555822 429.87498625 -299.75914418 429.86967483 -302.46289062 429.86328125 C-304.17447953 429.86394193 -305.88606834 429.86522288 -307.59765625 429.8671875 C-308.40912613 429.86516327 -309.22059601 429.86313904 -310.05665588 429.86105347 C-314.16017642 429.77581022 -314.16017642 429.77581022 -318 431 C-328.68373071 429.51661149 -336.64901114 425.15463641 -343.7109375 417.1015625 C-347.67697086 410.63572629 -348.44961498 404.65882083 -348.46411133 397.25439453 C-348.48421768 395.84296173 -348.48421768 395.84296173 -348.50473022 394.40301514 C-348.54489753 391.31291946 -348.56402642 388.22311062 -348.58203125 385.1328125 C-348.60398315 382.97100839 -348.62692266 380.8092141 -348.65080261 378.64743042 C-348.69758235 374.12354178 -348.73426228 369.59971928 -348.76342773 365.07568359 C-348.80122776 359.29675032 -348.86125806 353.51831312 -348.92854786 347.73965645 C-348.97852607 343.27686313 -349.01807216 338.81402451 -349.05438805 334.35110092 C-349.07268121 332.22136673 -349.09382861 330.09165496 -349.11795998 327.96197891 C-349.14993493 324.97608962 -349.16818309 321.99041271 -349.18286133 319.00439453 C-349.19468948 318.13654327 -349.20651764 317.26869202 -349.21870422 316.37454224 C-349.23510395 306.17490902 -347.57559169 297.06083828 -341 289 C-332.30867038 281.25369139 -324.41566351 279.71596444 -313.140625 279.69140625 C-311.03515319 279.66627027 -308.92968451 279.64087193 -306.82421875 279.61523438 C-303.52360691 279.58638546 -300.22304877 279.56234774 -296.92236328 279.54370117 C-293.72401881 279.52212598 -290.52626624 279.48272269 -287.328125 279.44140625 C-285.84218842 279.44123253 -285.84218842 279.44123253 -284.32623291 279.4410553 C-283.408078 279.42771652 -282.4899231 279.41437775 -281.54394531 279.40063477 C-280.73677063 279.39556412 -279.92959595 279.39049347 -279.09796143 279.38526917 C-276.49128545 278.90657977 -275.62117647 278.05619744 -274 276 C-273.19381568 273.94848492 -273.19381568 273.94848492 -272.7109375 271.6328125 C-272.49646973 270.75761963 -272.28200195 269.88242676 -272.06103516 268.98071289 C-271.83464355 268.03832764 -271.60825195 267.09594238 -271.375 266.125 C-267.27836492 250.17917027 -260.67608388 235.5067443 -252.7265625 221.12890625 C-252.15679687 220.09636719 -251.58703125 219.06382812 -251 218 C-250.38898438 216.97777344 -249.77796875 215.95554687 -249.1484375 214.90234375 C-247.737038 212.14434743 -247.737038 212.14434743 -248.53759766 209.72753906 C-250.53838405 205.99585532 -253.23377633 203.39487736 -256.25 200.45703125 C-256.86391602 199.84736008 -257.47783203 199.2376889 -258.11035156 198.60954285 C-260.06661537 196.67001532 -262.03305747 194.74119108 -264 192.8125 C-265.32360479 191.50395089 -266.64652928 190.19471326 -267.96875 188.88476562 C-270.38644185 186.49156028 -272.80778116 184.10219632 -275.234375 181.71801758 C-281.68131219 175.38205785 -285.26422643 168.08568795 -285.5625 158.875 C-285.18758758 150.69119743 -282.05092678 143.39784059 -277 137 C-276.34 137 -275.68 137 -275 137 C-274.78912247 136.46478729 -274.57824493 135.92957458 -274.36097717 135.37814331 C-272.4766993 132.0855952 -269.89212052 129.6056268 -267.22436523 126.94970703 C-266.63380844 126.35403931 -266.04325165 125.75837158 -265.43479919 125.14465332 C-263.48121393 123.17717176 -261.52028943 121.21720536 -259.55859375 119.2578125 C-258.19273743 117.88806737 -256.82710453 116.51809942 -255.46168518 115.1479187 C-252.5959435 112.2747133 -249.72635444 109.40541678 -246.85424805 106.53857422 C-243.18982024 102.87992068 -239.53683721 99.21007696 -235.88694668 95.53692818 C-233.06704406 92.7022232 -230.24016913 89.87455078 -227.41130257 87.04879379 C-226.06268155 85.69966216 -224.71639776 84.3481897 -223.3725872 82.99426651 C-203.71398623 63.20601899 -203.71398623 63.20601899 -190.75 62.625 C-175.58409358 63.05480302 -166.43722965 74.32809125 -156.60546875 84.578125 C-156.07703873 85.12607224 -155.5486087 85.67401947 -155.00416565 86.23857117 C-150.66633738 90.7386785 -150.66633738 90.7386785 -148.55004883 92.99853516 C-146.96178149 94.68955459 -145.34928631 96.35389925 -143.73046875 98.015625 C-143.25739792 98.53312317 -142.78432709 99.05062134 -142.29692078 99.58380127 C-140.75736453 101.2221302 -140.75736453 101.2221302 -138 103 C-133.91440508 102.92886736 -130.76108294 102.30331109 -127.37890625 99.99609375 C-126.76249268 99.58915283 -126.1460791 99.18221191 -125.51098633 98.76293945 C-124.86798584 98.32554443 -124.22498535 97.88814941 -123.5625 97.4375 C-110.56622359 89.01625089 -97.58743505 83.20045475 -82.8125 78.54296875 C-78.47327041 77.16616447 -74.20712815 75.74500202 -70 74 C-68.80053883 71.60107765 -68.87550762 70.11157565 -68.87402344 67.43359375 C-68.86831329 66.01071045 -68.86831329 66.01071045 -68.86248779 64.55908203 C-68.86094696 63.01389893 -68.86094696 63.01389893 -68.859375 61.4375 C-68.8410344 59.25650008 -68.82146295 57.07551023 -68.80078125 54.89453125 C-68.77191109 51.45604642 -68.7500026 48.0182034 -68.74951172 44.57958984 C-68.74615603 41.26081402 -68.71146455 37.94351701 -68.671875 34.625 C-68.6789447 33.61107178 -68.6860144 32.59714355 -68.69329834 31.55249023 C-68.55006133 23.05528413 -66.09878255 16.56359993 -60.5 10.125 C-59.675 9.42375 -58.85 8.7225 -58 8 C-57.195625 7.278125 -56.39125 6.55625 -55.5625 5.8125 C-46.4524028 -0.63122729 -33.52775954 0.83797911 -22.84838867 0.86962891 C-20.6742469 0.87503294 -18.50030775 0.86963052 -16.32617188 0.86328125 C-14.92968705 0.86394139 -13.53320235 0.86522122 -12.13671875 0.8671875 C-10.26052856 0.86887939 -10.26052856 0.86887939 -8.34643555 0.87060547 C-5.42895472 0.98341388 -2.83156897 1.32214669 0 2 C0 1.34 0 0.68 0 0 Z M-33 39 C-34.71923302 42.43846605 -34.05037961 46.40596528 -34 50.1875 C-33.96376293 58.19101335 -34.00858127 66.18722457 -34.25 74.1875 C-34.26417969 75.11780029 -34.27835937 76.04810059 -34.29296875 77.0065918 C-34.61177393 85.89886539 -37.09268524 93.24878313 -43 100 C-43 100.66 -43 101.32 -43 102 C-43.58450928 102.2892334 -44.16901855 102.5784668 -44.77124023 102.87646484 C-46.12729711 103.56006368 -47.47570576 104.25952256 -48.80883789 104.98681641 C-53.89073187 107.70368284 -58.8333812 109.13196256 -64.4375 110.375 C-84.70626484 115.20758602 -102.21175106 123.18143979 -119.56079102 134.72558594 C-127.31506606 139.78001262 -135.35649503 141.39247864 -144.44140625 139.48828125 C-154.31091209 136.24069104 -161.12266959 127.95743748 -168.1771698 120.7263031 C-170.23760353 118.61687471 -172.3060119 116.5153211 -174.37368774 114.41299438 C-175.92396309 112.82635444 -177.45766119 111.22484858 -178.9909668 109.62182617 C-179.96084319 108.62882518 -180.93127913 107.6363703 -181.90234375 106.64453125 C-182.76335693 105.75096924 -183.62437012 104.85740723 -184.51147461 103.93676758 C-186.79772379 101.82918213 -186.79772379 101.82918213 -189.38978577 101.64868164 C-192.79029388 102.10636857 -193.85954639 103.25408988 -196.25195312 105.68432617 C-197.05628784 106.48903854 -197.86062256 107.29375092 -198.68933105 108.12284851 C-199.97233093 109.44455803 -199.97233093 109.44455803 -201.28125 110.79296875 C-202.17235474 111.69114822 -203.06345947 112.5893277 -203.98156738 113.51472473 C-206.34956279 115.90598381 -208.70615656 118.3074453 -211.05792236 120.71459961 C-213.43979484 123.14738188 -215.83563368 125.56631714 -218.23046875 127.98632812 C-221.7434659 131.54018257 -225.24983141 135.10029627 -228.74804688 138.66870117 C-230.16523261 140.11259699 -231.58253271 141.55638058 -233 143 C-233.52368164 143.53460846 -234.04736328 144.06921692 -234.58691406 144.62002563 C-236.58724834 146.6460777 -238.55703711 148.43325108 -240.8125 150.1875 C-241.534375 150.785625 -242.25625 151.38375 -243 152 C-243 152.66 -243 153.32 -243 154 C-244.485 154.495 -244.485 154.495 -246 155 C-246.84422184 157.70150988 -247.29158636 159.24034334 -247 162 C-244.3689855 166.2513344 -240.65720352 169.54272969 -236.8125 172.6875 C-234.07336304 174.93967928 -232.16312057 177.20887668 -230 180 C-227.56916602 182.49316306 -225.08852215 184.91601745 -222.5625 187.3125 C-215.65508046 194.55686683 -210.81210684 201.68153383 -211 212 C-212.21520592 219.01196461 -215.19015429 224.48049502 -218.6875 230.625 C-219.77753402 232.58641096 -220.86607982 234.54864975 -221.953125 236.51171875 C-222.47841797 237.4557959 -223.00371094 238.39987305 -223.54492188 239.37255859 C-230.23662296 251.45579467 -235.22168443 263.53189995 -238.46484375 276.96875 C-238.71999756 278.02465332 -238.97515137 279.08055664 -239.23803711 280.16845703 C-239.73376123 282.25459627 -240.2157997 284.34405113 -240.68188477 286.43701172 C-242.96001994 296.17064317 -246.45042895 304.35276672 -255 310 C-261.89419155 313.53017051 -268.00326585 314.58115432 -275.6796875 314.5390625 C-277.14246628 314.55675186 -277.14246628 314.55675186 -278.63479614 314.57479858 C-281.71503081 314.60977634 -284.79458368 314.6192043 -287.875 314.625 C-290.97663569 314.64136493 -294.07797187 314.66339115 -297.17947388 314.69662476 C-299.10035456 314.71620013 -301.02137297 314.72559556 -302.94235229 314.72354126 C-303.81070709 314.73050018 -304.67906189 314.73745911 -305.57373047 314.74462891 C-306.71429398 314.74651718 -306.71429398 314.74651718 -307.87789917 314.7484436 C-310.34598219 315.04101315 -311.92299455 315.6374654 -314 317 C-315.13360797 320.4008239 -315.13390984 323.00887419 -315.14526367 326.59521484 C-315.14862228 327.26061783 -315.1519809 327.92602081 -315.15544128 328.61158752 C-315.16494032 330.81138984 -315.16689392 333.01111595 -315.16796875 335.2109375 C-315.17118225 336.74166902 -315.1745464 338.27240023 -315.17805481 339.8031311 C-315.18404359 343.01264152 -315.18589499 346.22212502 -315.18530273 349.43164062 C-315.18520117 353.53960878 -315.1988485 357.64740388 -315.21607494 361.75533104 C-315.22720675 364.91751901 -315.22922157 368.07966532 -315.22869301 371.24187088 C-315.22987153 372.75609559 -315.23428614 374.27032143 -315.24202538 375.78452682 C-315.25184844 377.90513896 -315.24893819 380.02537764 -315.24291992 382.14599609 C-315.24434494 383.35162201 -315.24576996 384.55724792 -315.24723816 385.79940796 C-315.00385953 388.95003694 -314.34856894 391.16320151 -313 394 C-312.38327423 393.99920441 -311.76654846 393.99840881 -311.13113403 393.99758911 C-304.67350902 393.99513879 -298.2170759 394.03458974 -291.75976562 394.09765625 C-289.35454859 394.11575031 -286.94922817 394.12339682 -284.54394531 394.12011719 C-281.07276428 394.11724131 -277.60369894 394.15275467 -274.1328125 394.1953125 C-273.06886261 394.18621857 -272.00491272 394.17712463 -270.90872192 394.16775513 C-261.73243573 394.34373969 -255.08073908 397.60477041 -248.6875 404.1875 C-243.65212598 410.66768305 -241.05423147 417.51996997 -240.28930664 425.59912109 C-237.84965239 445.84516322 -227.47579921 465.07025261 -216.87426758 482.12329102 C-211.84758753 490.32876109 -209.83924476 497.53047031 -212 507 C-215.29676751 517.32026515 -223.62415935 524.15340954 -231.1875 531.4375 C-233.13363756 533.33355756 -235.07617417 535.23320278 -237.01667786 537.13502502 C-238.21794846 538.31001874 -239.42310691 539.48105433 -240.63261414 540.64756775 C-243.05888052 543.00155769 -245.11723451 545.17585176 -247 548 C-246.78916345 552.01827753 -244.34026195 554.01654962 -241.58789062 556.73681641 C-241.13093307 557.19260574 -240.67397552 557.64839508 -240.20317078 558.11799622 C-238.69438565 559.6196062 -237.17537316 561.11041827 -235.65625 562.6015625 C-234.60559872 563.64407624 -233.55568173 564.68733047 -232.50646973 565.73129272 C-229.74477717 568.4758748 -226.9746375 571.21176329 -224.20220947 573.94549561 C-219.76236397 578.32611982 -215.33516267 582.71951427 -210.90849304 587.11344528 C-209.35953503 588.64841997 -207.80683659 590.17953074 -206.25354004 591.71011353 C-205.31586792 592.63802704 -204.3781958 593.56594055 -203.41210938 594.52197266 C-202.58239624 595.34041656 -201.75268311 596.15886047 -200.89782715 597.00210571 C-199 599 -199 599 -198 601 C-197.34 601 -196.68 601 -196 601 C-195.505 602.485 -195.505 602.485 -195 604 C-192.98516262 605.9428789 -191.53383484 606.88012815 -188.79614258 607.49487305 C-184.31539672 606.70185184 -182.06073706 603.61475773 -179.01171875 600.39453125 C-178.34968948 599.71831223 -177.68766022 599.0420932 -177.00556946 598.34538269 C-174.88731011 596.17927755 -172.78631796 593.99743565 -170.6875 591.8125 C-168.5978516 589.647075 -166.50456184 587.48564331 -164.40156555 585.33317566 C-163.094398 583.99434979 -161.79488168 582.64799413 -160.50456238 581.29292297 C-153.0010817 573.58610611 -145.81684256 569.65969444 -135.125 568.625 C-125.63324948 569.00832069 -117.88499134 574.84154245 -110.10375977 579.71020508 C-99.83649613 586.0650182 -89.13837393 591.63624539 -77.328125 594.4296875 C-75.18330149 594.95509728 -73.23522119 595.6201323 -71.1875 596.4375 C-67.50741248 597.89736943 -63.75844123 598.90568465 -59.9375 599.9375 C-50.89583847 602.51119257 -44.25327902 605.89354147 -39 614 C-35.03786694 621.57705957 -34.35642662 628.54780229 -34.25 637 C-34.21962646 638.17957275 -34.18925293 639.35914551 -34.15795898 640.57446289 C-33.97864717 648.25245878 -33.90749394 655.94093579 -34.12402344 663.61914062 C-34.19187806 667.37865365 -33.80864188 669.73195585 -32 673 C-19.2027065 673.75429805 -6.45297462 674.16142303 6.36669922 674.13037109 C9.02707461 674.12494478 11.68728546 674.13039727 14.34765625 674.13671875 C23.27972019 674.13982361 32.11031201 673.99150737 41 673 C42.77314921 667.6901299 43.23932192 663.21618801 43.08984375 657.64453125 C43.06940842 656.03581049 43.04923452 654.42708638 43.02929688 652.81835938 C42.98606167 650.32170976 42.93777791 647.82529255 42.88354492 645.32885742 C42.61688084 632.07315656 42.35253593 618.34875321 52 608 C58.00422756 602.37472088 64.18417705 600.4220797 72.0625 598.5 C83.19184758 595.5954542 93.72312455 592.23763536 104 587 C105.01191406 586.51144531 106.02382813 586.02289062 107.06640625 585.51953125 C112.83927336 582.70082407 118.38266648 579.86520008 123.75 576.3125 C132.72502108 570.47807927 140.54670428 567.50653609 151.27734375 569.40234375 C162.39172551 572.39092092 170.75891265 582.46101194 178.5625 590.375 C179.46291016 591.27605469 180.36332031 592.17710937 181.29101562 593.10546875 C187.8590663 599.7181326 187.8590663 599.7181326 189 602 C189.66 602 190.32 602 191 602 C191.185625 602.639375 191.37125 603.27875 191.5625 603.9375 C192.91751721 606.34267392 192.91751721 606.34267392 196.22561646 606.93339539 C200.06055248 607.35833666 200.06055248 607.35833666 202.92306519 605.05915833 C203.91162686 604.102781 204.8787189 603.12389806 205.82763672 602.12817383 C206.36349899 601.59829865 206.89936127 601.06842346 207.45146179 600.52249146 C209.21421501 598.76944393 210.9466511 596.98942329 212.6796875 595.20703125 C213.89886582 593.98054318 215.11960306 592.75560294 216.34182739 591.53215027 C218.89758067 588.9656335 221.43960442 586.38650744 223.97167969 583.79663086 C227.21806575 580.47665069 230.48794413 577.18112592 233.76722527 573.89366627 C236.28725917 571.36504785 238.79892471 568.82826068 241.30768204 566.28845787 C242.51104558 565.07051624 243.71596285 563.85410771 244.92245102 562.63926125 C246.60579542 560.94000185 248.27866984 559.2311028 249.94873047 557.51879883 C250.4484285 557.01731827 250.94812653 556.51583771 251.46296692 555.99916077 C254.81765547 552.5343042 254.81765547 552.5343042 256 548 C255.01442103 546.16768699 255.01442103 546.16768699 253.3203125 544.4921875 C252.67094727 543.79577148 252.02158203 543.09935547 251.35253906 542.38183594 C246.06612487 537.02958844 240.68538888 531.76629216 235.24658203 526.56884766 C226.85128388 518.5283161 219.51444213 510.68334039 218.86621094 498.48168945 C219.31814932 490.0985623 223.33053752 483.21782448 227.75 476.3125 C238.36226972 459.12693494 245.15628501 441.65088279 249.5 421.9375 C251.94682918 411.11334183 255.00932446 404.36413833 264.55859375 398.19140625 C271.28111044 394.9108181 277.53430859 394.69565553 284.89453125 394.65625 C285.92309738 394.6416272 286.95166351 394.62700439 288.01139832 394.61193848 C292.39183483 394.54986629 296.77240504 394.50988178 301.15307617 394.46826172 C304.35871466 394.43464525 307.56404729 394.38953429 310.76953125 394.34375 C312.26320976 394.33583435 312.26320976 394.33583435 313.7870636 394.32775879 C314.70529404 394.31434448 315.62352448 394.30093018 316.56958008 394.28710938 C317.37897537 394.27981812 318.18837067 394.27252686 319.02229309 394.26501465 C321.23207009 394.17254921 321.23207009 394.17254921 323 392 C324.07072802 388.14797871 324.13202281 384.43496945 324.14526367 380.453125 C324.15483345 378.49584473 324.15483345 378.49584473 324.16459656 376.49902344 C324.16612514 375.08268267 324.16723915 373.6663414 324.16796875 372.25 C324.17118437 370.78938769 324.17454867 369.3287757 324.17805481 367.86816406 C324.18403149 364.81184136 324.18589613 361.75554688 324.18530273 358.69921875 C324.185201 354.78860126 324.19887117 350.87816487 324.21607494 346.96759033 C324.22720624 343.95295382 324.22922162 340.93836101 324.22869301 337.92370605 C324.22987073 336.4820493 324.23428081 335.04039132 324.24202538 333.59875488 C324.25185091 331.5814855 324.24767635 329.56416271 324.24291992 327.546875 C324.24505745 325.82742676 324.24505745 325.82742676 324.24723816 324.07324219 C323.996347 320.95459219 323.44394738 318.76727821 322 316 C317.87800551 314.43501039 313.26109529 314.85517776 308.890625 314.8671875 C308.12320984 314.86623077 307.35579468 314.86527405 306.56512451 314.86428833 C304.95145587 314.8636104 303.33778444 314.86543757 301.72412109 314.86962891 C299.24440478 314.87501215 296.76486718 314.86965583 294.28515625 314.86328125 C292.71614543 314.86394152 291.14713473 314.86522163 289.578125 314.8671875 C288.83338928 314.86516327 288.08865356 314.86313904 287.3213501 314.86105347 C283.87117642 314.5648947 283.87117642 314.5648947 281 316 C281 315.67 281 315.34 281 315 C280.17757812 314.92523438 279.35515625 314.85046875 278.5078125 314.7734375 C269.60491228 313.724828 262.27779864 311.8215866 256.15625 304.921875 C251.19020961 297.95968113 249.1648561 290.1910076 247.46777344 281.91064453 C243.79280649 264.33780537 236.47591852 248.37973236 226.98046875 233.21875 C221.55735269 224.40484934 217.77072641 215.89076573 219.41015625 205.3671875 C220.99135854 199.17493423 223.82420768 194.76005956 228 190 C228.75023437 189.14148438 229.50046875 188.28296875 230.2734375 187.3984375 C234.46720937 182.72609707 238.75266973 178.21045427 243.26953125 173.84765625 C243.99994629 173.13738281 244.73036133 172.42710937 245.48291016 171.6953125 C246.93368156 170.29177551 248.39539797 168.89944983 249.86865234 167.51953125 C250.53461426 166.875 251.20057617 166.23046875 251.88671875 165.56640625 C252.78716919 164.71477905 252.78716919 164.71477905 253.70581055 163.84594727 C255.48884114 161.30274894 255.43995115 160.07326183 255 157 C253.40380071 154.91571121 251.89128561 153.21722208 250.03051758 151.39941406 C249.50210266 150.86384384 248.97368774 150.32827362 248.42926025 149.776474 C246.67989651 148.01020773 244.9130027 146.26274394 243.14453125 144.515625 C241.9225914 143.29285654 240.70146681 142.06927288 239.48112488 140.84490967 C236.92068379 138.28160941 234.35167463 135.72731406 231.77612305 133.17919922 C228.47647722 129.91361753 225.19725099 126.62839839 221.92398548 123.33639908 C219.40494027 120.80678044 216.87622676 118.2870118 214.34439659 115.77019501 C213.13156121 114.56254053 211.92154667 113.35204622 210.71442604 112.1386795 C209.02467278 110.44347092 207.32255417 108.76174343 205.61645508 107.08300781 C205.12014084 106.58016769 204.6238266 106.07732758 204.11247253 105.55924988 C201.22525188 102.7502538 199.09313717 101.16176999 195 101 C192.82856735 102.4432903 192.82856735 102.4432903 191 104.625 C189.96552734 105.74068359 189.96552734 105.74068359 188.91015625 106.87890625 C188.27980469 107.57886719 187.64945313 108.27882813 187 109 C181.33333333 114.66666667 175.66666667 120.33333333 170 126 C169.50113281 126.54527344 169.00226563 127.09054687 168.48828125 127.65234375 C161.28357934 135.32728262 153.51107461 139.76839934 143 141 C133.91143118 141 125.29599491 134.26747741 117.91699219 129.71484375 C104.61097366 121.56047884 91.49298854 115.55764529 76.41796875 111.453125 C75.4832373 111.19764893 74.54850586 110.94217285 73.58544922 110.67895508 C71.79668116 110.20065885 70.00285123 109.74073247 68.20361328 109.3034668 C59.30481764 106.98260938 53.54705448 102.17854109 48 95 C47.34 94.34 46.68 93.68 46 93 C41.26503031 80.74478433 42.91253978 65.94874575 43.12695312 53.06445312 C43.13791016 51.83533203 43.14886719 50.60621094 43.16015625 49.33984375 C43.17699463 48.24019287 43.19383301 47.14054199 43.21118164 46.00756836 C42.99554839 42.93660192 42.30350195 40.76998182 41 38 C39.53240234 38.01740234 39.53240234 38.01740234 38.03515625 38.03515625 C36.06869141 38.04869141 36.06869141 38.04869141 34.0625 38.0625 C32.77472656 38.07410156 31.48695313 38.08570313 30.16015625 38.09765625 C27.29252481 38.07617969 24.52058548 37.85670832 21.67578125 37.5 C16.48555502 36.87164196 11.34668387 36.88956081 6.125 36.9375 C4.72121094 36.94426758 4.72121094 36.94426758 3.2890625 36.95117188 C1.56785779 36.95982736 -0.15333881 36.9705526 -1.87451172 36.98413086 C-5.23929633 37.00925273 -8.60048647 36.97832584 -11.96484375 36.9296875 C-13.95572556 36.9110687 -15.9466112 36.8928555 -17.9375 36.875 C-18.93974609 36.85824219 -19.94199219 36.84148437 -20.97460938 36.82421875 C-22.42383789 36.81455078 -22.42383789 36.81455078 -23.90234375 36.8046875 C-24.78398193 36.79421387 -25.66562012 36.78374023 -26.57397461 36.77294922 C-29.19751512 37.01848536 -30.78726096 37.58803521 -33 39 Z M-266 459 C-265 461 -265 461 -265 461 Z " fill="#020202" transform="translate(508,158)"/>
<path d="M0 0 C28.34314708 25.83524638 47.50630248 57.9261971 56.53149414 95.22290039 C57.02764945 97.21485809 57.60387807 99.18656887 58.1953125 101.15234375 C59.69941152 107.20598129 59.82355708 113.5325488 60.16967773 119.73901367 C60.29485402 121.94485535 60.43855914 124.14892829 60.58398438 126.35351562 C61.3902052 139.51541751 61.07142565 152.69233756 58.921875 165.73046875 C58.79514404 166.50398682 58.66841309 167.27750488 58.5378418 168.07446289 C53.17078273 198.79972923 40.95142621 227.42412954 21.47998047 251.82128906 C20.18215779 253.45154298 18.90980026 255.09832689 17.64453125 256.75390625 C13.70242011 261.84372063 13.70242011 261.84372063 12.109375 263.54296875 C11.449375 263.54296875 10.789375 263.54296875 10.109375 263.54296875 C9.8 264.37828125 9.8 264.37828125 9.484375 265.23046875 C7.97373488 267.77109076 6.17079325 269.30804372 3.83984375 271.1015625 C1.96075726 272.61824695 1.96075726 272.61824695 -0.14453125 274.8359375 C-8.67650195 283.24654304 -18.57429944 290.49738011 -28.890625 296.54296875 C-29.73367188 297.0544043 -29.73367188 297.0544043 -30.59375 297.57617188 C-41.54178554 304.20815494 -52.87292935 309.1701872 -64.890625 313.54296875 C-65.57592285 313.795625 -66.2612207 314.04828125 -66.96728516 314.30859375 C-82.4024596 319.89458299 -99.49743758 323.02323758 -115.890625 323.54296875 C-117.77201172 323.6203125 -117.77201172 323.6203125 -119.69140625 323.69921875 C-144.6742851 324.39591787 -168.03531478 319.3498821 -191.515625 311.35546875 C-192.53100342 311.01040283 -193.54638184 310.66533691 -194.5925293 310.30981445 C-195.99692261 309.8161438 -195.99692261 309.8161438 -197.4296875 309.3125 C-198.68579834 308.87321167 -198.68579834 308.87321167 -199.96728516 308.42504883 C-201.890625 307.54296875 -201.890625 307.54296875 -202.890625 305.54296875 C-204.0971875 305.14078125 -204.0971875 305.14078125 -205.328125 304.73046875 C-210.10005389 303.13982579 -214.42898643 300.8460088 -218.890625 298.54296875 C-219.550625 298.21296875 -220.210625 297.88296875 -220.890625 297.54296875 C-222.5617288 296.21520083 -224.22729798 294.88046596 -225.890625 293.54296875 C-227.7395388 292.14504777 -229.60015742 290.76358585 -231.46118164 289.38183594 C-251.848921 274.23458145 -251.848921 274.23458145 -258.03125 266.7421875 C-259.85445449 264.58575026 -261.78015305 262.55700769 -263.73535156 260.52075195 C-288.890625 234.06750836 -288.890625 234.06750836 -288.890625 222.54296875 C-290.210625 221.88296875 -291.530625 221.22296875 -292.890625 220.54296875 C-292.560625 219.88296875 -292.230625 219.22296875 -291.890625 218.54296875 C-292.89195899 215.94204473 -292.89195899 215.94204473 -294.328125 213.10546875 C-296.890625 207.86176984 -296.890625 207.86176984 -296.890625 204.54296875 C-297.880625 204.21296875 -298.870625 203.88296875 -299.890625 203.54296875 C-299.230625 203.54296875 -298.570625 203.54296875 -297.890625 203.54296875 C-298.07238281 203.01864258 -298.25414062 202.49431641 -298.44140625 201.95410156 C-299.26415314 199.56919039 -300.0774661 197.18116516 -300.890625 194.79296875 C-301.17679687 193.96796875 -301.46296875 193.14296875 -301.7578125 192.29296875 C-302.02851563 191.49375 -302.29921875 190.69453125 -302.578125 189.87109375 C-302.95517578 188.7713623 -302.95517578 188.7713623 -303.33984375 187.64941406 C-303.890625 185.54296875 -303.890625 185.54296875 -303.890625 181.54296875 C-304.880625 181.54296875 -305.870625 181.54296875 -306.890625 181.54296875 C-306.61605469 180.48142578 -306.61605469 180.48142578 -306.3359375 179.3984375 C-305.84504925 176.25072426 -306.14540547 173.96931062 -306.765625 170.85546875 C-306.94867188 169.90285156 -307.13171875 168.95023438 -307.3203125 167.96875 C-307.79018096 165.55165595 -307.79018096 165.55165595 -308.890625 163.54296875 C-311.47186288 137.74919826 -309.91093809 111.50408196 -302.890625 86.54296875 C-302.67422363 85.76695312 -302.45782227 84.9909375 -302.23486328 84.19140625 C-297.05019233 66.13618715 -288.8060526 48.83136035 -277.890625 33.54296875 C-277.41834473 32.87894043 -276.94606445 32.21491211 -276.45947266 31.53076172 C-271.28092585 24.31011186 -266.11176366 17.28523665 -259.60546875 11.19140625 C-257.93443546 9.58508268 -256.5231117 7.91477221 -255.078125 6.10546875 C-250.96767958 1.22155242 -245.89282443 -2.53361167 -240.890625 -6.45703125 C-239.36888672 -7.68486328 -239.36888672 -7.68486328 -237.81640625 -8.9375 C-229.94179039 -15.22961624 -221.69900212 -20.56548018 -212.890625 -25.45703125 C-212.27912598 -25.79976074 -211.66762695 -26.14249023 -211.03759766 -26.49560547 C-143.69882967 -63.70023026 -56.53046191 -50.68972787 0 0 Z M-238.15820312 37.59912109 C-246.48363203 46.94059023 -253.1034506 57.48467373 -258.890625 68.54296875 C-259.19983887 69.13013672 -259.50905273 69.71730469 -259.82763672 70.32226562 C-268.84837077 87.69413402 -274.62054323 108.54685682 -273.8984375 128.1640625 C-273.89585937 128.94910156 -273.89328125 129.73414063 -273.890625 130.54296875 C-274.220625 130.87296875 -274.550625 131.20296875 -274.890625 131.54296875 C-277.57705742 167.90351912 -263.9850348 207.52409735 -240.49414062 235.1875 C-237.3904066 238.73583439 -234.16564806 242.15276904 -230.890625 245.54296875 C-230.17132813 246.30222656 -229.45203125 247.06148437 -228.7109375 247.84375 C-226.38616339 250.28561357 -226.38616339 250.28561357 -223.890625 252.54296875 C-223.230625 252.54296875 -222.570625 252.54296875 -221.890625 252.54296875 C-221.890625 253.20296875 -221.890625 253.86296875 -221.890625 254.54296875 C-195.58161451 277.19467285 -160.59843031 288.04619522 -126.265625 287.85546875 C-125.56441528 287.8533136 -124.86320557 287.85115845 -124.14074707 287.84893799 C-86.39252338 287.66334023 -48.50722569 274.51981568 -21.515625 247.35546875 C-20.84789062 246.64003906 -20.18015625 245.92460938 -19.4921875 245.1875 C-17.890625 243.54296875 -17.890625 243.54296875 -15.890625 242.54296875 C-15.890625 241.88296875 -15.890625 241.22296875 -15.890625 240.54296875 C-15.230625 240.54296875 -14.570625 240.54296875 -13.890625 240.54296875 C12.40986602 213.27888215 26.49878335 172.86800888 26.10546875 135.41015625 C25.56665733 116.09841172 22.81102871 94.80291853 13.22265625 77.71875 C12.109375 75.54296875 12.109375 75.54296875 11.26953125 72.8203125 C9.73938373 68.49777456 7.55386099 64.7354187 5.234375 60.79296875 C4.79996094 60.02597656 4.36554688 59.25898438 3.91796875 58.46875 C3.27408203 57.36853516 3.27408203 57.36853516 2.6171875 56.24609375 C2.23191895 55.58254883 1.84665039 54.91900391 1.44970703 54.23535156 C-0.11783408 52.25608107 -1.6488994 51.63309491 -3.890625 50.54296875 C-4.09945312 49.42921875 -4.09945312 49.42921875 -4.3125 48.29296875 C-5.1233228 44.43608192 -7.47801268 42.28205296 -10.140625 39.54296875 C-10.61886719 39.03507812 -11.09710937 38.5271875 -11.58984375 38.00390625 C-13.87907103 35.58439774 -16.21491666 33.21867709 -18.5703125 30.86328125 C-19.86479553 29.56879822 -21.147831 28.26152345 -22.3828125 26.91015625 C-42.7587107 4.92260508 -76.3612761 -9.46448919 -105.890625 -12.45703125 C-108.25643218 -12.52839798 -110.58885393 -12.53267658 -112.953125 -12.4296875 C-114.890625 -12.45703125 -114.890625 -12.45703125 -116.7890625 -12.94140625 C-159.20763708 -23.34893756 -210.91707868 8.31271309 -238.15820312 37.59912109 Z " fill="#020202" transform="translate(636.890625,375.45703125)"/>
<path d="M0 0 C6.94170022 -0.05058729 13.88335315 -0.08568579 20.82519531 -0.10986328 C23.18816911 -0.11993924 25.55113039 -0.13360029 27.9140625 -0.15087891 C31.30471888 -0.17505724 34.69521084 -0.18646699 38.0859375 -0.1953125 C39.14743011 -0.20563507 40.20892273 -0.21595764 41.30258179 -0.22659302 C42.77388046 -0.22681961 42.77388046 -0.22681961 44.27490234 -0.22705078 C45.14094086 -0.231492 46.00697937 -0.23593323 46.89926147 -0.24050903 C49 0 49 0 51 2 C50.01 2 49.02 2 48 2 C47.67 2.66 47.34 3.32 47 4 C46.505 3.01 46.505 3.01 46 2 C28.675 1.505 28.675 1.505 11 1 C11 1.66 11 2.32 11 3 C10.34 2.67 9.68 2.34 9 2 C7.46331135 1.77532169 5.92031946 1.59203195 4.375 1.4375 C3.55773437 1.35371094 2.74046875 1.26992188 1.8984375 1.18359375 C1.27195312 1.12300781 0.64546875 1.06242187 0 1 C0 0.67 0 0.34 0 0 Z " fill="#101010" transform="translate(779,472)"/>
<path d="M0 0 C0 3 0 3 -1.56054688 4.90112305 C-2.62885742 5.94586792 -2.62885742 5.94586792 -3.71875 7.01171875 C-4.48574219 7.76904297 -5.25273437 8.52636719 -6.04296875 9.30664062 C-6.85378906 10.09232422 -7.66460937 10.87800781 -8.5 11.6875 C-9.31082031 12.48478516 -10.12164062 13.28207031 -10.95703125 14.10351562 C-12.96482203 16.0758748 -14.9792687 18.04091492 -17 20 C-17.66 19.67 -18.32 19.34 -19 19 C-18.56429688 18.57589844 -18.12859375 18.15179688 -17.6796875 17.71484375 C-14.62215092 14.70363348 -11.67660982 11.6808222 -8.9375 8.375 C-6.23615473 5.14940444 -3.30552252 2.59719627 0 0 Z " fill="#1A1A19" transform="translate(391,373)"/>
<path d="M0 0 C0.66 0.33 1.32 0.66 2 1 C-0.97 3.97 -3.94 6.94 -7 10 C-7 6.04435836 -5.59478606 4.89133304 -3 2 C-2.01 1.34 -1.02 0.68 0 0 Z " fill="#1C1C1C" transform="translate(172,443)"/>
<path d="M0 0 C1.95803507 -0.05389087 3.91648909 -0.09274217 5.875 -0.125 C7.51082031 -0.15980469 7.51082031 -0.15980469 9.1796875 -0.1953125 C12 0 12 0 14 2 C13.01 2 12.02 2 11 2 C10.67 2.66 10.34 3.32 10 4 C9.67 3.34 9.34 2.68 9 2 C6.87423218 1.53348793 6.87423218 1.53348793 4.4375 1.375 C3.61121094 1.30023438 2.78492188 1.22546875 1.93359375 1.1484375 C1.29550781 1.09945313 0.65742187 1.05046875 0 1 C0 0.67 0 0.34 0 0 Z " fill="#1C1B1A" transform="translate(816,472)"/>
<path d="M0 0 C0.66 0 1.32 0 2 0 C2.33 1.32 2.66 2.64 3 4 C1.97895449 3.02149805 0.9793879 2.02019573 0 1 C0 0.67 0 0.34 0 0 Z " fill="#1F1F1E" transform="translate(256,648)"/>
<path d="M0 0 C1.65 0 3.3 0 5 0 C5 0.33 5 0.66 5 1 C3.35 1 1.7 1 0 1 C0 0.67 0 0.34 0 0 Z " fill="#282726" transform="translate(369,300)"/>
<path d="M0 0 C0.66 0 1.32 0 2 0 C2 0.66 2 1.32 2 2 C1.34 2 0.68 2 0 2 C0 1.34 0 0.68 0 0 Z " fill="#211F1F" transform="translate(484,366)"/>
<path d="M0 0 C3 1 3 1 3 1 Z " fill="#242524" transform="translate(537,868)"/>
<path d="M0 0 C0.66 0 1.32 0 2 0 C1.67 0.66 1.34 1.32 1 2 C0.67 1.34 0.34 0.68 0 0 Z " fill="#222020" transform="translate(459,694)"/>
<path d="" fill="#20201E" transform="translate(0,0)"/>
<path d="" fill="#212020" transform="translate(0,0)"/>
<path d="M0 0 C0.66 0.66 1.32 1.32 2 2 C1.34 2 0.68 2 0 2 C0 1.34 0 0.68 0 0 Z " fill="#252422" transform="translate(761,462)"/>
<path d="" fill="#232221" transform="translate(0,0)"/>
<path d="M0 0 C0.66 0.66 1.32 1.32 2 2 C1.34 2 0.68 2 0 2 C0 1.34 0 0.68 0 0 Z " fill="#202120" transform="translate(790,432)"/>
<path d="M0 0 C3 1 3 1 3 1 Z " fill="#1F201F" transform="translate(384,376)"/>
<path d="M0 0 C3 1 3 1 3 1 Z " fill="#23221E" transform="translate(538,366)"/>
<path d="" fill="#232221" transform="translate(0,0)"/>
<path d="M0 0 C3 1 3 1 3 1 Z " fill="#1F1E1D" transform="translate(577,338)"/>
<path d="M0 0 C2 1 2 1 2 1 Z " fill="#262523" transform="translate(542,868)"/>
<path d="M0 0 C2 1 2 1 2 1 Z " fill="#262627" transform="translate(472,868)"/>
<path d="M0 0 C2 1 2 1 2 1 Z " fill="#282727" transform="translate(560,867)"/>
<path d="" fill="#1D1E1D" transform="translate(0,0)"/>
<path d="" fill="#2A2928" transform="translate(0,0)"/>
<path d="M0 0 C2 1 2 1 2 1 Z " fill="#242223" transform="translate(427,789)"/>
<path d="M0 0 C2 1 2 1 2 1 Z " fill="#212220" transform="translate(404,782)"/>
<path d="M0 0 C2 1 2 1 2 1 Z " fill="#282725" transform="translate(274,774)"/>
<path d="M0 0 C2 1 2 1 2 1 Z " fill="#212020" transform="translate(703,763)"/>
<path d="" fill="#222321" transform="translate(0,0)"/>
<path d="M0 0 C2 1 2 1 2 1 Z " fill="#212320" transform="translate(413,744)"/>
<path d="M0 0 C2 1 2 1 2 1 Z " fill="#20201E" transform="translate(730,737)"/>
<path d="M0 0 C2 1 2 1 2 1 Z " fill="#2A2A2A" transform="translate(224,725)"/>
<path d="M0 0 C2 1 2 1 2 1 Z " fill="#272625" transform="translate(649,724)"/>
<path d="M0 0 C2 1 2 1 2 1 Z " fill="#1F1F1D" transform="translate(749,720)"/>
<path d="M0 0 C2 1 2 1 2 1 Z " fill="#252421" transform="translate(504,700)"/>
<path d="" fill="#222321" transform="translate(0,0)"/>
<path d="M0 0 C2 1 2 1 2 1 Z " fill="#232321" transform="translate(482,659)"/>
<path d="M0 0 C2 1 2 1 2 1 Z " fill="#1D1C1B" transform="translate(470,656)"/>
<path d="" fill="#232322" transform="translate(0,0)"/>
<path d="" fill="#1E1E1C" transform="translate(0,0)"/>
<path d="M0 0 C2 1 2 1 2 1 Z " fill="#282625" transform="translate(835,589)"/>
<path d="M0 0 C2 1 2 1 2 1 Z " fill="#222120" transform="translate(216,589)"/>
<path d="M0 0 C2 1 2 1 2 1 Z " fill="#252423" transform="translate(178,587)"/>
<path d="" fill="#211F1E" transform="translate(0,0)"/>
<path d="" fill="#22211F" transform="translate(0,0)"/>
<path d="" fill="#201F1E" transform="translate(0,0)"/>
<path d="" fill="#1E201E" transform="translate(0,0)"/>
<path d="M0 0 C2 1 2 1 2 1 Z " fill="#252425" transform="translate(812,474)"/>
<path d="M0 0 C2 1 2 1 2 1 Z " fill="#262524" transform="translate(807,474)"/>
<path d="M0 0 C2 1 2 1 2 1 Z " fill="#272627" transform="translate(804,474)"/>
<path d="M0 0 C2 1 2 1 2 1 Z " fill="#242222" transform="translate(199,474)"/>
<path d="M0 0 C2 1 2 1 2 1 Z " fill="#252122" transform="translate(824,436)"/>
<path d="M0 0 C2 1 2 1 2 1 Z " fill="#242222" transform="translate(819,436)"/>
<path d="M0 0 C2 1 2 1 2 1 Z " fill="#222121" transform="translate(816,436)"/>
<path d="" fill="#222121" transform="translate(0,0)"/>
<path d="" fill="#201F1E" transform="translate(0,0)"/>
<path d="" fill="#212220" transform="translate(0,0)"/>
<path d="" fill="#1A1B1B" transform="translate(0,0)"/>
<path d="" fill="#212020" transform="translate(0,0)"/>
<path d="M0 0 C2 1 2 1 2 1 Z " fill="#1F1F1D" transform="translate(576,379)"/>
<path d="M0 0 C2 1 2 1 2 1 Z " fill="#21201F" transform="translate(561,372)"/>
<path d="M0 0 C2 1 2 1 2 1 Z " fill="#242220" transform="translate(523,364)"/>
<path d="M0 0 C2 1 2 1 2 1 Z " fill="#1D1E1D" transform="translate(574,337)"/>
<path d="" fill="#22211F" transform="translate(0,0)"/>
<path d="" fill="#272726" transform="translate(0,0)"/>
<path d="M0 0 C2 1 2 1 2 1 Z " fill="#282726" transform="translate(633,295)"/>
<path d="M0 0 C2 1 2 1 2 1 Z " fill="#252423" transform="translate(618,285)"/>
<path d="M0 0 C2 1 2 1 2 1 Z " fill="#242222" transform="translate(579,270)"/>
<path d="" fill="#232322" transform="translate(0,0)"/>
<path d="M0 0 C2 1 2 1 2 1 Z " fill="#202020" transform="translate(393,248)"/>
<path d="M0 0 C2 1 2 1 2 1 Z " fill="#242223" transform="translate(433,232)"/>
<path d="M0 0 C2 1 2 1 2 1 Z " fill="#2C2E2B" transform="translate(455,160)"/>
<path d="" fill="#222624" transform="translate(0,0)"/>
<path d="" fill="#262321" transform="translate(0,0)"/>
<path d="" fill="#262424" transform="translate(0,0)"/>
<path d="" fill="#272725" transform="translate(0,0)"/>
<path d="" fill="#232625" transform="translate(0,0)"/>
<path d="" fill="#272826" transform="translate(0,0)"/>
<path d="" fill="#242426" transform="translate(0,0)"/>
<path d="" fill="#202121" transform="translate(0,0)"/>
<path d="" fill="#232523" transform="translate(0,0)"/>
<path d="" fill="#222122" transform="translate(0,0)"/>
<path d="" fill="#21211E" transform="translate(0,0)"/>
<path d="" fill="#1E1D1D" transform="translate(0,0)"/>
<path d="" fill="#1E1F1D" transform="translate(0,0)"/>
<path d="" fill="#1F1E1E" transform="translate(0,0)"/>
<path d="" fill="#212120" transform="translate(0,0)"/>
<path d="" fill="#2D2C2C" transform="translate(0,0)"/>
<path d="" fill="#2E2B28" transform="translate(0,0)"/>
<path d="" fill="#2B2829" transform="translate(0,0)"/>
<path d="" fill="#2A2826" transform="translate(0,0)"/>
<path d="" fill="#292828" transform="translate(0,0)"/>
<path d="" fill="#2E2E2B" transform="translate(0,0)"/>
<path d="" fill="#2A2A27" transform="translate(0,0)"/>
<path d="" fill="#292826" transform="translate(0,0)"/>
<path d="" fill="#262522" transform="translate(0,0)"/>
<path d="" fill="#2A282A" transform="translate(0,0)"/>
<path d="" fill="#201E1E" transform="translate(0,0)"/>
<path d="" fill="#2B2D2A" transform="translate(0,0)"/>
<path d="" fill="#262527" transform="translate(0,0)"/>
<path d="" fill="#2C2929" transform="translate(0,0)"/>
<path d="" fill="#2A2727" transform="translate(0,0)"/>
<path d="" fill="#222120" transform="translate(0,0)"/>
<path d="" fill="#242424" transform="translate(0,0)"/>
<path d="" fill="#211E1D" transform="translate(0,0)"/>
<path d="" fill="#1D1B1B" transform="translate(0,0)"/>
<path d="" fill="#201E1F" transform="translate(0,0)"/>
<path d="" fill="#222220" transform="translate(0,0)"/>
<path d="" fill="#222221" transform="translate(0,0)"/>
<path d="" fill="#1F211D" transform="translate(0,0)"/>
<path d="" fill="#2D2B2A" transform="translate(0,0)"/>
<path d="" fill="#242122" transform="translate(0,0)"/>
<path d="" fill="#201E20" transform="translate(0,0)"/>
<path d="" fill="#222322" transform="translate(0,0)"/>
<path d="" fill="#221F22" transform="translate(0,0)"/>
<path d="" fill="#242323" transform="translate(0,0)"/>
<path d="" fill="#2C2A2A" transform="translate(0,0)"/>
<path d="" fill="#232221" transform="translate(0,0)"/>
<path d="" fill="#1F2123" transform="translate(0,0)"/>
<path d="" fill="#25211F" transform="translate(0,0)"/>
<path d="" fill="#212222" transform="translate(0,0)"/>
<path d="" fill="#2A2828" transform="translate(0,0)"/>
<path d="" fill="#222221" transform="translate(0,0)"/>
<path d="" fill="#22201E" transform="translate(0,0)"/>
<path d="" fill="#2C2929" transform="translate(0,0)"/>
<path d="" fill="#201F1F" transform="translate(0,0)"/>
<path d="" fill="#232121" transform="translate(0,0)"/>
<path d="" fill="#1F201E" transform="translate(0,0)"/>
<path d="" fill="#202121" transform="translate(0,0)"/>
<path d="" fill="#1F1F1D" transform="translate(0,0)"/>
<path d="" fill="#212120" transform="translate(0,0)"/>
<path d="" fill="#1F1F1F" transform="translate(0,0)"/>
<path d="" fill="#1F1D1F" transform="translate(0,0)"/>
<path d="" fill="#23231F" transform="translate(0,0)"/>
<path d="" fill="#2C2A28" transform="translate(0,0)"/>
<path d="" fill="#1F2020" transform="translate(0,0)"/>
<path d="" fill="#222323" transform="translate(0,0)"/>
<path d="" fill="#212020" transform="translate(0,0)"/>
<path d="" fill="#222420" transform="translate(0,0)"/>
<path d="" fill="#212020" transform="translate(0,0)"/>
<path d="" fill="#252623" transform="translate(0,0)"/>
<path d="" fill="#202121" transform="translate(0,0)"/>
<path d="" fill="#1F2021" transform="translate(0,0)"/>
<path d="" fill="#21221F" transform="translate(0,0)"/>
<path d="" fill="#292727" transform="translate(0,0)"/>
<path d="" fill="#2A2928" transform="translate(0,0)"/>
<path d="" fill="#2D2A29" transform="translate(0,0)"/>
<path d="" fill="#1E221F" transform="translate(0,0)"/>
<path d="" fill="#222221" transform="translate(0,0)"/>
<path d="" fill="#20221D" transform="translate(0,0)"/>
<path d="" fill="#242426" transform="translate(0,0)"/>
<path d="" fill="#292929" transform="translate(0,0)"/>
<path d="" fill="#1F2120" transform="translate(0,0)"/>
<path d="" fill="#282927" transform="translate(0,0)"/>
<path d="" fill="#21201F" transform="translate(0,0)"/>
<path d="" fill="#2C292A" transform="translate(0,0)"/>
<path d="" fill="#2D2D2C" transform="translate(0,0)"/>
<path d="" fill="#262724" transform="translate(0,0)"/>
<path d="" fill="#2A2C29" transform="translate(0,0)"/>
<path d="" fill="#212120" transform="translate(0,0)"/>
<path d="" fill="#211E1E" transform="translate(0,0)"/>
<path d="" fill="#201F1E" transform="translate(0,0)"/>
<path d="" fill="#22211F" transform="translate(0,0)"/>
<path d="" fill="#1F1E1E" transform="translate(0,0)"/>
<path d="" fill="#242220" transform="translate(0,0)"/>
<path d="" fill="#222423" transform="translate(0,0)"/>
<path d="" fill="#242322" transform="translate(0,0)"/>
<path d="" fill="#222321" transform="translate(0,0)"/>
<path d="" fill="#232320" transform="translate(0,0)"/>
<path d="" fill="#222120" transform="translate(0,0)"/>
<path d="" fill="#222222" transform="translate(0,0)"/>
<path d="" fill="#232020" transform="translate(0,0)"/>
<path d="" fill="#22211F" transform="translate(0,0)"/>
<path d="" fill="#272525" transform="translate(0,0)"/>
<path d="" fill="#252524" transform="translate(0,0)"/>
<path d="" fill="#232322" transform="translate(0,0)"/>
<path d="" fill="#262424" transform="translate(0,0)"/>
<path d="" fill="#232423" transform="translate(0,0)"/>
<path d="" fill="#232122" transform="translate(0,0)"/>
<path d="" fill="#252524" transform="translate(0,0)"/>
<path d="" fill="#212220" transform="translate(0,0)"/>
<path d="" fill="#211F21" transform="translate(0,0)"/>
<path d="" fill="#232022" transform="translate(0,0)"/>
<path d="" fill="#242423" transform="translate(0,0)"/>
<path d="" fill="#201F1F" transform="translate(0,0)"/>
<path d="" fill="#1C1E1B" transform="translate(0,0)"/>
<path d="" fill="#21231F" transform="translate(0,0)"/>
<path d="" fill="#21211F" transform="translate(0,0)"/>
<path d="" fill="#242423" transform="translate(0,0)"/>
<path d="" fill="#221F1F" transform="translate(0,0)"/>
<path d="" fill="#222221" transform="translate(0,0)"/>
<path d="" fill="#262624" transform="translate(0,0)"/>
<path d="" fill="#1D1C1C" transform="translate(0,0)"/>
<path d="" fill="#202120" transform="translate(0,0)"/>
<path d="" fill="#1F1E1D" transform="translate(0,0)"/>
<path d="" fill="#1B1A1A" transform="translate(0,0)"/>
<path d="" fill="#222221" transform="translate(0,0)"/>
<path d="" fill="#20201F" transform="translate(0,0)"/>
<path d="" fill="#232522" transform="translate(0,0)"/>
<path d="" fill="#212222" transform="translate(0,0)"/>
<path d="" fill="#222021" transform="translate(0,0)"/>
<path d="" fill="#23201F" transform="translate(0,0)"/>
<path d="" fill="#242421" transform="translate(0,0)"/>
<path d="" fill="#22211F" transform="translate(0,0)"/>
<path d="" fill="#1F1F20" transform="translate(0,0)"/>
<path d="" fill="#222020" transform="translate(0,0)"/>
<path d="" fill="#202220" transform="translate(0,0)"/>
<path d="" fill="#212121" transform="translate(0,0)"/>
<path d="" fill="#222120" transform="translate(0,0)"/>
<path d="" fill="#22211E" transform="translate(0,0)"/>
<path d="" fill="#201F20" transform="translate(0,0)"/>
<path d="" fill="#201E1D" transform="translate(0,0)"/>
<path d="" fill="#232221" transform="translate(0,0)"/>
<path d="" fill="#202121" transform="translate(0,0)"/>
<path d="" fill="#222322" transform="translate(0,0)"/>
<path d="" fill="#21201F" transform="translate(0,0)"/>
<path d="" fill="#212120" transform="translate(0,0)"/>
<path d="" fill="#1F1E1E" transform="translate(0,0)"/>
<path d="" fill="#222121" transform="translate(0,0)"/>
<path d="" fill="#21211F" transform="translate(0,0)"/>
<path d="" fill="#23211E" transform="translate(0,0)"/>
<path d="" fill="#1F1E1D" transform="translate(0,0)"/>
<path d="" fill="#1E1D1C" transform="translate(0,0)"/>
<path d="" fill="#262624" transform="translate(0,0)"/>
<path d="" fill="#272624" transform="translate(0,0)"/>
<path d="" fill="#232424" transform="translate(0,0)"/>
<path d="" fill="#262524" transform="translate(0,0)"/>
<path d="" fill="#282626" transform="translate(0,0)"/>
<path d="" fill="#232424" transform="translate(0,0)"/>
<path d="" fill="#2A292A" transform="translate(0,0)"/>
<path d="" fill="#222021" transform="translate(0,0)"/>
<path d="" fill="#242425" transform="translate(0,0)"/>
<path d="" fill="#242322" transform="translate(0,0)"/>
<path d="" fill="#201D1D" transform="translate(0,0)"/>
<path d="" fill="#242524" transform="translate(0,0)"/>
<path d="" fill="#262523" transform="translate(0,0)"/>
<path d="" fill="#232221" transform="translate(0,0)"/>
<path d="" fill="#282A28" transform="translate(0,0)"/>
<path d="" fill="#272827" transform="translate(0,0)"/>
<path d="" fill="#232120" transform="translate(0,0)"/>
<path d="" fill="#212122" transform="translate(0,0)"/>
<path d="" fill="#232322" transform="translate(0,0)"/>
<path d="" fill="#202321" transform="translate(0,0)"/>
<path d="" fill="#1E1E1B" transform="translate(0,0)"/>
<path d="" fill="#222322" transform="translate(0,0)"/>
<path d="" fill="#212121" transform="translate(0,0)"/>
<path d="" fill="#201F20" transform="translate(0,0)"/>
<path d="" fill="#1F2222" transform="translate(0,0)"/>
<path d="" fill="#212221" transform="translate(0,0)"/>
<path d="" fill="#212020" transform="translate(0,0)"/>
<path d="" fill="#222020" transform="translate(0,0)"/>
<path d="" fill="#202221" transform="translate(0,0)"/>
<path d="" fill="#1F201D" transform="translate(0,0)"/>
<path d="" fill="#1E211F" transform="translate(0,0)"/>
<path d="" fill="#211E1E" transform="translate(0,0)"/>
<path d="" fill="#222021" transform="translate(0,0)"/>
<path d="" fill="#222321" transform="translate(0,0)"/>
<path d="" fill="#1F1F1C" transform="translate(0,0)"/>
<path d="" fill="#1F1E1C" transform="translate(0,0)"/>
<path d="" fill="#1F201F" transform="translate(0,0)"/>
<path d="" fill="#222020" transform="translate(0,0)"/>
<path d="" fill="#211F20" transform="translate(0,0)"/>
<path d="" fill="#1F1F1E" transform="translate(0,0)"/>
<path d="" fill="#242525" transform="translate(0,0)"/>
<path d="" fill="#202221" transform="translate(0,0)"/>
<path d="" fill="#21201F" transform="translate(0,0)"/>
<path d="" fill="#212120" transform="translate(0,0)"/>
<path d="" fill="#23211E" transform="translate(0,0)"/>
<path d="" fill="#1F1F1C" transform="translate(0,0)"/>
<path d="" fill="#212120" transform="translate(0,0)"/>
<path d="" fill="#23221F" transform="translate(0,0)"/>
<path d="" fill="#241F1E" transform="translate(0,0)"/>
<path d="" fill="#242425" transform="translate(0,0)"/>
<path d="" fill="#262625" transform="translate(0,0)"/>
<path d="" fill="#242424" transform="translate(0,0)"/>
<path d="" fill="#242421" transform="translate(0,0)"/>
<path d="" fill="#262623" transform="translate(0,0)"/>
<path d="" fill="#232221" transform="translate(0,0)"/>
<path d="" fill="#272625" transform="translate(0,0)"/>
<path d="" fill="#252623" transform="translate(0,0)"/>
<path d="" fill="#272626" transform="translate(0,0)"/>
<path d="" fill="#252422" transform="translate(0,0)"/>
<path d="" fill="#24211F" transform="translate(0,0)"/>
<path d="" fill="#222021" transform="translate(0,0)"/>
<path d="" fill="#252624" transform="translate(0,0)"/>
<path d="" fill="#262525" transform="translate(0,0)"/>
<path d="" fill="#262524" transform="translate(0,0)"/>
<path d="" fill="#252524" transform="translate(0,0)"/>
<path d="" fill="#242423" transform="translate(0,0)"/>
<path d="" fill="#212020" transform="translate(0,0)"/>
<path d="" fill="#292A2A" transform="translate(0,0)"/>
<path d="" fill="#212320" transform="translate(0,0)"/>
<path d="" fill="#20201F" transform="translate(0,0)"/>
<path d="" fill="#202220" transform="translate(0,0)"/>
<path d="" fill="#1F1F1C" transform="translate(0,0)"/>
<path d="" fill="#242523" transform="translate(0,0)"/>
<path d="" fill="#201E1E" transform="translate(0,0)"/>
<path d="" fill="#262524" transform="translate(0,0)"/>
<path d="" fill="#242221" transform="translate(0,0)"/>
<path d="" fill="#1F1D1E" transform="translate(0,0)"/>
<path d="" fill="#272A28" transform="translate(0,0)"/>
<path d="" fill="#292B29" transform="translate(0,0)"/>
<path d="" fill="#23201D" transform="translate(0,0)"/>
<path d="" fill="#242222" transform="translate(0,0)"/>
<path d="" fill="#21211F" transform="translate(0,0)"/>
<path d="" fill="#252724" transform="translate(0,0)"/>
<path d="" fill="#262623" transform="translate(0,0)"/>
<path d="" fill="#231F21" transform="translate(0,0)"/>
<path d="" fill="#252424" transform="translate(0,0)"/>
<path d="" fill="#252422" transform="translate(0,0)"/>
<path d="" fill="#212220" transform="translate(0,0)"/>
<path d="" fill="#211F1E" transform="translate(0,0)"/>
<path d="" fill="#222120" transform="translate(0,0)"/>
<path d="" fill="#242121" transform="translate(0,0)"/>
<path d="" fill="#232221" transform="translate(0,0)"/>
<path d="" fill="#242324" transform="translate(0,0)"/>
<path d="" fill="#252525" transform="translate(0,0)"/>
<path d="" fill="#201E1C" transform="translate(0,0)"/>
<path d="" fill="#1B1C1C" transform="translate(0,0)"/>
<path d="" fill="#222223" transform="translate(0,0)"/>
<path d="" fill="#1E1E1E" transform="translate(0,0)"/>
<path d="" fill="#1E1D1C" transform="translate(0,0)"/>
<path d="" fill="#232120" transform="translate(0,0)"/>
<path d="" fill="#211F1F" transform="translate(0,0)"/>
<path d="" fill="#1F211D" transform="translate(0,0)"/>
<path d="" fill="#20201B" transform="translate(0,0)"/>
<path d="" fill="#212220" transform="translate(0,0)"/>
<path d="" fill="#1F1E1D" transform="translate(0,0)"/>
<path d="" fill="#222220" transform="translate(0,0)"/>
<path d="" fill="#20211F" transform="translate(0,0)"/>
<path d="" fill="#21211F" transform="translate(0,0)"/>
<path d="" fill="#20201F" transform="translate(0,0)"/>
<path d="" fill="#21211F" transform="translate(0,0)"/>
<path d="" fill="#242121" transform="translate(0,0)"/>
<path d="" fill="#212020" transform="translate(0,0)"/>
<path d="" fill="#1F1E1D" transform="translate(0,0)"/>
<path d="" fill="#20201F" transform="translate(0,0)"/>
<path d="" fill="#212220" transform="translate(0,0)"/>
<path d="" fill="#211F20" transform="translate(0,0)"/>
<path d="" fill="#222120" transform="translate(0,0)"/>
<path d="" fill="#232222" transform="translate(0,0)"/>
<path d="" fill="#21201F" transform="translate(0,0)"/>
<path d="" fill="#222020" transform="translate(0,0)"/>
<path d="" fill="#1C1E1C" transform="translate(0,0)"/>
<path d="" fill="#20201E" transform="translate(0,0)"/>
<path d="" fill="#20201F" transform="translate(0,0)"/>
<path d="" fill="#1F1F1D" transform="translate(0,0)"/>
<path d="" fill="#201E1F" transform="translate(0,0)"/>
<path d="" fill="#212220" transform="translate(0,0)"/>
<path d="" fill="#222220" transform="translate(0,0)"/>
<path d="" fill="#222221" transform="translate(0,0)"/>
<path d="" fill="#1E1E1D" transform="translate(0,0)"/>
<path d="" fill="#1F1D1C" transform="translate(0,0)"/>
<path d="" fill="#211E1D" transform="translate(0,0)"/>
<path d="" fill="#202020" transform="translate(0,0)"/>
<path d="" fill="#252423" transform="translate(0,0)"/>
<path d="" fill="#1D1F1E" transform="translate(0,0)"/>
<path d="" fill="#212020" transform="translate(0,0)"/>
<path d="" fill="#1E201D" transform="translate(0,0)"/>
<path d="" fill="#222221" transform="translate(0,0)"/>
<path d="" fill="#1D1C19" transform="translate(0,0)"/>
<path d="" fill="#201E1E" transform="translate(0,0)"/>
<path d="" fill="#232221" transform="translate(0,0)"/>
<path d="" fill="#201F1E" transform="translate(0,0)"/>
<path d="" fill="#1F1F1F" transform="translate(0,0)"/>
<path d="" fill="#242222" transform="translate(0,0)"/>
<path d="" fill="#1E2020" transform="translate(0,0)"/>
<path d="" fill="#21201E" transform="translate(0,0)"/>
<path d="" fill="#21231E" transform="translate(0,0)"/>
<path d="" fill="#222220" transform="translate(0,0)"/>
<path d="" fill="#22201E" transform="translate(0,0)"/>
<path d="" fill="#1F1F1D" transform="translate(0,0)"/>
<path d="" fill="#1F211D" transform="translate(0,0)"/>
<path d="" fill="#212120" transform="translate(0,0)"/>
<path d="" fill="#222020" transform="translate(0,0)"/>
<path d="" fill="#22221F" transform="translate(0,0)"/>
<path d="" fill="#20211F" transform="translate(0,0)"/>
<path d="" fill="#1F1E20" transform="translate(0,0)"/>
<path d="" fill="#1E1C1D" transform="translate(0,0)"/>
<path d="" fill="#212020" transform="translate(0,0)"/>
<path d="" fill="#1E1E1E" transform="translate(0,0)"/>
<path d="" fill="#1F1D1E" transform="translate(0,0)"/>
<path d="" fill="#211F1F" transform="translate(0,0)"/>
<path d="" fill="#242320" transform="translate(0,0)"/>
<path d="" fill="#201E1E" transform="translate(0,0)"/>
<path d="" fill="#1F1F1D" transform="translate(0,0)"/>
<path d="" fill="#232220" transform="translate(0,0)"/>
<path d="" fill="#201F1D" transform="translate(0,0)"/>
<path d="" fill="#1F211D" transform="translate(0,0)"/>
<path d="" fill="#212021" transform="translate(0,0)"/>
<path d="" fill="#1F211E" transform="translate(0,0)"/>
<path d="" fill="#1E1E1F" transform="translate(0,0)"/>
<path d="" fill="#25231F" transform="translate(0,0)"/>
<path d="" fill="#1E1F1F" transform="translate(0,0)"/>
<path d="" fill="#1F1F1D" transform="translate(0,0)"/>
<path d="" fill="#1E1C1B" transform="translate(0,0)"/>
<path d="" fill="#211E1E" transform="translate(0,0)"/>
<path d="" fill="#222220" transform="translate(0,0)"/>
<path d="" fill="#201E20" transform="translate(0,0)"/>
<path d="" fill="#201E1C" transform="translate(0,0)"/>
<path d="" fill="#21201E" transform="translate(0,0)"/>
<path d="" fill="#29282A" transform="translate(0,0)"/>
<path d="" fill="#222220" transform="translate(0,0)"/>
<path d="" fill="#1F1E1E" transform="translate(0,0)"/>
<path d="" fill="#222222" transform="translate(0,0)"/>
<path d="" fill="#21201E" transform="translate(0,0)"/>
<path d="" fill="#2D2D2C" transform="translate(0,0)"/>
<path d="" fill="#242021" transform="translate(0,0)"/>
<path d="" fill="#292826" transform="translate(0,0)"/>
<path d="" fill="#272826" transform="translate(0,0)"/>
<path d="" fill="#2C2A28" transform="translate(0,0)"/>
<path d="" fill="#292928" transform="translate(0,0)"/>
<path d="" fill="#272626" transform="translate(0,0)"/>
<path d="" fill="#282525" transform="translate(0,0)"/>
<path d="" fill="#21211F" transform="translate(0,0)"/>
<path d="" fill="#2E2E2C" transform="translate(0,0)"/>
<path d="" fill="#2D2C2D" transform="translate(0,0)"/>
<path d="" fill="#282526" transform="translate(0,0)"/>
<path d="" fill="#262424" transform="translate(0,0)"/>
<path d="" fill="#2B2C2B" transform="translate(0,0)"/>
<path d="" fill="#242322" transform="translate(0,0)"/>
<path d="" fill="#232222" transform="translate(0,0)"/>
<path d="" fill="#262524" transform="translate(0,0)"/>
<path d="" fill="#2E2D2C" transform="translate(0,0)"/>
<path d="" fill="#262324" transform="translate(0,0)"/>
<path d="" fill="#232222" transform="translate(0,0)"/>
<path d="" fill="#262422" transform="translate(0,0)"/>
<path d="" fill="#252223" transform="translate(0,0)"/>
<path d="" fill="#2A2B2A" transform="translate(0,0)"/>
<path d="" fill="#222220" transform="translate(0,0)"/>
<path d="" fill="#2C2C2C" transform="translate(0,0)"/>
<path d="" fill="#282524" transform="translate(0,0)"/>
<path d="" fill="#222121" transform="translate(0,0)"/>
<path d="" fill="#232622" transform="translate(0,0)"/>
<path d="" fill="#232421" transform="translate(0,0)"/>
<path d="" fill="#2B2A29" transform="translate(0,0)"/>
<path d="" fill="#292826" transform="translate(0,0)"/>
<path d="" fill="#252322" transform="translate(0,0)"/>
<path d="" fill="#262624" transform="translate(0,0)"/>
<path d="" fill="#252422" transform="translate(0,0)"/>
<path d="" fill="#252321" transform="translate(0,0)"/>
<path d="" fill="#242422" transform="translate(0,0)"/>
<path d="" fill="#212020" transform="translate(0,0)"/>
<path d="" fill="#252222" transform="translate(0,0)"/>
<path d="" fill="#231E21" transform="translate(0,0)"/>
<path d="" fill="#212120" transform="translate(0,0)"/>
<path d="" fill="#252423" transform="translate(0,0)"/>
<path d="" fill="#212221" transform="translate(0,0)"/>
<path d="" fill="#22211E" transform="translate(0,0)"/>
<path d="" fill="#252323" transform="translate(0,0)"/>
<path d="" fill="#262322" transform="translate(0,0)"/>
<path d="" fill="#212220" transform="translate(0,0)"/>
<path d="" fill="#201E1C" transform="translate(0,0)"/>
<path d="" fill="#1F1F1F" transform="translate(0,0)"/>
<path d="" fill="#2B2C2A" transform="translate(0,0)"/>
<path d="" fill="#232123" transform="translate(0,0)"/>
<path d="" fill="#231F1F" transform="translate(0,0)"/>
<path d="" fill="#21211D" transform="translate(0,0)"/>
<path d="" fill="#21221F" transform="translate(0,0)"/>
<path d="" fill="#222222" transform="translate(0,0)"/>
<path d="" fill="#232321" transform="translate(0,0)"/>
<path d="" fill="#22221E" transform="translate(0,0)"/>
<path d="" fill="#21201E" transform="translate(0,0)"/>
<path d="" fill="#232421" transform="translate(0,0)"/>
<path d="" fill="#222020" transform="translate(0,0)"/>
<path d="" fill="#252426" transform="translate(0,0)"/>
<path d="" fill="#202121" transform="translate(0,0)"/>
<path d="" fill="#232422" transform="translate(0,0)"/>
<path d="" fill="#2A2C28" transform="translate(0,0)"/>
<path d="" fill="#1F1F1E" transform="translate(0,0)"/>
<path d="" fill="#232322" transform="translate(0,0)"/>
<path d="" fill="#1F1F1D" transform="translate(0,0)"/>
<path d="" fill="#1F201E" transform="translate(0,0)"/>
<path d="" fill="#222321" transform="translate(0,0)"/>
<path d="" fill="#212120" transform="translate(0,0)"/>
<path d="" fill="#2F2D2E" transform="translate(0,0)"/>
<path d="" fill="#302C2E" transform="translate(0,0)"/>
<path d="" fill="#2F2E2E" transform="translate(0,0)"/>
<path d="" fill="#201D1D" transform="translate(0,0)"/>
<path d="" fill="#1E1F1F" transform="translate(0,0)"/>
<path d="" fill="#2F3030" transform="translate(0,0)"/>
<path d="" fill="#30302E" transform="translate(0,0)"/>
<path d="" fill="#30312F" transform="translate(0,0)"/>
<path d="" fill="#2B2D2C" transform="translate(0,0)"/>
<path d="" fill="#1F201F" transform="translate(0,0)"/>
<path d="" fill="#323430" transform="translate(0,0)"/>
<path d="" fill="#202020" transform="translate(0,0)"/>
<path d="" fill="#212120" transform="translate(0,0)"/>
<path d="" fill="#212020" transform="translate(0,0)"/>
<path d="" fill="#22211F" transform="translate(0,0)"/>
<path d="" fill="#201E1D" transform="translate(0,0)"/>
<path d="" fill="#222121" transform="translate(0,0)"/>
<path d="" fill="#222322" transform="translate(0,0)"/>
<path d="" fill="#232121" transform="translate(0,0)"/>
<path d="" fill="#222220" transform="translate(0,0)"/>
<path d="" fill="#232120" transform="translate(0,0)"/>
<path d="" fill="#242321" transform="translate(0,0)"/>
<path d="" fill="#242322" transform="translate(0,0)"/>
<path d="" fill="#252221" transform="translate(0,0)"/>
<path d="" fill="#282828" transform="translate(0,0)"/>
<path d="" fill="#2C2927" transform="translate(0,0)"/>
<path d="" fill="#2B292A" transform="translate(0,0)"/>
<path d="" fill="#2A2A2A" transform="translate(0,0)"/>
<path d="" fill="#292828" transform="translate(0,0)"/>
<path d="" fill="#2C2C2A" transform="translate(0,0)"/>
</svg>
