<?xml version="1.0" encoding="UTF-8"?>
<svg version="1.1" xmlns="http://www.w3.org/2000/svg" width="1024" height="1024">
<path d="M0 0 C11.64677785 8.80482457 18.79979984 19.85341943 21.484375 34.22265625 C23.51132556 52.00121056 15.7474323 66.69222169 5.171875 80.28515625 C0.9073999 85.64564473 -3.58925011 90.74991326 -8.24609375 95.7734375 C-10.22942962 97.91380169 -12.16522689 100.08202533 -14.078125 102.28515625 C-18.16480787 106.98436302 -22.34306504 111.59976942 -26.515625 116.22265625 C-27.9949373 117.86835869 -29.47410446 119.5141916 -30.953125 121.16015625 C-34.16884922 124.73505386 -37.40102409 128.29438748 -40.640625 131.84765625 C-44.05666542 135.60056352 -47.42605827 139.38720051 -50.7578125 143.21484375 C-55.24034114 148.33488758 -59.79666938 153.38991448 -64.44140625 158.36328125 C-69.1900951 163.45278872 -73.84673479 168.53667196 -78.203125 173.97265625 C-81.69429961 178.32241991 -85.42933124 182.23995703 -89.41796875 186.1328125 C-91.87467351 188.58036752 -94.11514955 191.1619144 -96.37109375 193.79296875 C-99.35010642 197.16809786 -102.43506212 200.44033255 -105.515625 203.72265625 C-109.66403545 208.14651339 -113.77412754 212.58255408 -117.7265625 217.18359375 C-120.67974061 220.54944303 -123.73419949 223.82377517 -126.78588867 227.1003418 C-128.9122089 229.39891323 -130.77354349 231.60953399 -132.515625 234.22265625 C-133.175625 234.22265625 -133.835625 234.22265625 -134.515625 234.22265625 C-134.763125 234.77953125 -135.010625 235.33640625 -135.265625 235.91015625 C-136.74487318 238.64676538 -138.45029939 240.89916494 -140.515625 243.22265625 C-141.175625 243.22265625 -141.835625 243.22265625 -142.515625 243.22265625 C-142.72574219 243.76019531 -142.93585937 244.29773438 -143.15234375 244.8515625 C-145.03503295 248.12603913 -147.63775864 250.55437215 -150.328125 253.16015625 C-150.84955078 253.67255859 -151.37097656 254.18496094 -151.90820312 254.71289062 C-152.94309965 255.72969907 -153.97945558 256.74502448 -155.01733398 257.75878906 C-159.39295421 261.9804805 -159.39295421 261.9804805 -163.328125 266.59765625 C-166.37203209 270.25034476 -169.89531169 273.15351244 -173.515625 276.22265625 C-174.9078125 277.44662109 -174.9078125 277.44662109 -176.328125 278.6953125 C-237.92010558 332.50580185 -314.81565054 334.3431028 -392.515625 329.22265625 C-412.29650343 327.81993139 -432.03833339 325.89338946 -451.765625 323.88671875 C-453.4289386 323.71802025 -453.4289386 323.71802025 -455.12585449 323.5459137 C-460.46594486 323.0030806 -465.80499634 322.45247872 -471.14257812 321.88549805 C-505.6417406 318.27570884 -535.80720956 315.71616247 -564.640625 338.09765625 C-566.27076634 339.46655699 -567.89575654 340.84161455 -569.515625 342.22265625 C-570.381875 342.8878125 -571.248125 343.55296875 -572.140625 344.23828125 C-575.919454 347.42666822 -578.31790355 349.50167264 -578.8984375 354.5546875 C-578.80923521 356.97626732 -578.69558668 359.39705947 -578.55859375 361.81640625 C-578.45104553 370.34204715 -583.5039158 375.43179116 -589.13452148 381.26000977 C-596.11363983 388.30337586 -596.11363983 388.30337586 -598.515625 390.22265625 C-599.175625 390.22265625 -599.835625 390.22265625 -600.515625 390.22265625 C-600.515625 390.88265625 -600.515625 391.54265625 -600.515625 392.22265625 C-602.23046875 393.87890625 -602.23046875 393.87890625 -604.453125 395.72265625 C-607.43607679 398.11192624 -607.43607679 398.11192624 -609.515625 401.22265625 C-610.175625 401.22265625 -610.835625 401.22265625 -611.515625 401.22265625 C-611.845625 402.21265625 -612.175625 403.20265625 -612.515625 404.22265625 C-614.01171875 405.6953125 -614.01171875 405.6953125 -615.953125 407.28515625 C-619.36624456 410.16000606 -622.48008139 413.19842297 -625.578125 416.41015625 C-630.52690754 421.36648267 -634.56136425 425.23785814 -641.828125 425.84765625 C-648.22016625 425.5417124 -653.77101814 422.01215154 -658.1875 417.5234375 C-659.33961294 416.12395913 -660.43341985 414.67686942 -661.515625 413.22265625 C-662.175625 412.89265625 -662.835625 412.56265625 -663.515625 412.22265625 C-663.515625 411.56265625 -663.515625 410.90265625 -663.515625 410.22265625 C-664.175625 410.22265625 -664.835625 410.22265625 -665.515625 410.22265625 C-666.77168083 408.94603825 -666.77168083 408.94603825 -668.3041687 407.06422424 C-673.80282652 400.60723963 -679.88999738 394.7339407 -685.89892578 388.75756836 C-687.25166588 387.40838947 -688.604168 386.05897194 -689.95645142 384.70933533 C-692.85623277 381.81607692 -695.7575152 378.92433535 -698.65994644 376.03373528 C-703.25215199 371.45990007 -707.83994127 366.8816523 -712.42697144 362.30262756 C-725.46692789 349.28676582 -738.51280765 336.27685053 -751.56298828 323.27124023 C-758.78012531 316.07867419 -765.99364582 308.88250057 -773.20332706 301.68246084 C-777.75979202 297.13252527 -782.32071997 292.58712687 -786.88503671 288.04506862 C-789.72479931 285.21705871 -792.56034962 282.38485439 -795.39474106 279.55146217 C-796.70672883 278.2416166 -798.02043216 276.93348672 -799.33599854 275.62723541 C-801.13616587 273.83932013 -802.92999138 272.04526476 -804.72244263 270.24961853 C-805.24005445 269.73851451 -805.75766627 269.2274105 -806.29096329 268.70081848 C-810.82032441 264.14011532 -814.88524046 259.14102146 -817.515625 253.22265625 C-817.845625 252.56265625 -818.175625 251.90265625 -818.515625 251.22265625 C-818.23828125 248.7890625 -818.23828125 248.7890625 -817.578125 245.78515625 C-817.38347656 244.81707031 -817.18882812 243.84898437 -816.98828125 242.8515625 C-812.62300207 232.0946809 -803.75717487 224.09635264 -795.578125 216.16015625 C-793.9992254 214.61643434 -792.42259428 213.07048263 -790.84849548 211.52186584 C-789.44114365 210.1390073 -788.02751248 208.76254781 -786.61352539 207.38647461 C-784.48084809 205.40436742 -784.48084809 205.40436742 -783.515625 203.22265625 C-782.855625 203.22265625 -782.195625 203.22265625 -781.515625 203.22265625 C-781.25982666 202.64451172 -781.00402832 202.06636719 -780.74047852 201.47070312 C-778.44447521 197.25671101 -774.8104181 194.10579678 -771.453125 190.72265625 C-770.72673828 189.96339844 -770.00035156 189.20414063 -769.25195312 188.421875 C-761.23930782 180.33129946 -754.57409591 177.79747235 -743.23828125 177.69140625 C-741.89056641 177.459375 -741.89056641 177.459375 -740.515625 177.22265625 C-739.36102371 175.52846679 -739.36102371 175.52846679 -738.515625 173.22265625 C-736.77981322 171.07369257 -735.02292288 168.98528291 -733.203125 166.91015625 C-732.67332031 166.29914063 -732.14351562 165.688125 -731.59765625 165.05859375 C-730.47493124 163.76456094 -729.35037546 162.47211457 -728.22412109 161.18115234 C-726.02184403 158.65662154 -723.82852646 156.12439417 -721.63525391 153.59204102 C-720.55101247 152.34060347 -719.46604525 151.08979441 -718.38037109 149.83959961 C-715.18369714 146.15726425 -712.00623631 142.45946124 -708.8425293 138.7487793 C-703.92720778 132.98399387 -698.91114771 127.34929845 -693.77734375 121.77734375 C-690.95464714 118.58901287 -688.39705977 115.24501023 -685.890625 111.8046875 C-685.436875 111.28261719 -684.983125 110.76054688 -684.515625 110.22265625 C-683.855625 110.22265625 -683.195625 110.22265625 -682.515625 110.22265625 C-682.25394531 109.63355469 -681.99226562 109.04445313 -681.72265625 108.4375 C-680.4513975 106.10480191 -679.11331969 104.61911257 -677.203125 102.78515625 C-676.58179688 102.18058594 -675.96046875 101.57601562 -675.3203125 100.953125 C-674.72476563 100.38207031 -674.12921875 99.81101562 -673.515625 99.22265625 C-671.07250677 96.83635472 -668.77482887 94.5623027 -666.703125 91.84765625 C-663.65871689 88.19436652 -660.1396643 85.28776412 -656.515625 82.22265625 C-655.70738281 81.50335937 -654.89914062 80.7840625 -654.06640625 80.04296875 C-640.12990733 67.91563017 -624.39870975 57.72179366 -607.515625 50.22265625 C-606.33355469 49.68253906 -605.15148437 49.14242187 -603.93359375 48.5859375 C-570.7995957 34.33436954 -532.59649903 34.66304663 -497.79785156 41.87133789 C-495.33861998 42.24990381 -492.99998916 42.28166402 -490.515625 42.22265625 C-490.515625 42.88265625 -490.515625 43.54265625 -490.515625 44.22265625 C-482.02579903 45.78075983 -482.02579903 45.78075983 -473.515625 47.22265625 C-473.515625 47.88265625 -473.515625 48.54265625 -473.515625 49.22265625 C-472.27425781 49.45855469 -471.03289062 49.69445312 -469.75390625 49.9375 C-463.81585149 51.26234805 -458.32213285 53.48619378 -452.703125 55.78515625 C-451.07020508 56.44463257 -451.07020508 56.44463257 -449.40429688 57.11743164 C-441.56542284 60.31098343 -433.81785662 63.6827182 -426.14916992 67.26586914 C-421.0389011 69.63401555 -415.89438033 71.55133201 -410.515625 73.22265625 C-410.515625 73.88265625 -410.515625 74.54265625 -410.515625 75.22265625 C-404.8253445 77.15328713 -399.11439582 79.0189353 -393.390625 80.84765625 C-392.72224609 81.06574951 -392.05386719 81.28384277 -391.36523438 81.50854492 C-390.71103516 81.71584229 -390.05683594 81.92313965 -389.3828125 82.13671875 C-388.51825439 82.41443115 -388.51825439 82.41443115 -387.63623047 82.69775391 C-369.32560901 87.23008595 -348.44163126 85.30535154 -329.671875 85.25 C-328.75672119 85.24740803 -327.84156738 85.24481606 -326.89868164 85.24214554 C-318.34222365 85.21581794 -309.78584355 85.17670074 -301.22949219 85.12670898 C-296.48984834 85.09957715 -291.75025128 85.08277461 -287.01054382 85.07184029 C-285.24076069 85.0657488 -283.4709853 85.05590129 -281.70124817 85.0417614 C-257.41884797 84.84902618 -234.44164425 86.2331136 -215.828125 103.84765625 C-214.37024995 105.28562102 -212.92349215 106.73569544 -211.515625 108.22265625 C-206.61684837 106.67370974 -203.22246548 103.8160745 -199.328125 100.59765625 C-197.98569742 99.50518334 -196.64324948 98.41273545 -195.30078125 97.3203125 C-194.3264917 96.52197998 -194.3264917 96.52197998 -193.33251953 95.70751953 C-190.99337786 93.79584799 -188.63084357 91.91442301 -186.265625 90.03515625 C-177.93273229 83.36061883 -169.72277922 76.56642613 -161.63769531 69.59472656 C-157.54607938 66.07705785 -153.37131823 62.68831872 -149.13671875 59.34375 C-145.27374063 56.21767382 -141.52305966 52.96468237 -137.76220703 49.71704102 C-134.18621797 46.63504555 -130.56816084 43.621289 -126.890625 40.66015625 C-122.96883895 37.48017431 -119.21317285 34.15846224 -115.515625 30.72265625 C-110.96183377 26.49121859 -106.27192036 22.49386719 -101.421875 18.60546875 C-99.29618868 16.86263454 -97.22607288 15.10056162 -95.171875 13.27734375 C-68.02736631 -10.76028614 -31.96009935 -22.58050497 0 0 Z M-72.98828125 33.87109375 C-75.55736717 36.26149518 -78.21717156 38.46363193 -80.953125 40.66015625 C-84.75650003 43.73602213 -88.41645152 46.91018791 -92.015625 50.22265625 C-96.4854762 54.33644534 -101.10607393 58.19352922 -105.83203125 62.0078125 C-108.46271057 64.17898452 -110.99504924 66.42506982 -113.515625 68.72265625 C-117.81554291 72.64156877 -122.27482047 76.31436494 -126.796875 79.97265625 C-129.43710229 82.15767194 -131.9829222 84.41437016 -134.515625 86.72265625 C-138.7586397 90.58480192 -143.13905366 94.23019934 -147.59765625 97.83984375 C-150.7698034 100.43021827 -153.89593061 103.06962992 -157.015625 105.72265625 C-164.09893255 111.73725424 -171.29211354 117.61083142 -178.51171875 123.4609375 C-179.21449951 124.03086426 -179.91728027 124.60079102 -180.64135742 125.18798828 C-182.01701158 126.30324681 -183.39342801 127.41756601 -184.77075195 128.53076172 C-186.05714282 129.5732236 -187.33899677 130.62131205 -188.6159668 131.67529297 C-189.90772689 132.72749391 -191.2202866 133.7545561 -192.55004883 134.75830078 C-196.39682502 137.62807484 -196.39682502 137.62807484 -198.05859375 141.94140625 C-197.88263672 143.318125 -197.88263672 143.318125 -197.703125 144.72265625 C-196.90641118 158.40240209 -202.96833554 171.21647164 -211.765625 181.41015625 C-222.94500803 193.14572749 -235.81988785 201.30418028 -251.81298828 204.43041992 C-252.67966692 204.60020198 -253.54634556 204.76998404 -254.43928719 204.944911 C-263.76893499 206.63832455 -272.92958323 206.74676393 -282.3828125 206.6484375 C-284.27340363 206.64380913 -286.16399963 206.6409073 -288.05459595 206.63957214 C-293.11695955 206.63076609 -298.178853 206.59668731 -303.24105835 206.55722046 C-307.48276073 206.52750532 -311.72445736 206.51316794 -315.96623611 206.49907875 C-330.48306928 206.45074151 -344.99925065 206.34520793 -359.515625 206.22265625 C-361.20139397 206.20854328 -361.20139397 206.20854328 -362.92121887 206.1941452 C-388.82859103 205.97572378 -414.73536965 205.70968163 -440.64151001 205.37504578 C-441.85259776 205.35966153 -441.85259776 205.35966153 -443.08815193 205.34396648 C-444.56166284 205.32519035 -446.03516808 205.3059598 -447.50866508 205.28612232 C-450.3019877 205.25066025 -453.09406436 205.21935588 -455.8875885 205.2412262 C-457.07589516 205.25046364 -457.07589516 205.25046364 -458.28820801 205.2598877 C-459.00682259 205.26869209 -459.72543716 205.27749649 -460.46582794 205.28656769 C-465.30842659 205.13557838 -468.60811909 203.96882778 -472.328125 200.91015625 C-475.6797564 196.79243767 -476.74406634 194.06026822 -476.390625 188.78515625 C-475.75015871 184.41106262 -474.53359533 181.55830767 -471.515625 178.22265625 C-466.138532 175.3813185 -461.90138041 174.7986691 -455.88261414 174.88208008 C-455.03839348 174.8816335 -454.19417283 174.88118692 -453.32436973 174.88072681 C-450.50857594 174.88280255 -447.6933767 174.90629267 -444.87768555 174.9296875 C-442.85349864 174.93544786 -440.82930744 174.93983792 -438.80511475 174.94296265 C-434.45186605 174.95243478 -430.0987926 174.97122425 -425.74561119 174.99716187 C-418.85750523 175.03778097 -411.96945723 175.05542296 -405.08125305 175.06958008 C-389.21255142 175.10569514 -373.34400126 175.17181664 -357.47540283 175.23826599 C-342.93749779 175.29884953 -328.39964416 175.35305564 -313.86163932 175.38291073 C-307.01926574 175.39782937 -300.17716036 175.4273665 -293.33489454 175.46820068 C-289.07118358 175.49063871 -284.80750906 175.50053837 -280.54374695 175.50709915 C-278.57253635 175.5126975 -276.60133232 175.52346499 -274.63018227 175.53989792 C-259.68896174 175.66049389 -246.62857089 174.8631919 -235.1796875 164.0078125 C-228.72140353 157.00162357 -227.03759777 151.98876292 -227.19921875 142.453125 C-227.89334415 135.3661904 -231.23042761 130.86331737 -236.515625 126.22265625 C-237.27875 125.54203125 -238.041875 124.86140625 -238.828125 124.16015625 C-251.15552459 115.2729612 -264.51443214 115.95422492 -279.078125 116.09765625 C-280.85481267 116.10770594 -282.63150583 116.11682827 -284.40820312 116.125 C-288.77747456 116.14705825 -293.14648604 116.18238198 -297.515625 116.22265625 C-308.55193382 116.22265625 -319.58974221 116.08714758 -330.62548161 115.98694134 C-335.57525529 115.94246304 -340.5249508 115.90315531 -345.47485352 115.8762207 C-350.26781298 115.84994279 -355.06046949 115.80937657 -359.85323906 115.75946999 C-361.66813792 115.74296848 -363.48308893 115.73135142 -365.29805183 115.72504234 C-389.56905712 115.63223876 -409.18329214 109.29133349 -431.02490234 99.03833008 C-479.50805683 76.43577654 -534.72813981 57.63277487 -587.765625 75.47265625 C-603.85945293 81.66404652 -618.04680623 90.22103808 -631.23828125 101.33984375 C-633.515625 103.22265625 -633.515625 103.22265625 -636.515625 105.22265625 C-636.515625 105.88265625 -636.515625 106.54265625 -636.515625 107.22265625 C-637.06887451 107.45065918 -637.62212402 107.67866211 -638.19213867 107.91357422 C-641.188054 109.60151139 -643.26505022 111.73051161 -645.69140625 114.16796875 C-646.17965378 114.6566745 -646.66790131 115.14538025 -647.17094421 115.64889526 C-648.20284698 116.68381292 -649.23232444 117.72115376 -650.25952148 118.76074219 C-651.80737392 120.32666294 -653.3628885 121.88461983 -654.91992188 123.44140625 C-660.32369258 128.86420451 -665.57052668 134.37413424 -670.515625 140.22265625 C-671.47741751 141.34022866 -672.43964409 142.45742768 -673.40234375 143.57421875 C-674.33636038 144.66500262 -675.26994456 145.75615692 -676.203125 146.84765625 C-677.24868653 148.06902016 -678.29425978 149.29037404 -679.33984375 150.51171875 C-679.86626465 151.12692383 -680.39268555 151.74212891 -680.93505859 152.37597656 C-683.46023646 155.32630794 -685.98801945 158.27440476 -688.515625 161.22265625 C-689.51563841 162.38931142 -690.51563839 163.5559781 -691.515625 164.72265625 C-697.515625 171.72265625 -697.515625 171.72265625 -699.01782227 173.47485352 C-700.01098136 174.63378195 -701.00366258 175.7931201 -701.99584961 176.95288086 C-704.59661001 179.99159203 -707.20694675 183.02132732 -709.83203125 186.0390625 C-710.64704102 186.97975586 -710.64704102 186.97975586 -711.47851562 187.93945312 C-712.5145081 189.13482906 -713.55339243 190.32770735 -714.59570312 191.51757812 C-717.26644891 194.6059714 -719.46531959 197.70045129 -721.515625 201.22265625 C-720.75419189 201.98408936 -719.99275879 202.74552246 -719.20825195 203.5300293 C-712.29549154 210.44278971 -705.38273112 217.35555013 -698.4699707 224.26831055 C-697.97329895 224.76493698 -697.4766272 225.26156342 -696.96490479 225.77323914 C-695.55644027 227.18183711 -694.14845226 228.59091147 -692.74047852 230 C-691.41327061 231.32589716 -690.08195334 232.64773089 -688.7421875 233.9609375 C-685.78509512 236.86754294 -682.95464072 239.82565865 -680.2583313 242.97676086 C-676.66713473 247.10236931 -672.88433437 250.98862606 -669.00732422 254.84448242 C-668.29256927 255.55938339 -667.57781433 256.27428436 -666.84140015 257.010849 C-664.50340291 259.34815567 -662.16189379 261.68190942 -659.8203125 264.015625 C-658.18297766 265.65109165 -656.54586576 267.28678154 -654.90896606 268.92268372 C-650.61579896 273.21204919 -646.31963879 277.49840445 -642.02282715 281.78411865 C-637.65273093 286.14398022 -633.28546496 290.50667477 -628.91796875 294.86914062 C-621.86591186 301.91242576 -614.81213118 308.95397891 -607.75610352 315.99328613 C-604.34047425 319.40094624 -600.9264457 322.81018285 -597.515625 326.22265625 C-596.195625 325.56265625 -594.875625 324.90265625 -593.515625 324.22265625 C-593.515625 323.56265625 -593.515625 322.90265625 -593.515625 322.22265625 C-592.64357422 321.8359375 -592.64357422 321.8359375 -591.75390625 321.44140625 C-589.32803194 320.12051134 -587.69100634 318.63604105 -585.703125 316.72265625 C-570.51059477 303.04194387 -552.46404296 294.25907735 -532.515625 290.22265625 C-531.11763672 289.88621094 -531.11763672 289.88621094 -529.69140625 289.54296875 C-519.23522291 287.31435157 -503.76708821 285.80550185 -493.515625 289.22265625 C-493.185625 288.89265625 -492.855625 288.56265625 -492.515625 288.22265625 C-492.515625 288.55265625 -492.515625 288.88265625 -492.515625 289.22265625 C-449.7130309 293.89288161 -406.91651619 298.47650831 -363.890625 300.47265625 C-363.00183655 300.51394653 -362.1130481 300.55523682 -361.19732666 300.59777832 C-345.70869429 301.29908741 -330.37647658 301.39878776 -314.890625 300.41015625 C-314.19452118 300.36630798 -313.49841736 300.32245972 -312.78121948 300.27728271 C-301.24942716 299.53650777 -289.87049944 298.41647457 -278.515625 296.22265625 C-277.8158252 296.09165527 -277.11602539 295.9606543 -276.39501953 295.82568359 C-245.99675343 289.96432522 -217.36704145 275.72572086 -194.8515625 254.41796875 C-192.85509108 252.54168625 -190.82030801 250.74948911 -188.74609375 248.9609375 C-184.47318826 245.23680908 -180.44821751 241.30349857 -176.453125 237.28515625 C-175.78474609 236.62064453 -175.11636719 235.95613281 -174.42773438 235.27148438 C-170.53165776 231.36783521 -166.82677102 227.35533141 -163.22387695 223.18041992 C-160.4435328 219.99397148 -157.53967442 216.92578495 -154.640625 213.84765625 C-149.19231717 208.03627197 -143.81983324 202.16616642 -138.515625 196.22265625 C-137.01635047 194.55533694 -135.51633839 192.88868059 -134.015625 191.22265625 C-131.77647997 188.73514852 -129.53774951 186.24727806 -127.30078125 183.7578125 C-123.34538908 179.3575256 -119.37695302 174.96995249 -115.390625 170.59765625 C-112.6269327 167.56309671 -109.88565276 164.51658963 -107.203125 161.41015625 C-103.89460827 157.59868211 -100.45780284 153.91288406 -97.015625 150.22265625 C-93.00296179 145.92050684 -89.03227901 141.59838416 -85.1875 137.14453125 C-83.15804427 134.81160551 -81.087978 132.5175438 -79.015625 130.22265625 C-76.32579069 127.24202904 -73.65252136 124.25020392 -71.015625 121.22265625 C-67.62067561 117.3247514 -64.15896616 113.48918568 -60.6953125 109.65234375 C-58.82417406 107.56659445 -56.97637669 105.46447997 -55.140625 103.34765625 C-51.68846422 99.38168549 -48.12811619 95.51747979 -44.56738281 91.64941406 C-41.40477859 88.20820465 -38.29912871 84.72644728 -35.2421875 81.19140625 C-34.00445412 79.78005416 -32.7467982 78.38607843 -31.4765625 77.00390625 C-15.58963058 60.80883309 -15.58963058 60.80883309 -8.515625 40.22265625 C-9.71029259 33.16782974 -12.90223149 28.55976512 -18.515625 24.22265625 C-36.71970577 11.90699907 -58.473253 20.1586342 -72.98828125 33.87109375 Z M-751.515625 214.22265625 C-756.22229042 218.87876044 -760.92121452 223.54257096 -765.61474609 228.21191406 C-767.21354272 229.80063082 -768.81412669 231.38755094 -770.41650391 232.97265625 C-772.71464751 235.24663879 -775.00636122 237.52692937 -777.296875 239.80859375 C-778.01870972 240.5201059 -778.74054443 241.23161804 -779.48425293 241.96469116 C-780.47528015 242.95549179 -780.47528015 242.95549179 -781.48632812 243.96630859 C-782.07256958 244.54810883 -782.65881104 245.12990906 -783.26281738 245.7293396 C-784.72986407 247.1531514 -784.72986407 247.1531514 -784.515625 249.22265625 C-783.855625 249.22265625 -783.195625 249.22265625 -782.515625 249.22265625 C-782.515625 249.88265625 -782.515625 250.54265625 -782.515625 251.22265625 C-779.0751694 255.04609346 -779.0751694 255.04609346 -774.515625 257.22265625 C-774.515625 257.88265625 -774.515625 258.54265625 -774.515625 259.22265625 C-773.18229167 260.88932292 -773.18229167 260.88932292 -771.515625 262.22265625 C-770.855625 262.22265625 -770.195625 262.22265625 -769.515625 262.22265625 C-769.26425781 262.81175781 -769.01289062 263.40085937 -768.75390625 264.0078125 C-767.36107099 266.49909827 -765.8947678 267.84566039 -763.703125 269.66015625 C-759.33983476 273.36305662 -755.35766861 277.18868942 -751.703125 281.59765625 C-749.56326255 284.13024827 -747.33883092 286.31967273 -744.8099823 288.46174622 C-740.55785565 292.13953683 -736.57738129 296.03331448 -732.6184082 300.0222168 C-731.50216568 301.14064972 -731.50216568 301.14064972 -730.3633728 302.28167725 C-728.76196754 303.88686289 -727.16171761 305.49320183 -725.5625248 307.10059166 C-723.02993785 309.64602843 -720.4941646 312.18825255 -717.95756531 314.72969055 C-712.57826552 320.12037133 -707.20291433 325.51497879 -701.828125 330.91015625 C-695.58674589 337.1751601 -689.34374592 343.43853073 -683.09651756 349.69770241 C-680.60121261 352.19947838 -678.10894339 354.70425178 -675.61677551 357.20915222 C-674.08621795 358.74334246 -672.55551974 360.27739238 -671.0246582 361.8112793 C-669.99046501 362.85322197 -669.99046501 362.85322197 -668.93537903 363.91621399 C-665.60299565 367.2489626 -662.24954912 370.33350874 -658.515625 373.22265625 C-656.84895833 374.88932292 -655.18229167 376.55598958 -653.515625 378.22265625 C-652.505 379.04765625 -651.494375 379.87265625 -650.453125 380.72265625 C-647.72365858 383.0456064 -645.70546108 385.40715272 -643.515625 388.22265625 C-642.855625 388.55265625 -642.195625 388.88265625 -641.515625 389.22265625 C-634.26054163 383.16639161 -627.66440338 376.48631056 -621.015625 369.78515625 C-619.89606868 368.66057295 -618.77627871 367.5362222 -617.65625 366.41210938 C-614.94000966 363.68496281 -612.22694208 360.95469718 -609.515625 358.22265625 C-610.83070415 355.31119073 -612.23807174 353.25714559 -614.5090332 351.01806641 C-615.41556389 350.11660385 -615.41556389 350.11660385 -616.34040833 349.19692993 C-617.3185273 348.2390004 -617.3185273 348.2390004 -618.31640625 347.26171875 C-618.98979538 346.59353119 -619.66318451 345.92534363 -620.35697937 345.23690796 C-622.50933048 343.10234925 -624.66823475 340.97458393 -626.828125 338.84765625 C-628.97645871 336.72704764 -631.12328047 334.60496434 -633.26713562 332.47982788 C-634.59995655 331.15914416 -635.93544139 329.84114157 -637.27400208 328.52627563 C-640.12143451 325.70913975 -642.83448801 322.89855843 -645.34057617 319.77099609 C-646.41722534 318.50956787 -646.41722534 318.50956787 -647.515625 317.22265625 C-648.175625 317.22265625 -648.835625 317.22265625 -649.515625 317.22265625 C-649.515625 316.56265625 -649.515625 315.90265625 -649.515625 315.22265625 C-650.99266712 313.97038141 -652.47389899 312.72099103 -654.0078125 311.5390625 C-655.515625 310.22265625 -655.515625 310.22265625 -657.515625 307.22265625 C-658.175625 307.22265625 -658.835625 307.22265625 -659.515625 307.22265625 C-660.175625 305.90265625 -660.835625 304.58265625 -661.515625 303.22265625 C-662.175625 303.22265625 -662.835625 303.22265625 -663.515625 303.22265625 C-663.515625 302.56265625 -663.515625 301.90265625 -663.515625 301.22265625 C-664.175625 301.22265625 -664.835625 301.22265625 -665.515625 301.22265625 C-665.76743027 300.6452066 -666.01923553 300.06775696 -666.27867126 299.47280884 C-667.6736311 296.93522607 -669.24896962 295.25573818 -671.30688477 293.22021484 C-672.08431534 292.44616302 -672.86174591 291.67211121 -673.66273499 290.87460327 C-674.50235275 290.04844513 -675.34197052 289.22228699 -676.20703125 288.37109375 C-677.06747543 287.51585114 -677.92791962 286.66060852 -678.81443787 285.77944946 C-681.56430398 283.04740287 -684.32075854 280.32213119 -687.078125 277.59765625 C-689.83818427 274.86518078 -692.59679009 272.13127765 -695.3525238 269.3944397 C-697.06810888 267.69114692 -698.78635925 265.99053384 -700.50746155 264.29281616 C-701.28173996 263.52506866 -702.05601837 262.75732117 -702.85375977 261.96630859 C-703.53833755 261.28998383 -704.22291534 260.61365906 -704.92823792 259.9168396 C-706.515625 258.22265625 -706.515625 258.22265625 -707.515625 256.22265625 C-708.175625 256.22265625 -708.835625 256.22265625 -709.515625 256.22265625 C-709.515625 255.56265625 -709.515625 254.90265625 -709.515625 254.22265625 C-711.16565328 252.86878689 -712.8330637 251.53587483 -714.515625 250.22265625 C-714.845625 249.56265625 -715.175625 248.90265625 -715.515625 248.22265625 C-716.175625 248.22265625 -716.835625 248.22265625 -717.515625 248.22265625 C-717.92271446 247.32857307 -717.92271446 247.32857307 -718.33802795 246.41642761 C-719.49673967 244.25783814 -720.63682928 242.84811923 -722.35717773 241.12231445 C-722.9279454 240.54524246 -723.49871307 239.96817047 -724.08677673 239.37361145 C-724.7013826 238.76305405 -725.31598846 238.15249664 -725.94921875 237.5234375 C-726.58295914 236.88778366 -727.21669952 236.25212982 -727.86964417 235.59721375 C-729.20791948 234.25757973 -730.54871469 232.92045896 -731.8918457 231.58569336 C-733.94912046 229.53913992 -735.99549818 227.48212545 -738.04101562 225.42382812 C-739.34310905 224.123056 -740.64582258 222.82290425 -741.94921875 221.5234375 C-742.8680912 220.59849236 -742.8680912 220.59849236 -743.80552673 219.65486145 C-744.37944656 219.08724594 -744.95336639 218.51963043 -745.54467773 217.93481445 C-746.04716537 217.433918 -746.54965302 216.93302155 -747.06736755 216.41694641 C-748.62543926 214.98627594 -748.62543926 214.98627594 -751.515625 214.22265625 Z " fill="#080808" transform="translate(901.515625,496.77734375)"/>
<path d="M0 0 C3.45181896 2.74167912 5.08210371 5.526148 6.875 9.4453125 C7.20814209 10.14358154 7.54128418 10.84185059 7.88452148 11.5612793 C11.87734917 20.04404873 15.52411181 28.67713132 19 37.3828125 C19.30292969 38.13900879 19.60585938 38.89520508 19.91796875 39.67431641 C27.0374977 57.65579044 32.22519017 76.19696308 35.8125 95.1953125 C36.10471436 96.72961914 36.10471436 96.72961914 36.40283203 98.29492188 C39.24219983 114.2153947 40.34048215 130.1565821 40.26074219 146.31005859 C40.25000036 148.88272641 40.26073789 151.45469641 40.2734375 154.02734375 C40.28673547 169.17274047 39.43043503 184.47375665 36.25 199.3203125 C36.08226074 200.12694336 35.91452148 200.93357422 35.74169922 201.76464844 C28.57716214 235.01988131 15.51167059 267.74587811 -6 294.3828125 C-6.40798828 294.89231445 -6.81597656 295.40181641 -7.23632812 295.92675781 C-22.01079504 314.27642016 -38.89161206 329.15558768 -59 341.3828125 C-60.07378906 342.04925781 -61.14757812 342.71570313 -62.25390625 343.40234375 C-92.46684737 361.48730378 -126.54831255 368.74981418 -161.2722168 371.4831543 C-161.96309891 371.53789413 -162.65398102 371.59263397 -163.36579895 371.64903259 C-165.25241119 371.79576095 -167.13962056 371.93475263 -169.02685547 372.07324219 C-172.05157552 372.27984903 -172.05157552 372.27984903 -175 373.3828125 C-175 372.7228125 -175 372.0628125 -175 371.3828125 C-176.175625 372.6203125 -176.175625 372.6203125 -177.375 373.8828125 C-180 376.3828125 -180 376.3828125 -182 376.3828125 C-182.22300781 376.92421875 -182.44601562 377.465625 -182.67578125 378.0234375 C-184.42064166 381.13227434 -186.75225165 383.56240868 -189.1875 386.1328125 C-192.49412434 389.65646773 -195.69664802 393.19643615 -198.75 396.9453125 C-201.79767836 400.41908807 -204.46108905 402.13069913 -209 403.3828125 C-211.38315856 403.51630079 -213.6986378 403.51369179 -216.08203125 403.390625 C-218.08675863 403.23833634 -218.08675863 403.23833634 -220 404.3828125 C-220.226875 403.6815625 -220.45375 402.9803125 -220.6875 402.2578125 C-221.90859891 399.19531016 -221.90859891 399.19531016 -224.5625 396.5703125 C-227.54944269 393.11361325 -228.27468792 389.91073269 -228 385.3828125 C-225.72446097 377.19087201 -219.36577488 370.98345041 -213.7734375 364.8046875 C-213.22228271 364.1866626 -212.67112793 363.5686377 -212.10327148 362.93188477 C-211.00689101 361.70663178 -209.89723706 360.49310715 -208.77368164 359.29272461 C-207.03179896 357.40892585 -207.03179896 357.40892585 -205 354.3828125 C-205.52709791 348.70051081 -208.49865706 343.70204846 -210.9375 338.6328125 C-211.39318359 337.66214844 -211.84886719 336.69148438 -212.31835938 335.69140625 C-212.97868164 334.30888672 -212.97868164 334.30888672 -213.65234375 332.8984375 C-214.25550415 331.63435059 -214.25550415 331.63435059 -214.87084961 330.34472656 C-215.84845486 328.22853242 -215.84845486 328.22853242 -218 327.3828125 C-218.2571928 325.44863903 -218.50663845 323.51290856 -218.70458984 321.57177734 C-219.14687634 318.29447096 -220.23272696 315.31428539 -221.3125 312.1953125 C-236.10923076 266.51329942 -232.8177859 212.84176217 -211.30664062 169.86181641 C-201.75644421 151.74285258 -189.10305318 136.10668974 -175 121.3828125 C-174.29101562 120.63257813 -173.58203125 119.88234375 -172.8515625 119.109375 C-168.43009549 114.54353356 -163.64857291 110.55450902 -158.69140625 106.58203125 C-156.37482986 104.68909582 -154.18659039 102.73410155 -152 100.6953125 C-137.56458674 87.75233056 -120.74513248 77.36375185 -104.53125 66.828125 C-64.38261453 41.37435331 -64.38261453 41.37435331 -28.8125 10.0703125 C-27 8.3828125 -27 8.3828125 -25 8.3828125 C-24.62875 7.5165625 -24.62875 7.5165625 -24.25 6.6328125 C-21.58557577 1.83684889 -18.24536659 -0.41638505 -13.1484375 -2.140625 C-8.30582446 -3.21480462 -4.38804762 -2.36543192 0 0 Z M-20.5625 43.5703125 C-38.7368766 60.52939054 -60.25370494 74.043232 -81.04296875 87.51171875 C-113.19724145 108.23814366 -113.19724145 108.23814366 -142.7734375 132.40234375 C-145 134.3828125 -145 134.3828125 -147.2890625 136.01953125 C-147.85367188 136.46941406 -148.41828125 136.91929687 -149 137.3828125 C-149 138.0428125 -149 138.7028125 -149 139.3828125 C-149.55816406 139.6096875 -150.11632812 139.8365625 -150.69140625 140.0703125 C-171.82666515 152.08629726 -186.39807467 185.18741507 -193 207.3828125 C-193.19819336 208.04877441 -193.39638672 208.71473633 -193.60058594 209.40087891 C-204.07692053 245.6087166 -200.77066535 287.16994833 -185 321.3828125 C-184.02936559 323.06675033 -183.03951527 324.74050139 -182 326.3828125 C-178.40663612 323.00082297 -175.48098799 319.46965921 -172.625 315.4453125 C-171 313.3828125 -171 313.3828125 -168.734375 311.1640625 C-165.25730318 307.62738373 -162.2755833 303.8067448 -159.25 299.8828125 C-158.63092773 299.08254639 -158.01185547 298.28228027 -157.37402344 297.45776367 C-152.3452031 290.91492512 -147.58995241 284.24233547 -143 277.3828125 C-142.26007813 276.29742187 -141.52015625 275.21203125 -140.7578125 274.09375 C-120.6887339 244.5241949 -103.08538488 213.49268088 -87.53417969 181.3269043 C-82.04532378 170.11760183 -82.04532378 170.11760183 -76 167.3828125 C-71.10493304 165.99942401 -67.71075645 166.49850992 -63 168.3828125 C-58.77261964 171.48289143 -56.81365155 174.68510544 -55.984375 179.78515625 C-56.01855579 185.46771186 -58.59154167 190.34848916 -61 195.3828125 C-61.40589355 196.23327148 -61.81178711 197.08373047 -62.22998047 197.95996094 C-75.65128908 225.80495956 -91.11356903 252.32998702 -107.72363281 278.37207031 C-108.82411014 280.10572205 -109.90959876 281.84887168 -110.9921875 283.59375 C-115.28206205 290.49313349 -120.04935313 296.94453283 -125 303.3828125 C-126.19302734 304.94515625 -126.19302734 304.94515625 -127.41015625 306.5390625 C-129.92714487 309.83039349 -132.4605817 313.10876675 -135 316.3828125 C-135.46229004 316.9794873 -135.92458008 317.57616211 -136.40087891 318.19091797 C-141.39037539 324.62057619 -146.37254275 331.00511356 -151.85546875 337.02734375 C-153.10752538 338.21448013 -153.10752538 338.21448013 -153 339.3828125 C-117.7964177 338.65217211 -79.09423751 322.82604182 -53 299.3828125 C-52.34 298.3928125 -51.68 297.4028125 -51 296.3828125 C-50.40316406 296.08890625 -49.80632812 295.795 -49.19140625 295.4921875 C-24.91186201 283.20093872 -8.13382875 243.46305749 0 219.3828125 C15.53568602 168.82106021 12.21218465 113.59050855 -4.5 63.7578125 C-4.71269531 63.11585938 -4.92539062 62.47390625 -5.14453125 61.8125 C-6.32252348 58.28575027 -7.57747308 54.81782906 -9 51.3828125 C-9.63808594 49.84173828 -9.63808594 49.84173828 -10.2890625 48.26953125 C-10.72992187 47.21378906 -11.17078125 46.15804687 -11.625 45.0703125 C-12.07101562 44.00167969 -12.51703125 42.93304688 -12.9765625 41.83203125 C-13.48316406 40.61966797 -13.48316406 40.61966797 -14 39.3828125 C-17.1453321 39.3828125 -18.33070681 41.42710957 -20.5625 43.5703125 Z " fill="#070808" transform="translate(652,119.6171875)"/>
<path d="M0 0 C0.99 0.33 1.98 0.66 3 1 C-8.55 12.55 -20.1 24.1 -32 36 C-32.66 35.67 -33.32 35.34 -34 35 C-32.71802734 33.73542969 -32.71802734 33.73542969 -31.41015625 32.4453125 C-30.29413953 31.33867407 -29.17826128 30.23189598 -28.0625 29.125 C-27.49853516 28.56941406 -26.93457031 28.01382813 -26.35351562 27.44140625 C-23.30139972 24.5078429 -23.30139972 24.5078429 -21 21 C-20.34 21 -19.68 21 -19 21 C-18.75072754 20.42475586 -18.50145508 19.84951172 -18.24462891 19.25683594 C-16.82126077 16.67589928 -15.18451214 14.95787763 -13.0859375 12.890625 C-12.32539062 12.13652344 -11.56484375 11.38242187 -10.78125 10.60546875 C-9.9871875 9.82816406 -9.193125 9.05085937 -8.375 8.25 C-7.17230469 7.06083984 -7.17230469 7.06083984 -5.9453125 5.84765625 C-3.96797154 3.89385507 -1.98611091 1.94487897 0 0 Z " fill="#202020" transform="translate(139,679)"/>
<path d="M0 0 C0.66 0.33 1.32 0.66 2 1 C-6.58 9.58 -15.16 18.16 -24 27 C-24.66 26.67 -25.32 26.34 -26 26 C-24.77083333 24.77083333 -23.54166667 23.54166667 -22.3125 22.3125 C-21.58160156 21.5803125 -20.85070312 20.848125 -20.09765625 20.09375 C-18.4913054 18.4903905 -16.87319527 16.89880447 -15.25 15.3125 C-12.97899948 13.07059975 -12.97899948 13.07059975 -11.1875 10.625 C-8.15449621 6.98539545 -4.59918575 4.06383775 -1 1 C-0.67 0.67 -0.34 0.34 0 0 Z " fill="#1D1D1C" transform="translate(246,578)"/>
<path d="M0 0 C0.33 0.99 0.66 1.98 1 3 C-2.3 6.3 -5.6 9.6 -9 13 C-9.66 12.67 -10.32 12.34 -11 12 C-7.37 8.04 -3.74 4.08 0 0 Z " fill="#202020" transform="translate(857,587)"/>
<path d="M0 0 C0.66 0.33 1.32 0.66 2 1 C-3.94 6.445 -3.94 6.445 -10 12 C-10.66 11.34 -11.32 10.68 -12 10 C-10.82630859 9.04287109 -10.82630859 9.04287109 -9.62890625 8.06640625 C-8.61699219 7.24011719 -7.60507812 6.41382813 -6.5625 5.5625 C-5.55316406 4.73878906 -4.54382813 3.91507813 -3.50390625 3.06640625 C-1.70216039 1.58798996 -1.70216039 1.58798996 0 0 Z " fill="#1C1C1C" transform="translate(505,216)"/>
<path d="M0 0 C0.33 0.99 0.66 1.98 1 3 C-0.65 4.65 -2.3 6.3 -4 8 C-4.66 7.67 -5.32 7.34 -6 7 C-5.34 5.68 -4.68 4.36 -4 3 C-3.34 3.33 -2.68 3.66 -2 4 C-1.34 2.68 -0.68 1.36 0 0 Z " fill="#212121" transform="translate(485,428)"/>
<path d="M0 0 C0.66 0.66 1.32 1.32 2 2 C-0.31 4.31 -2.62 6.62 -5 9 C-5.66 8.67 -6.32 8.34 -7 8 C-4.69 5.36 -2.38 2.72 0 0 Z " fill="#1C1C1B" transform="translate(212,613)"/>
<path d="M0 0 C0.66 0.33 1.32 0.66 2 1 C-0.31 3.64 -2.62 6.28 -5 9 C-5.33 8.34 -5.66 7.68 -6 7 C-4.02 4.69 -2.04 2.38 0 0 Z " fill="#252525" transform="translate(573,287)"/>
<path d="M0 0 C0.66 0.33 1.32 0.66 2 1 C-0.31 3.31 -2.62 5.62 -5 8 C-5.66 7.34 -6.32 6.68 -7 6 C-4.69 4.02 -2.38 2.04 0 0 Z " fill="#222222" transform="translate(610,142)"/>
<path d="M0 0 C2.31 0 4.62 0 7 0 C7 0.33 7 0.66 7 1 C4.69 1 2.38 1 0 1 C0 0.67 0 0.34 0 0 Z " fill="#242323" transform="translate(606,614)"/>
<path d="M0 0 C2.31 0 4.62 0 7 0 C7 0.33 7 0.66 7 1 C4.69 1 2.38 1 0 1 C0 0.67 0 0.34 0 0 Z " fill="#222121" transform="translate(584,614)"/>
<path d="M0 0 C1.98 0 3.96 0 6 0 C6 0.33 6 0.66 6 1 C4.02 1 2.04 1 0 1 C0 0.67 0 0.34 0 0 Z " fill="#242322" transform="translate(616,614)"/>
<path d="M0 0 C1.98 0 3.96 0 6 0 C6 0.33 6 0.66 6 1 C4.02 1 2.04 1 0 1 C0 0.67 0 0.34 0 0 Z " fill="#232321" transform="translate(560,614)"/>
<path d="M0 0 C0.66 0 1.32 0 2 0 C2 1.32 2 2.64 2 4 C1.34 3.67 0.68 3.34 0 3 C0 2.01 0 1.02 0 0 Z " fill="#232221" transform="translate(657,298)"/>
<path d="M0 0 C0.99 0 1.98 0 3 0 C2.67 0.66 2.34 1.32 2 2 C1.34 2 0.68 2 0 2 C0 1.34 0 0.68 0 0 Z " fill="#262525" transform="translate(80,746)"/>
<path d="M0 0 C1.485 0.99 1.485 0.99 3 2 C1.68 1.67 0.36 1.34 -1 1 C-0.67 0.67 -0.34 0.34 0 0 Z " fill="#242423" transform="translate(155,672)"/>
<path d="M0 0 C1.65 0 3.3 0 5 0 C5 0.33 5 0.66 5 1 C3.35 1 1.7 1 0 1 C0 0.67 0 0.34 0 0 Z " fill="#242322" transform="translate(627,614)"/>
<path d="M0 0 C1.65 0 3.3 0 5 0 C5 0.33 5 0.66 5 1 C3.35 1 1.7 1 0 1 C0 0.67 0 0.34 0 0 Z " fill="#232322" transform="translate(592,614)"/>
<path d="M0 0 C1.65 0 3.3 0 5 0 C5 0.33 5 0.66 5 1 C3.35 1 1.7 1 0 1 C0 0.67 0 0.34 0 0 Z " fill="#1E1D1C" transform="translate(369,567)"/>
<path d="M0 0 C1.32 0.33 2.64 0.66 4 1 C3.01 1.33 2.02 1.66 1 2 C0.67 1.34 0.34 0.68 0 0 Z " fill="#222222" transform="translate(574,432)"/>
<path d="M0 0 C0.33 0 0.66 0 1 0 C1 1.65 1 3.3 1 5 C0.67 5 0.34 5 0 5 C0 3.35 0 1.7 0 0 Z " fill="#1B1C1C" transform="translate(455,351)"/>
<path d="M0 0 C1.32 0.33 2.64 0.66 4 1 C3.01 1.495 3.01 1.495 2 2 C1.34 1.34 0.68 0.68 0 0 Z " fill="#252423" transform="translate(557,176)"/>
<path d="M0 0 C1 4 1 4 1 4 Z " fill="#232223" transform="translate(672,644)"/>
<path d="M0 0 C0.99 0 1.98 0 3 0 C2.67 0.66 2.34 1.32 2 2 C1.34 1.34 0.68 0.68 0 0 Z " fill="#252424" transform="translate(598,614)"/>
<path d="M0 0 C4 1 4 1 4 1 Z " fill="#222121" transform="translate(553,614)"/>
<path d="M0 0 C4 1 4 1 4 1 Z " fill="#262422" transform="translate(507,612)"/>
<path d="M0 0 C0.99 0.495 0.99 0.495 2 1 C1.67 1.66 1.34 2.32 1 3 C0.67 2.01 0.34 1.02 0 0 Z " fill="#211F1F" transform="translate(732,568)"/>
<path d="M0 0 C1 4 1 4 1 4 Z " fill="#242323" transform="translate(890,539)"/>
<path d="M0 0 C0.99 0.495 0.99 0.495 2 1 C1.01 1.495 1.01 1.495 0 2 C0 1.34 0 0.68 0 0 Z " fill="#1E1D1C" transform="translate(200,873)"/>
<path d="M0 0 C3 1 3 1 3 1 Z " fill="#232322" transform="translate(417,784)"/>
<path d="M0 0 C3 1 3 1 3 1 Z " fill="#232423" transform="translate(411,784)"/>
<path d="M0 0 C0.66 0 1.32 0 2 0 C1.67 0.66 1.34 1.32 1 2 C0.67 1.34 0.34 0.68 0 0 Z " fill="#242423" transform="translate(366,784)"/>
<path d="M0 0 C3 1 3 1 3 1 Z " fill="#242323" transform="translate(649,703)"/>
<path d="M0 0 C3 1 3 1 3 1 Z " fill="#21211F" transform="translate(523,670)"/>
<path d="M0 0 C0.66 0.66 1.32 1.32 2 2 C1.34 2 0.68 2 0 2 C0 1.34 0 0.68 0 0 Z " fill="#1E1E1D" transform="translate(800,640)"/>
<path d="M0 0 C0.99 0.495 0.99 0.495 2 1 C1.01 1.495 1.01 1.495 0 2 C0 1.34 0 0.68 0 0 Z " fill="#1D1B1B" transform="translate(826,618)"/>
<path d="M0 0 C3 1 3 1 3 1 Z " fill="#242222" transform="translate(524,580)"/>
<path d="M0 0 C0.66 0.66 1.32 1.32 2 2 C1.34 2 0.68 2 0 2 C0 1.34 0 0.68 0 0 Z " fill="#222220" transform="translate(404,574)"/>
<path d="M0 0 C3 1 3 1 3 1 Z " fill="#222220" transform="translate(279,552)"/>
<path d="M0 0 C0.66 0.66 1.32 1.32 2 2 C1.34 2 0.68 2 0 2 C0 1.34 0 0.68 0 0 Z " fill="#232320" transform="translate(432,544)"/>
<path d="M0 0 C0.66 0.66 1.32 1.32 2 2 C1.34 2 0.68 2 0 2 C0 1.34 0 0.68 0 0 Z " fill="#222220" transform="translate(789,521)"/>
<path d="M0 0 C0.66 0 1.32 0 2 0 C1.67 0.66 1.34 1.32 1 2 C0.67 1.34 0.34 0.68 0 0 Z " fill="#262624" transform="translate(531,486)"/>
<path d="M0 0 C0.99 0.495 0.99 0.495 2 1 C1.01 1.495 1.01 1.495 0 2 C0 1.34 0 0.68 0 0 Z " fill="#232322" transform="translate(448,273)"/>
<path d="" fill="#242322" transform="translate(0,0)"/>
<path d="" fill="#222021" transform="translate(0,0)"/>
<path d="" fill="#232221" transform="translate(0,0)"/>
<path d="M0 0 C2 1 2 1 2 1 Z " fill="#1E1D1B" transform="translate(209,882)"/>
<path d="" fill="#1F1F1D" transform="translate(0,0)"/>
<path d="" fill="#1F1F1F" transform="translate(0,0)"/>
<path d="M0 0 C2 1 2 1 2 1 Z " fill="#22221F" transform="translate(530,828)"/>
<path d="M0 0 C2 1 2 1 2 1 Z " fill="#1D1D1B" transform="translate(152,827)"/>
<path d="M0 0 C2 1 2 1 2 1 Z " fill="#252223" transform="translate(468,823)"/>
<path d="M0 0 C2 1 2 1 2 1 Z " fill="#1F1E1D" transform="translate(635,822)"/>
<path d="M0 0 C2 1 2 1 2 1 Z " fill="#222222" transform="translate(419,818)"/>
<path d="M0 0 C2 1 2 1 2 1 Z " fill="#1F1F1D" transform="translate(318,808)"/>
<path d="M0 0 C2 1 2 1 2 1 Z " fill="#222221" transform="translate(585,795)"/>
<path d="M0 0 C2 1 2 1 2 1 Z " fill="#22201E" transform="translate(337,795)"/>
<path d="M0 0 C2 1 2 1 2 1 Z " fill="#222120" transform="translate(525,794)"/>
<path d="M0 0 C2 1 2 1 2 1 Z " fill="#242421" transform="translate(602,793)"/>
<path d="M0 0 C2 1 2 1 2 1 Z " fill="#22211F" transform="translate(613,792)"/>
<path d="M0 0 C2 1 2 1 2 1 Z " fill="#232121" transform="translate(344,792)"/>
<path d="M0 0 C2 1 2 1 2 1 Z " fill="#242323" transform="translate(369,784)"/>
<path d="" fill="#1F1E1D" transform="translate(0,0)"/>
<path d="" fill="#222321" transform="translate(0,0)"/>
<path d="" fill="#222221" transform="translate(0,0)"/>
<path d="M0 0 C2 1 2 1 2 1 Z " fill="#211F1E" transform="translate(680,768)"/>
<path d="M0 0 C2 1 2 1 2 1 Z " fill="#1F1F1F" transform="translate(706,744)"/>
<path d="" fill="#222220" transform="translate(0,0)"/>
<path d="M0 0 C2 1 2 1 2 1 Z " fill="#262524" transform="translate(151,673)"/>
<path d="M0 0 C2 1 2 1 2 1 Z " fill="#1F201F" transform="translate(571,670)"/>
<path d="M0 0 C2 1 2 1 2 1 Z " fill="#20201F" transform="translate(539,670)"/>
<path d="M0 0 C2 1 2 1 2 1 Z " fill="#212121" transform="translate(531,670)"/>
<path d="M0 0 C2 1 2 1 2 1 Z " fill="#222222" transform="translate(499,670)"/>
<path d="M0 0 C2 1 2 1 2 1 Z " fill="#252323" transform="translate(483,670)"/>
<path d="" fill="#242321" transform="translate(0,0)"/>
<path d="" fill="#242424" transform="translate(0,0)"/>
<path d="" fill="#1E1E1D" transform="translate(0,0)"/>
<path d="M0 0 C2 1 2 1 2 1 Z " fill="#242221" transform="translate(644,615)"/>
<path d="" fill="#252423" transform="translate(0,0)"/>
<path d="M0 0 C2 1 2 1 2 1 Z " fill="#242322" transform="translate(634,614)"/>
<path d="M0 0 C2 1 2 1 2 1 Z " fill="#252321" transform="translate(624,614)"/>
<path d="M0 0 C2 1 2 1 2 1 Z " fill="#252423" transform="translate(579,614)"/>
<path d="M0 0 C2 1 2 1 2 1 Z " fill="#242324" transform="translate(547,614)"/>
<path d="M0 0 C2 1 2 1 2 1 Z " fill="#252423" transform="translate(531,614)"/>
<path d="" fill="#212120" transform="translate(0,0)"/>
<path d="M0 0 C2 1 2 1 2 1 Z " fill="#201F1F" transform="translate(208,609)"/>
<path d="M0 0 C2 1 2 1 2 1 Z " fill="#242422" transform="translate(488,606)"/>
<path d="M0 0 C2 1 2 1 2 1 Z " fill="#201F1E" transform="translate(217,601)"/>
<path d="M0 0 C2 1 2 1 2 1 Z " fill="#201F1E" transform="translate(688,600)"/>
<path d="" fill="#22201F" transform="translate(0,0)"/>
<path d="M0 0 C2 1 2 1 2 1 Z " fill="#201E1F" transform="translate(856,584)"/>
<path d="M0 0 C2 1 2 1 2 1 Z " fill="#232221" transform="translate(435,583)"/>
<path d="" fill="#201E1E" transform="translate(0,0)"/>
<path d="M0 0 C2 1 2 1 2 1 Z " fill="#201F21" transform="translate(240,577)"/>
<path d="" fill="#222221" transform="translate(0,0)"/>
<path d="M0 0 C2 1 2 1 2 1 Z " fill="#212020" transform="translate(364,567)"/>
<path d="M0 0 C2 1 2 1 2 1 Z " fill="#212021" transform="translate(348,567)"/>
<path d="M0 0 C2 1 2 1 2 1 Z " fill="#21201F" transform="translate(470,560)"/>
<path d="M0 0 C2 1 2 1 2 1 Z " fill="#20201F" transform="translate(752,554)"/>
<path d="M0 0 C2 1 2 1 2 1 Z " fill="#242221" transform="translate(434,546)"/>
<path d="M0 0 C2 1 2 1 2 1 Z " fill="#222322" transform="translate(407,538)"/>
<path d="M0 0 C2 1 2 1 2 1 Z " fill="#262626" transform="translate(403,537)"/>
<path d="M0 0 C2 1 2 1 2 1 Z " fill="#212122" transform="translate(323,536)"/>
<path d="M0 0 C2 1 2 1 2 1 Z " fill="#222120" transform="translate(320,536)"/>
<path d="" fill="#232322" transform="translate(0,0)"/>
<path d="M0 0 C2 1 2 1 2 1 Z " fill="#232321" transform="translate(485,492)"/>
<path d="M0 0 C2 1 2 1 2 1 Z " fill="#252625" transform="translate(443,473)"/>
<path d="" fill="#202120" transform="translate(0,0)"/>
<path d="M0 0 C2 1 2 1 2 1 Z " fill="#1F1E1D" transform="translate(539,449)"/>
<path d="M0 0 C2 1 2 1 2 1 Z " fill="#22201F" transform="translate(541,448)"/>
<path d="M0 0 C2 1 2 1 2 1 Z " fill="#242524" transform="translate(561,440)"/>
<path d="" fill="#242221" transform="translate(0,0)"/>
<path d="" fill="#232322" transform="translate(0,0)"/>
<path d="" fill="#242424" transform="translate(0,0)"/>
<path d="" fill="#232222" transform="translate(0,0)"/>
<path d="M0 0 C2 1 2 1 2 1 Z " fill="#212120" transform="translate(620,393)"/>
<path d="" fill="#222120" transform="translate(0,0)"/>
<path d="" fill="#212120" transform="translate(0,0)"/>
<path d="" fill="#242423" transform="translate(0,0)"/>
<path d="" fill="#252524" transform="translate(0,0)"/>
<path d="" fill="#252523" transform="translate(0,0)"/>
<path d="" fill="#242122" transform="translate(0,0)"/>
<path d="M0 0 C2 1 2 1 2 1 Z " fill="#232422" transform="translate(490,226)"/>
<path d="" fill="#212221" transform="translate(0,0)"/>
<path d="" fill="#1D1C1C" transform="translate(0,0)"/>
<path d="M0 0 C2 1 2 1 2 1 Z " fill="#222121" transform="translate(573,207)"/>
<path d="M0 0 C2 1 2 1 2 1 Z " fill="#272624" transform="translate(528,195)"/>
<path d="M0 0 C2 1 2 1 2 1 Z " fill="#232321" transform="translate(557,178)"/>
<path d="M0 0 C2 1 2 1 2 1 Z " fill="#232222" transform="translate(592,152)"/>
<path d="" fill="#282525" transform="translate(0,0)"/>
<path d="M0 0 C2 1 2 1 2 1 Z " fill="#242224" transform="translate(605,144)"/>
<path d="" fill="#212121" transform="translate(0,0)"/>
<path d="" fill="#252524" transform="translate(0,0)"/>
<path d="" fill="#2A2B2A" transform="translate(0,0)"/>
<path d="" fill="#232121" transform="translate(0,0)"/>
<path d="" fill="#232322" transform="translate(0,0)"/>
<path d="" fill="#20201F" transform="translate(0,0)"/>
<path d="" fill="#20201E" transform="translate(0,0)"/>
<path d="" fill="#1F1E1D" transform="translate(0,0)"/>
<path d="" fill="#1E201E" transform="translate(0,0)"/>
<path d="" fill="#1D1A19" transform="translate(0,0)"/>
<path d="" fill="#1D1D1E" transform="translate(0,0)"/>
<path d="" fill="#201D1C" transform="translate(0,0)"/>
<path d="" fill="#1F1F1C" transform="translate(0,0)"/>
<path d="" fill="#222224" transform="translate(0,0)"/>
<path d="" fill="#1D1D1D" transform="translate(0,0)"/>
<path d="" fill="#1D1D1A" transform="translate(0,0)"/>
<path d="" fill="#1E1E1D" transform="translate(0,0)"/>
<path d="" fill="#1F1E1C" transform="translate(0,0)"/>
<path d="" fill="#1B1C1A" transform="translate(0,0)"/>
<path d="" fill="#1F1F1C" transform="translate(0,0)"/>
<path d="" fill="#1C1C1D" transform="translate(0,0)"/>
<path d="" fill="#1F1E20" transform="translate(0,0)"/>
<path d="" fill="#1E1D1F" transform="translate(0,0)"/>
<path d="" fill="#1E201C" transform="translate(0,0)"/>
<path d="" fill="#1C1B1A" transform="translate(0,0)"/>
<path d="" fill="#1B1A1A" transform="translate(0,0)"/>
<path d="" fill="#1F1D1E" transform="translate(0,0)"/>
<path d="" fill="#1C1C1D" transform="translate(0,0)"/>
<path d="" fill="#201F1D" transform="translate(0,0)"/>
<path d="" fill="#1F1D1C" transform="translate(0,0)"/>
<path d="" fill="#1F2020" transform="translate(0,0)"/>
<path d="" fill="#232220" transform="translate(0,0)"/>
<path d="" fill="#1D1B1C" transform="translate(0,0)"/>
<path d="" fill="#201F1E" transform="translate(0,0)"/>
<path d="" fill="#1E1F1D" transform="translate(0,0)"/>
<path d="" fill="#212221" transform="translate(0,0)"/>
<path d="" fill="#1F1D1C" transform="translate(0,0)"/>
<path d="" fill="#212021" transform="translate(0,0)"/>
<path d="" fill="#1D201E" transform="translate(0,0)"/>
<path d="" fill="#1F1D1D" transform="translate(0,0)"/>
<path d="" fill="#1F2020" transform="translate(0,0)"/>
<path d="" fill="#222121" transform="translate(0,0)"/>
<path d="" fill="#1E1F1D" transform="translate(0,0)"/>
<path d="" fill="#222120" transform="translate(0,0)"/>
<path d="" fill="#22201E" transform="translate(0,0)"/>
<path d="" fill="#201F1F" transform="translate(0,0)"/>
<path d="" fill="#232222" transform="translate(0,0)"/>
<path d="" fill="#212321" transform="translate(0,0)"/>
<path d="" fill="#232120" transform="translate(0,0)"/>
<path d="" fill="#222120" transform="translate(0,0)"/>
<path d="" fill="#22211F" transform="translate(0,0)"/>
<path d="" fill="#1F1F1B" transform="translate(0,0)"/>
<path d="" fill="#1E1C1D" transform="translate(0,0)"/>
<path d="" fill="#22201F" transform="translate(0,0)"/>
<path d="" fill="#1F1E1D" transform="translate(0,0)"/>
<path d="" fill="#1C191B" transform="translate(0,0)"/>
<path d="" fill="#222020" transform="translate(0,0)"/>
<path d="" fill="#211F1E" transform="translate(0,0)"/>
<path d="" fill="#21221F" transform="translate(0,0)"/>
<path d="" fill="#231F20" transform="translate(0,0)"/>
<path d="" fill="#22211F" transform="translate(0,0)"/>
<path d="" fill="#222221" transform="translate(0,0)"/>
<path d="" fill="#1D1F1C" transform="translate(0,0)"/>
<path d="" fill="#201F1E" transform="translate(0,0)"/>
<path d="" fill="#242222" transform="translate(0,0)"/>
<path d="" fill="#1A1B18" transform="translate(0,0)"/>
<path d="" fill="#1B1B18" transform="translate(0,0)"/>
<path d="" fill="#212120" transform="translate(0,0)"/>
<path d="" fill="#212221" transform="translate(0,0)"/>
<path d="" fill="#252422" transform="translate(0,0)"/>
<path d="" fill="#1C1C1C" transform="translate(0,0)"/>
<path d="" fill="#211F20" transform="translate(0,0)"/>
<path d="" fill="#222223" transform="translate(0,0)"/>
<path d="" fill="#1C1919" transform="translate(0,0)"/>
<path d="" fill="#242324" transform="translate(0,0)"/>
<path d="" fill="#1E1E1C" transform="translate(0,0)"/>
<path d="" fill="#1E201F" transform="translate(0,0)"/>
<path d="" fill="#1F1F1E" transform="translate(0,0)"/>
<path d="" fill="#1D1C1E" transform="translate(0,0)"/>
<path d="" fill="#1D1D1C" transform="translate(0,0)"/>
<path d="" fill="#1D1C1A" transform="translate(0,0)"/>
<path d="" fill="#1C1918" transform="translate(0,0)"/>
<path d="" fill="#1E1D1E" transform="translate(0,0)"/>
<path d="" fill="#222322" transform="translate(0,0)"/>
<path d="" fill="#201F1D" transform="translate(0,0)"/>
<path d="" fill="#222220" transform="translate(0,0)"/>
<path d="" fill="#232423" transform="translate(0,0)"/>
<path d="" fill="#232022" transform="translate(0,0)"/>
<path d="" fill="#232222" transform="translate(0,0)"/>
<path d="" fill="#242322" transform="translate(0,0)"/>
<path d="" fill="#222220" transform="translate(0,0)"/>
<path d="" fill="#1C1D1B" transform="translate(0,0)"/>
<path d="" fill="#1E1D1B" transform="translate(0,0)"/>
<path d="" fill="#1E1D1D" transform="translate(0,0)"/>
<path d="" fill="#20201E" transform="translate(0,0)"/>
<path d="" fill="#222223" transform="translate(0,0)"/>
<path d="" fill="#222221" transform="translate(0,0)"/>
<path d="" fill="#212220" transform="translate(0,0)"/>
<path d="" fill="#212120" transform="translate(0,0)"/>
<path d="" fill="#221F1E" transform="translate(0,0)"/>
<path d="" fill="#1F1E1D" transform="translate(0,0)"/>
<path d="" fill="#1C1D1C" transform="translate(0,0)"/>
<path d="" fill="#232221" transform="translate(0,0)"/>
<path d="" fill="#242121" transform="translate(0,0)"/>
<path d="" fill="#222421" transform="translate(0,0)"/>
<path d="" fill="#1F1F1D" transform="translate(0,0)"/>
<path d="" fill="#20201E" transform="translate(0,0)"/>
<path d="" fill="#242421" transform="translate(0,0)"/>
<path d="" fill="#222221" transform="translate(0,0)"/>
<path d="" fill="#222121" transform="translate(0,0)"/>
<path d="" fill="#212221" transform="translate(0,0)"/>
<path d="" fill="#232120" transform="translate(0,0)"/>
<path d="" fill="#1E1D1B" transform="translate(0,0)"/>
<path d="" fill="#222222" transform="translate(0,0)"/>
<path d="" fill="#252322" transform="translate(0,0)"/>
<path d="" fill="#1F1E1C" transform="translate(0,0)"/>
<path d="" fill="#22201F" transform="translate(0,0)"/>
<path d="" fill="#1B1B1B" transform="translate(0,0)"/>
<path d="" fill="#252220" transform="translate(0,0)"/>
<path d="" fill="#1D1D1B" transform="translate(0,0)"/>
<path d="" fill="#1F1F1E" transform="translate(0,0)"/>
<path d="" fill="#222123" transform="translate(0,0)"/>
<path d="" fill="#201E1F" transform="translate(0,0)"/>
<path d="" fill="#232320" transform="translate(0,0)"/>
<path d="" fill="#1F1F1F" transform="translate(0,0)"/>
<path d="" fill="#222120" transform="translate(0,0)"/>
<path d="" fill="#232321" transform="translate(0,0)"/>
<path d="" fill="#212122" transform="translate(0,0)"/>
<path d="" fill="#1D1D1C" transform="translate(0,0)"/>
<path d="" fill="#201F1E" transform="translate(0,0)"/>
<path d="" fill="#1D1E1B" transform="translate(0,0)"/>
<path d="" fill="#212121" transform="translate(0,0)"/>
<path d="" fill="#191819" transform="translate(0,0)"/>
<path d="" fill="#21201E" transform="translate(0,0)"/>
<path d="" fill="#242221" transform="translate(0,0)"/>
<path d="" fill="#1D1F1A" transform="translate(0,0)"/>
<path d="" fill="#201F1E" transform="translate(0,0)"/>
<path d="" fill="#1C1A19" transform="translate(0,0)"/>
<path d="" fill="#201E1D" transform="translate(0,0)"/>
<path d="" fill="#252220" transform="translate(0,0)"/>
<path d="" fill="#212120" transform="translate(0,0)"/>
<path d="" fill="#1E1E1D" transform="translate(0,0)"/>
<path d="" fill="#272626" transform="translate(0,0)"/>
<path d="" fill="#232220" transform="translate(0,0)"/>
<path d="" fill="#1F1E1C" transform="translate(0,0)"/>
<path d="" fill="#1E1E1E" transform="translate(0,0)"/>
<path d="" fill="#1F201C" transform="translate(0,0)"/>
<path d="" fill="#1E211C" transform="translate(0,0)"/>
<path d="" fill="#1E1F1C" transform="translate(0,0)"/>
<path d="" fill="#201F1E" transform="translate(0,0)"/>
<path d="" fill="#20201E" transform="translate(0,0)"/>
<path d="" fill="#1E1D1B" transform="translate(0,0)"/>
<path d="" fill="#282627" transform="translate(0,0)"/>
<path d="" fill="#1D1B1B" transform="translate(0,0)"/>
<path d="" fill="#1F1C1C" transform="translate(0,0)"/>
<path d="" fill="#1D1E1D" transform="translate(0,0)"/>
<path d="" fill="#1F1E1D" transform="translate(0,0)"/>
<path d="" fill="#1E201D" transform="translate(0,0)"/>
<path d="" fill="#211F1F" transform="translate(0,0)"/>
<path d="" fill="#262727" transform="translate(0,0)"/>
<path d="" fill="#262627" transform="translate(0,0)"/>
<path d="" fill="#252525" transform="translate(0,0)"/>
<path d="" fill="#1A1A19" transform="translate(0,0)"/>
<path d="" fill="#1E1C18" transform="translate(0,0)"/>
<path d="" fill="#22201E" transform="translate(0,0)"/>
<path d="" fill="#201E1F" transform="translate(0,0)"/>
<path d="" fill="#1D1B19" transform="translate(0,0)"/>
<path d="" fill="#1E1F1D" transform="translate(0,0)"/>
<path d="" fill="#1E1C1D" transform="translate(0,0)"/>
<path d="" fill="#20211F" transform="translate(0,0)"/>
<path d="" fill="#20201E" transform="translate(0,0)"/>
<path d="" fill="#262425" transform="translate(0,0)"/>
<path d="" fill="#1E201E" transform="translate(0,0)"/>
<path d="" fill="#1B1D1A" transform="translate(0,0)"/>
<path d="" fill="#1E1D1D" transform="translate(0,0)"/>
<path d="" fill="#1B1A18" transform="translate(0,0)"/>
<path d="" fill="#1F1F1D" transform="translate(0,0)"/>
<path d="" fill="#201E20" transform="translate(0,0)"/>
<path d="" fill="#22211E" transform="translate(0,0)"/>
<path d="" fill="#1D1D1B" transform="translate(0,0)"/>
<path d="" fill="#1D1D1C" transform="translate(0,0)"/>
<path d="" fill="#21211E" transform="translate(0,0)"/>
<path d="" fill="#1A1D1B" transform="translate(0,0)"/>
<path d="" fill="#201F1E" transform="translate(0,0)"/>
<path d="" fill="#1D1D1C" transform="translate(0,0)"/>
<path d="" fill="#212021" transform="translate(0,0)"/>
<path d="" fill="#242726" transform="translate(0,0)"/>
<path d="" fill="#202021" transform="translate(0,0)"/>
<path d="" fill="#20201D" transform="translate(0,0)"/>
<path d="" fill="#252424" transform="translate(0,0)"/>
<path d="" fill="#2B2B2C" transform="translate(0,0)"/>
<path d="" fill="#232321" transform="translate(0,0)"/>
<path d="" fill="#292A2A" transform="translate(0,0)"/>
<path d="" fill="#2A292C" transform="translate(0,0)"/>
<path d="" fill="#1E1D1C" transform="translate(0,0)"/>
<path d="" fill="#22211F" transform="translate(0,0)"/>
<path d="" fill="#1D1E1E" transform="translate(0,0)"/>
<path d="" fill="#1F1F1F" transform="translate(0,0)"/>
<path d="" fill="#252423" transform="translate(0,0)"/>
<path d="" fill="#282527" transform="translate(0,0)"/>
<path d="" fill="#222420" transform="translate(0,0)"/>
<path d="" fill="#2C2B2C" transform="translate(0,0)"/>
<path d="" fill="#2A2A2A" transform="translate(0,0)"/>
<path d="" fill="#1F201D" transform="translate(0,0)"/>
<path d="" fill="#2A2B29" transform="translate(0,0)"/>
<path d="" fill="#28272A" transform="translate(0,0)"/>
<path d="" fill="#282A29" transform="translate(0,0)"/>
<path d="" fill="#282725" transform="translate(0,0)"/>
<path d="" fill="#28292A" transform="translate(0,0)"/>
<path d="" fill="#292929" transform="translate(0,0)"/>
<path d="" fill="#1A1A1A" transform="translate(0,0)"/>
<path d="" fill="#2B2C2A" transform="translate(0,0)"/>
<path d="" fill="#21201E" transform="translate(0,0)"/>
<path d="" fill="#232224" transform="translate(0,0)"/>
<path d="" fill="#232322" transform="translate(0,0)"/>
<path d="" fill="#222220" transform="translate(0,0)"/>
<path d="" fill="#232120" transform="translate(0,0)"/>
<path d="" fill="#20201F" transform="translate(0,0)"/>
<path d="" fill="#20201F" transform="translate(0,0)"/>
<path d="" fill="#1E1F20" transform="translate(0,0)"/>
<path d="" fill="#222321" transform="translate(0,0)"/>
<path d="" fill="#242123" transform="translate(0,0)"/>
<path d="" fill="#232423" transform="translate(0,0)"/>
<path d="" fill="#242526" transform="translate(0,0)"/>
<path d="" fill="#282727" transform="translate(0,0)"/>
<path d="" fill="#211F1F" transform="translate(0,0)"/>
<path d="" fill="#202020" transform="translate(0,0)"/>
<path d="" fill="#232322" transform="translate(0,0)"/>
<path d="" fill="#222322" transform="translate(0,0)"/>
<path d="" fill="#222223" transform="translate(0,0)"/>
<path d="" fill="#222122" transform="translate(0,0)"/>
<path d="" fill="#212222" transform="translate(0,0)"/>
<path d="" fill="#212121" transform="translate(0,0)"/>
<path d="" fill="#221F20" transform="translate(0,0)"/>
<path d="" fill="#1B1A1A" transform="translate(0,0)"/>
<path d="" fill="#201E1C" transform="translate(0,0)"/>
<path d="" fill="#1F1E1E" transform="translate(0,0)"/>
<path d="" fill="#211F20" transform="translate(0,0)"/>
<path d="" fill="#232320" transform="translate(0,0)"/>
<path d="" fill="#1E1C1D" transform="translate(0,0)"/>
<path d="" fill="#242225" transform="translate(0,0)"/>
<path d="" fill="#222424" transform="translate(0,0)"/>
<path d="" fill="#1E1F1F" transform="translate(0,0)"/>
<path d="" fill="#1E1D1E" transform="translate(0,0)"/>
<path d="" fill="#252425" transform="translate(0,0)"/>
<path d="" fill="#232324" transform="translate(0,0)"/>
<path d="" fill="#201E20" transform="translate(0,0)"/>
<path d="" fill="#282826" transform="translate(0,0)"/>
<path d="" fill="#1E1E1C" transform="translate(0,0)"/>
<path d="" fill="#20201D" transform="translate(0,0)"/>
<path d="" fill="#201D1E" transform="translate(0,0)"/>
<path d="" fill="#1F1E1C" transform="translate(0,0)"/>
<path d="" fill="#1D1C19" transform="translate(0,0)"/>
<path d="" fill="#2D2D2D" transform="translate(0,0)"/>
<path d="" fill="#232322" transform="translate(0,0)"/>
<path d="" fill="#1C1E1C" transform="translate(0,0)"/>
<path d="" fill="#22201E" transform="translate(0,0)"/>
<path d="" fill="#201F1E" transform="translate(0,0)"/>
<path d="" fill="#222322" transform="translate(0,0)"/>
<path d="" fill="#21201F" transform="translate(0,0)"/>
<path d="" fill="#1F1F1C" transform="translate(0,0)"/>
<path d="" fill="#222321" transform="translate(0,0)"/>
<path d="" fill="#222121" transform="translate(0,0)"/>
<path d="" fill="#202122" transform="translate(0,0)"/>
<path d="" fill="#21201E" transform="translate(0,0)"/>
<path d="" fill="#262225" transform="translate(0,0)"/>
<path d="" fill="#222223" transform="translate(0,0)"/>
<path d="" fill="#262423" transform="translate(0,0)"/>
<path d="" fill="#21201F" transform="translate(0,0)"/>
<path d="" fill="#252322" transform="translate(0,0)"/>
<path d="" fill="#242424" transform="translate(0,0)"/>
<path d="" fill="#242423" transform="translate(0,0)"/>
<path d="" fill="#252320" transform="translate(0,0)"/>
<path d="" fill="#222322" transform="translate(0,0)"/>
<path d="" fill="#242423" transform="translate(0,0)"/>
<path d="" fill="#242323" transform="translate(0,0)"/>
<path d="" fill="#272826" transform="translate(0,0)"/>
<path d="" fill="#272625" transform="translate(0,0)"/>
<path d="" fill="#262525" transform="translate(0,0)"/>
<path d="" fill="#252623" transform="translate(0,0)"/>
<path d="" fill="#262625" transform="translate(0,0)"/>
<path d="" fill="#252423" transform="translate(0,0)"/>
<path d="" fill="#202020" transform="translate(0,0)"/>
<path d="" fill="#1F1E1C" transform="translate(0,0)"/>
<path d="" fill="#20201F" transform="translate(0,0)"/>
<path d="" fill="#232223" transform="translate(0,0)"/>
<path d="" fill="#1F201E" transform="translate(0,0)"/>
<path d="" fill="#1E1D1D" transform="translate(0,0)"/>
<path d="" fill="#211F1E" transform="translate(0,0)"/>
<path d="" fill="#232120" transform="translate(0,0)"/>
<path d="" fill="#242524" transform="translate(0,0)"/>
<path d="" fill="#252522" transform="translate(0,0)"/>
<path d="" fill="#262524" transform="translate(0,0)"/>
<path d="" fill="#232221" transform="translate(0,0)"/>
<path d="" fill="#252523" transform="translate(0,0)"/>
<path d="" fill="#1C1C1C" transform="translate(0,0)"/>
<path d="" fill="#252222" transform="translate(0,0)"/>
<path d="" fill="#242322" transform="translate(0,0)"/>
<path d="" fill="#201E1E" transform="translate(0,0)"/>
<path d="" fill="#212120" transform="translate(0,0)"/>
<path d="" fill="#202120" transform="translate(0,0)"/>
<path d="" fill="#242221" transform="translate(0,0)"/>
<path d="" fill="#201F1E" transform="translate(0,0)"/>
<path d="" fill="#24211F" transform="translate(0,0)"/>
<path d="" fill="#211F20" transform="translate(0,0)"/>
<path d="" fill="#20211F" transform="translate(0,0)"/>
<path d="" fill="#222020" transform="translate(0,0)"/>
<path d="" fill="#22211F" transform="translate(0,0)"/>
<path d="" fill="#1D1C1D" transform="translate(0,0)"/>
<path d="" fill="#20201F" transform="translate(0,0)"/>
<path d="" fill="#1F1E1E" transform="translate(0,0)"/>
<path d="" fill="#1D1E1D" transform="translate(0,0)"/>
<path d="" fill="#1F1D1D" transform="translate(0,0)"/>
<path d="" fill="#242221" transform="translate(0,0)"/>
<path d="" fill="#222121" transform="translate(0,0)"/>
<path d="" fill="#1F1E1E" transform="translate(0,0)"/>
<path d="" fill="#221E1F" transform="translate(0,0)"/>
<path d="" fill="#201F1D" transform="translate(0,0)"/>
<path d="" fill="#232522" transform="translate(0,0)"/>
<path d="" fill="#1D1E1C" transform="translate(0,0)"/>
<path d="" fill="#212221" transform="translate(0,0)"/>
<path d="" fill="#212220" transform="translate(0,0)"/>
<path d="" fill="#1E201D" transform="translate(0,0)"/>
<path d="" fill="#242322" transform="translate(0,0)"/>
<path d="" fill="#1F1F1E" transform="translate(0,0)"/>
<path d="" fill="#20201D" transform="translate(0,0)"/>
<path d="" fill="#232120" transform="translate(0,0)"/>
<path d="" fill="#262525" transform="translate(0,0)"/>
<path d="" fill="#211F1F" transform="translate(0,0)"/>
<path d="" fill="#21211F" transform="translate(0,0)"/>
<path d="" fill="#211F1D" transform="translate(0,0)"/>
<path d="" fill="#252424" transform="translate(0,0)"/>
<path d="" fill="#1F1E1D" transform="translate(0,0)"/>
<path d="" fill="#212122" transform="translate(0,0)"/>
<path d="" fill="#1F1D1E" transform="translate(0,0)"/>
<path d="" fill="#221F1E" transform="translate(0,0)"/>
<path d="" fill="#21201C" transform="translate(0,0)"/>
<path d="" fill="#252423" transform="translate(0,0)"/>
<path d="" fill="#1D201E" transform="translate(0,0)"/>
<path d="" fill="#212220" transform="translate(0,0)"/>
<path d="" fill="#252624" transform="translate(0,0)"/>
<path d="" fill="#222322" transform="translate(0,0)"/>
<path d="" fill="#1F1F1C" transform="translate(0,0)"/>
<path d="" fill="#242221" transform="translate(0,0)"/>
<path d="" fill="#201F1F" transform="translate(0,0)"/>
<path d="" fill="#20221E" transform="translate(0,0)"/>
<path d="" fill="#242321" transform="translate(0,0)"/>
<path d="" fill="#20211E" transform="translate(0,0)"/>
<path d="" fill="#252424" transform="translate(0,0)"/>
<path d="" fill="#212220" transform="translate(0,0)"/>
<path d="" fill="#202021" transform="translate(0,0)"/>
<path d="" fill="#1E1B1A" transform="translate(0,0)"/>
<path d="" fill="#1E1E1D" transform="translate(0,0)"/>
<path d="" fill="#2A2829" transform="translate(0,0)"/>
<path d="" fill="#252526" transform="translate(0,0)"/>
<path d="" fill="#232221" transform="translate(0,0)"/>
<path d="" fill="#1E1E1E" transform="translate(0,0)"/>
<path d="" fill="#1C201B" transform="translate(0,0)"/>
<path d="" fill="#232221" transform="translate(0,0)"/>
<path d="" fill="#201E1E" transform="translate(0,0)"/>
<path d="" fill="#22211F" transform="translate(0,0)"/>
<path d="" fill="#1F201E" transform="translate(0,0)"/>
<path d="" fill="#222221" transform="translate(0,0)"/>
<path d="" fill="#211F20" transform="translate(0,0)"/>
<path d="" fill="#222120" transform="translate(0,0)"/>
<path d="" fill="#242422" transform="translate(0,0)"/>
<path d="" fill="#212122" transform="translate(0,0)"/>
<path d="" fill="#212021" transform="translate(0,0)"/>
<path d="" fill="#212221" transform="translate(0,0)"/>
<path d="" fill="#242321" transform="translate(0,0)"/>
<path d="" fill="#232021" transform="translate(0,0)"/>
<path d="" fill="#202020" transform="translate(0,0)"/>
<path d="" fill="#222421" transform="translate(0,0)"/>
<path d="" fill="#201E1E" transform="translate(0,0)"/>
<path d="" fill="#242422" transform="translate(0,0)"/>
<path d="" fill="#22211F" transform="translate(0,0)"/>
<path d="" fill="#242323" transform="translate(0,0)"/>
<path d="" fill="#201E20" transform="translate(0,0)"/>
<path d="" fill="#232221" transform="translate(0,0)"/>
<path d="" fill="#262421" transform="translate(0,0)"/>
<path d="" fill="#242423" transform="translate(0,0)"/>
<path d="" fill="#262524" transform="translate(0,0)"/>
<path d="" fill="#242121" transform="translate(0,0)"/>
<path d="" fill="#231F21" transform="translate(0,0)"/>
<path d="" fill="#222221" transform="translate(0,0)"/>
<path d="" fill="#242220" transform="translate(0,0)"/>
<path d="" fill="#242421" transform="translate(0,0)"/>
<path d="" fill="#252624" transform="translate(0,0)"/>
<path d="" fill="#232222" transform="translate(0,0)"/>
<path d="" fill="#242423" transform="translate(0,0)"/>
<path d="" fill="#252326" transform="translate(0,0)"/>
<path d="" fill="#222220" transform="translate(0,0)"/>
<path d="" fill="#201E21" transform="translate(0,0)"/>
<path d="" fill="#242422" transform="translate(0,0)"/>
<path d="" fill="#21201D" transform="translate(0,0)"/>
<path d="" fill="#242423" transform="translate(0,0)"/>
<path d="" fill="#262627" transform="translate(0,0)"/>
<path d="" fill="#202020" transform="translate(0,0)"/>
<path d="" fill="#272524" transform="translate(0,0)"/>
<path d="" fill="#232321" transform="translate(0,0)"/>
<path d="" fill="#262525" transform="translate(0,0)"/>
<path d="" fill="#222323" transform="translate(0,0)"/>
<path d="" fill="#262626" transform="translate(0,0)"/>
<path d="" fill="#222120" transform="translate(0,0)"/>
<path d="" fill="#222220" transform="translate(0,0)"/>
<path d="" fill="#222423" transform="translate(0,0)"/>
<path d="" fill="#232220" transform="translate(0,0)"/>
<path d="" fill="#222120" transform="translate(0,0)"/>
<path d="" fill="#242422" transform="translate(0,0)"/>
<path d="" fill="#272727" transform="translate(0,0)"/>
<path d="" fill="#232422" transform="translate(0,0)"/>
<path d="" fill="#242522" transform="translate(0,0)"/>
<path d="" fill="#252522" transform="translate(0,0)"/>
<path d="" fill="#232323" transform="translate(0,0)"/>
<path d="" fill="#262724" transform="translate(0,0)"/>
<path d="" fill="#232421" transform="translate(0,0)"/>
<path d="" fill="#282524" transform="translate(0,0)"/>
<path d="" fill="#242121" transform="translate(0,0)"/>
<path d="" fill="#262724" transform="translate(0,0)"/>
<path d="" fill="#262724" transform="translate(0,0)"/>
<path d="" fill="#252423" transform="translate(0,0)"/>
<path d="" fill="#222321" transform="translate(0,0)"/>
<path d="" fill="#232323" transform="translate(0,0)"/>
<path d="" fill="#282624" transform="translate(0,0)"/>
<path d="" fill="#282727" transform="translate(0,0)"/>
<path d="" fill="#272825" transform="translate(0,0)"/>
<path d="" fill="#222120" transform="translate(0,0)"/>
<path d="" fill="#282628" transform="translate(0,0)"/>
<path d="" fill="#272724" transform="translate(0,0)"/>
<path d="" fill="#282725" transform="translate(0,0)"/>
<path d="" fill="#292A28" transform="translate(0,0)"/>
<path d="" fill="#252727" transform="translate(0,0)"/>
<path d="" fill="#272A25" transform="translate(0,0)"/>
<path d="" fill="#292726" transform="translate(0,0)"/>
<path d="" fill="#292A28" transform="translate(0,0)"/>
<path d="" fill="#282727" transform="translate(0,0)"/>
<path d="" fill="#272624" transform="translate(0,0)"/>
<path d="" fill="#272524" transform="translate(0,0)"/>
<path d="" fill="#242423" transform="translate(0,0)"/>
<path d="" fill="#262626" transform="translate(0,0)"/>
<path d="" fill="#222120" transform="translate(0,0)"/>
<path d="" fill="#242523" transform="translate(0,0)"/>
<path d="" fill="#242423" transform="translate(0,0)"/>
<path d="" fill="#232221" transform="translate(0,0)"/>
<path d="" fill="#1F201D" transform="translate(0,0)"/>
<path d="" fill="#242421" transform="translate(0,0)"/>
<path d="" fill="#242321" transform="translate(0,0)"/>
<path d="" fill="#262624" transform="translate(0,0)"/>
<path d="" fill="#262525" transform="translate(0,0)"/>
<path d="" fill="#1E1F1D" transform="translate(0,0)"/>
<path d="" fill="#1F211F" transform="translate(0,0)"/>
<path d="" fill="#222220" transform="translate(0,0)"/>
<path d="" fill="#232420" transform="translate(0,0)"/>
<path d="" fill="#242122" transform="translate(0,0)"/>
<path d="" fill="#222320" transform="translate(0,0)"/>
<path d="" fill="#232522" transform="translate(0,0)"/>
<path d="" fill="#232624" transform="translate(0,0)"/>
<path d="" fill="#232321" transform="translate(0,0)"/>
<path d="" fill="#1E1E1C" transform="translate(0,0)"/>
<path d="" fill="#212222" transform="translate(0,0)"/>
<path d="" fill="#20211D" transform="translate(0,0)"/>
<path d="" fill="#242321" transform="translate(0,0)"/>
<path d="" fill="#262424" transform="translate(0,0)"/>
<path d="" fill="#252624" transform="translate(0,0)"/>
<path d="" fill="#262224" transform="translate(0,0)"/>
<path d="" fill="#232523" transform="translate(0,0)"/>
<path d="" fill="#1E2220" transform="translate(0,0)"/>
<path d="" fill="#201F20" transform="translate(0,0)"/>
<path d="" fill="#201F20" transform="translate(0,0)"/>
<path d="" fill="#232323" transform="translate(0,0)"/>
<path d="" fill="#202123" transform="translate(0,0)"/>
<path d="" fill="#242222" transform="translate(0,0)"/>
<path d="" fill="#262524" transform="translate(0,0)"/>
<path d="" fill="#222223" transform="translate(0,0)"/>
<path d="" fill="#232122" transform="translate(0,0)"/>
<path d="" fill="#202021" transform="translate(0,0)"/>
<path d="" fill="#242324" transform="translate(0,0)"/>
<path d="" fill="#222224" transform="translate(0,0)"/>
<path d="" fill="#252023" transform="translate(0,0)"/>
<path d="" fill="#212021" transform="translate(0,0)"/>
<path d="" fill="#242523" transform="translate(0,0)"/>
<path d="" fill="#202120" transform="translate(0,0)"/>
<path d="" fill="#242421" transform="translate(0,0)"/>
<path d="" fill="#232323" transform="translate(0,0)"/>
<path d="" fill="#222120" transform="translate(0,0)"/>
<path d="" fill="#242222" transform="translate(0,0)"/>
<path d="" fill="#222321" transform="translate(0,0)"/>
<path d="" fill="#1F1F1E" transform="translate(0,0)"/>
<path d="" fill="#1D1D1C" transform="translate(0,0)"/>
<path d="" fill="#1E1F1F" transform="translate(0,0)"/>
<path d="" fill="#242320" transform="translate(0,0)"/>
<path d="" fill="#242323" transform="translate(0,0)"/>
<path d="" fill="#242323" transform="translate(0,0)"/>
<path d="" fill="#212222" transform="translate(0,0)"/>
<path d="" fill="#232521" transform="translate(0,0)"/>
<path d="" fill="#20211F" transform="translate(0,0)"/>
<path d="" fill="#222323" transform="translate(0,0)"/>
<path d="" fill="#202120" transform="translate(0,0)"/>
<path d="" fill="#212121" transform="translate(0,0)"/>
<path d="" fill="#232220" transform="translate(0,0)"/>
<path d="" fill="#242221" transform="translate(0,0)"/>
<path d="" fill="#1D1D1F" transform="translate(0,0)"/>
<path d="" fill="#21211E" transform="translate(0,0)"/>
<path d="" fill="#262222" transform="translate(0,0)"/>
<path d="" fill="#232421" transform="translate(0,0)"/>
<path d="" fill="#202122" transform="translate(0,0)"/>
<path d="" fill="#232423" transform="translate(0,0)"/>
<path d="" fill="#1E1D1C" transform="translate(0,0)"/>
<path d="" fill="#202120" transform="translate(0,0)"/>
<path d="" fill="#232323" transform="translate(0,0)"/>
<path d="" fill="#21211F" transform="translate(0,0)"/>
<path d="" fill="#232222" transform="translate(0,0)"/>
<path d="" fill="#232321" transform="translate(0,0)"/>
<path d="" fill="#252424" transform="translate(0,0)"/>
<path d="" fill="#242322" transform="translate(0,0)"/>
<path d="" fill="#222423" transform="translate(0,0)"/>
<path d="" fill="#232121" transform="translate(0,0)"/>
<path d="" fill="#221F20" transform="translate(0,0)"/>
<path d="" fill="#222220" transform="translate(0,0)"/>
<path d="" fill="#232424" transform="translate(0,0)"/>
<path d="" fill="#262623" transform="translate(0,0)"/>
<path d="" fill="#20211F" transform="translate(0,0)"/>
<path d="" fill="#1E1E1D" transform="translate(0,0)"/>
<path d="" fill="#201E1F" transform="translate(0,0)"/>
<path d="" fill="#252121" transform="translate(0,0)"/>
<path d="" fill="#212120" transform="translate(0,0)"/>
<path d="" fill="#1F1F1F" transform="translate(0,0)"/>
<path d="" fill="#2E2F2E" transform="translate(0,0)"/>
<path d="" fill="#242422" transform="translate(0,0)"/>
<path d="" fill="#20201E" transform="translate(0,0)"/>
<path d="" fill="#242323" transform="translate(0,0)"/>
<path d="" fill="#232221" transform="translate(0,0)"/>
<path d="" fill="#232221" transform="translate(0,0)"/>
<path d="" fill="#252524" transform="translate(0,0)"/>
<path d="" fill="#242421" transform="translate(0,0)"/>
<path d="" fill="#201F1E" transform="translate(0,0)"/>
<path d="" fill="#252524" transform="translate(0,0)"/>
<path d="" fill="#212220" transform="translate(0,0)"/>
<path d="" fill="#222122" transform="translate(0,0)"/>
<path d="" fill="#272526" transform="translate(0,0)"/>
<path d="" fill="#232221" transform="translate(0,0)"/>
<path d="" fill="#272525" transform="translate(0,0)"/>
<path d="" fill="#282829" transform="translate(0,0)"/>
<path d="" fill="#2B2927" transform="translate(0,0)"/>
<path d="" fill="#212222" transform="translate(0,0)"/>
<path d="" fill="#212121" transform="translate(0,0)"/>
<path d="" fill="#29282A" transform="translate(0,0)"/>
<path d="" fill="#232223" transform="translate(0,0)"/>
<path d="" fill="#2B2A2A" transform="translate(0,0)"/>
<path d="" fill="#252524" transform="translate(0,0)"/>
<path d="" fill="#2B2A2B" transform="translate(0,0)"/>
<path d="" fill="#252522" transform="translate(0,0)"/>
<path d="" fill="#201E1E" transform="translate(0,0)"/>
<path d="" fill="#222221" transform="translate(0,0)"/>
<path d="" fill="#242320" transform="translate(0,0)"/>
<path d="" fill="#242323" transform="translate(0,0)"/>
<path d="" fill="#232220" transform="translate(0,0)"/>
<path d="" fill="#262524" transform="translate(0,0)"/>
<path d="" fill="#262623" transform="translate(0,0)"/>
<path d="" fill="#252323" transform="translate(0,0)"/>
<path d="" fill="#252121" transform="translate(0,0)"/>
<path d="" fill="#212221" transform="translate(0,0)"/>
<path d="" fill="#272525" transform="translate(0,0)"/>
<path d="" fill="#222020" transform="translate(0,0)"/>
<path d="" fill="#252523" transform="translate(0,0)"/>
<path d="" fill="#262323" transform="translate(0,0)"/>
<path d="" fill="#222322" transform="translate(0,0)"/>
<path d="" fill="#242423" transform="translate(0,0)"/>
<path d="" fill="#222321" transform="translate(0,0)"/>
<path d="" fill="#232221" transform="translate(0,0)"/>
<path d="" fill="#232422" transform="translate(0,0)"/>
<path d="" fill="#222120" transform="translate(0,0)"/>
<path d="" fill="#262525" transform="translate(0,0)"/>
<path d="" fill="#292724" transform="translate(0,0)"/>
<path d="" fill="#222021" transform="translate(0,0)"/>
<path d="" fill="#252324" transform="translate(0,0)"/>
<path d="" fill="#252424" transform="translate(0,0)"/>
<path d="" fill="#262622" transform="translate(0,0)"/>
<path d="" fill="#272525" transform="translate(0,0)"/>
<path d="" fill="#252221" transform="translate(0,0)"/>
<path d="" fill="#232626" transform="translate(0,0)"/>
<path d="" fill="#262625" transform="translate(0,0)"/>
<path d="" fill="#282724" transform="translate(0,0)"/>
<path d="" fill="#212320" transform="translate(0,0)"/>
<path d="" fill="#282626" transform="translate(0,0)"/>
<path d="" fill="#222421" transform="translate(0,0)"/>
<path d="" fill="#222221" transform="translate(0,0)"/>
<path d="" fill="#242221" transform="translate(0,0)"/>
<path d="" fill="#232221" transform="translate(0,0)"/>
<path d="" fill="#242122" transform="translate(0,0)"/>
<path d="" fill="#242424" transform="translate(0,0)"/>
<path d="" fill="#262624" transform="translate(0,0)"/>
<path d="" fill="#242222" transform="translate(0,0)"/>
<path d="" fill="#282424" transform="translate(0,0)"/>
<path d="" fill="#262724" transform="translate(0,0)"/>
<path d="" fill="#252724" transform="translate(0,0)"/>
<path d="" fill="#242322" transform="translate(0,0)"/>
<path d="" fill="#262925" transform="translate(0,0)"/>
<path d="" fill="#232220" transform="translate(0,0)"/>
<path d="" fill="#252524" transform="translate(0,0)"/>
<path d="" fill="#252826" transform="translate(0,0)"/>
<path d="" fill="#222320" transform="translate(0,0)"/>
<path d="" fill="#212122" transform="translate(0,0)"/>
<path d="" fill="#232122" transform="translate(0,0)"/>
<path d="" fill="#272627" transform="translate(0,0)"/>
<path d="" fill="#20201F" transform="translate(0,0)"/>
<path d="" fill="#222120" transform="translate(0,0)"/>
<path d="" fill="#211F1F" transform="translate(0,0)"/>
<path d="" fill="#21211F" transform="translate(0,0)"/>
<path d="" fill="#212320" transform="translate(0,0)"/>
<path d="" fill="#1F1F1D" transform="translate(0,0)"/>
<path d="" fill="#232220" transform="translate(0,0)"/>
<path d="" fill="#262624" transform="translate(0,0)"/>
<path d="" fill="#232223" transform="translate(0,0)"/>
<path d="" fill="#272626" transform="translate(0,0)"/>
<path d="" fill="#232222" transform="translate(0,0)"/>
<path d="" fill="#262525" transform="translate(0,0)"/>
<path d="" fill="#222323" transform="translate(0,0)"/>
<path d="" fill="#262726" transform="translate(0,0)"/>
<path d="" fill="#252726" transform="translate(0,0)"/>
<path d="" fill="#373738" transform="translate(0,0)"/>
<path d="" fill="#212121" transform="translate(0,0)"/>
<path d="" fill="#262624" transform="translate(0,0)"/>
<path d="" fill="#282724" transform="translate(0,0)"/>
<path d="" fill="#262725" transform="translate(0,0)"/>
<path d="" fill="#262624" transform="translate(0,0)"/>
<path d="" fill="#282725" transform="translate(0,0)"/>
<path d="" fill="#2A2927" transform="translate(0,0)"/>
<path d="" fill="#2B2B2A" transform="translate(0,0)"/>
<path d="" fill="#2A2B29" transform="translate(0,0)"/>
<path d="" fill="#2B2B2B" transform="translate(0,0)"/>
<path d="" fill="#292A2A" transform="translate(0,0)"/>
<path d="" fill="#2A2929" transform="translate(0,0)"/>
</svg>
