<?xml version="1.0" encoding="UTF-8"?>
<svg version="1.1" xmlns="http://www.w3.org/2000/svg" width="1024" height="1024">
<path d="M0 0 C1.95679688 0.19916016 1.95679688 0.19916016 3.953125 0.40234375 C13.29650771 1.34812436 22.6362922 2.2767868 32 3 C32 3.66 32 4.32 32 5 C33.08796875 5.09410156 34.1759375 5.18820312 35.296875 5.28515625 C56.69957569 7.99572655 78.74599938 19.40184082 96 32 C97.41732422 33.00933594 97.41732422 33.00933594 98.86328125 34.0390625 C114.28744077 45.2752052 128.21631637 57.97467466 140 73 C140.68884277 73.86625 140.68884277 73.86625 141.39160156 74.75 C175.08689076 117.30298061 190.10620214 168.519203 187.14355469 222.34960938 C185.73601831 248.33636934 199.12530602 265.1058683 212.93870544 285.94337463 C214.82487042 288.79081104 216.70684965 291.64100341 218.58859253 294.49136353 C219.9720458 296.58274141 221.36198577 298.66970265 222.75219727 300.7565918 C236.39640771 321.34227219 236.39640771 321.34227219 235 330 C232.51258745 335.78569968 228.42790944 340.77989032 223 344 C218.74393878 345.629496 214.39652828 346.8118846 210 348 C199.3443831 350.96770662 199.3443831 350.96770662 191.89453125 358.66015625 C190.59828005 362.05078713 190.75058564 365.36276034 190.8125 368.9375 C190.81314453 369.64068359 190.81378906 370.34386719 190.81445312 371.06835938 C190.84631225 374.84543511 191.17966303 378.32091298 192 382 C192.82455354 388.60686574 192.24591122 393.10183021 188.9375 398.9375 C185.8606082 404.48164303 185.77724557 407.93286168 186.69140625 414.10546875 C187.32376464 420.03683035 185.79255115 426.72518115 183 432 C181.68671343 433.35308313 180.35500919 434.68870078 179 436 C178.04218145 438.87345565 177.90547863 440.5309298 177.97265625 443.5 C177.9866748 444.38187988 178.00069336 445.26375977 178.01513672 446.17236328 C178.0307666 447.1054834 178.04639648 448.03860352 178.0625 449 C178.13636362 462.23054112 177.34131334 473.65043762 168.1796875 484.0703125 C154.25731983 497.09082639 136.09821024 498.46223327 118 498 C114.81114988 497.85623475 111.6244809 497.68009112 108.4375 497.5 C87.14044388 495.98646085 87.14044388 495.98646085 67.9375 504.22265625 C55.45803557 515.67055205 56.26123634 539.33197691 55.5 555.125 C55.47663574 555.79885742 55.45327148 556.47271484 55.42919922 557.16699219 C55.16297817 563.2915976 54.61670923 569.04293093 50.625 573.875 C45.74292428 577.82715653 41.84106758 578.37767846 35.63235474 578.61691284 C34.79517446 578.6545285 33.95799418 578.69214416 33.0954448 578.73089969 C23.02699178 579.14290569 12.95741495 579.14026971 2.88232422 579.12939453 C0.73651602 579.13075335 -1.40929195 579.13253597 -3.55509949 579.13470459 C-9.3209296 579.13921898 -15.08674159 579.13751506 -20.85257196 579.1343255 C-26.91147055 579.13177393 -32.9703677 579.13414687 -39.02926636 579.13571167 C-49.1881335 579.13752386 -59.34699334 579.13515063 -69.50585938 579.13037109 C-81.23661955 579.12491563 -92.96736238 579.12670426 -104.69812214 579.1321975 C-114.80132385 579.13673828 -124.90452034 579.13737488 -135.00772274 579.13475883 C-141.02890551 579.13320326 -147.05008012 579.13298283 -153.07126236 579.13629532 C-158.72341283 579.13918857 -164.37554092 579.13717162 -170.02768898 579.13140106 C-172.09767304 579.1300819 -174.16765899 579.13045322 -176.23764229 579.13266373 C-179.06894535 579.13540807 -181.90017726 579.13195426 -184.73147583 579.12698364 C-185.54441766 579.12921436 -186.35735949 579.13144509 -187.19493592 579.13374341 C-203.073447 579.07990257 -203.073447 579.07990257 -209 574 C-211.93690544 570.47571347 -212.28768523 567.69150398 -212.2142334 563.15411377 C-211.86534428 559.64603864 -210.55942687 556.58287753 -209.140625 553.3984375 C-208.68981819 552.33851089 -208.68981819 552.33851089 -208.22990417 551.25717163 C-207.58430483 549.74343717 -206.9322805 548.23242938 -206.27438354 546.72399902 C-204.88170542 543.53046904 -203.52053282 540.32382236 -202.1572113 537.11767578 C-201.45957972 535.47798917 -200.76032201 533.8389935 -200.0594635 532.20068359 C-195.22584541 520.89098391 -190.69745009 509.45921241 -186.18945312 498.01660156 C-185.19105705 495.48454452 -184.18271433 492.95678583 -183.171875 490.4296875 C-167.23787661 449.99653827 -163.75961986 414.49195113 -181.0703125 374.26171875 C-186.58221509 361.85852751 -193.58092758 350.16327938 -200.26538086 338.37084961 C-227 291.18818819 -227 291.18818819 -227 280 C-227.66 279.67 -228.32 279.34 -229 279 C-229.72906252 276.70253407 -230.33089706 274.46774232 -230.875 272.125 C-231.04499512 271.40884521 -231.21499023 270.69269043 -231.39013672 269.95483398 C-231.75093871 268.41902347 -232.1070688 266.88210935 -232.45898438 265.34423828 C-232.97974806 263.08775232 -233.52766209 260.83923539 -234.078125 258.58984375 C-243.44871377 218.90544356 -239.83472077 177.09214222 -226 139 C-223 139 -223 139 -221.16015625 140.80859375 C-218.73673443 143.84576859 -216.34295243 146.90054833 -214 150 C-213.53352051 150.61085449 -213.06704102 151.22170898 -212.58642578 151.85107422 C-189.80489666 181.95932628 -179.55581171 214.36242724 -180.0625 251.9375 C-180.3298418 274.2071744 -180.3298418 274.2071744 -171.875 294.4375 C-169.07648823 296.93182571 -167.56477078 297.6346391 -164.125 298.8125 C-158.22929676 300.88658722 -155.10450159 304.67506019 -152 310 C-152 310.66 -152 311.32 -152 312 C-151.34 312 -150.68 312 -150 312 C-149.38125 312.70125 -148.7625 313.4025 -148.125 314.125 C-139.48801227 323.01453123 -125.67565959 325.96108527 -113.74169922 326.3515625 C-96.49155133 326.53708952 -81.7556242 322.15521582 -69.03125 310.17578125 C-66.81632341 307.9532825 -66.81632341 307.9532825 -65 304.6875 C-62.73210702 301.6400188 -61.67835222 301.33397581 -58.1875 300.125 C-52.45774651 298.04912466 -49.17202183 295.20515284 -46 290 C-42.35075732 281.62231788 -40.81273113 273.35859724 -41.0078125 264.23046875 C-41.02682617 262.94197021 -41.04583984 261.65347168 -41.06542969 260.32592773 C-41.08107971 259.31355545 -41.08107971 259.31355545 -41.0970459 258.2807312 C-41.36825322 237.9724547 -40.51685959 217.40941935 -34 198 C-33.65324219 196.94683594 -33.30648437 195.89367187 -32.94921875 194.80859375 C-28.12734208 181.30402507 -21.21055116 168.96693592 -12.45458984 157.64501953 C-9.8623615 154.67062715 -9.8623615 154.67062715 -9 151 C-7.66666667 149.66666667 -6.33333333 148.33333333 -5 147 C15.84400259 117.04769376 25.12743713 81.17118372 19 45 C16.10629739 30.03982407 11.06970044 11.06970044 0 0 Z " fill="currentColor" transform="translate(585,296)"/>
<path d="M0 0 C1.9140625 2.03125 1.9140625 2.03125 1.9140625 4.03125 C2.5740625 4.03125 3.2340625 4.03125 3.9140625 4.03125 C5.55597621 5.8684843 7.05406643 7.69699256 8.5390625 9.65625 C8.9827417 10.23947021 9.4264209 10.82269043 9.88354492 11.42358398 C27.23407602 34.73068515 35.01643016 62.71677831 31.41796875 91.65625 C27.68525166 116.5016203 16.06723959 135.47611658 0.58349609 154.68164062 C-11.48946326 169.73539866 -18.54075513 187.00016124 -22.578125 205.77734375 C-22.95686768 207.52942139 -22.95686768 207.52942139 -23.34326172 209.31689453 C-23.82967128 211.62678033 -24.2931548 213.94164088 -24.73095703 216.26123047 C-26.58038278 225.20260193 -26.58038278 225.20260193 -30.1484375 228.23046875 C-34.7133682 231.02891696 -37.86504594 231.1849271 -43.12817383 231.19238281 C-43.95924149 231.19734772 -44.79030914 231.20231262 -45.64656067 231.20742798 C-48.40370504 231.22206662 -51.16079186 231.22885477 -53.91796875 231.234375 C-55.83127342 231.24012549 -57.74457806 231.24588324 -59.65788269 231.25164795 C-63.67369862 231.26216308 -67.6894945 231.26800225 -71.70532227 231.27148438 C-76.85029153 231.27696714 -81.99499588 231.30098838 -87.13988209 231.32945633 C-91.0938545 231.34808447 -95.04776316 231.35328843 -99.00177574 231.35482025 C-100.898388 231.35784741 -102.79499913 231.36587808 -104.69156837 231.37900543 C-107.34642265 231.39606799 -110.00063065 231.39418511 -112.65551758 231.38769531 C-113.43856262 231.3969101 -114.22160767 231.40612488 -115.02838135 231.4156189 C-119.57843008 231.38079219 -122.45546429 230.81602452 -126.0859375 228.03125 C-129.6768692 224.33772025 -130.86884081 220.99325957 -132.0859375 216.03125 C-132.4159375 215.37125 -132.7459375 214.71125 -133.0859375 214.03125 C-133.240625 212.2678125 -133.240625 212.2678125 -133.3984375 210.46875 C-135.86652888 187.17146319 -145.49268073 167.92605304 -159.88500977 149.74169922 C-180.44452175 123.6210303 -189.63176404 93.36532845 -186.4609375 60.21875 C-183.91270347 40.21964145 -174.6300154 22.52005598 -162.0859375 7.03125 C-161.48136719 6.27328125 -160.87679688 5.5153125 -160.25390625 4.734375 C-158.92374136 3.11616953 -157.51397407 1.56377705 -156.0859375 0.03125 C-155.4259375 0.03125 -154.7659375 0.03125 -154.0859375 0.03125 C-153.85390625 -0.54238281 -153.621875 -1.11601562 -153.3828125 -1.70703125 C-144.7729703 -16.72238858 -119.98823737 -26.37765419 -104.1484375 -30.78125 C-102.13620111 -31.21869269 -100.11383889 -31.61088505 -98.0859375 -31.96875 C-97.45171875 -32.08089844 -96.8175 -32.19304687 -96.1640625 -32.30859375 C-59.69844923 -38.40904409 -26.66582523 -24.28357571 0 0 Z " fill="currentColor" transform="translate(552.0859375,286.96875)"/>
<path d="M0 0 C1.18632774 -0.00306656 1.18632774 -0.00306656 2.3966217 -0.00619507 C5.00301472 -0.00919553 7.60877035 0.00925463 10.21508789 0.02832031 C12.03202661 0.03137991 13.84896767 0.0332545 15.66590881 0.03399658 C19.4713745 0.03859537 23.27662808 0.05300313 27.08203125 0.07519531 C31.95208496 0.10345697 36.82197164 0.11440565 41.69209957 0.11887741 C45.44366617 0.12304163 49.19519928 0.1328678 52.94674873 0.1447525 C54.74203793 0.15043713 56.5373303 0.15520174 58.33262444 0.15901947 C60.84550442 0.16592129 63.35825545 0.17957264 65.87109375 0.1953125 C66.60842743 0.19643036 67.34576111 0.19754822 68.10543823 0.19869995 C72.16422241 0.23224093 76.03891873 0.43733773 80.00024414 1.35644531 C81.18774414 3.04394531 81.18774414 3.04394531 82.00024414 5.35644531 C82.50297852 6.17886719 83.00571289 7.00128906 83.52368164 7.84863281 C85.5153999 12.58028096 85.47690456 16.71377033 85.43774414 21.79394531 C85.45772461 22.70982422 85.47770508 23.62570312 85.49829102 24.56933594 C85.49388627 30.70514443 84.65283629 34.38147358 81.00024414 39.35644531 C78.21863214 42.00907127 75.69820712 42.88636598 72.00024414 43.79394531 C67.90887912 44.98002185 65.50059463 45.74482793 63.00024414 49.35644531 C61.86579083 51.86396389 60.74885471 54.35995094 59.73461914 56.91894531 C57.10761111 60.6109566 54.27337727 62.18707716 50.00024414 63.35644531 C45.19417379 63.8294584 40.45276925 63.89107534 35.62719727 63.82299805 C33.373198 63.79391891 31.12154012 63.80243841 28.86743164 63.81542969 C16.38573389 63.76167613 16.38573389 63.76167613 11.00024414 60.35644531 C9.63996893 58.02898898 8.53069091 55.85775734 7.43774414 53.41894531 C5.35382693 49.24793661 3.91803946 46.84035398 -0.29663086 44.61816406 C-3.75898892 43.57029161 -3.75898892 43.57029161 -7.14428711 42.93457031 C-9.99975586 42.35644531 -9.99975586 42.35644531 -12.99975586 40.35644531 C-12.99975586 39.69644531 -12.99975586 39.03644531 -12.99975586 38.35644531 C-13.65975586 38.35644531 -14.31975586 38.35644531 -14.99975586 38.35644531 C-18.86039562 29.95758412 -19.13383338 18.33942277 -16.99975586 9.35644531 C-13.08390733 1.66459999 -8.30134347 -0.1034615 0 0 Z " fill="currentColor" transform="translate(439.999755859375,534.6435546875)"/>
<path d="M0 0 C6.61242285 6.97977967 5.69192898 15.49604875 5.6484375 24.50390625 C5.65046126 25.98168582 5.65337521 27.45946442 5.65713501 28.9372406 C5.66154281 32.02458261 5.6551766 35.11166314 5.64111328 38.19897461 C5.62400696 42.14544475 5.63388107 46.09130336 5.65183067 50.0377512 C5.66269771 53.08591783 5.65920912 56.13394066 5.6514473 59.18211174 C5.64945412 60.63689179 5.65187339 62.09168514 5.65888596 63.54644966 C5.66654946 65.58247738 5.65278776 67.61855125 5.63818359 69.65454102 C5.63579681 70.81035172 5.63341003 71.96616241 5.63095093 73.15699768 C5.06242165 77.95952837 3.3542355 81.24009129 0 84.6875 C-3.43542624 86.79560246 -5.7178164 87.30547959 -9.75 87.375 C-14.96230653 85.78480479 -17.73116952 83.90324572 -20.75 79.375 C-22.18574013 76.50351974 -21.89318603 74.02668102 -21.91113281 70.81738281 C-21.91609772 70.14397858 -21.92106262 69.47057434 -21.92617798 68.77676392 C-21.94080895 66.54387394 -21.94760426 64.31105508 -21.953125 62.078125 C-21.95887712 60.52593992 -21.96463484 58.97375486 -21.97039795 57.42156982 C-21.98091158 54.16320464 -21.9867514 50.90486414 -21.99023438 47.64648438 C-21.99571004 43.47910058 -22.01971638 39.31204501 -22.04820633 35.14476395 C-22.06687019 31.93620872 -22.07204037 28.72773181 -22.07357025 25.51912689 C-22.0765905 23.98338788 -22.08459783 22.44765004 -22.09775543 20.91196442 C-22.11488967 18.75779119 -22.11291787 16.60440981 -22.10644531 14.45019531 C-22.11009094 13.22600891 -22.11373657 12.00182251 -22.11749268 10.74053955 C-21.70723169 6.98332299 -20.71095212 4.58828295 -18.75 1.375 C-12.75385558 -3.08367149 -6.66190905 -3.93658262 0 0 Z " fill="currentColor" transform="translate(481.75,132.625)"/>
<path d="M0 0 C3.19491572 2.55593257 4.79870044 4.71657828 5.578125 8.79296875 C6.01299065 14.53517193 4.4552651 17.67830114 0.78125 22.01953125 C-0.00765625 22.87611328 -0.00765625 22.87611328 -0.8125 23.75 C-1.555 24.575 -2.2975 25.4 -3.0625 26.25 C-4.8125 27.75 -4.8125 27.75 -6.8125 27.75 C-7.4725 29.07 -8.1325 30.39 -8.8125 31.75 C-9.4725 31.75 -10.1325 31.75 -10.8125 31.75 C-11.0293042 32.29277588 -11.2461084 32.83555176 -11.46948242 33.39477539 C-13.2721531 36.55608497 -15.72368366 38.9075722 -18.30078125 41.43359375 C-18.84099411 41.97097672 -19.38120697 42.50835968 -19.93778992 43.06202698 C-21.66220706 44.77528546 -23.39343629 46.48146776 -25.125 48.1875 C-26.27845552 49.33091562 -27.43145523 50.47479125 -28.58398438 51.61914062 C-30.71373713 53.73260721 -32.84614835 55.84331074 -34.98168945 57.95092773 C-36.83091902 59.77942424 -38.66124742 61.62729116 -40.46948242 63.49633789 C-44.33649276 67.21587237 -47.94627484 68.75 -53.3125 68.75 C-57.59324633 67.52692962 -60.89771801 66.20516292 -63.8125 62.75 C-65.47684954 58.21549665 -65.18544069 54.84041931 -63.6328125 50.30078125 C-61.68762187 46.50640725 -59.65804967 44.22214375 -56.5625 41.3125 C-53.49258577 38.40301914 -50.57667755 35.52143083 -47.8359375 32.30078125 C-42.70557744 26.3633588 -37.13344802 20.84786128 -31.59619141 15.29345703 C-29.67797862 13.3654299 -27.7706935 11.4269866 -25.86328125 9.48828125 C-24.63607499 8.25455315 -23.40823276 7.02145724 -22.1796875 5.7890625 C-21.61498749 5.21201569 -21.05028748 4.63496887 -20.46847534 4.04043579 C-14.11300041 -2.27956096 -8.30171131 -3.68964947 0 0 Z " fill="currentColor" transform="translate(643.8125,192.25)"/>
<path d="M0 0 C2.16293973 2.06576204 4.09524287 4.31376843 6.046875 6.578125 C9.92510565 11.02949569 13.94434361 15.33551086 18 19.625 C18.68964844 20.35783203 19.37929688 21.09066406 20.08984375 21.84570312 C22.96752381 24.89670426 25.84286261 27.92582742 28.8671875 30.83203125 C30.875 32.9375 30.875 32.9375 30.875 34.9375 C31.535 34.9375 32.195 34.9375 32.875 34.9375 C34.73579482 36.7842334 36.37047724 38.7798571 38.05859375 40.78515625 C39.14360073 42.07083119 40.2533947 43.3370771 41.41015625 44.55859375 C44.80853837 48.21457918 45.96109338 50.94408379 45.875 55.9375 C44.58164983 60.44309242 42.56590958 63.8787528 38.625 66.5 C34.40723666 68.54552471 31.37309346 68.02574842 26.875 66.9375 C22.3760144 65.07206695 19.78714697 61.72076078 16.72265625 58.0703125 C14.35603533 55.33844142 11.78542085 52.86383179 9.16015625 50.3828125 C7.875 48.9375 7.875 48.9375 7.875 46.9375 C7.215 46.9375 6.555 46.9375 5.875 46.9375 C4.4362793 45.49291992 4.4362793 45.49291992 2.76171875 43.48046875 C-1.77597513 38.14359543 -6.59747077 33.10040465 -11.42773438 28.02929688 C-22.51844969 16.32653447 -22.51844969 16.32653447 -22.40234375 8.328125 C-21.93304934 4.28293936 -20.63152663 2.16960013 -18.125 -1.0625 C-12.22038679 -4.35809807 -5.51251473 -3.63825972 0 0 Z " fill="currentColor" transform="translate(322.125,193.0625)"/>
<path d="M0 0 C2.0020501 0.32079042 4.00173966 0.65639164 6 1 C7.90001477 1.0658584 9.80211025 1.08565957 11.703125 1.0625 C12.76660156 1.05476563 13.83007812 1.04703125 14.92578125 1.0390625 C17.12630425 1.01320442 19.32682513 0.98716537 21.52734375 0.9609375 C41.4078692 0.8170495 41.4078692 0.8170495 47 6 C49.17147636 9.7125241 49.98573748 12.20129874 50.0625 16.5 C48.69987893 20.98863411 46.39278429 23.81420255 43 27 C39.19412661 28.90293669 34.5681238 28.40623452 30.375 28.5625 C29.28501709 28.6042334 28.19503418 28.6459668 27.07202148 28.68896484 C17.7354041 29.0090028 8.40363555 29.10857585 -0.9375 29.125 C-1.95532562 29.12888229 -1.95532562 29.12888229 -2.99371338 29.13284302 C-25.74053863 29.2014136 -25.74053863 29.2014136 -31.72265625 23.47265625 C-35.08352149 19.59789724 -34.28335401 14.85530921 -34 10 C-33.21711073 6.32042041 -32.5837708 5.40863956 -29.5 3.25 C-21.31174718 0.32562399 -12.61228529 0.92527816 -4.02734375 1.0625 C-1.12119986 1.35198683 -1.12119986 1.35198683 0 0 Z " fill="currentColor" transform="translate(272,347)"/>
<path d="M0 0 C4.62 0 9.24 0 14 0 C14 0.33 14 0.66 14 1 C9.38 1 4.76 1 0 1 C0 0.67 0 0.34 0 0 Z " fill="currentColor" transform="translate(472,599)"/>
<path d="M0 0 C0.33 1.32 0.66 2.64 1 4 C0.34 3.34 -0.32 2.68 -1 2 C-0.67 1.34 -0.34 0.68 0 0 Z " fill="currentColor" transform="translate(421,564)"/>
<path d="M0 0 C0 3 0 3 0 3 Z " fill="currentColor" transform="translate(593,312)"/>
<path d="M0 0 C3 1 3 1 3 1 Z " fill="currentColor" transform="translate(468,599)"/>
<path d="M0 0 C3 1 3 1 3 1 Z " fill="currentColor" transform="translate(463,599)"/>
<path d="M0 0 C3 1 3 1 3 1 Z " fill="currentColor" transform="translate(459,599)"/>
<path d="M0 0 C0.66 0.66 1.32 1.32 2 2 C1.34 2 0.68 2 0 2 C0 1.34 0 0.68 0 0 Z " fill="currentColor" transform="translate(442,581)"/>
<path d="M0 0 C0.99 0.495 0.99 0.495 2 1 C1.01 1.495 1.01 1.495 0 2 C0 1.34 0 0.68 0 0 Z " fill="currentColor" transform="translate(377,419)"/>
<path d="M0 0 C0.66 0 1.32 0 2 0 C1.67 0.66 1.34 1.32 1 2 C0.67 1.34 0.34 0.68 0 0 Z " fill="currentColor" transform="translate(376,416)"/>
<path d="" fill="currentColor" transform="translate(0,0)"/>
<path d="" fill="currentColor" transform="translate(0,0)"/>
<path d="M0 0 C2 1 2 1 2 1 Z " fill="currentColor" transform="translate(508,519)"/>
<path d="M0 0 C2 1 2 1 2 1 Z " fill="currentColor" transform="translate(417,496)"/>
<path d="" fill="currentColor" transform="translate(0,0)"/>
<path d="" fill="currentColor" transform="translate(0,0)"/>
<path d="" fill="currentColor" transform="translate(0,0)"/>
<path d="" fill="currentColor" transform="translate(0,0)"/>
<path d="M0 0 C2 1 2 1 2 1 Z " fill="currentColor" transform="translate(408,272)"/>
<path d="M0 0 C2 1 2 1 2 1 Z " fill="currentColor" transform="translate(423,264)"/>
<path d="" fill="currentColor" transform="translate(0,0)"/>
<path d="" fill="currentColor" transform="translate(0,0)"/>
<path d="" fill="currentColor" transform="translate(0,0)"/>
<path d="" fill="currentColor" transform="translate(0,0)"/>
<path d="" fill="currentColor" transform="translate(0,0)"/>
<path d="" fill="currentColor" transform="translate(0,0)"/>
<path d="" fill="currentColor" transform="translate(0,0)"/>
<path d="" fill="currentColor" transform="translate(0,0)"/>
<path d="" fill="currentColor" transform="translate(0,0)"/>
<path d="" fill="currentColor" transform="translate(0,0)"/>
<path d="" fill="currentColor" transform="translate(0,0)"/>
<path d="" fill="currentColor" transform="translate(0,0)"/>
<path d="" fill="currentColor" transform="translate(0,0)"/>
<path d="" fill="currentColor" transform="translate(0,0)"/>
<path d="" fill="currentColor" transform="translate(0,0)"/>
<path d="" fill="currentColor" transform="translate(0,0)"/>
<path d="" fill="currentColor" transform="translate(0,0)"/>
<path d="" fill="currentColor" transform="translate(0,0)"/>
<path d="" fill="currentColor" transform="translate(0,0)"/>
<path d="" fill="currentColor" transform="translate(0,0)"/>
<path d="" fill="currentColor" transform="translate(0,0)"/>
<path d="" fill="currentColor" transform="translate(0,0)"/>
<path d="" fill="currentColor" transform="translate(0,0)"/>
<path d="" fill="currentColor" transform="translate(0,0)"/>
<path d="" fill="currentColor" transform="translate(0,0)"/>
<path d="" fill="currentColor" transform="translate(0,0)"/>
<path d="" fill="currentColor" transform="translate(0,0)"/>
<path d="" fill="currentColor" transform="translate(0,0)"/>
<path d="" fill="currentColor" transform="translate(0,0)"/>
<path d="" fill="currentColor" transform="translate(0,0)"/>
<path d="" fill="currentColor" transform="translate(0,0)"/>
<path d="" fill="currentColor" transform="translate(0,0)"/>
<path d="" fill="currentColor" transform="translate(0,0)"/>
<path d="" fill="currentColor" transform="translate(0,0)"/>
<path d="" fill="currentColor" transform="translate(0,0)"/>
<path d="" fill="currentColor" transform="translate(0,0)"/>
<path d="" fill="currentColor" transform="translate(0,0)"/>
<path d="" fill="currentColor" transform="translate(0,0)"/>
<path d="" fill="currentColor" transform="translate(0,0)"/>
<path d="" fill="currentColor" transform="translate(0,0)"/>
<path d="" fill="currentColor" transform="translate(0,0)"/>
<path d="" fill="currentColor" transform="translate(0,0)"/>
<path d="" fill="currentColor" transform="translate(0,0)"/>
<path d="" fill="currentColor" transform="translate(0,0)"/>
<path d="" fill="currentColor" transform="translate(0,0)"/>
<path d="" fill="currentColor" transform="translate(0,0)"/>
<path d="" fill="currentColor" transform="translate(0,0)"/>
<path d="" fill="currentColor" transform="translate(0,0)"/>
<path d="" fill="currentColor" transform="translate(0,0)"/>
<path d="" fill="currentColor" transform="translate(0,0)"/>
<path d="" fill="currentColor" transform="translate(0,0)"/>
<path d="" fill="currentColor" transform="translate(0,0)"/>
<path d="" fill="currentColor" transform="translate(0,0)"/>
<path d="" fill="currentColor" transform="translate(0,0)"/>
<path d="" fill="currentColor" transform="translate(0,0)"/>
<path d="" fill="currentColor" transform="translate(0,0)"/>
<path d="" fill="currentColor" transform="translate(0,0)"/>
<path d="" fill="currentColor" transform="translate(0,0)"/>
<path d="" fill="currentColor" transform="translate(0,0)"/>
<path d="" fill="currentColor" transform="translate(0,0)"/>
<path d="" fill="currentColor" transform="translate(0,0)"/>
<path d="" fill="currentColor" transform="translate(0,0)"/>
<path d="" fill="currentColor" transform="translate(0,0)"/>
<path d="" fill="currentColor" transform="translate(0,0)"/>
<path d="" fill="currentColor" transform="translate(0,0)"/>
<path d="" fill="currentColor" transform="translate(0,0)"/>
<path d="" fill="currentColor" transform="translate(0,0)"/>
<path d="" fill="currentColor" transform="translate(0,0)"/>
<path d="" fill="currentColor" transform="translate(0,0)"/>
<path d="" fill="currentColor" transform="translate(0,0)"/>
<path d="" fill="currentColor" transform="translate(0,0)"/>
<path d="" fill="currentColor" transform="translate(0,0)"/>
<path d="" fill="currentColor" transform="translate(0,0)"/>
<path d="" fill="currentColor" transform="translate(0,0)"/>
<path d="" fill="currentColor" transform="translate(0,0)"/>
<path d="" fill="currentColor" transform="translate(0,0)"/>
<path d="" fill="currentColor" transform="translate(0,0)"/>
<path d="" fill="currentColor" transform="translate(0,0)"/>
<path d="" fill="currentColor" transform="translate(0,0)"/>
<path d="" fill="currentColor" transform="translate(0,0)"/>
<path d="" fill="currentColor" transform="translate(0,0)"/>
<path d="" fill="currentColor" transform="translate(0,0)"/>
<path d="" fill="currentColor" transform="translate(0,0)"/>
<path d="" fill="currentColor" transform="translate(0,0)"/>
<path d="" fill="currentColor" transform="translate(0,0)"/>
<path d="" fill="currentColor" transform="translate(0,0)"/>
<path d="" fill="currentColor" transform="translate(0,0)"/>
<path d="" fill="currentColor" transform="translate(0,0)"/>
<path d="" fill="currentColor" transform="translate(0,0)"/>
<path d="" fill="currentColor" transform="translate(0,0)"/>
<path d="" fill="currentColor" transform="translate(0,0)"/>
<path d="" fill="currentColor" transform="translate(0,0)"/>
<path d="" fill="currentColor" transform="translate(0,0)"/>
<path d="" fill="currentColor" transform="translate(0,0)"/>
<path d="" fill="currentColor" transform="translate(0,0)"/>
<path d="" fill="currentColor" transform="translate(0,0)"/>
<path d="" fill="currentColor" transform="translate(0,0)"/>
<path d="" fill="currentColor" transform="translate(0,0)"/>
<path d="" fill="currentColor" transform="translate(0,0)"/>
<path d="" fill="currentColor" transform="translate(0,0)"/>
<path d="" fill="currentColor" transform="translate(0,0)"/>
<path d="" fill="currentColor" transform="translate(0,0)"/>
<path d="" fill="currentColor" transform="translate(0,0)"/>
<path d="" fill="currentColor" transform="translate(0,0)"/>
<path d="" fill="currentColor" transform="translate(0,0)"/>
<path d="" fill="currentColor" transform="translate(0,0)"/>
<path d="" fill="currentColor" transform="translate(0,0)"/>
<path d="" fill="currentColor" transform="translate(0,0)"/>
<path d="" fill="currentColor" transform="translate(0,0)"/>
<path d="" fill="currentColor" transform="translate(0,0)"/>
<path d="" fill="currentColor" transform="translate(0,0)"/>
<path d="" fill="currentColor" transform="translate(0,0)"/>
<path d="" fill="currentColor" transform="translate(0,0)"/>
<path d="" fill="currentColor" transform="translate(0,0)"/>
<path d="" fill="currentColor" transform="translate(0,0)"/>
<path d="" fill="currentColor" transform="translate(0,0)"/>
<path d="" fill="currentColor" transform="translate(0,0)"/>
<path d="" fill="currentColor" transform="translate(0,0)"/>
<path d="" fill="currentColor" transform="translate(0,0)"/>
<path d="" fill="currentColor" transform="translate(0,0)"/>
<path d="" fill="currentColor" transform="translate(0,0)"/>
<path d="" fill="currentColor" transform="translate(0,0)"/>
<path d="" fill="currentColor" transform="translate(0,0)"/>
<path d="" fill="currentColor" transform="translate(0,0)"/>
<path d="" fill="currentColor" transform="translate(0,0)"/>
<path d="" fill="currentColor" transform="translate(0,0)"/>
<path d="" fill="currentColor" transform="translate(0,0)"/>
<path d="" fill="currentColor" transform="translate(0,0)"/>
<path d="" fill="currentColor" transform="translate(0,0)"/>
<path d="" fill="currentColor" transform="translate(0,0)"/>
<path d="" fill="currentColor" transform="translate(0,0)"/>
<path d="" fill="currentColor" transform="translate(0,0)"/>
<path d="" fill="currentColor" transform="translate(0,0)"/>
<path d="" fill="currentColor" transform="translate(0,0)"/>
<path d="" fill="currentColor" transform="translate(0,0)"/>
<path d="" fill="currentColor" transform="translate(0,0)"/>
<path d="" fill="currentColor" transform="translate(0,0)"/>
<path d="" fill="currentColor" transform="translate(0,0)"/>
<path d="" fill="currentColor" transform="translate(0,0)"/>
<path d="" fill="currentColor" transform="translate(0,0)"/>
<path d="" fill="currentColor" transform="translate(0,0)"/>
<path d="" fill="currentColor" transform="translate(0,0)"/>
<path d="" fill="currentColor" transform="translate(0,0)"/>
<path d="" fill="currentColor" transform="translate(0,0)"/>
<path d="" fill="currentColor" transform="translate(0,0)"/>
<path d="" fill="currentColor" transform="translate(0,0)"/>
<path d="" fill="currentColor" transform="translate(0,0)"/>
<path d="" fill="currentColor" transform="translate(0,0)"/>
<path d="" fill="currentColor" transform="translate(0,0)"/>
<path d="" fill="currentColor" transform="translate(0,0)"/>
<path d="" fill="currentColor" transform="translate(0,0)"/>
<path d="" fill="currentColor" transform="translate(0,0)"/>
<path d="" fill="currentColor" transform="translate(0,0)"/>
<path d="" fill="currentColor" transform="translate(0,0)"/>
<path d="" fill="currentColor" transform="translate(0,0)"/>
<path d="" fill="currentColor" transform="translate(0,0)"/>
<path d="" fill="currentColor" transform="translate(0,0)"/>
<path d="" fill="currentColor" transform="translate(0,0)"/>
<path d="" fill="currentColor" transform="translate(0,0)"/>
<path d="" fill="currentColor" transform="translate(0,0)"/>
<path d="" fill="currentColor" transform="translate(0,0)"/>
<path d="" fill="currentColor" transform="translate(0,0)"/>
<path d="" fill="currentColor" transform="translate(0,0)"/>
<path d="" fill="currentColor" transform="translate(0,0)"/>
</svg>
