<?xml version="1.0" encoding="UTF-8"?>
<svg version="1.1" xmlns="http://www.w3.org/2000/svg" width="1024" height="1024">
<path d="M0 0 C5.40555136 0.00260857 10.81110141 0.0001645 16.21665287 -0.00138617 C25.23787596 -0.00317833 34.25909072 -0.00087504 43.28031254 0.00395441 C53.66764374 0.00945137 64.05495547 0.00758365 74.44228625 0.00212801 C83.46421116 -0.00241749 92.48613024 -0.00304841 101.50805593 -0.00043333 C106.85375269 0.00111394 112.19944029 0.00136502 117.54513645 -0.00196981 C122.5394358 -0.00487168 127.53370991 -0.00283058 132.52800655 0.00292444 C134.34800201 0.00423708 136.16799962 0.00388364 137.98799419 0.00166178 C169.25655832 -0.0329787 169.25655832 -0.0329787 176.98685551 6.6030755 C181.28639305 11.04942652 183.49964822 16.01138854 184.27591801 22.1343255 C184.1150028 30.35172873 181.8517448 37.04821099 176.27591801 43.1343255 C169.2303797 49.69233772 160.67683014 49.14269774 151.57450199 49.13701105 C150.76826893 49.13662333 149.96203587 49.1362356 149.1313715 49.13583612 C148.21292202 49.13508837 148.21292202 49.13508837 147.27591801 49.1343255 C147.17260951 73.44880481 147.12704629 97.7628111 147.14894772 122.07751417 C147.15779372 133.36906542 147.14822826 144.66002389 147.09427738 155.95146418 C147.04726389 165.80098523 147.03585704 175.64981772 147.0660001 185.49941558 C147.08072834 190.70791386 147.07844745 195.91507211 147.03342152 201.12342501 C146.99147024 206.04150715 146.99768301 210.95733702 147.03843975 215.87540674 C147.0452215 217.66544621 147.0354638 219.45565084 147.00648785 221.24546862 C146.80432492 234.62693987 150.15836979 243.78968122 157.10394216 255.19634521 C158.63844704 257.73380383 160.03375684 260.33802561 161.42044926 262.95854425 C162.30841097 264.58038401 163.19771626 266.20148894 164.08841801 267.8218255 C165.10044348 269.67061597 166.11215009 271.51958101 167.12357426 273.3687005 C167.63678226 274.30649347 168.14999027 275.24428644 168.67875004 276.21049738 C171.4724799 281.32479099 174.24982634 286.44794195 177.02591801 291.5718255 C177.84310307 293.07869928 177.84310307 293.07869928 178.67679691 294.61601496 C181.0717175 299.03782766 183.45767177 303.46346253 185.80326176 307.91166925 C186.17418949 308.61428888 186.54511723 309.31690851 186.92728519 310.04081964 C187.88436877 311.85914312 188.83623918 313.68020801 189.78763676 315.501513 C191.15147322 318.18827855 191.15147322 318.18827855 193.27591801 320.1343255 C194.44202096 322.5382916 195.55629634 324.94811472 196.65091801 327.3843255 C201.16782739 337.19761092 206.35903699 346.5977667 211.58158207 356.048388 C215.28979003 362.80224227 218.91545112 369.60125086 222.55570316 376.39189386 C226.0364285 382.87372886 226.0364285 382.87372886 229.68216801 389.26323175 C231.27591801 392.1343255 231.27591801 392.1343255 231.27591801 394.1343255 C231.93591801 394.4643255 232.59591801 394.7943255 233.27591801 395.1343255 C234.47448718 397.15652682 235.57566108 399.17214201 236.65091801 401.2593255 C236.99541996 401.91602228 237.33992191 402.57271906 237.69486332 403.24931574 C238.89499148 405.54101644 240.08596641 407.83732502 241.27591801 410.1343255 C243.190872 413.82271742 245.10768649 417.5101371 247.02591801 421.1968255 C247.53848148 422.18239435 248.05104496 423.1679632 248.57914066 424.18339777 C252.4625881 431.62878324 256.45325353 439.00980055 260.49369144 446.37089777 C265.1702503 454.90418732 269.74329168 463.4909815 274.31180668 472.08238459 C278.66818392 480.27261073 283.06203788 488.43949069 287.52591801 496.5718255 C292.06225555 504.8396665 296.44703837 513.17846593 300.7878809 521.55034113 C304.10547177 527.93300988 307.50213741 534.26605066 310.96341801 540.5718255 C315.68061345 549.18925859 320.37980032 557.8162385 325.02314091 566.47371149 C325.76064532 567.84576307 326.5009116 569.2163346 327.24427128 570.58522272 C333.93153547 582.90776402 339.71312911 595.39302315 343.08841801 609.0718255 C343.29144535 609.84332941 343.49447269 610.61483332 343.70365238 611.40971613 C350.18747615 636.76724473 345.37801158 663.93230092 332.50248051 686.501513 C317.94247341 710.86327021 294.02377508 728.76595467 266.66654301 736.16166925 C265.20655723 736.50154207 263.7425558 736.82441329 262.27591801 737.1343255 C261.4216724 737.31543879 260.5674268 737.49655207 259.68729496 737.68315363 C248.53971682 739.71381809 237.25926349 739.58883558 225.96341801 739.7593255 C223.85467936 739.79758662 221.74595497 739.8366428 219.63724613 739.876513 C214.51692183 739.97161593 209.39652475 740.0559635 204.27591801 740.1343255 C204.27591801 740.4643255 204.27591801 740.7943255 204.27591801 741.1343255 C166.98591801 741.1343255 129.69591801 741.1343255 91.27591801 741.1343255 C91.27591801 740.8043255 91.27591801 740.4743255 91.27591801 740.1343255 C90.45255959 740.13342987 90.45255959 740.13342987 89.61256766 740.13251615 C57.00274116 740.09653887 24.39302542 740.03977273 -8.21671249 739.95640455 C-12.1415319 739.94638837 -16.06635173 739.93654403 -19.99117184 739.92680597 C-20.77245731 739.9248646 -21.55374279 739.92292323 -22.35870358 739.92092302 C-34.97108098 739.88999198 -47.58344023 739.87294732 -60.19584838 739.86113128 C-73.15949861 739.84867342 -86.12305436 739.82106831 -99.08664489 739.77971244 C-107.07108686 739.75470889 -115.05537193 739.74119854 -123.0398536 739.74289593 C-129.18611884 739.7429295 -135.33215399 739.72178008 -141.47834873 739.69315767 C-143.98229842 739.68470779 -146.48628157 739.68287491 -148.99023914 739.68852282 C-178.63017974 739.74642224 -205.46124132 734.78670766 -228.72408199 715.1343255 C-229.54779293 714.44467707 -230.37150387 713.75502863 -231.22017574 713.04448175 C-246.79198465 699.55839459 -258.30482696 681.20834092 -263.66158199 661.3218255 C-263.97893307 660.15780207 -263.97893307 660.15780207 -264.30269527 658.970263 C-265.65231393 653.57638281 -265.90653491 648.69084622 -265.72408199 643.1343255 C-266.71408199 643.1343255 -267.70408199 643.1343255 -268.72408199 643.1343255 C-268.72408199 640.8243255 -268.72408199 638.5143255 -268.72408199 636.1343255 C-268.39408199 636.1343255 -268.06408199 636.1343255 -267.72408199 636.1343255 C-267.65415035 635.51613947 -267.58421871 634.89795343 -267.51216793 634.26103449 C-263.65229851 600.82848388 -250.62065036 575.26224428 -234.58785152 546.05790949 C-229.22273927 536.2674891 -223.99958472 526.40232052 -218.77413082 516.53691339 C-213.11572387 505.855045 -207.41253805 495.19874119 -201.60640621 484.59623957 C-190.38639165 464.1061388 -179.42507762 443.47871016 -168.50762081 422.82640314 C-158.68640123 404.2514935 -148.69634375 385.76929973 -138.68111324 367.298388 C-130.60278238 352.38754116 -122.60686575 337.43212588 -114.63814449 322.4624505 C-113.27106997 319.894682 -111.90388907 317.32697019 -110.53658199 314.7593255 C-110.19830379 314.12401911 -109.8600256 313.48871271 -109.51149654 312.83415461 C-105.31300198 304.9520159 -101.08060396 297.08994962 -96.78658199 289.2593255 C-91.66871087 279.92462953 -86.6557972 270.5355584 -81.66158199 261.1343255 C-81.28760281 260.43083979 -80.91362362 259.72735407 -80.52831173 259.0025506 C-79.45587843 256.9844893 -78.38464243 254.96579802 -77.31392574 252.9468255 C-76.83655468 252.0481727 -76.83655468 252.0481727 -76.34953976 251.1313653 C-75.46901565 249.46851865 -74.59638537 247.80149931 -73.72408199 246.1343255 C-73.17566647 245.14819269 -72.62725094 244.16205988 -72.06221676 243.14604425 C-69.5491811 237.48999465 -69.60024375 231.59642906 -69.6105566 225.4859643 C-69.61033331 224.3786671 -69.61033331 224.3786671 -69.61010551 223.24900025 C-69.61079616 220.79253268 -69.61862075 218.33614129 -69.62642574 215.87968683 C-69.62834621 214.11176836 -69.6298094 212.34384933 -69.63085079 210.57593012 C-69.63400544 206.77767977 -69.64026432 202.9794518 -69.6489172 199.18121004 C-69.66245743 193.17686999 -69.66833724 187.17253733 -69.6730566 181.16818476 C-69.68414655 168.42772175 -69.70369215 155.68727651 -69.72408199 142.9468255 C-69.74609845 129.18185898 -69.76667084 115.41689966 -69.77750015 101.65191907 C-69.78248704 95.68107216 -69.79235293 89.71025906 -69.80593014 83.73942578 C-69.81337879 80.02993858 -69.81670314 76.32045606 -69.81889629 72.61096239 C-69.82077136 70.88881002 -69.82437837 69.16665856 -69.82982922 67.4445138 C-69.83702701 65.09689928 -69.83808381 62.74935944 -69.83760738 60.40173578 C-69.839828 59.08713279 -69.84204861 57.77252979 -69.84433651 56.41809034 C-69.74727359 53.76761356 -69.52355784 51.64154312 -68.72408199 49.1343255 C-69.93064449 49.15752863 -71.13720699 49.18073175 -72.38033199 49.204638 C-73.99490908 49.22341216 -75.60949294 49.24161058 -77.22408199 49.2593255 C-78.01556637 49.27608332 -78.80705074 49.29284113 -79.62251949 49.31010675 C-87.60142997 49.37550766 -94.32107613 48.28456935 -100.72408199 43.1343255 C-102.3645539 41.38004096 -103.91307616 39.58443483 -105.42720699 37.720263 C-106.7810562 36.0108375 -106.7810562 36.0108375 -108.72408199 34.1343255 C-110.99968688 27.30751085 -109.57963939 19.16174728 -106.66158199 12.6968255 C-103.62919706 7.25271923 -99.23803499 3.891302 -93.72408199 1.1343255 C-90.64100333 0.97633552 -87.57797713 0.87787573 -84.49257565 0.82258844 C-83.0620309 0.791893 -83.0620309 0.791893 -81.60258627 0.76057744 C-78.43190646 0.69476663 -75.26114608 0.63693512 -72.09029293 0.58012629 C-70.99434921 0.55916399 -69.89840549 0.5382017 -68.76925135 0.51660419 C-45.84590916 0.08074834 -22.92685862 -0.01463119 0 0 Z M-24.72408199 49.1343255 C-24.72131661 50.09916298 -24.71855124 51.06400045 -24.71570206 52.05807543 C-24.64905258 75.55330408 -24.59978058 99.04852044 -24.56864548 122.54382372 C-24.55318792 133.90605645 -24.53211958 145.26822666 -24.49776363 156.63041925 C-24.46782733 166.53568395 -24.44849892 176.44090335 -24.44181651 186.34621203 C-24.43791144 191.5891969 -24.42875701 196.83205223 -24.40689182 202.07499552 C-24.38645987 207.01450367 -24.38026175 211.95382948 -24.38475895 216.89337587 C-24.38393675 218.70169997 -24.37801122 220.51003046 -24.36646557 222.31831789 C-24.29450354 234.17525033 -25.2878945 243.84415067 -30.72798824 254.56791925 C-31.29847897 255.70124689 -31.86896969 256.83457453 -32.45674801 258.00224543 C-33.0663959 259.19225753 -33.67634727 260.38211422 -34.28658199 261.5718255 C-34.92115363 262.82326161 -35.55518038 264.07497415 -36.1886816 265.32695246 C-40.43505155 273.69876237 -44.76645828 282.02561154 -49.17330074 290.314013 C-51.62828386 294.93595902 -54.03248613 299.58348002 -56.4362402 304.23222589 C-61.06040848 313.17165092 -65.74415838 322.06794742 -70.59908199 330.8843255 C-75.28528125 339.39495714 -79.78375455 347.9939007 -84.22408199 356.6343255 C-89.12499479 366.17100249 -94.13157935 375.63700838 -99.30611324 385.02885675 C-103.05019036 391.84448239 -106.65551491 398.72537679 -110.22408199 405.6343255 C-114.2551218 413.43864769 -118.36029719 421.19087426 -122.59908199 428.8843255 C-127.2854929 437.39484771 -131.7835323 445.99401608 -136.22408199 454.6343255 C-142.96250008 467.74353352 -149.9166851 480.72476263 -157.09810543 493.59721613 C-157.75987789 494.78347589 -157.75987789 494.78347589 -158.43501949 495.9937005 C-159.02355709 497.04509211 -159.02355709 497.04509211 -159.62398434 498.11772394 C-160.70659104 500.10226263 -161.72017224 502.10896839 -162.72408199 504.1343255 C-169.6391802 517.65031538 -176.6418597 531.11203734 -183.96285152 544.4131341 C-187.00950224 549.96006348 -190.00813619 555.53017893 -192.97017574 561.12260675 C-193.34153149 561.82358988 -193.71288723 562.524573 -194.09549618 563.24679804 C-195.92948368 566.7109142 -197.75996443 570.17684187 -199.58663082 573.64482355 C-202.96447419 580.04173647 -206.40867568 586.38089319 -210.03267574 592.642138 C-220.26432144 610.4251749 -225.81708275 629.70831749 -220.63106441 650.02519464 C-215.88048541 666.89999957 -205.45226671 678.29741468 -190.72408199 687.1343255 C-179.02820243 693.03224768 -167.42980772 693.42770953 -154.63259029 693.40175104 C-152.88517045 693.40549048 -151.13775228 693.41009317 -149.39033675 693.41548169 C-144.6014823 693.42769076 -139.81269782 693.42745369 -135.02383137 693.42509294 C-129.85394755 693.42468424 -124.68408601 693.43572891 -119.51421261 693.44520807 C-109.39038664 693.46180738 -99.26658396 693.46731713 -89.14274552 693.46843283 C-80.91223255 693.46938377 -72.68172725 693.47349639 -64.4512167 693.47983408 C-41.10712771 693.49744328 -17.76305711 693.50667341 5.58103856 693.50517313 C6.83902066 693.50509322 8.09700275 693.50501331 9.39310551 693.50493097 C11.28238718 693.50480833 11.28238718 693.50480833 13.20983616 693.50468321 C33.62180389 693.50387032 54.03369784 693.52300964 74.44564423 693.55120771 C95.41337728 693.57994462 116.38107436 693.59374757 137.3488276 693.59202015 C149.11706455 693.59135655 160.88522414 693.59683595 172.65344334 693.61837626 C182.67300002 693.63659859 192.69244426 693.64092665 202.71201035 693.62735741 C207.82148446 693.62083324 212.9307429 693.62069079 218.04019642 693.63806391 C222.72345297 693.65382375 227.40632337 693.65090125 232.08957067 693.63349564 C233.77794882 693.63043218 235.466356 693.63403335 237.15469989 693.64521579 C256.20784756 693.76298845 272.37378842 688.57928491 286.27591801 675.1343255 C298.34613755 660.92098491 303.70412205 644.74089676 302.27591801 626.1343255 C299.84824077 608.300235 290.27582944 591.88191601 281.26810551 576.579638 C279.01915984 572.69028491 276.91807757 568.74095085 274.83841801 564.7593255 C270.17830943 555.84883951 265.48871901 546.95453948 260.77591801 538.0718255 C260.40541325 537.37317377 260.03490849 536.67452204 259.65317631 535.95469904 C255.03690831 527.25514891 250.35330412 518.60249646 245.52323246 510.01933527 C242.68965962 504.95586645 240.08064891 499.80653923 237.52591801 494.59794855 C232.86826425 485.17752037 227.74783906 475.99625351 222.71488285 466.77299738 C219.08852009 460.12323003 215.49739582 453.45477411 211.96341801 446.75541925 C211.35771976 445.60771051 211.35771976 445.60771051 210.73978519 444.43681574 C209.95255794 442.94358561 209.16666817 441.44964931 208.38236332 439.95488214 C207.84240726 438.92995661 207.84240726 438.92995661 207.29154301 437.8843255 C206.9747559 437.28104425 206.65796879 436.677763 206.33158207 436.0562005 C205.53959644 434.61436172 204.70622295 433.19513021 203.85306644 431.78862238 C202.12657891 428.88299197 200.57126843 425.92142651 199.02591801 422.9155755 C198.72653324 422.3352154 198.42714848 421.75485529 198.11869144 421.15690851 C196.84963395 418.69670359 195.58443644 416.23451979 194.31888676 413.7725091 C193.38923803 411.96533701 192.45762053 410.15918936 191.52591801 408.3530755 C190.97419926 407.27993097 190.42248051 406.20678644 189.85404301 405.10112238 C188.40965694 402.38574808 186.86430049 399.7668606 185.27591801 397.1343255 C184.4299485 395.5597035 183.59822974 393.97735458 182.77982426 392.38823175 C182.30996098 391.48008722 181.84009769 390.57194269 181.35599613 389.63627863 C180.85519535 388.6662591 180.35439457 387.69623957 179.83841801 386.6968255 C175.73870057 378.79273048 171.56476321 370.93737555 167.27591801 363.1343255 C162.55194622 354.53624629 157.96609918 345.87367312 153.45951176 337.15971613 C149.38323755 329.28691203 145.16038904 321.49983134 140.83841801 313.7593255 C136.8613543 306.61868839 132.93138953 299.44526855 129.27591801 292.1343255 C128.44824657 290.61040344 127.61417612 289.08994994 126.77591801 287.5718255 C120.56030817 276.18664749 114.43471047 264.74589059 108.77591801 253.0718255 C108.44994633 252.41875422 108.12397465 251.76568293 107.78812504 251.0928216 C102.77896984 240.56054685 102.99990731 229.62627424 103.06473637 218.21684504 C103.06694108 216.52057723 103.0682438 214.82430805 103.06871891 213.12803888 C103.07163932 209.49189256 103.08084226 205.85583718 103.09502316 202.2197175 C103.11740853 196.46077588 103.12539938 190.70186733 103.13152409 184.94288874 C103.14288238 175.82725534 103.16358916 166.71167166 103.18842179 157.59606588 C103.23278277 141.28687042 103.26602613 124.97765823 103.28866583 108.66841829 C103.29703105 102.9531807 103.31101306 97.23799322 103.32963836 91.52278018 C103.34034775 87.95603546 103.34688866 84.38929115 103.35243893 80.82253504 C103.35588343 79.17952869 103.36106836 77.53652482 103.36820698 75.89353037 C103.406281 66.92656378 103.22958109 58.0630852 102.27591801 49.1343255 C93.70465324 48.28236894 85.22210863 47.97658526 76.6081934 48.00395441 C74.55270195 48.00942048 72.49741938 48.00391714 70.44193363 47.99760675 C69.14578129 47.99889582 67.84962894 48.00018488 66.51419926 48.001513 C65.33897709 48.00264093 64.16375492 48.00376886 62.95291996 48.00493097 C60.35634664 47.829849 60.35634664 47.829849 59.27591801 49.1343255 C57.06887321 49.03963316 54.86460804 48.88165733 52.66263676 48.704638 C40.21201487 47.83977579 27.73461967 47.98306845 15.26102543 48.00395441 C11.75670306 48.00971302 8.25245628 48.00631911 4.74813652 48.00038195 C1.36806805 47.99589666 -2.01198013 47.99903528 -5.39205074 48.001513 C-6.64205364 47.99948877 -7.89205654 47.99746454 -9.17993832 47.99537897 C-10.34588024 47.99853113 -11.51182217 48.00168329 -12.71309566 48.00493097 C-13.73215496 48.00572657 -14.75121426 48.00652216 -15.80115414 48.00734186 C-18.84585463 48.13961579 -21.72486994 48.61049278 -24.72408199 49.1343255 Z " fill="#000000" transform="translate(462.724081993103,154.86567449569702)"/>
<path d="M0 0 C2.28110532 0.53662648 4.56544608 1.03540934 6.859375 1.51367188 C13.37143026 2.90102278 13.37143026 2.90102278 15.515625 3.59179688 C15.845625 4.25179687 16.175625 4.91179688 16.515625 5.59179688 C18.61142992 6.04442209 20.70823577 6.49276936 22.80908203 6.92138672 C27.90187735 8.18287111 32.64390026 10.33627924 37.453125 12.40429688 C38.58121582 12.88423096 39.70930664 13.36416504 40.87158203 13.85864258 C49.0289701 17.38333521 56.97548228 21.24401064 64.890625 25.27929688 C97.29468157 41.74132799 129.06232536 48.75098247 165.32421875 48.92773438 C166.1978903 48.93215986 167.07156185 48.93658535 167.9717083 48.94114494 C176.15703028 48.97641839 184.34223504 48.97453236 192.52758789 48.95214844 C197.056466 48.94119051 201.58477417 48.95447383 206.11357307 48.98204422 C207.8162406 48.9874375 209.51896688 48.98354347 211.22158623 48.96964645 C222.06393103 48.88190362 230.91924616 49.36582584 239.23046875 57.12695312 C242.79335967 62.02651234 245.35853444 67.63854474 248.078125 73.02929688 C248.69480587 74.2374043 249.31233156 75.44508083 249.93066406 76.65234375 C251.18930737 79.11097775 252.44469476 81.57123052 253.69775391 84.03271484 C256.35529795 89.23573352 259.05779671 94.41481887 261.765625 99.59179688 C262.25893311 100.53692139 262.75224121 101.4820459 263.26049805 102.45581055 C265.89496792 107.50144551 268.53962243 112.54156107 271.19555664 117.57592773 C272.8289428 120.67285459 274.45834644 123.77186242 276.08642578 126.87158203 C277.13323638 128.86399128 278.18125973 130.85576348 279.22998047 132.84716797 C280.79019229 135.81351191 282.34621869 138.78194 283.89825439 141.75256348 C284.79775263 143.47126342 285.70225708 145.18734043 286.60693359 146.90332031 C300.25442623 173.07563267 300.25442623 173.07563267 296.8671875 187.31835938 C293.9276175 195.43358255 289.25318669 201.42294717 281.578125 205.46679688 C277.29812588 207.41344272 273.11639162 208.65460367 268.515625 209.59179688 C268.515625 209.92179688 268.515625 210.25179687 268.515625 210.59179688 C266.515625 210.59179688 264.515625 210.59179688 262.515625 210.59179688 C261.36199463 210.66253418 260.20836426 210.73327148 259.01977539 210.80615234 C247.56811035 211.49326622 236.15849608 211.74896752 224.68725586 211.72216797 C221.92361119 211.7167389 219.16012461 211.72219206 216.39648438 211.72851562 C214.60156215 211.72785572 212.80664002 211.72657639 211.01171875 211.72460938 C209.80049599 211.72764572 209.80049599 211.72764572 208.56480408 211.73074341 C203.4879816 211.71019492 198.51345584 211.36234418 193.4669342 210.80587769 C190.95359044 210.53013529 188.51413597 210.63117385 185.98364258 210.68359375 C152.6419854 211.35956458 119.30712817 211.70241383 85.95855331 211.71517944 C83.25618856 211.71676573 80.55383299 211.72029995 77.85147095 211.72436523 C51.72607264 211.75927953 25.6305183 211.32614842 -0.484375 210.59179688 C-0.484375 210.26179687 -0.484375 209.93179688 -0.484375 209.59179688 C-3.454375 209.59179688 -6.424375 209.59179688 -9.484375 209.59179688 C-9.484375 209.92179688 -9.484375 210.25179687 -9.484375 210.59179688 C-14.81770833 210.59179688 -20.15104167 210.59179688 -25.484375 210.59179688 C-27.09108898 210.62657033 -28.6977728 210.66273833 -30.30444336 210.69946289 C-36.08769152 210.83015728 -41.87107693 210.95324134 -47.65454102 211.07397461 C-50.15003011 211.12718023 -52.64547528 211.18249117 -55.14086914 211.23999023 C-58.74355487 211.32259318 -62.34633402 211.39736065 -65.94921875 211.47070312 C-67.60605934 211.51125572 -67.60605934 211.51125572 -69.29637146 211.55262756 C-75.77957135 211.67587621 -82.04879059 211.36989784 -88.484375 210.59179688 C-88.814375 210.59179688 -89.144375 210.59179688 -89.484375 210.59179688 C-97.15104167 210.59179688 -104.81770833 210.59179688 -112.484375 210.59179688 C-112.484375 210.26179687 -112.484375 209.93179688 -112.484375 209.59179688 C-113.85203003 209.57777832 -113.85203003 209.57777832 -115.24731445 209.56347656 C-118.68277694 209.51903839 -122.11707067 209.45724096 -125.55200195 209.38427734 C-127.02877715 209.35633184 -128.50569457 209.33498815 -129.98266602 209.32080078 C-141.24465877 209.2062332 -152.36210169 208.51470171 -160.984375 200.36914062 C-168.34978986 191.64189125 -169.4189341 182.71532963 -168.484375 171.59179688 C-164.49858019 153.31983864 -152.7376052 135.81094887 -144.0390625 119.41601562 C-141.20346284 114.07131979 -138.4053604 108.70729735 -135.609375 103.34179688 C-134.85309814 101.89099731 -134.85309814 101.89099731 -134.08154297 100.41088867 C-133.05688379 98.44519267 -132.03230721 96.4794536 -131.0078125 94.51367188 C-129.52205855 91.664072 -128.03476958 88.81527954 -126.546875 85.96679688 C-121.24083193 75.80756855 -115.94855747 65.64130795 -110.671875 55.46679688 C-110.09445557 54.3546582 -109.51703613 53.24251953 -108.92211914 52.09667969 C-106.10516974 46.66673345 -103.29682317 41.23287471 -100.51341248 35.78567505 C-99.18284679 33.18260942 -97.84841307 30.58153467 -96.51382446 27.98052979 C-95.88129146 26.74500927 -95.25065837 25.50851377 -94.62216187 24.27093506 C-81.44479922 -1.67304404 -81.44479922 -1.67304404 -71.484375 -5.40820312 C-48.67284525 -9.91134372 -22.26386688 -5.29249437 0 0 Z M-34.484375 64.59179688 C-40.5178106 71.43569397 -42.89913114 78.60300158 -42.359375 87.65429688 C-41.14515776 96.3831697 -37.35831191 101.202725 -30.80078125 106.92773438 C-25.26516133 110.90441917 -19.18804221 111.7855954 -12.484375 111.59179688 C-4.8429128 110.03654677 1.48485966 106.58362823 6.515625 100.59179688 C10.4350444 94.56455018 11.91912389 87.73667962 11.515625 80.59179688 C9.74685631 72.44008031 6.28041074 65.7087947 -0.77734375 61.09179688 C-12.84192915 54.50771306 -24.04336324 55.55964623 -34.484375 64.59179688 Z M58.515625 125.59179688 C53.96404746 131.74818595 52.67419964 138.09109082 53.515625 145.59179688 C55.58127843 153.15756367 59.65727326 157.78177564 66.359375 161.65820312 C72.01488855 164.24258739 77.54954286 164.05845873 83.515625 162.59179688 C90.13520337 159.94960721 94.61804028 156.44360497 97.67578125 149.94726562 C99.94389712 143.58599182 100.09985965 138.1411059 97.65625 131.79882812 C94.88903087 126.44444865 91.31718161 122.60721969 86.078125 119.65429688 C75.66817565 116.54957514 66.57951208 117.77925173 58.515625 125.59179688 Z M-100.484375 208.59179688 C-100.484375 208.92179688 -100.484375 209.25179687 -100.484375 209.59179688 C-98.174375 209.59179688 -95.864375 209.59179688 -93.484375 209.59179688 C-93.484375 209.26179687 -93.484375 208.93179688 -93.484375 208.59179688 C-95.794375 208.59179688 -98.104375 208.59179688 -100.484375 208.59179688 Z M-83.484375 208.59179688 C-83.484375 208.92179688 -83.484375 209.25179687 -83.484375 209.59179688 C-81.834375 209.59179688 -80.184375 209.59179688 -78.484375 209.59179688 C-78.484375 209.26179687 -78.484375 208.93179688 -78.484375 208.59179688 C-80.134375 208.59179688 -81.784375 208.59179688 -83.484375 208.59179688 Z M-75.484375 208.59179688 C-75.484375 208.92179688 -75.484375 209.25179687 -75.484375 209.59179688 C-73.504375 209.59179688 -71.524375 209.59179688 -69.484375 209.59179688 C-69.484375 209.26179687 -69.484375 208.93179688 -69.484375 208.59179688 C-71.464375 208.59179688 -73.444375 208.59179688 -75.484375 208.59179688 Z M-67.484375 208.59179688 C-67.484375 208.92179688 -67.484375 209.25179687 -67.484375 209.59179688 C-62.204375 209.59179688 -56.924375 209.59179688 -51.484375 209.59179688 C-51.484375 209.26179687 -51.484375 208.93179688 -51.484375 208.59179688 C-56.764375 208.59179688 -62.044375 208.59179688 -67.484375 208.59179688 Z M-50.484375 208.59179688 C-46.484375 209.59179688 -46.484375 209.59179688 -46.484375 209.59179688 Z M-45.484375 208.59179688 C-45.484375 208.92179688 -45.484375 209.25179687 -45.484375 209.59179688 C-42.844375 209.59179688 -40.204375 209.59179688 -37.484375 209.59179688 C-37.484375 209.26179687 -37.484375 208.93179688 -37.484375 208.59179688 C-40.124375 208.59179688 -42.764375 208.59179688 -45.484375 208.59179688 Z M-20.484375 208.59179688 C-20.484375 208.92179688 -20.484375 209.25179687 -20.484375 209.59179688 C-17.844375 209.59179688 -15.204375 209.59179688 -12.484375 209.59179688 C-12.484375 209.26179687 -12.484375 208.93179688 -12.484375 208.59179688 C-15.124375 208.59179688 -17.764375 208.59179688 -20.484375 208.59179688 Z M12.515625 208.59179688 C12.515625 208.92179688 12.515625 209.25179687 12.515625 209.59179688 C17.135625 209.59179688 21.755625 209.59179688 26.515625 209.59179688 C26.515625 209.26179687 26.515625 208.93179688 26.515625 208.59179688 C21.895625 208.59179688 17.275625 208.59179688 12.515625 208.59179688 Z M28.515625 208.59179688 C28.515625 208.92179688 28.515625 209.25179687 28.515625 209.59179688 C30.495625 209.59179688 32.475625 209.59179688 34.515625 209.59179688 C34.515625 209.26179687 34.515625 208.93179688 34.515625 208.59179688 C32.535625 208.59179688 30.555625 208.59179688 28.515625 208.59179688 Z M37.515625 208.59179688 C37.515625 208.92179688 37.515625 209.25179687 37.515625 209.59179688 C44.445625 209.59179688 51.375625 209.59179688 58.515625 209.59179688 C58.515625 209.26179687 58.515625 208.93179688 58.515625 208.59179688 C51.585625 208.59179688 44.655625 208.59179688 37.515625 208.59179688 Z M61.515625 208.59179688 C61.515625 208.92179688 61.515625 209.25179687 61.515625 209.59179688 C63.165625 209.59179688 64.815625 209.59179688 66.515625 209.59179688 C66.515625 209.26179687 66.515625 208.93179688 66.515625 208.59179688 C64.865625 208.59179688 63.215625 208.59179688 61.515625 208.59179688 Z M68.515625 208.59179688 C68.515625 208.92179688 68.515625 209.25179687 68.515625 209.59179688 C70.495625 209.59179688 72.475625 209.59179688 74.515625 209.59179688 C74.515625 209.26179687 74.515625 208.93179688 74.515625 208.59179688 C72.535625 208.59179688 70.555625 208.59179688 68.515625 208.59179688 Z M76.515625 208.59179688 C76.515625 208.92179688 76.515625 209.25179687 76.515625 209.59179688 C81.465625 209.59179688 86.415625 209.59179688 91.515625 209.59179688 C91.515625 209.26179687 91.515625 208.93179688 91.515625 208.59179688 C86.565625 208.59179688 81.615625 208.59179688 76.515625 208.59179688 Z M92.515625 208.59179688 C92.515625 208.92179688 92.515625 209.25179687 92.515625 209.59179688 C94.495625 209.59179688 96.475625 209.59179688 98.515625 209.59179688 C98.515625 209.26179687 98.515625 208.93179688 98.515625 208.59179688 C96.535625 208.59179688 94.555625 208.59179688 92.515625 208.59179688 Z M100.515625 208.59179688 C100.515625 208.92179688 100.515625 209.25179687 100.515625 209.59179688 C108.105625 209.59179688 115.695625 209.59179688 123.515625 209.59179688 C123.515625 209.26179687 123.515625 208.93179688 123.515625 208.59179688 C115.925625 208.59179688 108.335625 208.59179688 100.515625 208.59179688 Z M124.515625 208.59179688 C124.515625 208.92179688 124.515625 209.25179687 124.515625 209.59179688 C126.165625 209.59179688 127.815625 209.59179688 129.515625 209.59179688 C129.515625 209.26179687 129.515625 208.93179688 129.515625 208.59179688 C127.865625 208.59179688 126.215625 208.59179688 124.515625 208.59179688 Z M132.515625 208.59179688 C132.515625 208.92179688 132.515625 209.25179687 132.515625 209.59179688 C145.055625 209.59179688 157.595625 209.59179688 170.515625 209.59179688 C170.515625 209.26179687 170.515625 208.93179688 170.515625 208.59179688 C157.975625 208.59179688 145.435625 208.59179688 132.515625 208.59179688 Z M204.515625 208.59179688 C204.515625 208.92179688 204.515625 209.25179687 204.515625 209.59179688 C209.465625 209.59179688 214.415625 209.59179688 219.515625 209.59179688 C219.515625 209.26179687 219.515625 208.93179688 219.515625 208.59179688 C214.565625 208.59179688 209.615625 208.59179688 204.515625 208.59179688 Z M220.515625 208.59179688 C220.515625 208.92179688 220.515625 209.25179687 220.515625 209.59179688 C230.415625 209.59179688 240.315625 209.59179688 250.515625 209.59179688 C250.515625 209.26179687 250.515625 208.93179688 250.515625 208.59179688 C240.615625 208.59179688 230.715625 208.59179688 220.515625 208.59179688 Z " fill="#000000" transform="translate(438.484375,612.408203125)"/>
<path d="M0 0 C9.97568662 7.83491883 15.42924674 17.43114366 17 29.875 C17.71672002 41.09322646 14.08820999 51.10054233 7.21484375 59.98828125 C-1.3474494 69.23431469 -12.2467343 73.73538806 -24.625 74.75 C-35.31848356 74.38859002 -45.38583716 70.67926802 -53.10546875 63.22265625 C-61.8125 53.6909153 -61.8125 53.6909153 -61.8125 49.4375 C-62.4725 49.1075 -63.1325 48.7775 -63.8125 48.4375 C-63.4825 47.7775 -63.1525 47.1175 -62.8125 46.4375 C-64.1325 46.1075 -65.4525 45.7775 -66.8125 45.4375 C-66.1525 42.7975 -65.4925 40.1575 -64.8125 37.4375 C-65.4725 37.1075 -66.1325 36.7775 -66.8125 36.4375 C-64.53599915 21.51994157 -61.02241018 9.32306301 -48.49609375 -0.3515625 C-33.30390276 -10.25209146 -15.02793943 -10.13657411 0 0 Z M-64.8125 43.4375 C-63.8125 45.4375 -63.8125 45.4375 -63.8125 45.4375 Z " fill="#010101" transform="translate(587.8125,542.5625)"/>
<path d="M0 0 C6.99459416 5.58636472 11.88848197 13.5133029 13.59765625 22.375 C14.3293988 32.80233139 11.49769484 42.42057349 4.59765625 50.375 C-3.54619523 57.803623 -11.70051843 60.71117554 -22.62109375 60.59375 C-31.42619256 59.90121414 -38.65088439 54.86382595 -44.40234375 48.375 C-50.99390135 39.00203371 -52.52154324 30.67862862 -51.40234375 19.375 C-49.58039936 11.0289673 -44.79990837 4.485142 -37.8671875 -0.41796875 C-25.82117382 -7.88685205 -11.92245554 -8.06462033 0 0 Z " fill="#010101" transform="translate(488.40234375,473.625)"/>
<path d="M0 0 C96.14497185 0 192.2899437 0 417 0 C413.7839299 2.61262837 412.18324463 3.339182 408 3 C406.49968107 3 405.0016568 3.12253267 403.50415039 3.21435547 C392.05248535 3.90146935 380.64287108 4.15717065 369.17163086 4.13037109 C366.40798619 4.12494202 363.64449961 4.13039519 360.88085938 4.13671875 C359.08593715 4.13605885 357.29101502 4.13477951 355.49609375 4.1328125 C354.28487099 4.13584885 354.28487099 4.13584885 353.04917908 4.13894653 C347.9723566 4.11839804 342.99783084 3.7705473 337.9513092 3.21408081 C335.43796544 2.93833842 332.99851097 3.03937698 330.46801758 3.09179688 C297.1263604 3.7677677 263.79150317 4.11061695 230.44292831 4.12338257 C227.74056356 4.12496885 225.03820799 4.12850308 222.33584595 4.13256836 C196.21044764 4.16748266 170.1148933 3.73435154 144 3 C144 2.67 144 2.34 144 2 C141.03 2 138.06 2 135 2 C135 2.33 135 2.66 135 3 C129.66666667 3 124.33333333 3 119 3 C117.39328602 3.03477345 115.7866022 3.07094146 114.17993164 3.10766602 C108.39668348 3.23836041 102.61329807 3.36144447 96.82983398 3.48217773 C94.33434489 3.53538335 91.83889972 3.5906943 89.34350586 3.64819336 C85.74082013 3.73079631 82.13804098 3.80556377 78.53515625 3.87890625 C77.43059586 3.90594131 76.32603546 3.93297638 75.18800354 3.96083069 C68.70480365 4.08407933 62.43558441 3.77810096 56 3 C55.67 3 55.34 3 55 3 C47.33333333 3 39.66666667 3 32 3 C32 2.67 32 2.34 32 2 C21.44 1.67 10.88 1.34 0 1 C0 0.67 0 0.34 0 0 Z M44 1 C44 1.33 44 1.66 44 2 C46.31 2 48.62 2 51 2 C51 1.67 51 1.34 51 1 C48.69 1 46.38 1 44 1 Z M61 1 C61 1.33 61 1.66 61 2 C62.65 2 64.3 2 66 2 C66 1.67 66 1.34 66 1 C64.35 1 62.7 1 61 1 Z M77 1 C77 1.33 77 1.66 77 2 C82.28 2 87.56 2 93 2 C93 1.67 93 1.34 93 1 C87.72 1 82.44 1 77 1 Z M94 1 C98 2 98 2 98 2 Z M99 1 C99 1.33 99 1.66 99 2 C101.64 2 104.28 2 107 2 C107 1.67 107 1.34 107 1 C104.36 1 101.72 1 99 1 Z M124 1 C124 1.33 124 1.66 124 2 C126.64 2 129.28 2 132 2 C132 1.67 132 1.34 132 1 C129.36 1 126.72 1 124 1 Z M173 1 C173 1.33 173 1.66 173 2 C174.98 2 176.96 2 179 2 C179 1.67 179 1.34 179 1 C177.02 1 175.04 1 173 1 Z M182 1 C182 1.33 182 1.66 182 2 C188.93 2 195.86 2 203 2 C203 1.67 203 1.34 203 1 C196.07 1 189.14 1 182 1 Z M206 1 C206 1.33 206 1.66 206 2 C207.65 2 209.3 2 211 2 C211 1.67 211 1.34 211 1 C209.35 1 207.7 1 206 1 Z M213 1 C213 1.33 213 1.66 213 2 C214.98 2 216.96 2 219 2 C219 1.67 219 1.34 219 1 C217.02 1 215.04 1 213 1 Z M221 1 C221 1.33 221 1.66 221 2 C225.95 2 230.9 2 236 2 C236 1.67 236 1.34 236 1 C231.05 1 226.1 1 221 1 Z M237 1 C237 1.33 237 1.66 237 2 C238.98 2 240.96 2 243 2 C243 1.67 243 1.34 243 1 C241.02 1 239.04 1 237 1 Z M245 1 C245 1.33 245 1.66 245 2 C252.59 2 260.18 2 268 2 C268 1.67 268 1.34 268 1 C260.41 1 252.82 1 245 1 Z M277 1 C277 1.33 277 1.66 277 2 C289.54 2 302.08 2 315 2 C315 1.67 315 1.34 315 1 C302.46 1 289.92 1 277 1 Z M349 1 C349 1.33 349 1.66 349 2 C353.95 2 358.9 2 364 2 C364 1.67 364 1.34 364 1 C359.05 1 354.1 1 349 1 Z M365 1 C365 1.33 365 1.66 365 2 C374.9 2 384.8 2 395 2 C395 1.67 395 1.34 395 1 C385.1 1 375.2 1 365 1 Z " fill="#080807" transform="translate(294,820)"/>
<path d="M0 0 C27.06 0 54.12 0 82 0 C82 0.33 82 0.66 82 1 C54.94 1 27.88 1 0 1 C0 0.67 0 0.34 0 0 Z " fill="#0A0A09" transform="translate(328,895)"/>
<path d="M0 0 C19.47 0 38.94 0 59 0 C59 0.33 59 0.66 59 1 C39.53 1 20.06 1 0 1 C0 0.67 0 0.34 0 0 Z " fill="#0A0A09" transform="translate(462,895)"/>
<path d="M0 0 C11.88 0 23.76 0 36 0 C36 0.33 36 0.66 36 1 C24.12 1 12.24 1 0 1 C0 0.67 0 0.34 0 0 Z " fill="#0C0B0B" transform="translate(668,895)"/>
<path d="M0 0 C9.9 0 19.8 0 30 0 C30 0.33 30 0.66 30 1 C20.1 1 10.2 1 0 1 C0 0.67 0 0.34 0 0 Z " fill="#0A0A0A" transform="translate(523,895)"/>
<path d="M0 0 C7.92 0 15.84 0 24 0 C24 0.33 24 0.66 24 1 C16.08 1 8.16 1 0 1 C0 0.67 0 0.34 0 0 Z " fill="#0A0A0A" transform="translate(411,895)"/>
<path d="M0 0 C5.28 0 10.56 0 16 0 C16 0.33 16 0.66 16 1 C10.72 1 5.44 1 0 1 C0 0.67 0 0.34 0 0 Z " fill="#090A09" transform="translate(436,895)"/>
<path d="M0 0 C4.95 0 9.9 0 15 0 C15 0.33 15 0.66 15 1 C10.05 1 5.1 1 0 1 C0 0.67 0 0.34 0 0 Z " fill="#070707" transform="translate(310,822)"/>
<path d="M0 0 C3.96 0 7.92 0 12 0 C12 0.33 12 0.66 12 1 C8.04 1 4.08 1 0 1 C0 0.67 0 0.34 0 0 Z " fill="#0B0B0C" transform="translate(304,895)"/>
<path d="M0 0 C2.31 0 4.62 0 7 0 C7 0.33 7 0.66 7 1 C4.69 1 2.38 1 0 1 C0 0.67 0 0.34 0 0 Z " fill="#060606" transform="translate(430,822)"/>
<path d="M0 0 C2.31 0 4.62 0 7 0 C7 0.33 7 0.66 7 1 C4.69 1 2.38 1 0 1 C0 0.67 0 0.34 0 0 Z " fill="#0A0A09" transform="translate(302,822)"/>
<path d="M0 0 C1.98 0 3.96 0 6 0 C6 0.33 6 0.66 6 1 C4.02 1 2.04 1 0 1 C0 0.67 0 0.34 0 0 Z " fill="#0B0A09" transform="translate(453,895)"/>
<path d="M0 0 C1.65 0 3.3 0 5 0 C5 0.33 5 0.66 5 1 C3.35 1 1.7 1 0 1 C0 0.67 0 0.34 0 0 Z " fill="#0F0F0E" transform="translate(706,895)"/>
<path d="M0 0 C1.65 0 3.3 0 5 0 C5 0.33 5 0.66 5 1 C3.35 1 1.7 1 0 1 C0 0.67 0 0.34 0 0 Z " fill="#0D0C0C" transform="translate(467,535)"/>
<path d="M0 0 C1 4 1 4 1 4 Z " fill="#131414" transform="translate(194,786)"/>
<path d="M0 0 C4 1 4 1 4 1 Z " fill="#0C0B0B" transform="translate(652,660)"/>
<path d="M0 0 C4 1 4 1 4 1 Z " fill="#0C0C0A" transform="translate(633,660)"/>
<path d="M0 0 C3 1 3 1 3 1 Z " fill="#0F0E10" transform="translate(296,895)"/>
<path d="" fill="#181717" transform="translate(0,0)"/>
<path d="M0 0 C0.99 0.495 0.99 0.495 2 1 C1.01 1.495 1.01 1.495 0 2 C0 1.34 0 0.68 0 0 Z " fill="#0B0A0A" transform="translate(440,714)"/>
<path d="M0 0 C0.33 0.66 0.66 1.32 1 2 C0.34 1.67 -0.32 1.34 -1 1 C-0.67 0.67 -0.34 0.34 0 0 Z " fill="#0D0B0C" transform="translate(421,670)"/>
<path d="M0 0 C0.66 0.66 1.32 1.32 2 2 C1.34 2 0.68 2 0 2 C0 1.34 0 0.68 0 0 Z " fill="#0F0D0D" transform="translate(479,624)"/>
<path d="M0 0 C0.99 0.495 0.99 0.495 2 1 C1.01 1.495 1.01 1.495 0 2 C0 1.34 0 0.68 0 0 Z " fill="#10100E" transform="translate(440,481)"/>
<path d="" fill="#0A0808" transform="translate(0,0)"/>
<path d="M0 0 C0.66 0 1.32 0 2 0 C1.67 0.66 1.34 1.32 1 2 C0.67 1.34 0.34 0.68 0 0 Z " fill="#090908" transform="translate(531,205)"/>
<path d="M0 0 C3 1 3 1 3 1 Z " fill="#080808" transform="translate(499,205)"/>
<path d="M0 0 C0.66 0 1.32 0 2 0 C1.67 0.66 1.34 1.32 1 2 C0.67 1.34 0.34 0.68 0 0 Z " fill="#090809" transform="translate(491,205)"/>
<path d="M0 0 C3 1 3 1 3 1 Z " fill="#090807" transform="translate(481,205)"/>
<path d="M0 0 C2 1 2 1 2 1 Z " fill="#0B0C0B" transform="translate(319,895)"/>
<path d="M0 0 C2 1 2 1 2 1 Z " fill="#111010" transform="translate(715,894)"/>
<path d="M0 0 C2 1 2 1 2 1 Z " fill="#060606" transform="translate(603,846)"/>
<path d="M0 0 C2 1 2 1 2 1 Z " fill="#060705" transform="translate(595,846)"/>
<path d="M0 0 C2 1 2 1 2 1 Z " fill="#060605" transform="translate(579,846)"/>
<path d="M0 0 C2 1 2 1 2 1 Z " fill="#070606" transform="translate(547,846)"/>
<path d="M0 0 C2 1 2 1 2 1 Z " fill="#060607" transform="translate(539,846)"/>
<path d="M0 0 C2 1 2 1 2 1 Z " fill="#060605" transform="translate(531,846)"/>
<path d="M0 0 C2 1 2 1 2 1 Z " fill="#060606" transform="translate(475,846)"/>
<path d="M0 0 C2 1 2 1 2 1 Z " fill="#080607" transform="translate(363,846)"/>
<path d="M0 0 C2 1 2 1 2 1 Z " fill="#070706" transform="translate(355,846)"/>
<path d="M0 0 C2 1 2 1 2 1 Z " fill="#070807" transform="translate(347,846)"/>
<path d="M0 0 C2 1 2 1 2 1 Z " fill="#0A0909" transform="translate(307,846)"/>
<path d="" fill="#121210" transform="translate(0,0)"/>
<path d="" fill="#121212" transform="translate(0,0)"/>
<path d="" fill="#161515" transform="translate(0,0)"/>
<path d="" fill="#10110E" transform="translate(0,0)"/>
<path d="" fill="#181717" transform="translate(0,0)"/>
<path d="" fill="#0D0D0E" transform="translate(0,0)"/>
<path d="" fill="#11100E" transform="translate(0,0)"/>
<path d="" fill="#131212" transform="translate(0,0)"/>
<path d="" fill="#0D0D0C" transform="translate(0,0)"/>
<path d="" fill="#121212" transform="translate(0,0)"/>
<path d="M0 0 C2 1 2 1 2 1 Z " fill="#0A0B0A" transform="translate(657,660)"/>
<path d="M0 0 C2 1 2 1 2 1 Z " fill="#0C0C0A" transform="translate(628,660)"/>
<path d="M0 0 C2 1 2 1 2 1 Z " fill="#0D0C0C" transform="translate(624,660)"/>
<path d="M0 0 C2 1 2 1 2 1 Z " fill="#0D0C0E" transform="translate(554,656)"/>
<path d="" fill="#0D0E0C" transform="translate(0,0)"/>
<path d="" fill="#0E0E0D" transform="translate(0,0)"/>
<path d="" fill="#121312" transform="translate(0,0)"/>
<path d="M0 0 C2 1 2 1 2 1 Z " fill="#0E0C0D" transform="translate(476,624)"/>
<path d="" fill="#0F0E0C" transform="translate(0,0)"/>
<path d="" fill="#0D0C0A" transform="translate(0,0)"/>
<path d="M0 0 C2 1 2 1 2 1 Z " fill="#100E0C" transform="translate(431,609)"/>
<path d="M0 0 C2 1 2 1 2 1 Z " fill="#0B0A09" transform="translate(422,608)"/>
<path d="" fill="#0F0E0E" transform="translate(0,0)"/>
<path d="" fill="#111111" transform="translate(0,0)"/>
<path d="M0 0 C2 1 2 1 2 1 Z " fill="#0E0E0C" transform="translate(651,566)"/>
<path d="" fill="#10100F" transform="translate(0,0)"/>
<path d="" fill="#0F0C0B" transform="translate(0,0)"/>
<path d="" fill="#0F0D0E" transform="translate(0,0)"/>
<path d="" fill="#0F0E0D" transform="translate(0,0)"/>
<path d="M0 0 C2 1 2 1 2 1 Z " fill="#131210" transform="translate(473,466)"/>
<path d="M0 0 C2 1 2 1 2 1 Z " fill="#101110" transform="translate(465,466)"/>
<path d="M0 0 C2 1 2 1 2 1 Z " fill="#121311" transform="translate(462,466)"/>
<path d="" fill="#0E0D0B" transform="translate(0,0)"/>
<path d="" fill="#101210" transform="translate(0,0)"/>
<path d="" fill="#080808" transform="translate(0,0)"/>
<path d="" fill="#090707" transform="translate(0,0)"/>
<path d="M0 0 C2 1 2 1 2 1 Z " fill="#080708" transform="translate(473,205)"/>
<path d="M0 0 C2 1 2 1 2 1 Z " fill="#0C0D0D" transform="translate(374,204)"/>
<path d="M0 0 C2 1 2 1 2 1 Z " fill="#0E0E0D" transform="translate(371,204)"/>
<path d="" fill="#121513" transform="translate(0,0)"/>
<path d="M0 0 C2 1 2 1 2 1 Z " fill="#121313" transform="translate(412,152)"/>
<path d="" fill="#0C0B0C" transform="translate(0,0)"/>
<path d="" fill="#0E0C0C" transform="translate(0,0)"/>
<path d="" fill="#0D0B0B" transform="translate(0,0)"/>
<path d="" fill="#0E0F0E" transform="translate(0,0)"/>
<path d="" fill="#131213" transform="translate(0,0)"/>
<path d="" fill="#131210" transform="translate(0,0)"/>
<path d="" fill="#111111" transform="translate(0,0)"/>
<path d="" fill="#141313" transform="translate(0,0)"/>
<path d="" fill="#111011" transform="translate(0,0)"/>
<path d="" fill="#121212" transform="translate(0,0)"/>
<path d="" fill="#121413" transform="translate(0,0)"/>
<path d="" fill="#131213" transform="translate(0,0)"/>
<path d="" fill="#13130F" transform="translate(0,0)"/>
<path d="" fill="#151513" transform="translate(0,0)"/>
<path d="" fill="#171617" transform="translate(0,0)"/>
<path d="" fill="#141414" transform="translate(0,0)"/>
<path d="" fill="#060907" transform="translate(0,0)"/>
<path d="" fill="#070707" transform="translate(0,0)"/>
<path d="" fill="#060805" transform="translate(0,0)"/>
<path d="" fill="#080707" transform="translate(0,0)"/>
<path d="" fill="#070806" transform="translate(0,0)"/>
<path d="" fill="#060807" transform="translate(0,0)"/>
<path d="" fill="#070605" transform="translate(0,0)"/>
<path d="" fill="#060706" transform="translate(0,0)"/>
<path d="" fill="#060607" transform="translate(0,0)"/>
<path d="" fill="#070606" transform="translate(0,0)"/>
<path d="" fill="#050705" transform="translate(0,0)"/>
<path d="" fill="#070706" transform="translate(0,0)"/>
<path d="" fill="#050505" transform="translate(0,0)"/>
<path d="" fill="#050605" transform="translate(0,0)"/>
<path d="" fill="#070805" transform="translate(0,0)"/>
<path d="" fill="#060A07" transform="translate(0,0)"/>
<path d="" fill="#060505" transform="translate(0,0)"/>
<path d="" fill="#070707" transform="translate(0,0)"/>
<path d="" fill="#060606" transform="translate(0,0)"/>
<path d="" fill="#060605" transform="translate(0,0)"/>
<path d="" fill="#070605" transform="translate(0,0)"/>
<path d="" fill="#080607" transform="translate(0,0)"/>
<path d="" fill="#070805" transform="translate(0,0)"/>
<path d="" fill="#070706" transform="translate(0,0)"/>
<path d="" fill="#080A09" transform="translate(0,0)"/>
<path d="" fill="#100E0E" transform="translate(0,0)"/>
<path d="" fill="#0F0F0D" transform="translate(0,0)"/>
<path d="" fill="#171615" transform="translate(0,0)"/>
<path d="" fill="#0F0F0D" transform="translate(0,0)"/>
<path d="" fill="#100F0E" transform="translate(0,0)"/>
<path d="" fill="#0E0E0E" transform="translate(0,0)"/>
<path d="" fill="#161615" transform="translate(0,0)"/>
<path d="" fill="#0C0B0B" transform="translate(0,0)"/>
<path d="" fill="#0C0D0F" transform="translate(0,0)"/>
<path d="" fill="#0F0B0B" transform="translate(0,0)"/>
<path d="" fill="#0E0C0C" transform="translate(0,0)"/>
<path d="" fill="#0E0F0E" transform="translate(0,0)"/>
<path d="" fill="#0F0F0D" transform="translate(0,0)"/>
<path d="" fill="#171615" transform="translate(0,0)"/>
<path d="" fill="#161713" transform="translate(0,0)"/>
<path d="" fill="#0F0C0D" transform="translate(0,0)"/>
<path d="" fill="#161514" transform="translate(0,0)"/>
<path d="" fill="#0F100E" transform="translate(0,0)"/>
<path d="" fill="#151515" transform="translate(0,0)"/>
<path d="" fill="#111211" transform="translate(0,0)"/>
<path d="" fill="#100F0F" transform="translate(0,0)"/>
<path d="" fill="#100F10" transform="translate(0,0)"/>
<path d="" fill="#101010" transform="translate(0,0)"/>
<path d="" fill="#0F0F0D" transform="translate(0,0)"/>
<path d="" fill="#111110" transform="translate(0,0)"/>
<path d="" fill="#151717" transform="translate(0,0)"/>
<path d="" fill="#191718" transform="translate(0,0)"/>
<path d="" fill="#100E0E" transform="translate(0,0)"/>
<path d="" fill="#0D0B09" transform="translate(0,0)"/>
<path d="" fill="#121211" transform="translate(0,0)"/>
<path d="" fill="#0C0A0C" transform="translate(0,0)"/>
<path d="" fill="#191B18" transform="translate(0,0)"/>
<path d="" fill="#0D0D0A" transform="translate(0,0)"/>
<path d="" fill="#0A0C0B" transform="translate(0,0)"/>
<path d="" fill="#0F100C" transform="translate(0,0)"/>
<path d="" fill="#0F0F0F" transform="translate(0,0)"/>
<path d="" fill="#0C0B0D" transform="translate(0,0)"/>
<path d="" fill="#0F0D0E" transform="translate(0,0)"/>
<path d="" fill="#120F10" transform="translate(0,0)"/>
<path d="" fill="#11110E" transform="translate(0,0)"/>
<path d="" fill="#0E0E0F" transform="translate(0,0)"/>
<path d="" fill="#0C0C0A" transform="translate(0,0)"/>
<path d="" fill="#161517" transform="translate(0,0)"/>
<path d="" fill="#0C0C0A" transform="translate(0,0)"/>
<path d="" fill="#141113" transform="translate(0,0)"/>
<path d="" fill="#0D0B0A" transform="translate(0,0)"/>
<path d="" fill="#0E0E0E" transform="translate(0,0)"/>
<path d="" fill="#0F0F0C" transform="translate(0,0)"/>
<path d="" fill="#0A090A" transform="translate(0,0)"/>
<path d="" fill="#0A0808" transform="translate(0,0)"/>
<path d="" fill="#100E0C" transform="translate(0,0)"/>
<path d="" fill="#0E0C0D" transform="translate(0,0)"/>
<path d="" fill="#0F0D0D" transform="translate(0,0)"/>
<path d="" fill="#0F100D" transform="translate(0,0)"/>
<path d="" fill="#100D0C" transform="translate(0,0)"/>
<path d="" fill="#0E0D0C" transform="translate(0,0)"/>
<path d="" fill="#0F100F" transform="translate(0,0)"/>
<path d="" fill="#161414" transform="translate(0,0)"/>
<path d="" fill="#100F10" transform="translate(0,0)"/>
<path d="" fill="#100E0E" transform="translate(0,0)"/>
<path d="" fill="#0D0F0D" transform="translate(0,0)"/>
<path d="" fill="#0D0A0A" transform="translate(0,0)"/>
<path d="" fill="#080B09" transform="translate(0,0)"/>
<path d="" fill="#0F0D0E" transform="translate(0,0)"/>
<path d="" fill="#11100E" transform="translate(0,0)"/>
<path d="" fill="#100F11" transform="translate(0,0)"/>
<path d="" fill="#161616" transform="translate(0,0)"/>
<path d="" fill="#101310" transform="translate(0,0)"/>
<path d="" fill="#0D0E0B" transform="translate(0,0)"/>
<path d="" fill="#141411" transform="translate(0,0)"/>
<path d="" fill="#0C0C0C" transform="translate(0,0)"/>
<path d="" fill="#0D0F0D" transform="translate(0,0)"/>
<path d="" fill="#141414" transform="translate(0,0)"/>
<path d="" fill="#151413" transform="translate(0,0)"/>
<path d="" fill="#0F0C09" transform="translate(0,0)"/>
<path d="" fill="#110F0F" transform="translate(0,0)"/>
<path d="" fill="#131213" transform="translate(0,0)"/>
<path d="" fill="#090B0D" transform="translate(0,0)"/>
<path d="" fill="#151614" transform="translate(0,0)"/>
<path d="" fill="#0C0E0B" transform="translate(0,0)"/>
<path d="" fill="#141312" transform="translate(0,0)"/>
<path d="" fill="#10100F" transform="translate(0,0)"/>
<path d="" fill="#0D0D0B" transform="translate(0,0)"/>
<path d="" fill="#0A0A0C" transform="translate(0,0)"/>
<path d="" fill="#0B0A0A" transform="translate(0,0)"/>
<path d="" fill="#0C0B0B" transform="translate(0,0)"/>
<path d="" fill="#0E0B0C" transform="translate(0,0)"/>
<path d="" fill="#0A0C0C" transform="translate(0,0)"/>
<path d="" fill="#11100F" transform="translate(0,0)"/>
<path d="" fill="#121515" transform="translate(0,0)"/>
<path d="" fill="#0C0C09" transform="translate(0,0)"/>
<path d="" fill="#141312" transform="translate(0,0)"/>
<path d="" fill="#100F0E" transform="translate(0,0)"/>
<path d="" fill="#131212" transform="translate(0,0)"/>
<path d="" fill="#0F0F0F" transform="translate(0,0)"/>
<path d="" fill="#100D0E" transform="translate(0,0)"/>
<path d="" fill="#0F110F" transform="translate(0,0)"/>
<path d="" fill="#0E0E10" transform="translate(0,0)"/>
<path d="" fill="#141311" transform="translate(0,0)"/>
<path d="" fill="#0E0E0F" transform="translate(0,0)"/>
<path d="" fill="#0F0F0D" transform="translate(0,0)"/>
<path d="" fill="#130F0F" transform="translate(0,0)"/>
<path d="" fill="#0E0E0E" transform="translate(0,0)"/>
<path d="" fill="#0E0D0D" transform="translate(0,0)"/>
<path d="" fill="#0D0B0C" transform="translate(0,0)"/>
<path d="" fill="#0C0C0C" transform="translate(0,0)"/>
<path d="" fill="#0F0F10" transform="translate(0,0)"/>
<path d="" fill="#111212" transform="translate(0,0)"/>
<path d="" fill="#0A0F0F" transform="translate(0,0)"/>
<path d="" fill="#0F100E" transform="translate(0,0)"/>
<path d="" fill="#110F0F" transform="translate(0,0)"/>
<path d="" fill="#0E0D0C" transform="translate(0,0)"/>
<path d="" fill="#0C0B09" transform="translate(0,0)"/>
<path d="" fill="#0F0D0C" transform="translate(0,0)"/>
<path d="" fill="#110F0E" transform="translate(0,0)"/>
<path d="" fill="#100D0C" transform="translate(0,0)"/>
<path d="" fill="#101110" transform="translate(0,0)"/>
<path d="" fill="#0C0A0C" transform="translate(0,0)"/>
<path d="" fill="#0E0E0E" transform="translate(0,0)"/>
<path d="" fill="#0D0C0B" transform="translate(0,0)"/>
<path d="" fill="#0D0F0F" transform="translate(0,0)"/>
<path d="" fill="#0F100D" transform="translate(0,0)"/>
<path d="" fill="#131111" transform="translate(0,0)"/>
<path d="" fill="#0E0D0E" transform="translate(0,0)"/>
<path d="" fill="#0F0F0D" transform="translate(0,0)"/>
<path d="" fill="#0E0E0C" transform="translate(0,0)"/>
<path d="" fill="#11110E" transform="translate(0,0)"/>
<path d="" fill="#121113" transform="translate(0,0)"/>
<path d="" fill="#110E0B" transform="translate(0,0)"/>
<path d="" fill="#0D0E10" transform="translate(0,0)"/>
<path d="" fill="#0D0C0D" transform="translate(0,0)"/>
<path d="" fill="#100F0E" transform="translate(0,0)"/>
<path d="" fill="#0B0B0A" transform="translate(0,0)"/>
<path d="" fill="#111010" transform="translate(0,0)"/>
<path d="" fill="#0F1210" transform="translate(0,0)"/>
<path d="" fill="#100F11" transform="translate(0,0)"/>
<path d="" fill="#0E0E0C" transform="translate(0,0)"/>
<path d="" fill="#10110F" transform="translate(0,0)"/>
<path d="" fill="#101211" transform="translate(0,0)"/>
<path d="" fill="#12120F" transform="translate(0,0)"/>
<path d="" fill="#0D0A0A" transform="translate(0,0)"/>
<path d="" fill="#121310" transform="translate(0,0)"/>
<path d="" fill="#0F0F0E" transform="translate(0,0)"/>
<path d="" fill="#10100D" transform="translate(0,0)"/>
<path d="" fill="#0D0E0C" transform="translate(0,0)"/>
<path d="" fill="#111311" transform="translate(0,0)"/>
<path d="" fill="#0E0E0D" transform="translate(0,0)"/>
<path d="" fill="#0D0E0D" transform="translate(0,0)"/>
<path d="" fill="#0E100C" transform="translate(0,0)"/>
<path d="" fill="#0F0E0F" transform="translate(0,0)"/>
<path d="" fill="#090908" transform="translate(0,0)"/>
<path d="" fill="#101010" transform="translate(0,0)"/>
<path d="" fill="#0E0E0D" transform="translate(0,0)"/>
<path d="" fill="#0F0F0F" transform="translate(0,0)"/>
<path d="" fill="#10100E" transform="translate(0,0)"/>
<path d="" fill="#100D0D" transform="translate(0,0)"/>
<path d="" fill="#0E0E0D" transform="translate(0,0)"/>
<path d="" fill="#0F0F0C" transform="translate(0,0)"/>
<path d="" fill="#0F0D0E" transform="translate(0,0)"/>
<path d="" fill="#0B0C0D" transform="translate(0,0)"/>
<path d="" fill="#0F0F0E" transform="translate(0,0)"/>
<path d="" fill="#0F0F0D" transform="translate(0,0)"/>
<path d="" fill="#0E0D0F" transform="translate(0,0)"/>
<path d="" fill="#0C0E0E" transform="translate(0,0)"/>
<path d="" fill="#0E0D0D" transform="translate(0,0)"/>
<path d="" fill="#10110E" transform="translate(0,0)"/>
<path d="" fill="#111010" transform="translate(0,0)"/>
<path d="" fill="#0E0E10" transform="translate(0,0)"/>
<path d="" fill="#0E1111" transform="translate(0,0)"/>
<path d="" fill="#100E0D" transform="translate(0,0)"/>
<path d="" fill="#0F0E0E" transform="translate(0,0)"/>
<path d="" fill="#0F0F0E" transform="translate(0,0)"/>
<path d="" fill="#101110" transform="translate(0,0)"/>
<path d="" fill="#11110F" transform="translate(0,0)"/>
<path d="" fill="#100E0D" transform="translate(0,0)"/>
<path d="" fill="#101110" transform="translate(0,0)"/>
<path d="" fill="#101210" transform="translate(0,0)"/>
<path d="" fill="#0C0C0D" transform="translate(0,0)"/>
<path d="" fill="#0E0E0E" transform="translate(0,0)"/>
<path d="" fill="#141311" transform="translate(0,0)"/>
<path d="" fill="#131412" transform="translate(0,0)"/>
<path d="" fill="#111012" transform="translate(0,0)"/>
<path d="" fill="#0F0F0F" transform="translate(0,0)"/>
<path d="" fill="#101110" transform="translate(0,0)"/>
<path d="" fill="#10100E" transform="translate(0,0)"/>
<path d="" fill="#100E0E" transform="translate(0,0)"/>
<path d="" fill="#0D0F0D" transform="translate(0,0)"/>
<path d="" fill="#0F0E0E" transform="translate(0,0)"/>
<path d="" fill="#0F0F0E" transform="translate(0,0)"/>
<path d="" fill="#0C0C0C" transform="translate(0,0)"/>
<path d="" fill="#0F0D0E" transform="translate(0,0)"/>
<path d="" fill="#0A0A09" transform="translate(0,0)"/>
<path d="" fill="#0F0D0E" transform="translate(0,0)"/>
<path d="" fill="#0A0B0B" transform="translate(0,0)"/>
<path d="" fill="#100F10" transform="translate(0,0)"/>
<path d="" fill="#0D0D0D" transform="translate(0,0)"/>
<path d="" fill="#0E0D0C" transform="translate(0,0)"/>
<path d="" fill="#111011" transform="translate(0,0)"/>
<path d="" fill="#0B0B0A" transform="translate(0,0)"/>
<path d="" fill="#0E0E0D" transform="translate(0,0)"/>
<path d="" fill="#0F0E0C" transform="translate(0,0)"/>
<path d="" fill="#0B0D0B" transform="translate(0,0)"/>
<path d="" fill="#0E1111" transform="translate(0,0)"/>
<path d="" fill="#0E100F" transform="translate(0,0)"/>
<path d="" fill="#0D0F10" transform="translate(0,0)"/>
<path d="" fill="#080B0A" transform="translate(0,0)"/>
<path d="" fill="#0F0C0B" transform="translate(0,0)"/>
<path d="" fill="#090A09" transform="translate(0,0)"/>
<path d="" fill="#0C0D0E" transform="translate(0,0)"/>
<path d="" fill="#0F100F" transform="translate(0,0)"/>
<path d="" fill="#0D0C0D" transform="translate(0,0)"/>
<path d="" fill="#0C0C0C" transform="translate(0,0)"/>
<path d="" fill="#090809" transform="translate(0,0)"/>
<path d="" fill="#090808" transform="translate(0,0)"/>
<path d="" fill="#090A08" transform="translate(0,0)"/>
<path d="" fill="#0D0D0B" transform="translate(0,0)"/>
<path d="" fill="#0C0C0C" transform="translate(0,0)"/>
<path d="" fill="#090707" transform="translate(0,0)"/>
<path d="" fill="#0A0807" transform="translate(0,0)"/>
<path d="" fill="#090909" transform="translate(0,0)"/>
<path d="" fill="#0A0909" transform="translate(0,0)"/>
<path d="" fill="#080808" transform="translate(0,0)"/>
<path d="" fill="#0A0907" transform="translate(0,0)"/>
<path d="" fill="#090707" transform="translate(0,0)"/>
<path d="" fill="#080A07" transform="translate(0,0)"/>
<path d="" fill="#080707" transform="translate(0,0)"/>
<path d="" fill="#080807" transform="translate(0,0)"/>
<path d="" fill="#090907" transform="translate(0,0)"/>
<path d="" fill="#090908" transform="translate(0,0)"/>
<path d="" fill="#090907" transform="translate(0,0)"/>
<path d="" fill="#0D0D0C" transform="translate(0,0)"/>
<path d="" fill="#0D0D0B" transform="translate(0,0)"/>
<path d="" fill="#0F0F10" transform="translate(0,0)"/>
<path d="" fill="#0F1212" transform="translate(0,0)"/>
<path d="" fill="#101213" transform="translate(0,0)"/>
<path d="" fill="#141312" transform="translate(0,0)"/>
<path d="" fill="#121010" transform="translate(0,0)"/>
<path d="" fill="#121110" transform="translate(0,0)"/>
<path d="" fill="#121510" transform="translate(0,0)"/>
<path d="" fill="#151212" transform="translate(0,0)"/>
<path d="" fill="#141312" transform="translate(0,0)"/>
<path d="" fill="#13110F" transform="translate(0,0)"/>
<path d="" fill="#11100F" transform="translate(0,0)"/>
<path d="" fill="#141515" transform="translate(0,0)"/>
<path d="" fill="#121511" transform="translate(0,0)"/>
<path d="" fill="#131514" transform="translate(0,0)"/>
<path d="" fill="#141212" transform="translate(0,0)"/>
<path d="" fill="#151414" transform="translate(0,0)"/>
<path d="" fill="#121213" transform="translate(0,0)"/>
<path d="" fill="#111111" transform="translate(0,0)"/>
<path d="" fill="#10100F" transform="translate(0,0)"/>
<path d="" fill="#141313" transform="translate(0,0)"/>
<path d="" fill="#141512" transform="translate(0,0)"/>
<path d="" fill="#121311" transform="translate(0,0)"/>
<path d="" fill="#151213" transform="translate(0,0)"/>
<path d="" fill="#161614" transform="translate(0,0)"/>
</svg>
