<?xml version="1.0" encoding="UTF-8"?>
<svg version="1.1" xmlns="http://www.w3.org/2000/svg" width="1024" height="1024">
<path d="M0 0 C2.44558791 -0.00463534 4.8911751 -0.00966095 7.33676147 -0.01504517 C13.95062486 -0.02809989 20.56448092 -0.0346381 27.17835402 -0.03905582 C31.31856839 -0.04183274 35.45878048 -0.04607249 39.5989933 -0.05056 C51.09362611 -0.06273834 62.58825712 -0.07304194 74.08289623 -0.07643509 C75.18297483 -0.07676444 75.18297483 -0.07676444 76.30527725 -0.07710044 C77.40775981 -0.07742786 77.40775981 -0.07742786 78.53251475 -0.07776189 C80.02151374 -0.07820533 81.51051273 -0.07865189 82.99951172 -0.07910156 C84.10736852 -0.07943371 84.10736852 -0.07943371 85.23760626 -0.07977256 C97.19742153 -0.08371828 109.1571758 -0.10117187 121.11696752 -0.12446108 C133.43686359 -0.14825531 145.75672914 -0.16064052 158.07664853 -0.16180301 C164.97740947 -0.162715 171.87809077 -0.16834671 178.77882957 -0.18662262 C185.27388799 -0.20376559 191.76883615 -0.20521641 198.2639122 -0.19648361 C200.63488864 -0.19571799 203.00587346 -0.19999248 205.37682915 -0.20994186 C221.99790787 -0.27554828 237.99773337 0.58712738 253.95629883 5.66113281 C254.62725586 5.8609375 255.29821289 6.06074219 255.98950195 6.26660156 C260.40213298 7.61311871 264.56382929 9.28498557 268.76879883 11.16113281 C269.09879883 10.50113281 269.42879883 9.84113281 269.76879883 9.16113281 C270.42879883 9.16113281 271.08879883 9.16113281 271.76879883 9.16113281 C272.09879883 10.15113281 272.42879883 11.14113281 272.76879883 12.16113281 C273.42879883 12.49113281 274.08879883 12.82113281 274.76879883 13.16113281 C275.42879883 13.82113281 276.08879883 14.48113281 276.76879883 15.16113281 C278.39698505 16.08865336 280.04629706 16.9793349 281.70629883 17.84863281 C295.25230196 25.15889458 308.23771792 33.84022084 318.76879883 45.16113281 C319.59379883 45.98613281 320.41879883 46.81113281 321.26879883 47.66113281 C322.09379883 48.48613281 322.91879883 49.31113281 323.76879883 50.16113281 C324.28289307 50.65564941 324.7969873 51.15016602 325.32666016 51.65966797 C347.70523493 73.43496922 363.33612727 107.46992584 364.03622437 138.8561554 C364.05397072 141.31363817 364.06110565 143.77121356 364.05932617 146.22875977 C364.06532756 147.59534058 364.07213673 148.96191804 364.0796814 150.32849121 C364.09718276 154.00430892 364.10202993 157.68003325 364.10331297 161.35588861 C364.10474394 163.66168363 364.10903119 165.96745561 364.1143074 168.27324486 C364.13275364 176.34355527 364.14098464 184.41380006 364.1394043 192.48413086 C364.13820366 199.96525374 364.15930467 207.44608781 364.19089162 214.92713767 C364.21717576 221.38617293 364.22776658 227.84511451 364.22649348 234.30420274 C364.22598749 238.14601895 364.23146693 241.98757784 364.25284958 245.82933998 C364.27243905 249.4468643 364.27221798 253.06389114 364.25781631 256.68143463 C364.25478151 258.61434387 364.27125741 260.54725433 364.28869629 262.48008728 C364.17294457 278.89529287 359.40747033 293.4062938 348.01879883 305.53613281 C331.83757063 320.81160391 312.49004104 321.31424166 291.52655029 321.30157471 C289.79930469 321.30416308 288.07205969 321.30717754 286.34481549 321.31057811 C281.62555505 321.3185955 276.90630987 321.32043472 272.18704343 321.32117558 C267.08669206 321.32303528 261.98634843 321.33058699 256.88600159 321.33731079 C245.74756444 321.35085556 234.60913092 321.35691235 223.47068691 321.36132145 C216.51013297 321.36408951 209.54958041 321.36832779 202.5890274 321.37282562 C183.29927533 321.38501154 164.00952436 321.3953133 144.71976852 321.39870071 C143.48678585 321.39892028 142.25380318 321.39913985 140.9834574 321.39936607 C139.74761874 321.39958434 138.51178009 321.39980262 137.23849177 321.40002751 C134.73443397 321.40047097 132.23037616 321.40091753 129.72631836 321.40136719 C128.48423376 321.40158862 127.24214915 321.40181005 125.96242562 321.40203819 C105.83398419 321.40598668 85.70557895 321.42344533 65.57715151 321.44672671 C44.88842588 321.47046221 24.1997184 321.48290351 3.51097894 321.48406863 C-8.09577137 321.48498397 -19.70247446 321.49070104 -31.30921173 321.50888824 C-41.19098518 321.52431867 -51.07269681 321.52939221 -60.95448002 321.52115014 C-65.99140496 321.51725454 -71.0282055 321.51811995 -76.06511497 321.53220749 C-80.685435 321.54501126 -85.30553799 321.54369254 -89.92585799 321.53161678 C-91.58795542 321.52967098 -93.25006857 321.53268586 -94.91214398 321.54146114 C-114.14318561 321.63648263 -131.53815969 319.3328349 -146.04760742 305.45019531 C-149.13430023 302.21441359 -151.79576416 298.90908079 -154.23120117 295.16113281 C-154.68237305 294.49855469 -155.13354492 293.83597656 -155.59838867 293.15332031 C-162.12419809 282.68885669 -162.68000498 270.23640313 -162.63525391 258.22119141 C-162.64211716 256.90528015 -162.64898041 255.5893689 -162.65605164 254.23358154 C-162.67379194 250.66699312 -162.67285036 247.10065329 -162.66710925 243.53403425 C-162.6639869 240.53292301 -162.67014381 237.53185746 -162.676148 234.53075278 C-162.69013126 227.43501288 -162.68868624 220.3393935 -162.67724609 213.24365234 C-162.66579335 205.98069434 -162.67980668 198.71810687 -162.70664257 191.45519769 C-162.72897575 185.17012774 -162.73539712 178.88517255 -162.72956616 172.60006583 C-162.72623433 168.86823944 -162.72835323 165.13664977 -162.74581718 161.40485764 C-162.92311237 119.49604672 -151.98417463 85.76161361 -125.23120117 53.16113281 C-124.79533691 52.62302979 -124.35947266 52.08492676 -123.91040039 51.53051758 C-121.04890671 48.0317551 -118.07293111 45.1100981 -114.63745117 42.20019531 C-112.86602207 40.69908169 -111.11945725 39.16850431 -109.38745117 37.62207031 C-90.41613493 20.82533182 -66.91437326 8.90649789 -42.36791992 2.70410156 C-40.63517191 2.26378717 -38.92727405 1.72649044 -37.23120117 1.16113281 C-24.94924389 -0.50923007 -12.3610407 0.0054793 0 0 Z M-40.10620117 31.97363281 C-41.57802856 32.37545776 -41.57802856 32.37545776 -43.07958984 32.78540039 C-62.91327222 38.33038948 -82.07526755 48.91083663 -96.23120117 64.16113281 C-96.92531157 65.48038752 -97.60372205 66.80891531 -98.23120117 68.16113281 C-99.22120117 68.49113281 -100.21120117 68.82113281 -101.23120117 69.16113281 C-104.47503247 72.62499143 -107.32950234 76.40885225 -110.23120117 80.16113281 C-110.84608398 80.95003906 -111.4609668 81.73894531 -112.09448242 82.55175781 C-130.84109689 107.89200909 -134.40485446 136.57970834 -134.36401367 167.12207031 C-134.36524342 168.8291527 -134.36681311 170.53623486 -134.36869812 172.24331665 C-134.37252953 177.67427295 -134.36516902 183.10518472 -134.35620117 188.53613281 C-134.35493099 189.45559692 -134.35366081 190.37506104 -134.35235214 191.3223877 C-134.33609921 203.0478134 -134.30205469 214.7730894 -134.25079346 226.49841309 C-134.23815258 229.3998595 -134.22728348 232.30129553 -134.21942139 235.20275879 C-134.20216766 241.36265058 -134.1683265 247.5212105 -134.07659912 253.68048096 C-134.05499857 255.30925897 -134.04127658 256.93816433 -134.03619385 258.56707764 C-133.99317375 268.88669433 -132.81736561 276.73749486 -125.98510742 284.81738281 C-125.26194336 285.42582031 -124.5387793 286.03425781 -123.79370117 286.66113281 C-123.07311523 287.29019531 -122.3525293 287.91925781 -121.61010742 288.56738281 C-115.77629641 292.47574881 -109.85402876 292.49111293 -103.07495117 292.57519531 C-102.09562622 292.59456146 -101.11630127 292.61392761 -100.1072998 292.63388062 C-96.98202135 292.69340884 -93.85670034 292.73981483 -90.73120117 292.78613281 C-88.66087316 292.82436422 -86.59056017 292.86341886 -84.52026367 292.90332031 C-63.09204238 293.35438856 -63.09204238 293.35438856 -41.70385742 292.28222656 C-38.23120117 292.16113281 -38.23120117 292.16113281 -35.31591797 292.64526367 C-29.71317385 293.49055863 -24.05551703 293.30364679 -18.40307617 293.29394531 C-17.17711731 293.29490204 -15.95115845 293.29585876 -14.68804932 293.29684448 C-12.10607858 293.29752307 -9.52410611 293.29569123 -6.94213867 293.29150391 C-2.98116255 293.28613276 0.97970113 293.29146923 4.94067383 293.29785156 C7.45109075 293.29719108 9.96150759 293.29591055 12.47192383 293.29394531 C13.65941223 293.29596954 14.84690063 293.29799377 16.07037354 293.30007935 C17.71788605 293.2953511 17.71788605 293.2953511 19.39868164 293.29052734 C20.36574036 293.28973175 21.33279907 293.28893616 22.3291626 293.28811646 C24.90887007 293.26249119 24.90887007 293.26249119 27.76879883 292.16113281 C29.4373726 292.48478456 31.10368527 292.82012587 32.76879883 293.16113281 C35.3005795 293.25267318 37.80403346 293.29619055 40.3352356 293.28811646 C41.08876466 293.28967645 41.84229372 293.29123644 42.61865699 293.2928437 C45.13893912 293.29682649 47.65916081 293.29367462 50.17944336 293.29052734 C51.9880985 293.29188257 53.79675337 293.29366318 55.60540771 293.2958374 C60.5142543 293.30039667 65.42307987 293.29862852 70.33192682 293.29545832 C75.466148 293.29292773 80.60036737 293.29527414 85.73458862 293.29684448 C94.35455651 293.2986638 102.97451583 293.29626574 111.59448242 293.29150391 C121.56756371 293.28605829 131.54062457 293.28782707 141.51370537 293.29333031 C150.07174579 293.29786408 158.62978004 293.2985108 167.18782127 293.29589164 C172.30134598 293.29433077 177.41486107 293.29413 182.52838516 293.29742813 C187.33329224 293.30031078 192.13817288 293.29832387 196.94307709 293.29253387 C198.70918356 293.29120855 200.47529225 293.29159656 202.24139786 293.29379654 C204.64640534 293.29651683 207.05132736 293.2931161 209.45632935 293.28811646 C210.51200739 293.29146254 210.51200739 293.29146254 211.58901227 293.29487622 C214.60125402 293.28267562 216.88484546 293.1224506 219.76879883 292.16113281 C221.36298359 292.14553448 222.95826201 292.19343983 224.55004883 292.28222656 C225.47430664 292.33056641 226.39856445 292.37890625 227.35083008 292.42871094 C228.31375977 292.48478516 229.27668945 292.54085938 230.26879883 292.59863281 C232.1750226 292.70198229 234.08127163 292.80486719 235.98754883 292.90722656 C236.8325293 292.95548584 237.67750977 293.00374512 238.5480957 293.0534668 C240.28665798 293.13775725 242.02819443 293.16113281 243.76879883 293.16113281 C245.35156616 293.16898804 245.35156616 293.16898804 246.96630859 293.17700195 C263.75109554 293.25805814 280.54297515 293.29850581 297.32516479 292.9526062 C298.77291012 292.92523477 300.22079489 292.90436685 301.66873169 292.89041138 C311.33475153 292.78886542 319.0920379 292.21432562 326.58129883 285.72363281 C327.30317383 284.87800781 328.02504883 284.03238281 328.76879883 283.16113281 C329.85161133 281.95457031 329.85161133 281.95457031 330.95629883 280.72363281 C334.18777639 276.15499212 335.01796397 271.71587446 335.03622437 266.19436646 C335.04475433 265.02284531 335.0532843 263.85132416 335.06207275 262.64430237 C335.06116638 261.37255661 335.06026001 260.10081085 335.05932617 258.79052734 C335.06531631 257.426454 335.07212297 256.06238404 335.0796814 254.69831848 C335.09731163 251.00141816 335.10203586 247.30461052 335.10331297 243.60767221 C335.10473823 241.29084604 335.1090152 238.97404313 335.1143074 236.65722275 C335.1328066 228.55336779 335.14097925 220.4495785 335.1394043 212.34570312 C335.13820693 204.82837091 335.15922951 197.31132768 335.19089162 189.79406846 C335.21719509 183.31475658 335.22776556 176.83553814 335.22649348 170.3561734 C335.22598742 166.49802799 335.23146909 162.64013883 335.25284958 158.78204727 C335.60587444 136.63140534 335.60587444 136.63140534 330.76879883 115.16113281 C330.29366578 113.80968571 329.81854294 112.45823502 329.34342957 111.10678101 C324.54349846 97.76516024 317.05283321 85.8431492 307.76879883 75.16113281 C306.70532227 73.91589844 306.70532227 73.91589844 305.62036133 72.64550781 C297.63875229 63.5156673 288.92267619 55.78709366 278.76879883 49.16113281 C277.30506836 48.18853516 277.30506836 48.18853516 275.81176758 47.19628906 C262.24995683 38.48395441 248.35419609 33.33253748 232.71313477 29.62255859 C231.44888582 29.32252965 230.18969042 29.0000189 228.93787116 28.65174991 C226.62883176 28.12947401 224.48370786 27.9550754 222.11930561 27.84983349 C221.20806201 27.80860924 220.2968184 27.76738498 219.35796136 27.72491151 C218.37916837 27.6862356 217.40037538 27.6475597 216.391922 27.60771179 C214.85470732 27.54456111 214.85470732 27.54456111 213.28643781 27.48013467 C202.78961027 27.07780923 192.30205139 27.0127735 181.79882812 27.01586914 C179.71629274 27.01286561 177.6337579 27.00946042 175.55122375 27.00569153 C169.97303965 26.99697562 164.39487093 26.99451894 158.81668067 26.99387574 C155.31797427 26.99315893 151.81927163 26.99101301 148.32056618 26.98837852 C136.0776406 26.97917125 123.8347258 26.97503843 111.59179688 26.97583008 C100.23488696 26.97643192 88.87802438 26.96584732 77.52112645 26.95008641 C67.71409087 26.93696803 57.9070707 26.93164787 48.10002643 26.93228549 C42.266956 26.9325389 36.43392789 26.92977402 30.60086632 26.91910744 C25.11851724 26.90935174 19.63625039 26.90939791 14.15389824 26.91662407 C12.1570295 26.91766018 10.16015543 26.91536586 8.16329575 26.90926361 C-8.19395964 26.86255953 -24.2556626 27.55910944 -40.10620117 31.97363281 Z " fill="#181818" transform="translate(411.231201171875,526.8388671875)"/>
<path d="M0 0 C1.26984891 1.07802575 2.55039957 2.14351663 3.83886719 3.19921875 C4.48098145 3.73095703 5.1230957 4.26269531 5.78466797 4.81054688 C6.36724365 5.28782227 6.94981934 5.76509766 7.55004883 6.25683594 C8.81982422 7.54492187 8.81982422 7.54492187 8.81982422 9.54492188 C9.47982422 9.54492188 10.13982422 9.54492188 10.81982422 9.54492188 C13.40217776 11.96491187 15.56648105 14.82213222 17.81982422 17.54492188 C18.26712891 18.07601562 18.71443359 18.60710937 19.17529297 19.15429688 C26.70409552 28.1161959 33.19910328 37.27581763 38.81982422 47.54492188 C39.43470703 48.66253906 40.04958984 49.78015625 40.68310547 50.93164062 C55.30000356 78.83662789 59.51122021 108.48279522 60.81982422 139.54492188 C60.15982422 139.54492188 59.49982422 139.54492188 58.81982422 139.54492188 C58.84919067 140.44392212 58.84919067 140.44392212 58.87915039 141.36108398 C58.99684994 147.79843959 58.33840685 153.79189349 57.13232422 160.10742188 C56.8611377 161.54359863 56.8611377 161.54359863 56.58447266 163.00878906 C53.56731409 178.43381948 48.6801909 192.41172869 41.81982422 206.54492188 C41.4961084 207.21297852 41.17239258 207.88103516 40.83886719 208.56933594 C20.81676422 249.26499819 -15.71912952 279.3992646 -58.11987305 294.52807617 C-85.08112027 303.6958539 -112.58838837 305.31346795 -140.86767578 302.73242188 C-142.07472168 302.62740356 -142.07472168 302.62740356 -143.30615234 302.52026367 C-149.18592624 301.9005271 -154.57039159 300.37021119 -160.18017578 298.54492188 C-161.8142587 298.04221476 -163.44837328 297.53961057 -165.08251953 297.03710938 C-187.60746406 289.88985658 -208.15775004 279.81520557 -226.07861328 264.22460938 C-228.16649937 262.35765858 -228.16649937 262.35765858 -231.18017578 261.54492188 C-232.65283203 260.04882813 -232.65283203 260.04882813 -234.24267578 258.10742188 C-237.00750118 254.83145228 -239.90399491 251.82954875 -242.99267578 248.85742188 C-251.79385575 240.13649583 -258.77817973 230.12305442 -265.18017578 219.54492188 C-265.84017578 219.87492187 -266.50017578 220.20492188 -267.18017578 220.54492188 C-267.26138672 219.72507812 -267.34259766 218.90523438 -267.42626953 218.06054688 C-268.36262541 213.69412051 -270.16292194 210.21735917 -272.24267578 206.29492188 C-276.18017578 198.78338341 -276.18017578 198.78338341 -276.18017578 196.54492188 C-276.84017578 196.21492187 -277.50017578 195.88492188 -278.18017578 195.54492188 C-278.91967773 193.87182617 -278.91967773 193.87182617 -279.60595703 191.68164062 C-279.99001709 190.46033447 -279.99001709 190.46033447 -280.38183594 189.21435547 C-281.75943912 184.60802116 -283.08980931 179.99244867 -284.36767578 175.35742188 C-284.6403125 174.39900391 -284.91294922 173.44058594 -285.19384766 172.453125 C-286.5010288 167.71254577 -287.55599225 163.51405071 -287.18017578 158.54492188 C-288.50017578 157.88492188 -289.82017578 157.22492188 -291.18017578 156.54492188 C-291.18017578 154.23492187 -291.18017578 151.92492187 -291.18017578 149.54492188 C-290.85017578 149.54492188 -290.52017578 149.54492188 -290.18017578 149.54492188 C-290.05250771 141.79972578 -290.36231792 134.19453295 -291.05908203 126.47851562 C-291.18017578 123.54492188 -291.18017578 123.54492188 -290.18017578 120.54492188 C-289.96980157 118.52866209 -289.76347303 116.5118264 -289.58569336 114.49243164 C-287.42859449 90.27640005 -280.85478406 67.89615483 -269.18017578 46.54492188 C-268.60396484 45.47757812 -268.02775391 44.41023438 -267.43408203 43.31054688 C-261.5581151 32.83422708 -254.22528548 23.63040102 -246.43017578 14.54492188 C-245.88731934 13.90965576 -245.34446289 13.27438965 -244.78515625 12.61987305 C-241.8019474 9.19445274 -238.78369237 6.33474117 -235.18017578 3.54492188 C-233.51084032 1.88092829 -231.84429986 0.21412725 -230.18017578 -1.45507812 C-228.2213189 -3.16611193 -226.24138615 -4.85327232 -224.24267578 -6.51757812 C-223.24365234 -7.35417969 -222.24462891 -8.19078125 -221.21533203 -9.05273438 C-218.29628001 -11.36318095 -215.28307472 -13.40266275 -212.18017578 -15.45507812 C-211.52017578 -16.11507812 -210.86017578 -16.77507812 -210.18017578 -17.45507812 C-143.81514478 -59.42954218 -58.80236064 -50.05134519 0 0 Z M-219.18017578 26.54492188 C-219.89689453 27.22039062 -220.61361328 27.89585937 -221.35205078 28.59179688 C-223.85542966 30.98527728 -223.85542966 30.98527728 -226.18017578 33.54492188 C-226.18017578 34.20492187 -226.18017578 34.86492187 -226.18017578 35.54492188 C-226.84017578 35.54492188 -227.50017578 35.54492188 -228.18017578 35.54492188 C-229.96871761 37.67282805 -231.61656906 39.79658751 -233.24267578 42.04492188 C-233.73147217 42.71910156 -234.22026855 43.39328125 -234.72387695 44.08789062 C-256.31817872 74.44687651 -266.52253444 112.90130496 -260.64160156 149.93408203 C-253.58506674 189.86137485 -234.47733431 224.93600003 -200.90698242 248.78662109 C-168.11633235 271.13392381 -128.42248849 280.41810238 -89.18017578 273.54492188 C-59.96122192 267.5563525 -33.75381423 254.23800365 -12.18017578 233.54492188 C-11.42220703 232.83851563 -10.66423828 232.13210938 -9.88330078 231.40429688 C16.78821868 205.8364265 30.30608447 168.87467596 31.81982422 132.54492188 C30.82982422 132.21492187 29.83982422 131.88492188 28.81982422 131.54492188 C29.80982422 131.21492187 30.79982422 130.88492188 31.81982422 130.54492188 C31.67936167 127.58624269 31.53270198 124.62809923 31.38232422 121.66992188 C31.34300781 120.82816406 31.30369141 119.98640625 31.26318359 119.11914062 C31.22128906 118.31347656 31.17939453 117.5078125 31.13623047 116.67773438 C31.09957275 115.93410645 31.06291504 115.19047852 31.02514648 114.42431641 C30.92026556 112.45627876 30.92026556 112.45627876 29.81982422 110.54492188 C29.68832092 109.13053083 29.5894996 107.71303412 29.50732422 106.29492188 C26.74426656 77.07349388 9.69263331 50.15485296 -10.18017578 29.54492188 C-10.88400391 28.77792969 -11.58783203 28.0109375 -12.31298828 27.22070312 C-36.86710964 1.21947576 -74.23498153 -14.51719163 -109.75439453 -15.74023438 C-151.76435822 -16.56790042 -188.61175595 -2.31337657 -219.18017578 26.54492188 Z M-290.18017578 151.54492188 C-289.85017578 153.52492188 -289.52017578 155.50492188 -289.18017578 157.54492188 C-288.85017578 157.54492188 -288.52017578 157.54492188 -288.18017578 157.54492188 C-288.18017578 155.56492187 -288.18017578 153.58492187 -288.18017578 151.54492188 C-288.84017578 151.54492188 -289.50017578 151.54492188 -290.18017578 151.54492188 Z " fill="#161615" transform="translate(627.18017578125,217.455078125)"/>
<path d="M0 0 C0.94934921 0.01879211 0.94934921 0.01879211 1.9178772 0.03796387 C8.57021995 0.16937332 15.22259851 0.29884496 21.875 0.42724609 C24.34994437 0.47526259 26.82487956 0.52375526 29.29980469 0.57275391 C53.93503513 1.23185598 53.93503513 1.23185598 78.52734375 0.12109375 C82 0 82 0 84.9152832 0.48413086 C90.51802732 1.32942582 96.17568414 1.14251398 101.828125 1.1328125 C103.05408386 1.13376923 104.28004272 1.13472595 105.54315186 1.13571167 C108.12512259 1.13639026 110.70709507 1.13455842 113.2890625 1.13037109 C117.25003862 1.12499995 121.2109023 1.13033642 125.171875 1.13671875 C127.68229192 1.13605827 130.19270876 1.13477774 132.703125 1.1328125 C133.8906134 1.13483673 135.07810181 1.13686096 136.30157471 1.13894653 C137.39991638 1.13579437 138.49825806 1.13264221 139.62988281 1.12939453 C140.59694153 1.12859894 141.56400024 1.12780334 142.56036377 1.12698364 C145.14007125 1.10135838 145.14007125 1.10135838 148 0 C149.6685449 0.32380058 151.33486376 0.65910386 153 1 C155.52601338 1.08949063 158.02333193 1.1308009 160.54866028 1.12025452 C161.67600359 1.12153615 161.67600359 1.12153615 162.82612151 1.12284368 C165.33959043 1.12448826 167.85299233 1.11899386 170.36645508 1.11352539 C172.17012531 1.11324327 173.97379566 1.11340173 175.77746582 1.1139679 C180.67165181 1.11425491 185.56581331 1.10837365 190.4599936 1.10139394 C195.5755973 1.09514445 200.69120155 1.09455534 205.80680847 1.09336853 C215.49291443 1.09025993 225.17900911 1.08205287 234.8651101 1.07201904 C245.89282607 1.06084331 256.92054258 1.05534377 267.94826281 1.05032361 C290.63218146 1.03986988 313.3160901 1.02227952 336 1 C333.52490267 3.47509733 332.77986508 3.26468916 329.36673164 3.31562424 C328.38841417 3.33484169 327.41009669 3.35405913 326.40213323 3.37385893 C325.32415369 3.38476954 324.24617415 3.39568015 323.13552856 3.40692139 C322.00338952 3.42577534 320.87125047 3.4446293 319.70480418 3.46405458 C315.92062809 3.52378118 312.13644196 3.56845269 308.35205078 3.61230469 C306.35289197 3.64026396 304.35373317 3.66822955 302.35458425 3.69688724 C273.43836753 4.10786813 244.51973981 4.18134887 215.60100317 4.20018864 C211.29142616 4.20301995 206.98185116 4.20726451 202.67227554 4.21169281 C190.63961113 4.2237755 178.6069482 4.23412208 166.57427788 4.2375679 C165.81872947 4.23778747 165.06318105 4.23800703 164.28473724 4.23823325 C163.52803811 4.23845153 162.77133899 4.23866981 161.99170959 4.2388947 C160.45980509 4.23933809 158.92790059 4.23978465 157.39599609 4.24023438 C156.25632888 4.24056652 156.25632888 4.24056652 155.09363808 4.24090537 C142.64244624 4.24489752 130.19131128 4.26253227 117.74014162 4.2855939 C104.83009641 4.30930771 91.92008007 4.32176831 79.01001275 4.32293582 C71.81008788 4.32384801 64.61023923 4.32949267 57.41033554 4.34775543 C50.68732275 4.36475894 43.96448022 4.36641063 37.24144363 4.35761642 C34.78118245 4.35684563 32.32091346 4.36119428 29.860672 4.37107468 C26.50149448 4.38377746 23.14283488 4.37792767 19.78366089 4.36749268 C18.33086347 4.37957728 18.33086347 4.37957728 16.84871662 4.39190602 C10.72194092 4.34744647 5.68209225 3.29955801 0 1 C0 0.67 0 0.34 0 0 Z " fill="#272725" transform="translate(291,818)"/>
<path d="M0 0 C3.10492808 0.1332215 6.20520026 0.11741224 9.3125 0.09765625 C10.16682617 0.0962413 11.02115234 0.09482635 11.90136719 0.09336853 C14.60094873 0.08781962 17.30044399 0.07527697 20 0.0625 C21.84244671 0.05747839 23.68489473 0.05291664 25.52734375 0.04882812 C30.01826186 0.03786699 34.50911636 0.02063825 39 0 C39 0.33 39 0.66 39 1 C17.55922253 2.27281965 -3.89079725 2.15422279 -25.36035156 2.13037109 C-30.62555965 2.12460676 -35.89071749 2.12800912 -41.15592384 2.13394356 C-45.24285259 2.13755457 -49.32976935 2.13640925 -53.41669846 2.13381577 C-55.35991802 2.13315149 -57.30313869 2.13395737 -59.24635696 2.13629532 C-61.94633138 2.13883813 -64.64622315 2.13496131 -67.34619141 2.12939453 C-68.13783188 2.13141876 -68.92947235 2.13344299 -69.74510193 2.13552856 C-73.94050085 2.11952552 -77.86654934 1.82683376 -82 1 C-82 0.67 -82 0.34 -82 0 C-81.27940399 0.00222061 -80.55880798 0.00444122 -79.81637573 0.00672913 C-72.96301797 0.02692235 -66.10966475 0.04206991 -59.25628471 0.05181217 C-55.73448269 0.05698942 -52.21270563 0.06399101 -48.69091797 0.07543945 C-44.6246723 0.08857224 -40.55845209 0.09327077 -36.4921875 0.09765625 C-34.63193436 0.10539818 -34.63193436 0.10539818 -32.73410034 0.11329651 C-26.65115444 0.11367932 -20.65786083 -0.06625013 -14.59423828 -0.56860352 C-9.45958076 -0.97770667 -5.07136648 -0.77787227 0 0 Z " fill="#53524F" transform="translate(380,819)"/>
<path d="M0 0 C11.386011 17.0790165 9.91352606 45.1528325 11 65 C10.34 65 9.68 65 9 65 C9 68.3 9 71.6 9 75 C8.34 75 7.68 75 7 75 C6.67 76.32 6.34 77.64 6 79 C6.00523682 77.96294922 6.01047363 76.92589844 6.01586914 75.85742188 C6.03427098 71.92855732 6.04555749 67.99969637 6.05493164 64.07080078 C6.0598929 62.38557287 6.06666403 60.70034909 6.07543945 59.01513672 C6.13146212 47.9621949 5.84818667 37.02355796 5 26 C4.67 26 4.34 26 4 26 C3.12867639 22.60833365 2.28101682 19.21117918 1.4375 15.8125 C1.19064453 14.85279297 0.94378906 13.89308594 0.68945312 12.90429688 C0.46064453 11.97294922 0.23183594 11.04160156 -0.00390625 10.08203125 C-0.21861572 9.22843018 -0.4333252 8.3748291 -0.65454102 7.49536133 C-1.03643718 4.7368025 -0.69085484 2.68152472 0 0 Z " fill="#2E2E2D" transform="translate(677,292)"/>
<path d="M0 0 C0.33 0 0.66 0 1 0 C1.12669769 7.47516383 1.12669769 7.47516383 0.51147461 10.02368164 C-0.22286576 14.29687658 -0.21678683 18.53049139 -0.28125 22.859375 C-0.29965942 23.80435852 -0.31806885 24.74934204 -0.33703613 25.72296143 C-0.41559835 29.75774016 -0.48374843 33.79267638 -0.55224609 37.82763672 C-0.60380237 40.77580448 -0.66108482 43.72382144 -0.71875 46.671875 C-0.73232544 47.59160095 -0.74590088 48.5113269 -0.7598877 49.45892334 C-0.88711178 55.88711178 -0.88711178 55.88711178 -2 57 C-2.04063832 58.66617115 -2.042721 60.33388095 -2 62 C-2.66 61.67 -3.32 61.34 -4 61 C-4 58.69 -4 56.38 -4 54 C-3.67 54 -3.34 54 -3 54 C-2.87233193 46.25480391 -3.18214214 38.64961108 -3.87890625 30.93359375 C-4 28 -4 28 -3 25 C-2.80087712 23.5914476 -2.63772918 22.1775932 -2.5 20.76171875 C-2.4175 19.94123047 -2.335 19.12074219 -2.25 18.27539062 C-2.1675 17.42138672 -2.085 16.56738281 -2 15.6875 C-1.48445784 10.42333126 -0.9515344 5.20795169 0 0 Z " fill="#5C5C5C" transform="translate(340,313)"/>
<path d="M0 0 C5.60748695 8.41123042 8.21270844 22.89634932 8 33 C7.01 32.34 6.02 31.68 5 31 C4.8125 28.375 4.8125 28.375 5 26 C4.67 26 4.34 26 4 26 C3.12867639 22.60833365 2.28101682 19.21117918 1.4375 15.8125 C1.19064453 14.85279297 0.94378906 13.89308594 0.68945312 12.90429688 C0.46064453 11.97294922 0.23183594 11.04160156 -0.00390625 10.08203125 C-0.21861572 9.22843018 -0.4333252 8.3748291 -0.65454102 7.49536133 C-1.03643718 4.7368025 -0.69085484 2.68152472 0 0 Z " fill="#212121" transform="translate(677,292)"/>
<path d="M0 0 C7.1930671 -0.27964408 14.15452485 0.29971062 21.27880859 1.21386719 C29.16456676 2.20024513 37.06521568 2.62262603 45 3 C45 3.33 45 3.66 45 4 C40.68077822 4.07528812 36.36192432 4.12912646 32.04223633 4.16479492 C30.57895234 4.17969533 29.11571147 4.20002282 27.65258789 4.22631836 C17.93791743 4.39628343 9.40481041 3.71227924 0 1 C0 0.67 0 0.34 0 0 Z " fill="#383837" transform="translate(475,490)"/>
<path d="M0 0 C3.12278659 3.12278659 3.82704652 7.09530679 5.125 11.25 C5.40214844 12.09691406 5.67929687 12.94382812 5.96484375 13.81640625 C7.39318534 18.34066065 8.36112388 22.19548234 8 27 C7.67 26.34 7.34 25.68 7 25 C6.34 24.67 5.68 24.34 5 24 C3.73740504 21.09801472 2.92661076 18.02391512 2 15 C1.70480469 14.12730469 1.40960938 13.25460937 1.10546875 12.35546875 C0.82316406 11.49566406 0.54085938 10.63585937 0.25 9.75 C-0.01296875 8.96109375 -0.2759375 8.1721875 -0.546875 7.359375 C-1.07259368 4.62201221 -0.70223071 2.67606838 0 0 Z " fill="#30302F" transform="translate(344,389)"/>
<path d="M0 0 C0.33 0 0.66 0 1 0 C2.04743552 12.44031111 1.83694728 24.54879972 1 37 C0.67 37 0.34 37 0 37 C-0.83306301 33.36910271 -1.12851364 30.01125888 -1.1328125 26.2890625 C-1.13410156 25.20882813 -1.13539063 24.12859375 -1.13671875 23.015625 C-1.13285156 21.89671875 -1.12898438 20.7778125 -1.125 19.625 C-1.12886719 18.51382812 -1.13273437 17.40265625 -1.13671875 16.2578125 C-1.13014189 10.733251 -0.9876423 5.43987107 0 0 Z " fill="#060605" transform="translate(364,328)"/>
<path d="M0 0 C15.44043321 11.21074007 15.44043321 11.21074007 20 19 C17 19 17 19 15.0546875 17.27734375 C14.33539062 16.50519531 13.61609375 15.73304688 12.875 14.9375 C8.5668055 10.46659864 3.9958772 6.67309174 -1 3 C-0.67 2.01 -0.34 1.02 0 0 Z " fill="#252524" transform="translate(716,560)"/>
<path d="M0 0 C2.34924742 0.686297 3.70473471 1.55581477 5.06396484 3.60058594 C6.16552523 5.66736731 7.18839262 7.75681738 8.1875 9.875 C8.54263672 10.59558594 8.89777344 11.31617188 9.26367188 12.05859375 C10.86482434 15.35812237 12.19771991 18.40741866 13 22 C10.65075258 21.313703 9.29526529 20.44418523 7.93603516 18.39941406 C6.83447477 16.33263269 5.81160738 14.24318262 4.8125 12.125 C4.45736328 11.40441406 4.10222656 10.68382812 3.73632812 9.94140625 C2.13517566 6.64187763 0.80228009 3.59258134 0 0 Z " fill="#2C2C2B" transform="translate(660,259)"/>
<path d="M0 0 C0.33 0 0.66 0 1 0 C1.33799692 4.02045543 1.66956119 8.04141688 2 12.0625 C2.09539063 13.19623047 2.19078125 14.32996094 2.2890625 15.49804688 C2.54752934 18.66426561 2.7832936 21.83066884 3 25 C3.05542969 25.75909668 3.11085938 26.51819336 3.16796875 27.30029297 C3.25 29.18359375 3.25 29.18359375 3 32 C2.01 32.66 1.02 33.32 0 34 C0 29.05 0 24.1 0 19 C-0.66 18.67 -1.32 18.34 -2 18 C-2 16.35 -2 14.7 -2 13 C-1.67 14.32 -1.34 15.64 -1 17 C-0.34 17 0.32 17 1 17 C0.7525 15.576875 0.7525 15.576875 0.5 14.125 C-0.18541792 9.4236123 -0.08583441 4.73996714 0 0 Z " fill="#5A5A58" transform="translate(658,331)"/>
<path d="M0 0 C1.8046875 0.15625 1.8046875 0.15625 4 1 C5.6328125 3.46875 5.6328125 3.46875 7.125 6.5 C8.82394536 10.46431737 8.82394536 10.46431737 12 13 C12 15.64 12 18.28 12 21 C9.36209914 17.70867416 7.41334843 14.22125233 5.4375 10.5 C4.53837891 8.81390625 4.53837891 8.81390625 3.62109375 7.09375 C2.38796905 4.74041321 1.17403788 2.38312166 0 0 Z " fill="#2D2D2D" transform="translate(635,269)"/>
<path d="M0 0 C4.79821659 1.62114502 8.6672859 4.29276759 12.8125 7.125 C13.50537109 7.59292969 14.19824219 8.06085938 14.91210938 8.54296875 C16.61091105 9.69112437 18.30584864 10.84499367 20 12 C18 13 18 13 15.8125 12.375 C12.88079179 10.94172043 10.46068051 9.24395458 7.84765625 7.30859375 C5.0201031 5.30599268 2.03311107 3.6713061 -1 2 C-0.67 1.34 -0.34 0.68 0 0 Z " fill="#363635" transform="translate(597,197)"/>
<path d="M0 0 C4.88036541 1.67491831 8.99152948 4.36791961 13.3125 7.125 C14.05306641 7.59292969 14.79363281 8.06085937 15.55664062 8.54296875 C17.37341968 9.69164196 19.18703037 10.84532369 21 12 C19 13 19 13 16.75 12.3125 C13.58855614 10.80362907 10.81012839 9.09125834 8 7 C8 6.34 8 5.68 8 5 C7.05125 4.9175 6.1025 4.835 5.125 4.75 C2 4 2 4 0.625 1.9375 C0.41875 1.298125 0.2125 0.65875 0 0 Z " fill="#3A3A39" transform="translate(689,543)"/>
<path d="M0 0 C5.66666667 5.66666667 11.33333333 11.33333333 17 17 C13.51645795 17 13.11572947 16.54964842 10.625 14.3125 C10.01527344 13.76722656 9.40554688 13.22195313 8.77734375 12.66015625 C6.45959574 10.49522679 4.21075029 8.27391458 2 6 C1.34 5.34 0.68 4.68 0 4 C0 2.68 0 1.36 0 0 Z " fill="#454544" transform="translate(395,436)"/>
<path d="M0 0 C0 0.66 0 1.32 0 2 C0.804375 1.6596875 0.804375 1.6596875 1.625 1.3125 C5.06081901 0.86041855 7.05766694 2.32821985 10 4 C10 4.66 10 5.32 10 6 C5.28482466 5.17791532 0.76520355 3.80735764 -3.8125 2.4375 C-4.60076172 2.20353516 -5.38902344 1.96957031 -6.20117188 1.72851562 C-8.13470136 1.15431596 -10.06743177 0.57742667 -12 0 C-12 -0.33 -12 -0.66 -12 -1 C-7.48281619 -2.36884358 -4.41225737 -1.47075246 0 0 Z " fill="#3E3D3D" transform="translate(555,206)"/>
<path d="M0 0 C0.66 0.33 1.32 0.66 2 1 C1.48050781 1.43570313 0.96101563 1.87140625 0.42578125 2.3203125 C-3.83222666 5.95654106 -7.55472652 9.58574336 -11 14 C-11.625 12.1875 -11.625 12.1875 -12 10 C-11.34 9.01 -10.68 8.02 -10 7 C-9.34 7 -8.68 7 -8 7 C-8 6.01 -8 5.02 -8 4 C-6.71349294 3.30289269 -5.42059335 2.61757124 -4.125 1.9375 C-3.40570313 1.55464844 -2.68640625 1.17179688 -1.9453125 0.77734375 C-1.30335938 0.52082031 -0.66140625 0.26429688 0 0 Z " fill="#2E2E2E" transform="translate(320,585)"/>
<path d="M0 0 C1.32 0.66 2.64 1.32 4 2 C4 2.66 4 3.32 4 4 C5.32 4.66 6.64 5.32 8 6 C8 6.66 8 7.32 8 8 C8.99 8.33 9.98 8.66 11 9 C10.67 10.32 10.34 11.64 10 13 C6.37 9.37 2.74 5.74 -1 2 C-0.67 1.34 -0.34 0.68 0 0 Z " fill="#2B2A29" transform="translate(613,241)"/>
<path d="M0 0 C3.5667949 1.44536787 5.18530899 3.19740946 7.3125 6.375 C7.84488281 7.14585937 8.37726563 7.91671875 8.92578125 8.7109375 C10 11 10 11 9.66796875 13.2890625 C9.44753906 13.85367187 9.22710937 14.41828125 9 15 C7.85252535 13.37615858 6.7070709 11.75088944 5.5625 10.125 C4.92441406 9.22007812 4.28632813 8.31515625 3.62890625 7.3828125 C2 5 2 5 1 3 C0.01 3.495 0.01 3.495 -1 4 C-0.67 2.68 -0.34 1.36 0 0 Z " fill="#323231" transform="translate(361,434)"/>
<path d="M0 0 C1.078125 3.765625 1.078125 3.765625 0.375 5.875 C-4.575 13.525 -4.575 13.525 -9 15 C-7.61219205 11.10993227 -5.7847773 8.03441292 -3.375 4.6875 C-2.74335937 3.80449219 -2.11171875 2.92148437 -1.4609375 2.01171875 C-0.97882812 1.34785156 -0.49671875 0.68398438 0 0 Z " fill="#383938" transform="translate(638,421)"/>
<path d="M0 0 C0.66 0.33 1.32 0.66 2 1 C0.77937479 2.44475986 -0.45192126 3.88050764 -1.6875 5.3125 C-2.37199219 6.11300781 -3.05648438 6.91351563 -3.76171875 7.73828125 C-6.03337784 10.03372735 -8.20066594 11.42088848 -11 13 C-12.1265503 13.86751704 -13.23471052 14.76009975 -14.3125 15.6875 C-15.199375 16.450625 -16.08625 17.21375 -17 18 C-15.66198588 14.9350908 -14.29092019 13.14639067 -11.6875 11.0625 C-8.60999151 8.52883397 -5.78267893 5.85997557 -3 3 C-2 2 -1 1 0 0 Z " fill="#4F4E4D" transform="translate(400,213)"/>
<path d="M0 0 C-3.0296652 2.44814179 -6.07549599 4.09452853 -9.625 5.6875 C-10.58664062 6.12449219 -11.54828125 6.56148437 -12.5390625 7.01171875 C-15 8 -15 8 -17 8 C-16 5 -16 5 -13.92578125 3.61328125 C-5.27282955 -0.69379336 -5.27282955 -0.69379336 0 0 Z " fill="#333332" transform="translate(456,212)"/>
<path d="M0 0 C-3.72324651 2.48216434 -6.6322959 2.29625107 -10.9375 2.25 C-11.65357422 2.25773438 -12.36964844 2.26546875 -13.10742188 2.2734375 C-16.88969269 2.25941611 -19.79380678 2.10955794 -23 0 C-21.86820312 0.01160156 -20.73640625 0.02320313 -19.5703125 0.03515625 C-18.08854331 0.04453454 -16.60677235 0.0536347 -15.125 0.0625 C-14.37863281 0.07087891 -13.63226563 0.07925781 -12.86328125 0.08789062 C-8.07165992 0.1094745 -4.65552652 -1.1026247 0 0 Z " fill="#545351" transform="translate(443,819)"/>
<path d="M0 0 C0.28875 0.61875 0.5775 1.2375 0.875 1.875 C1.93720042 4.13325765 1.93720042 4.13325765 4 6 C4.921875 8.27734375 4.921875 8.27734375 5.75 10.9375 C6.03359375 11.81277344 6.3171875 12.68804688 6.609375 13.58984375 C7 16 7 16 5 19 C1.68818774 12.97852317 -0.43355062 6.93680998 0 0 Z " fill="#40403F" transform="translate(250,800)"/>
<path d="M0 0 C-0.33 0.66 -0.66 1.32 -1 2 C-2.65 2 -4.3 2 -6 2 C-6.33 2.66 -6.66 3.32 -7 4 C-7.54140625 3.84660156 -8.0828125 3.69320313 -8.640625 3.53515625 C-11.34704023 2.92128392 -13.9850509 2.66791243 -16.75 2.4375 C-18.22726562 2.31181641 -18.22726562 2.31181641 -19.734375 2.18359375 C-20.85585938 2.09271484 -20.85585938 2.09271484 -22 2 C-22 1.67 -22 1.34 -22 1 C-19.08418447 0.63702296 -16.16774334 0.28431765 -13.25 -0.0625 C-12.0125 -0.2181543 -12.0125 -0.2181543 -10.75 -0.37695312 C-9.95078125 -0.47041016 -9.1515625 -0.56386719 -8.328125 -0.66015625 C-7.5949707 -0.74918213 -6.86181641 -0.83820801 -6.10644531 -0.92993164 C-3.87729995 -1.00408147 -2.12666985 -0.64094299 0 0 Z " fill="#4C4C4B" transform="translate(542,491)"/>
<path d="M0 0 C0 3.56209836 -0.82989243 4.60568237 -2.8125 7.5 C-3.59560547 8.66015625 -3.59560547 8.66015625 -4.39453125 9.84375 C-5.81578461 11.75258663 -7.26709211 13.37637459 -9 15 C-8.43659352 11.07702154 -7.29909621 8.50919644 -5.0625 5.25 C-4.53785156 4.47140625 -4.01320313 3.6928125 -3.47265625 2.890625 C-2 1 -2 1 0 0 Z " fill="#333332" transform="translate(660,437)"/>
<path d="M0 0 C0.33 1.32 0.66 2.64 1 4 C-0.25942386 5.19959375 -1.53295286 6.38439443 -2.8125 7.5625 C-3.87404297 8.55443359 -3.87404297 8.55443359 -4.95703125 9.56640625 C-5.63121094 10.03949219 -6.30539062 10.51257813 -7 11 C-7.99 10.67 -8.98 10.34 -10 10 C-6.66666667 6.66666667 -3.33333333 3.33333333 0 0 Z " fill="#313030" transform="translate(742,807)"/>
<path d="M0 0 C5.43171629 1.32480885 9.24467565 3.93431827 13 8 C13.33 8.99 13.66 9.98 14 11 C8.51819661 8.58800651 3.22572264 5.12320654 0 0 Z " fill="#323231" transform="translate(394,475)"/>
<path d="M0 0 C1.1171875 1.671875 1.1171875 1.671875 2 4 C1.3203125 6.578125 1.3203125 6.578125 0.125 9.25 C-0.26429688 10.14203125 -0.65359375 11.0340625 -1.0546875 11.953125 C-1.36664063 12.62859375 -1.67859375 13.3040625 -2 14 C-2.99 14 -3.98 14 -5 14 C-4.54636829 12.41531323 -4.08688548 10.83230076 -3.625 9.25 C-3.36976563 8.36828125 -3.11453125 7.4865625 -2.8515625 6.578125 C-2.0790066 4.23919428 -1.16374324 2.16557438 0 0 Z " fill="#30302F" transform="translate(354,271)"/>
<path d="M0 0 C2.69887494 0.66159191 4.76404482 1.87947948 7.0078125 3.4921875 C3.19850074 4.76195809 1.19162257 4.01293257 -2.6796875 3.0546875 C-4.44892578 2.62349609 -4.44892578 2.62349609 -6.25390625 2.18359375 C-7.15753906 1.95542969 -8.06117188 1.72726562 -8.9921875 1.4921875 C-5.54989368 -0.80267505 -3.99136896 -0.60386025 0 0 Z " fill="#3B3B3A" transform="translate(650.9921875,555.5078125)"/>
<path d="M0 0 C0.33 0 0.66 0 1 0 C1.18451025 14.78132118 1.18451025 14.78132118 0 21 C-0.99 20.67 -1.98 20.34 -3 20 C-2.22602467 13.29221378 -1.14231412 6.65425699 0 0 Z " fill="#424342" transform="translate(657,365)"/>
<path d="M0 0 C1.06528748 2.73019786 1.07998186 3.79298812 0.00390625 6.578125 C-0.47175781 7.45984375 -0.94742187 8.3415625 -1.4375 9.25 C-1.91058594 10.14203125 -2.38367188 11.0340625 -2.87109375 11.953125 C-3.24363281 12.62859375 -3.61617188 13.3040625 -4 14 C-4.99 14 -5.98 14 -7 14 C-5.53967505 8.68972746 -3.01679014 4.53669968 0 0 Z " fill="#383837" transform="translate(362,257)"/>
<path d="M0 0 C2.03833424 1.2739589 4.03852126 2.61061923 6 4 C6 4.66 6 5.32 6 6 C6.66 6 7.32 6 8 6 C9.625 8.5 9.625 8.5 11 11 C7.46180427 10.42073787 5.74971757 9.15676523 3.25 6.625 C2.63640625 6.01914063 2.0228125 5.41328125 1.390625 4.7890625 C0 3 0 3 0 0 Z " fill="#2F2E2E" transform="translate(630,221)"/>
<path d="M0 0 C3.40739705 2.24578442 6.76478258 4.51137122 10 7 C9.67 7.99 9.34 8.98 9 10 C8.52949219 9.6390625 8.05898438 9.278125 7.57421875 8.90625 C6.95160156 8.4421875 6.32898438 7.978125 5.6875 7.5 C5.07261719 7.0359375 4.45773437 6.571875 3.82421875 6.09375 C1.92566995 4.74288717 1.92566995 4.74288717 -1 5 C-0.67 3.35 -0.34 1.7 0 0 Z " fill="#31312F" transform="translate(617,210)"/>
<path d="M0 0 C0.66 0.33 1.32 0.66 2 1 C0.23570801 5.97209562 -2.3939166 10.43438061 -5 15 C-5.33 15 -5.66 15 -6 15 C-5.67 12.69 -5.34 10.38 -5 8 C-4.01 7.67 -3.02 7.34 -2 7 C-1.855625 6.030625 -1.71125 5.06125 -1.5625 4.0625 C-1 1 -1 1 0 0 Z " fill="#383737" transform="translate(294,613)"/>
<path d="M0 0 C0.66 0.33 1.32 0.66 2 1 C-4.07792208 7.24675325 -4.07792208 7.24675325 -7 9 C-7.99 8.67 -8.98 8.34 -10 8 C-6.97727468 4.74475735 -3.74281699 2.38179263 0 0 Z " fill="#383838" transform="translate(601,462)"/>
<path d="M0 0 C0.99 0 1.98 0 3 0 C2.54857225 1.77260631 2.08859477 3.5430368 1.625 5.3125 C1.36976563 6.29863281 1.11453125 7.28476562 0.8515625 8.30078125 C0 11 0 11 -2 14 C-3.81975482 8.87160006 -1.8599099 4.82315618 0 0 Z " fill="#3A3A39" transform="translate(373,291)"/>
<path d="M0 0 C1.1055189 0.93590504 2.20935453 1.87379858 3.3125 2.8125 C3.92738281 3.33457031 4.54226563 3.85664062 5.17578125 4.39453125 C6.85424679 5.87172469 8.43882034 7.40039131 10 9 C6.51072308 8.68279301 4.44149146 8.33692769 1.625 6.1875 C0 4 0 4 0 0 Z " fill="#343433" transform="translate(282,808)"/>
<path d="M0 0 C0.99 0.33 1.98 0.66 3 1 C3.9140625 2.99609375 3.9140625 2.99609375 4.625 5.4375 C5.61831857 8.79509372 5.61831857 8.79509372 7 12 C6.01 13.485 6.01 13.485 5 15 C4.16260219 12.8765984 3.33019717 10.7512272 2.5 8.625 C1.80390625 6.84996094 1.80390625 6.84996094 1.09375 5.0390625 C0 2 0 2 0 0 Z " fill="#353535" transform="translate(736,627)"/>
<path d="M0 0 C0.66 0 1.32 0 2 0 C1.67 6.93 1.34 13.86 1 21 C0.67 21 0.34 21 0 21 C-0.19511725 18.25034772 -0.38136433 15.50057868 -0.5625 12.75 C-0.61857422 11.97269531 -0.67464844 11.19539063 -0.73242188 10.39453125 C-0.80493164 9.26337891 -0.80493164 9.26337891 -0.87890625 8.109375 C-0.9260376 7.41811523 -0.97316895 6.72685547 -1.02172852 6.01464844 C-0.99853136 3.86382928 -0.5995764 2.05915129 0 0 Z " fill="#535352" transform="translate(365,322)"/>
<path d="M0 0 C0.33 0 0.66 0 1 0 C1.53181175 2.24743045 2.05007126 4.49807102 2.5625 6.75 C2.85253906 8.00296875 3.14257812 9.2559375 3.44140625 10.546875 C3.93444283 13.59473748 4.07666879 15.17641828 3 18 C2.34 17.67 1.68 17.34 1 17 C-0.08179761 13.223914 -0.10543987 9.59502858 -0.0625 5.6875 C-0.05347656 4.61886719 -0.04445313 3.55023438 -0.03515625 2.44921875 C-0.02355469 1.64097656 -0.01195312 0.83273437 0 0 Z " fill="#545553" transform="translate(367,370)"/>
<path d="M0 0 C3.78611227 0.54087318 5.55400767 2.11722332 8 5 C8 5.66 8 6.32 8 7 C8.66 7.33 9.32 7.66 10 8 C9.34 8.66 8.68 9.32 8 10 C6.66370254 8.52351062 5.33103329 7.0437367 4 5.5625 C3.2575 4.73878906 2.515 3.91507813 1.75 3.06640625 C0 1 0 1 0 0 Z " fill="#2F2E2D" transform="translate(712,594)"/>
<path d="M0 0 C0.99 0.66 1.98 1.32 3 2 C1.75823305 2.70226141 0.50614401 3.38629109 -0.75 4.0625 C-1.79414062 4.63677734 -1.79414062 4.63677734 -2.859375 5.22265625 C-5.36140628 6.1312406 -6.5332355 5.88336837 -9 5 C-8.34 5 -7.68 5 -7 5 C-7 4.34 -7 3.68 -7 3 C-3.6875 1.375 -3.6875 1.375 0 0 Z " fill="#373636" transform="translate(744,839)"/>
<path d="M0 0 C1.31611677 0.95336021 2.62778961 1.91285774 3.9375 2.875 C4.66839844 3.40867187 5.39929688 3.94234375 6.15234375 4.4921875 C8 6 8 6 9 8 C8.01 8.33 7.02 8.66 6 9 C5.21625 8.195625 4.4325 7.39125 3.625 6.5625 C1.28017144 4.01309583 1.28017144 4.01309583 -1 3 C-0.67 2.01 -0.34 1.02 0 0 Z " fill="#363535" transform="translate(716,560)"/>
<path d="M0 0 C0.33 0.66 0.66 1.32 1 2 C-0.23944276 2.86941494 -1.49207059 3.72005457 -2.75 4.5625 C-3.44609375 5.03816406 -4.1421875 5.51382813 -4.859375 6.00390625 C-7 7 -7 7 -9.265625 6.65234375 C-9.83796875 6.43707031 -10.4103125 6.22179687 -11 6 C-9.92250558 5.17977251 -8.83770492 4.36913831 -7.75 3.5625 C-7.14671875 3.11003906 -6.5434375 2.65757812 -5.921875 2.19140625 C-3.93707244 0.96099003 -2.28012345 0.43887332 0 0 Z " fill="#2E2D2D" transform="translate(325,549)"/>
<path d="M0 0 C4.83628305 0.99043705 9.47618873 1.95698846 14 4 C11 6 11 6 9 6 C8.67 5.34 8.34 4.68 8 4 C6.10466658 3.53476937 6.10466658 3.53476937 3.9375 3.375 C2.638125 3.25125 1.33875 3.1275 0 3 C0 2.01 0 1.02 0 0 Z " fill="#454544" transform="translate(455,482)"/>
<path d="M0 0 C-2.85478326 1.90318884 -4.41941308 2.4619099 -7.6875 3.125 C-8.49574219 3.29257813 -9.30398438 3.46015625 -10.13671875 3.6328125 C-10.75160156 3.75398437 -11.36648438 3.87515625 -12 4 C-12.33 3.34 -12.66 2.68 -13 2 C-4.738041 -1.62870159 -4.738041 -1.62870159 0 0 Z " fill="#3C3C3B" transform="translate(474,206)"/>
<path d="M0 0 C2.70931419 0.15481795 4.46584039 0.48172081 6.4453125 2.40234375 C7.67679642 3.89771708 8.8429837 5.4462924 10 7 C6.433255 7 5.89456323 6.36308045 3.3125 4.0625 C2.68988281 3.51722656 2.06726563 2.97195313 1.42578125 2.41015625 C0.95527344 1.94480469 0.48476563 1.47945312 0 1 C0 0.67 0 0.34 0 0 Z " fill="#2F2F2E" transform="translate(703,586)"/>
<path d="M0 0 C2.32490278 3.63266059 2.39259107 6.76001646 2 11 C1.01 11.66 0.02 12.32 -1 13 C-1.02686553 11.02090602 -1.04633375 9.04171029 -1.0625 7.0625 C-1.07410156 5.96035156 -1.08570313 4.85820312 -1.09765625 3.72265625 C-1 1 -1 1 0 0 Z " fill="#3E3D3D" transform="translate(659,352)"/>
<path d="M0 0 C2.66666667 2.66666667 5.33333333 5.33333333 8 8 C7.67 8.66 7.34 9.32 7 10 C3.2502319 8.7500773 2.18475235 7.23946038 0 4 C0 2.68 0 1.36 0 0 Z " fill="#3A3A39" transform="translate(643,234)"/>
<path d="M0 0 C0.66 0 1.32 0 2 0 C5.40027839 3.50331713 6.54961229 6.15833214 7 11 C4.40216125 8.4917419 1.96307619 6.0427681 0 3 C0 2.01 0 1.02 0 0 Z " fill="#313030" transform="translate(722,604)"/>
<path d="M0 0 C2.875 -0.125 2.875 -0.125 6 0 C6.66 0.66 7.32 1.32 8 2 C3.05 3.485 3.05 3.485 -2 5 C-1.34 3.35 -0.68 1.7 0 0 Z " fill="#313130" transform="translate(350,562)"/>
<path d="M0 0 C0.99 0.66 1.98 1.32 3 2 C2.54917531 3.46067199 2.08906463 4.91848032 1.625 6.375 C1.36976563 7.18710937 1.11453125 7.99921875 0.8515625 8.8359375 C0 11 0 11 -2 13 C-2.125 10.125 -2.125 10.125 -2 7 C-1.34 6.34 -0.68 5.68 0 5 C0.16687448 2.41645782 0.16687448 2.41645782 0 0 Z " fill="#393938" transform="translate(671,409)"/>
<path d="M0 0 C0.33 0 0.66 0 1 0 C1.33951619 1.56116819 1.67132544 3.12401338 2 4.6875 C2.185625 5.55761719 2.37125 6.42773438 2.5625 7.32421875 C2.98972047 9.93712964 3.07616201 12.35813038 3 15 C2.01 14.34 1.02 13.68 0 13 C-0.125 10.5 -0.125 10.5 0 8 C-0.33 7.34 -0.66 6.68 -1 6 C-0.71887936 3.99199544 -0.38932033 1.98985949 0 0 Z " fill="#4C4C4A" transform="translate(682,310)"/>
<path d="M0 0 C3.39417765 3.12621626 5.6062718 5.56541027 7 10 C3.73539027 8.19587357 2.11070205 7.16605307 0 4 C0 2.68 0 1.36 0 0 Z " fill="#3E3D3D" transform="translate(748,594)"/>
<path d="M0 0 C3.625 1.1875 3.625 1.1875 7 3 C7.33 3.99 7.66 4.98 8 6 C5.03 5.505 5.03 5.505 2 5 C2 4.34 2 3.68 2 3 C0.35 2.67 -1.3 2.34 -3 2 C-2.01 1.34 -1.02 0.68 0 0 Z " fill="#3B3B3A" transform="translate(669,562)"/>
<path d="M0 0 C0.66 0.33 1.32 0.66 2 1 C0.02 3.31 -1.96 5.62 -4 8 C-4.99 7.67 -5.98 7.34 -7 7 C-4.66666667 4.66666667 -2.33333333 2.33333333 0 0 Z " fill="#3C3B3B" transform="translate(312,556)"/>
<path d="M0 0 C3.5786304 1.65167557 6.74820188 3.78286492 10 6 C8.3125 6.6875 8.3125 6.6875 6 7 C3.3125 5.8125 3.3125 5.8125 1 4 C0.1875 1.8125 0.1875 1.8125 0 0 Z " fill="#3A3A39" transform="translate(422,463)"/>
<path d="M0 0 C0.33 0 0.66 0 1 0 C1.36923077 7.50769231 1.36923077 7.50769231 -0.5 10 C-0.995 10.33 -1.49 10.66 -2 11 C-3.13643966 7.59068103 -2.86747764 6.99664544 -1.5625 3.8125 C-1.13130859 2.73935547 -1.13130859 2.73935547 -0.69140625 1.64453125 C-0.46324219 1.10183594 -0.23507812 0.55914063 0 0 Z " fill="#3D3E3D" transform="translate(259,623)"/>
<path d="M0 0 C1.258125 0.12375 2.51625 0.2475 3.8125 0.375 C4.87404297 0.47941406 4.87404297 0.47941406 5.95703125 0.5859375 C8 1 8 1 11 3 C9.68 3 8.36 3 7 3 C6.67 3.66 6.34 4.32 6 5 C6 4.34 6 3.68 6 3 C4.02 3 2.04 3 0 3 C0 2.01 0 1.02 0 0 Z " fill="#3D3D3C" transform="translate(656,531)"/>
<path d="M0 0 C-3.465 2.97 -3.465 2.97 -7 6 C-7.66 5.67 -8.32 5.34 -9 5 C-8 2 -8 2 -5.625 0.25 C-3 -1 -3 -1 0 0 Z " fill="#343433" transform="translate(624,481)"/>
<path d="M0 0 C0.33 1.32 0.66 2.64 1 4 C-0.9375 6.25 -0.9375 6.25 -3 8 C-3.99 7.67 -4.98 7.34 -6 7 C-4.02 4.69 -2.04 2.38 0 0 Z " fill="#383836" transform="translate(628,436)"/>
<path d="M0 0 C2.60691842 2.60691842 2.70416963 4.37607794 3 8 C2.01 9.485 2.01 9.485 1 11 C-0.62950412 6.87831311 -1.26264601 4.29299643 0 0 Z " fill="#373736" transform="translate(344,389)"/>
<path d="M0 0 C3.35111834 2.23407889 4.81553956 3.26215824 5.8125 7.25 C5.874375 8.1575 5.93625 9.065 6 10 C2.46413986 6.82679218 0.41421969 4.83256305 0 0 Z " fill="#353534" transform="translate(625,253)"/>
<path d="M0 0 C0 0.66 0 1.32 0 2 C-8.57142857 1.14285714 -8.57142857 1.14285714 -12 -1 C-7.48281619 -2.36884358 -4.41225737 -1.47075246 0 0 Z " fill="#373837" transform="translate(555,206)"/>
<path d="M0 0 C-0.33 0.66 -0.66 1.32 -1 2 C-3.31847874 2.7166207 -5.65319703 3.38242027 -8 4 C-8.99 4.495 -8.99 4.495 -10 5 C-10.66 4.34 -11.32 3.68 -12 3 C-10.5682384 2.30062798 -9.12932968 1.61587282 -7.6875 0.9375 C-6.48673828 0.36322266 -6.48673828 0.36322266 -5.26171875 -0.22265625 C-3 -1 -3 -1 0 0 Z " fill="#444443" transform="translate(453,185)"/>
<path d="M0 0 C1.32 0.33 2.64 0.66 4 1 C4 1.66 4 2.32 4 3 C4.66 3 5.32 3 6 3 C6.33 4.65 6.66 6.3 7 8 C1.125 3.375 1.125 3.375 0 0 Z " fill="#343333" transform="translate(259,824)"/>
<path d="M0 0 C0.66 1.32 1.32 2.64 2 4 C0.35 5.65 -1.3 7.3 -3 9 C-3.33 8.34 -3.66 7.68 -4 7 C-3.22265625 5.2734375 -3.22265625 5.2734375 -2.0625 3.375 C-1.381875 2.26125 -0.70125 1.1475 0 0 Z " fill="#363736" transform="translate(270,602)"/>
<path d="M0 0 C0.99 0.33 1.98 0.66 3 1 C4.1875 4.0625 4.1875 4.0625 5 7 C4.34 7.66 3.68 8.32 3 9 C0 3.375 0 3.375 0 0 Z " fill="#383837" transform="translate(352,416)"/>
<path d="M0 0 C0.33 0.66 0.66 1.32 1 2 C0.22265625 4.1640625 0.22265625 4.1640625 -0.9375 6.625 C-1.31777344 7.44226563 -1.69804687 8.25953125 -2.08984375 9.1015625 C-2.39019531 9.72804688 -2.69054687 10.35453125 -3 11 C-3.33 11 -3.66 11 -4 11 C-3.91291331 9.54054712 -3.80473093 8.08234132 -3.6875 6.625 C-3.62949219 5.81289063 -3.57148438 5.00078125 -3.51171875 4.1640625 C-3 2 -3 2 0 0 Z " fill="#393838" transform="translate(380,280)"/>
<path d="M0 0 C1.32 0.33 2.64 0.66 4 1 C5.75 4.0625 5.75 4.0625 7 7 C6.34 7.66 5.68 8.32 5 9 C3.35 6.03 1.7 3.06 0 0 Z " fill="#343332" transform="translate(635,269)"/>
<path d="M0 0 C2.64 1.98 5.28 3.96 8 6 C5 7 5 7 2.3125 5.8125 C1.549375 5.214375 0.78625 4.61625 0 4 C0 2.68 0 1.36 0 0 Z " fill="#333433" transform="translate(414,456)"/>
<path d="M0 0 C0.99 0.33 1.98 0.66 3 1 C2.67 4.63 2.34 8.26 2 12 C0 10 0 10 -0.1953125 7.6171875 C-0.17210937 6.71226562 -0.14890625 5.80734375 -0.125 4.875 C-0.10695313 3.96492188 -0.08890625 3.05484375 -0.0703125 2.1171875 C-0.04710937 1.41851562 -0.02390625 0.71984375 0 0 Z " fill="#474646" transform="translate(656,318)"/>
<path d="M0 0 C0.5775 0.37125 1.155 0.7425 1.75 1.125 C-4.875 4.25 -4.875 4.25 -8.25 3.125 C-7.59 3.125 -6.93 3.125 -6.25 3.125 C-6.25 2.465 -6.25 1.805 -6.25 1.125 C-2.80384615 -1.09038462 -2.80384615 -1.09038462 0 0 Z " fill="#383837" transform="translate(577.25,506.875)"/>
<path d="M0 0 C-5.14285714 4.42857143 -5.14285714 4.42857143 -9 5 C-8 2 -8 2 -5.625 0.25 C-3 -1 -3 -1 0 0 Z " fill="#393938" transform="translate(605,494)"/>
<path d="M0 0 C1.99097846 2.98646769 2.94124926 5.59687262 4 9 C3.01 8.67 2.02 8.34 1 8 C1 7.34 1 6.68 1 6 C0.34 6 -0.32 6 -1 6 C-0.67 4.02 -0.34 2.04 0 0 Z " fill="#2D2D2B" transform="translate(377,405)"/>
<path d="M0 0 C0.86625 0.3403125 0.86625 0.3403125 1.75 0.6875 C-1.22 3.1625 -1.22 3.1625 -4.25 5.6875 C-4.91 5.3575 -5.57 5.0275 -6.25 4.6875 C-6.25 4.0275 -6.25 3.3675 -6.25 2.6875 C-3.02697842 -0.42041367 -3.02697842 -0.42041367 0 0 Z " fill="#3B3B3A" transform="translate(331.25,576.3125)"/>
<path d="M0 0 C2.5625 1.25 2.5625 1.25 5 3 C5.33 3.99 5.66 4.98 6 6 C2.62496331 4.8141763 0.35277269 3.72426311 -2 1 C-1.34 0.67 -0.68 0.34 0 0 Z " fill="#393938" transform="translate(415,489)"/>
<path d="M0 0 C0.66 0.33 1.32 0.66 2 1 C1.34 3.97 0.68 6.94 0 10 C-2 6 -2 6 -1.125 2.75 C-0.75375 1.8425 -0.3825 0.935 0 0 Z " fill="#3D3D3C" transform="translate(677,396)"/>
<path d="M0 0 C0.33 0 0.66 0 1 0 C0.67 4.29 0.34 8.58 0 13 C-0.33 13 -0.66 13 -1 13 C-1.33 10.03 -1.66 7.06 -2 4 C-1.34 4 -0.68 4 0 4 C0 2.68 0 1.36 0 0 Z " fill="#535352" transform="translate(684,367)"/>
<path d="M0 0 C0.99 0.33 1.98 0.66 3 1 C3.73046875 2.84765625 3.73046875 2.84765625 4.1875 5.0625 C4.34605469 5.79597656 4.50460937 6.52945313 4.66796875 7.28515625 C4.83232422 8.13400391 4.83232422 8.13400391 5 9 C3.0625 7.875 3.0625 7.875 1 6 C0.25 2.8125 0.25 2.8125 0 0 Z " fill="#373737" transform="translate(764,626)"/>
<path d="M0 0 C0.33 0 0.66 0 1 0 C1 1.98 1 3.96 1 6 C-0.98 6.99 -0.98 6.99 -3 8 C-1.125 1.125 -1.125 1.125 0 0 Z " fill="#3A3B3A" transform="translate(265,611)"/>
<path d="M0 0 C0.66 1.32 1.32 2.64 2 4 C0.625 6 0.625 6 -1 8 C-1.66 8 -2.32 8 -3 8 C-1.125 2.25 -1.125 2.25 0 0 Z " fill="#3F403F" transform="translate(643,411)"/>
<path d="M0 0 C0.99 0 1.98 0 3 0 C3.625 2.8125 3.625 2.8125 4 6 C3.01 7.485 3.01 7.485 2 9 C1.34 6.03 0.68 3.06 0 0 Z " fill="#3F3F3E" transform="translate(651,301)"/>
<path d="M0 0 C2.12508244 3.18762365 2.5020163 5.26512223 3 9 C2.01 8.67 1.02 8.34 0 8 C-0.79953138 4.71303767 -1.09658936 3.28976808 0 0 Z " fill="#424141" transform="translate(677,292)"/>
<path d="M0 0 C1.9375 0.6875 1.9375 0.6875 4 2 C4.75 4.625 4.75 4.625 5 7 C3.02 5.35 1.04 3.7 -1 2 C-0.67 1.34 -0.34 0.68 0 0 Z " fill="#3C3C3B" transform="translate(613,241)"/>
<path d="M0 0 C2.25245881 2.68841859 3.88213958 4.64641875 5 8 C4.01 8 3.02 8 2 8 C0.23537317 4.91190305 0 3.76687864 0 0 Z " fill="#222121" transform="translate(256,816)"/>
<path d="M0 0 C0.33 0.66 0.66 1.32 1 2 C1.66 2 2.32 2 3 2 C2.67 4.64 2.34 7.28 2 10 C1.67 10 1.34 10 1 10 C0.67 6.7 0.34 3.4 0 0 Z " fill="#3D3C3C" transform="translate(744,648)"/>
<path d="M0 0 C0.89694794 3.58779175 1.08304117 6.34618837 1 10 C0.01 10 -0.98 10 -2 10 C-1.34 6.7 -0.68 3.4 0 0 Z " fill="#454544" transform="translate(255,634)"/>
<path d="M0 0 C0.33 1.32 0.66 2.64 1 4 C-0.98 5.32 -2.96 6.64 -5 8 C-3.62845496 5.04590299 -2.01136276 2.55991624 0 0 Z " fill="#464644" transform="translate(279,589)"/>
<path d="M0 0 C-3.44450737 2.29633824 -5.93812283 2.54016485 -10 3 C-9.01 2.67 -8.02 2.34 -7 2 C-7 1.34 -7 0.68 -7 0 C-4.3333581 -1.33332095 -2.83319697 -0.67102033 0 0 Z " fill="#4A4A4A" transform="translate(566,512)"/>
<path d="M0 0 C5.66153846 1.47692308 5.66153846 1.47692308 7.375 4.125 C7.684375 5.053125 7.684375 5.053125 8 6 C4.63408134 4.55746343 2.48952921 2.66735273 0 0 Z " fill="#3C3C3A" transform="translate(400,480)"/>
<path d="M0 0 C2.91517292 1.07401108 4.77810176 1.77810176 7 4 C6.01 4.33 5.02 4.66 4 5 C4 4.34 4 3.68 4 3 C2.35 2.67 0.7 2.34 -1 2 C-0.67 1.34 -0.34 0.68 0 0 Z " fill="#3B3B39" transform="translate(437,473)"/>
<path d="M0 0 C1.65 1.65 3.3 3.3 5 5 C4.67 5.66 4.34 6.32 4 7 C3.34 7 2.68 7 2 7 C0 4 0 4 0 0 Z " fill="#3E3E3D" transform="translate(390,429)"/>
<path d="M0 0 C2.50037734 2.17424117 3.43628586 3.73045798 4 7 C2.0625 6.25 2.0625 6.25 0 5 C-0.8125 2.9375 -0.8125 2.9375 -1 1 C-0.67 0.67 -0.34 0.34 0 0 Z " fill="#373635" transform="translate(382,416)"/>
<path d="M0 0 C2.15377564 2.62198774 3.40072174 4.64404172 4 8 C2.0625 7.25 2.0625 7.25 0 6 C-0.8125 4 -0.8125 4 -1 2 C-0.67 1.34 -0.34 0.68 0 0 Z " fill="#363535" transform="translate(669,273)"/>
<path d="M0 0 C0.66 0.33 1.32 0.66 2 1 C2 1.66 2 2.32 2 3 C-1 5 -1 5 -3.1875 4.625 C-3.785625 4.41875 -4.38375 4.2125 -5 4 C-3.35 2.68 -1.7 1.36 0 0 Z " fill="#434242" transform="translate(412,204)"/>
<path d="M0 0 C-0.99 1.485 -0.99 1.485 -2 3 C-4.97 2.67 -7.94 2.34 -11 2 C-11 1.67 -11 1.34 -11 1 C-7.26562152 0.12132271 -3.83225427 -0.08912219 0 0 Z " fill="#545452" transform="translate(485,176)"/>
<path d="M0 0 C0.66 0 1.32 0 2 0 C1.67 1.65 1.34 3.3 1 5 C0.67 5 0.34 5 0 5 C0 3.35 0 1.7 0 0 Z " fill="#4A4847" transform="translate(336,321)"/>
<path d="M0 0 C0.33 0 0.66 0 1 0 C1 2.64 1 5.28 1 8 C0.67 8 0.34 8 0 8 C0 5.36 0 2.72 0 0 Z " fill="#474746" transform="translate(687,328)"/>
<path d="M0 0 C1.32 0.66 2.64 1.32 4 2 C2.35 2 0.7 2 -1 2 C-0.67 1.34 -0.34 0.68 0 0 Z " fill="#454442" transform="translate(721,816)"/>
<path d="M0 0 C0.33 0 0.66 0 1 0 C1 2.31 1 4.62 1 7 C0.67 7 0.34 7 0 7 C0 4.69 0 2.38 0 0 Z " fill="#474545" transform="translate(744,744)"/>
<path d="M0 0 C0.33 0 0.66 0 1 0 C1 2.31 1 4.62 1 7 C0.67 7 0.34 7 0 7 C0 4.69 0 2.38 0 0 Z " fill="#424141" transform="translate(656,351)"/>
<path d="M0 0 C0.33 0 0.66 0 1 0 C1 1.98 1 3.96 1 6 C0.67 6 0.34 6 0 6 C0 4.02 0 2.04 0 0 Z " fill="#474746" transform="translate(744,728)"/>
<path d="M0 0 C0.33 0 0.66 0 1 0 C1 1.98 1 3.96 1 6 C0.67 6 0.34 6 0 6 C0 4.02 0 2.04 0 0 Z " fill="#454443" transform="translate(744,712)"/>
<path d="M0 0 C0.99 0.33 1.98 0.66 3 1 C2.01 1.66 1.02 2.32 0 3 C0 2.01 0 1.02 0 0 Z " fill="#444442" transform="translate(728,619)"/>
<path d="M0 0 C0.99 0.495 0.99 0.495 2 1 C1.67 1.99 1.34 2.98 1 4 C0.67 2.68 0.34 1.36 0 0 Z " fill="#474746" transform="translate(352,422)"/>
<path d="M0 0 C0.33 0 0.66 0 1 0 C1 1.98 1 3.96 1 6 C0.67 6 0.34 6 0 6 C0 4.02 0 2.04 0 0 Z " fill="#464645" transform="translate(687,359)"/>
<path d="M0 0 C0.33 0 0.66 0 1 0 C1 1.98 1 3.96 1 6 C0.67 6 0.34 6 0 6 C0 4.02 0 2.04 0 0 Z " fill="#444243" transform="translate(336,331)"/>
<path d="M0 0 C0.33 0 0.66 0 1 0 C1 1.65 1 3.3 1 5 C0.67 5 0.34 5 0 5 C0 3.35 0 1.7 0 0 Z " fill="#474545" transform="translate(744,776)"/>
<path d="M0 0 C0.33 0 0.66 0 1 0 C1 1.65 1 3.3 1 5 C0.67 5 0.34 5 0 5 C0 3.35 0 1.7 0 0 Z " fill="#464645" transform="translate(744,768)"/>
<path d="M0 0 C0.33 0 0.66 0 1 0 C1 1.65 1 3.3 1 5 C0.67 5 0.34 5 0 5 C0 3.35 0 1.7 0 0 Z " fill="#484645" transform="translate(744,752)"/>
<path d="M0 0 C0.33 0 0.66 0 1 0 C1 1.65 1 3.3 1 5 C0.67 5 0.34 5 0 5 C0 3.35 0 1.7 0 0 Z " fill="#464544" transform="translate(744,736)"/>
<path d="M0 0 C0.33 0 0.66 0 1 0 C1 1.65 1 3.3 1 5 C0.67 5 0.34 5 0 5 C0 3.35 0 1.7 0 0 Z " fill="#454543" transform="translate(744,720)"/>
<path d="M0 0 C0.33 0 0.66 0 1 0 C1 1.65 1 3.3 1 5 C0.67 5 0.34 5 0 5 C0 3.35 0 1.7 0 0 Z " fill="#454444" transform="translate(744,704)"/>
<path d="M0 0 C0.33 0 0.66 0 1 0 C1 1.65 1 3.3 1 5 C0.67 5 0.34 5 0 5 C0 3.35 0 1.7 0 0 Z " fill="#454444" transform="translate(744,696)"/>
<path d="M0 0 C0.33 0.66 0.66 1.32 1 2 C0.34 2.66 -0.32 3.32 -1 4 C-0.67 2.68 -0.34 1.36 0 0 Z " fill="#4C4A49" transform="translate(265,600)"/>
<path d="M0 0 C0.99 0.33 1.98 0.66 3 1 C2.01 1.33 1.02 1.66 0 2 C0 1.34 0 0.68 0 0 Z " fill="#484746" transform="translate(323,544)"/>
<path d="M0 0 C0.99 0.33 1.98 0.66 3 1 C2.01 1.33 1.02 1.66 0 2 C0 1.34 0 0.68 0 0 Z " fill="#4C4B49" transform="translate(531,488)"/>
<path d="M0 0 C0.66 1.32 1.32 2.64 2 4 C1.34 4 0.68 4 0 4 C0 2.68 0 1.36 0 0 Z " fill="#464645" transform="translate(345,404)"/>
<path d="M0 0 C0.33 1.32 0.66 2.64 1 4 C0.34 3.34 -0.32 2.68 -1 2 C-0.67 1.34 -0.34 0.68 0 0 Z " fill="#494846" transform="translate(338,314)"/>
<path d="M0 0 C0.66 0 1.32 0 2 0 C1.67 0.99 1.34 1.98 1 3 C0.67 2.01 0.34 1.02 0 0 Z " fill="#444341" transform="translate(632,269)"/>
<path d="M0 0 C0.99 0 1.98 0 3 0 C2.67 0.66 2.34 1.32 2 2 C1.34 1.34 0.68 0.68 0 0 Z " fill="#4A4B48" transform="translate(405,816)"/>
<path d="M0 0 C1 4 1 4 1 4 Z " fill="#4B4B49" transform="translate(249,805)"/>
<path d="M0 0 C1 4 1 4 1 4 Z " fill="#474646" transform="translate(744,761)"/>
<path d="M0 0 C1 4 1 4 1 4 Z " fill="#414241" transform="translate(279,665)"/>
<path d="M0 0 C1 4 1 4 1 4 Z " fill="#474546" transform="translate(248,656)"/>
<path d="M0 0 C0 3 0 3 0 3 Z " fill="#4A4748" transform="translate(601,458)"/>
<path d="M0 0 C0.66 0 1.32 0 2 0 C1.67 0.99 1.34 1.98 1 3 C0.67 2.01 0.34 1.02 0 0 Z " fill="#484645" transform="translate(632,424)"/>
<path d="M0 0 C0.99 0.495 0.99 0.495 2 1 C1.67 1.66 1.34 2.32 1 3 C0.67 2.01 0.34 1.02 0 0 Z " fill="#474444" transform="translate(640,410)"/>
<path d="M0 0 C1 4 1 4 1 4 Z " fill="#464543" transform="translate(338,377)"/>
<path d="M0 0 C1 4 1 4 1 4 Z " fill="#3F3F3F" transform="translate(367,339)"/>
<path d="M0 0 C1 4 1 4 1 4 Z " fill="#444242" transform="translate(656,336)"/>
<path d="M0 0 C1.485 0.99 1.485 0.99 3 2 C2.01 2 1.02 2 0 2 C0 1.34 0 0.68 0 0 Z " fill="#464542" transform="translate(616,250)"/>
<path d="M0 0 C4 1 4 1 4 1 Z " fill="#4B4A48" transform="translate(360,248)"/>
<path d="M0 0 C0.99 0 1.98 0 3 0 C2.67 0.66 2.34 1.32 2 2 C1.34 1.34 0.68 0.68 0 0 Z " fill="#494846" transform="translate(520,203)"/>
<path d="M0 0 C0.66 0.66 1.32 1.32 2 2 C1.34 2 0.68 2 0 2 C0 1.34 0 0.68 0 0 Z " fill="#4B4A49" transform="translate(682,816)"/>
<path d="M0 0 C3 1 3 1 3 1 Z " fill="#4C4B4A" transform="translate(634,817)"/>
<path d="M0 0 C3 1 3 1 3 1 Z " fill="#4C4B49" transform="translate(453,816)"/>
<path d="" fill="#424141" transform="translate(0,0)"/>
<path d="" fill="#464645" transform="translate(0,0)"/>
<path d="M0 0 C0.99 0.495 0.99 0.495 2 1 C1.01 1.495 1.01 1.495 0 2 C0 1.34 0 0.68 0 0 Z " fill="#444342" transform="translate(729,622)"/>
<path d="M0 0 C0.66 0.66 1.32 1.32 2 2 C1.34 2 0.68 2 0 2 C0 1.34 0 0.68 0 0 Z " fill="#434342" transform="translate(327,582)"/>
<path d="M0 0 C3 1 3 1 3 1 Z " fill="#464443" transform="translate(642,558)"/>
<path d="M0 0 C0.99 0.495 0.99 0.495 2 1 C1.01 1.495 1.01 1.495 0 2 C0 1.34 0 0.68 0 0 Z " fill="#434341" transform="translate(380,558)"/>
<path d="M0 0 C3 1 3 1 3 1 Z " fill="#4A4948" transform="translate(344,536)"/>
<path d="M0 0 C0.99 0.495 0.99 0.495 2 1 C1.01 1.495 1.01 1.495 0 2 C0 1.34 0 0.68 0 0 Z " fill="#494847" transform="translate(472,518)"/>
<path d="M0 0 C3 1 3 1 3 1 Z " fill="#4E4C4A" transform="translate(539,488)"/>
<path d="M0 0 C0.66 0.66 1.32 1.32 2 2 C1.34 2 0.68 2 0 2 C0 1.34 0 0.68 0 0 Z " fill="#474645" transform="translate(400,482)"/>
<path d="M0 0 C3 1 3 1 3 1 Z " fill="#484645" transform="translate(455,480)"/>
<path d="M0 0 C0.33 0.66 0.66 1.32 1 2 C0.34 1.67 -0.32 1.34 -1 1 C-0.67 0.67 -0.34 0.34 0 0 Z " fill="#484645" transform="translate(393,476)"/>
<path d="" fill="#484847" transform="translate(0,0)"/>
<path d="" fill="#404040" transform="translate(0,0)"/>
<path d="M0 0 C0.66 0.66 1.32 1.32 2 2 C1.34 2 0.68 2 0 2 C0 1.34 0 0.68 0 0 Z " fill="#4C4A4A" transform="translate(413,200)"/>
<path d="M0 0 C3 1 3 1 3 1 Z " fill="#4E4C4A" transform="translate(409,200)"/>
<path d="M0 0 C3 1 3 1 3 1 Z " fill="#4C4B4B" transform="translate(549,176)"/>
<path d="" fill="#494947" transform="translate(0,0)"/>
<path d="M0 0 C2 1 2 1 2 1 Z " fill="#4C4A4A" transform="translate(706,817)"/>
<path d="" fill="#4B4A4A" transform="translate(0,0)"/>
<path d="" fill="#494948" transform="translate(0,0)"/>
<path d="" fill="#4C4A49" transform="translate(0,0)"/>
<path d="M0 0 C2 1 2 1 2 1 Z " fill="#494A48" transform="translate(694,816)"/>
<path d="M0 0 C2 1 2 1 2 1 Z " fill="#4A4A49" transform="translate(422,816)"/>
<path d="" fill="#484745" transform="translate(0,0)"/>
<path d="" fill="#464544" transform="translate(0,0)"/>
<path d="" fill="#444645" transform="translate(0,0)"/>
<path d="" fill="#444442" transform="translate(0,0)"/>
<path d="" fill="#464444" transform="translate(0,0)"/>
<path d="" fill="#434444" transform="translate(0,0)"/>
<path d="" fill="#424140" transform="translate(0,0)"/>
<path d="" fill="#4A4B4B" transform="translate(0,0)"/>
<path d="M0 0 C2 1 2 1 2 1 Z " fill="#4B4B4A" transform="translate(258,616)"/>
<path d="M0 0 C2 1 2 1 2 1 Z " fill="#474745" transform="translate(749,592)"/>
<path d="M0 0 C2 1 2 1 2 1 Z " fill="#434241" transform="translate(688,577)"/>
<path d="" fill="#494949" transform="translate(0,0)"/>
<path d="M0 0 C2 1 2 1 2 1 Z " fill="#454444" transform="translate(682,573)"/>
<path d="M0 0 C2 1 2 1 2 1 Z " fill="#494947" transform="translate(289,569)"/>
<path d="M0 0 C2 1 2 1 2 1 Z " fill="#484847" transform="translate(477,559)"/>
<path d="M0 0 C2 1 2 1 2 1 Z " fill="#494947" transform="translate(483,558)"/>
<path d="M0 0 C2 1 2 1 2 1 Z " fill="#454444" transform="translate(390,558)"/>
<path d="M0 0 C2 1 2 1 2 1 Z " fill="#4A4748" transform="translate(536,556)"/>
<path d="M0 0 C2 1 2 1 2 1 Z " fill="#4A4948" transform="translate(441,556)"/>
<path d="M0 0 C2 1 2 1 2 1 Z " fill="#484744" transform="translate(394,556)"/>
<path d="" fill="#444342" transform="translate(0,0)"/>
<path d="M0 0 C2 1 2 1 2 1 Z " fill="#494746" transform="translate(336,539)"/>
<path d="M0 0 C2 1 2 1 2 1 Z " fill="#494745" transform="translate(336,536)"/>
<path d="M0 0 C2 1 2 1 2 1 Z " fill="#4A4948" transform="translate(368,528)"/>
<path d="" fill="#484746" transform="translate(0,0)"/>
<path d="M0 0 C2 1 2 1 2 1 Z " fill="#4A4948" transform="translate(536,488)"/>
<path d="M0 0 C2 1 2 1 2 1 Z " fill="#4A4B49" transform="translate(484,488)"/>
<path d="M0 0 C2 1 2 1 2 1 Z " fill="#474645" transform="translate(566,480)"/>
<path d="M0 0 C2 1 2 1 2 1 Z " fill="#4A4B49" transform="translate(445,473)"/>
<path d="" fill="#464544" transform="translate(0,0)"/>
<path d="" fill="#484644" transform="translate(0,0)"/>
<path d="M0 0 C2 1 2 1 2 1 Z " fill="#454544" transform="translate(368,449)"/>
<path d="M0 0 C2 1 2 1 2 1 Z " fill="#474645" transform="translate(626,434)"/>
<path d="" fill="#444442" transform="translate(0,0)"/>
<path d="" fill="#454646" transform="translate(0,0)"/>
<path d="" fill="#454543" transform="translate(0,0)"/>
<path d="" fill="#474546" transform="translate(0,0)"/>
<path d="" fill="#484644" transform="translate(0,0)"/>
<path d="" fill="#434340" transform="translate(0,0)"/>
<path d="" fill="#464442" transform="translate(0,0)"/>
<path d="" fill="#444241" transform="translate(0,0)"/>
<path d="M0 0 C2 1 2 1 2 1 Z " fill="#4A4B4A" transform="translate(365,248)"/>
<path d="M0 0 C2 1 2 1 2 1 Z " fill="#474544" transform="translate(562,213)"/>
<path d="M0 0 C2 1 2 1 2 1 Z " fill="#494945" transform="translate(622,210)"/>
<path d="" fill="#4B4B49" transform="translate(0,0)"/>
<path d="M0 0 C2 1 2 1 2 1 Z " fill="#474645" transform="translate(446,184)"/>
<path d="M0 0 C2 1 2 1 2 1 Z " fill="#4D4D4B" transform="translate(440,184)"/>
<path d="" fill="#51504F" transform="translate(0,0)"/>
<path d="M0 0 C2 1 2 1 2 1 Z " fill="#4D4C4B" transform="translate(558,176)"/>
<path d="" fill="#626261" transform="translate(0,0)"/>
<path d="" fill="#4D4B4A" transform="translate(0,0)"/>
<path d="" fill="#4B4B4C" transform="translate(0,0)"/>
<path d="" fill="#4A4C4A" transform="translate(0,0)"/>
<path d="" fill="#4B4A47" transform="translate(0,0)"/>
<path d="" fill="#494948" transform="translate(0,0)"/>
<path d="" fill="#4E4B4C" transform="translate(0,0)"/>
<path d="" fill="#4F4E4D" transform="translate(0,0)"/>
<path d="" fill="#4C4B49" transform="translate(0,0)"/>
<path d="" fill="#4B4A48" transform="translate(0,0)"/>
<path d="" fill="#4C4C49" transform="translate(0,0)"/>
<path d="" fill="#4B4948" transform="translate(0,0)"/>
<path d="" fill="#4E4D4B" transform="translate(0,0)"/>
<path d="" fill="#4A4946" transform="translate(0,0)"/>
<path d="" fill="#494947" transform="translate(0,0)"/>
<path d="" fill="#4A4947" transform="translate(0,0)"/>
<path d="" fill="#4A4B4A" transform="translate(0,0)"/>
<path d="" fill="#4A494A" transform="translate(0,0)"/>
<path d="" fill="#4A4A4A" transform="translate(0,0)"/>
<path d="" fill="#4B4A49" transform="translate(0,0)"/>
<path d="" fill="#494846" transform="translate(0,0)"/>
<path d="" fill="#4B4B49" transform="translate(0,0)"/>
<path d="" fill="#4B4A48" transform="translate(0,0)"/>
<path d="" fill="#4D4B4C" transform="translate(0,0)"/>
<path d="" fill="#4C4B49" transform="translate(0,0)"/>
<path d="" fill="#484745" transform="translate(0,0)"/>
<path d="" fill="#494948" transform="translate(0,0)"/>
<path d="" fill="#464746" transform="translate(0,0)"/>
<path d="" fill="#484544" transform="translate(0,0)"/>
<path d="" fill="#494B47" transform="translate(0,0)"/>
<path d="" fill="#4A4A46" transform="translate(0,0)"/>
<path d="" fill="#4C4A4A" transform="translate(0,0)"/>
<path d="" fill="#4C4B49" transform="translate(0,0)"/>
<path d="" fill="#4C4C4A" transform="translate(0,0)"/>
<path d="" fill="#4C4C48" transform="translate(0,0)"/>
<path d="" fill="#4B4A48" transform="translate(0,0)"/>
<path d="" fill="#4A4945" transform="translate(0,0)"/>
<path d="" fill="#494947" transform="translate(0,0)"/>
<path d="" fill="#4B4A49" transform="translate(0,0)"/>
<path d="" fill="#4B4A4A" transform="translate(0,0)"/>
<path d="" fill="#494B48" transform="translate(0,0)"/>
<path d="" fill="#4B4C4A" transform="translate(0,0)"/>
<path d="" fill="#4A4B48" transform="translate(0,0)"/>
<path d="" fill="#484747" transform="translate(0,0)"/>
<path d="" fill="#4B4B4A" transform="translate(0,0)"/>
<path d="" fill="#4A4A4A" transform="translate(0,0)"/>
<path d="" fill="#434240" transform="translate(0,0)"/>
<path d="" fill="#4A4A48" transform="translate(0,0)"/>
<path d="" fill="#4E4C4B" transform="translate(0,0)"/>
<path d="" fill="#424341" transform="translate(0,0)"/>
<path d="" fill="#4D4B4C" transform="translate(0,0)"/>
<path d="" fill="#454443" transform="translate(0,0)"/>
<path d="" fill="#494646" transform="translate(0,0)"/>
<path d="" fill="#424042" transform="translate(0,0)"/>
<path d="" fill="#454443" transform="translate(0,0)"/>
<path d="" fill="#464444" transform="translate(0,0)"/>
<path d="" fill="#444544" transform="translate(0,0)"/>
<path d="" fill="#424243" transform="translate(0,0)"/>
<path d="" fill="#424443" transform="translate(0,0)"/>
<path d="" fill="#434341" transform="translate(0,0)"/>
<path d="" fill="#434443" transform="translate(0,0)"/>
<path d="" fill="#424445" transform="translate(0,0)"/>
<path d="" fill="#444544" transform="translate(0,0)"/>
<path d="" fill="#42413F" transform="translate(0,0)"/>
<path d="" fill="#454343" transform="translate(0,0)"/>
<path d="" fill="#444545" transform="translate(0,0)"/>
<path d="" fill="#434445" transform="translate(0,0)"/>
<path d="" fill="#444243" transform="translate(0,0)"/>
<path d="" fill="#424443" transform="translate(0,0)"/>
<path d="" fill="#464545" transform="translate(0,0)"/>
<path d="" fill="#454545" transform="translate(0,0)"/>
<path d="" fill="#474848" transform="translate(0,0)"/>
<path d="" fill="#494849" transform="translate(0,0)"/>
<path d="" fill="#494747" transform="translate(0,0)"/>
<path d="" fill="#4B4B4B" transform="translate(0,0)"/>
<path d="" fill="#474745" transform="translate(0,0)"/>
<path d="" fill="#444341" transform="translate(0,0)"/>
<path d="" fill="#4B4C4B" transform="translate(0,0)"/>
<path d="" fill="#4D4B49" transform="translate(0,0)"/>
<path d="" fill="#4B4C4B" transform="translate(0,0)"/>
<path d="" fill="#4C4B4C" transform="translate(0,0)"/>
<path d="" fill="#434341" transform="translate(0,0)"/>
<path d="" fill="#42403E" transform="translate(0,0)"/>
<path d="" fill="#454341" transform="translate(0,0)"/>
<path d="" fill="#474645" transform="translate(0,0)"/>
<path d="" fill="#474543" transform="translate(0,0)"/>
<path d="" fill="#4E4C4B" transform="translate(0,0)"/>
<path d="" fill="#474844" transform="translate(0,0)"/>
<path d="" fill="#484947" transform="translate(0,0)"/>
<path d="" fill="#454544" transform="translate(0,0)"/>
<path d="" fill="#434240" transform="translate(0,0)"/>
<path d="" fill="#464342" transform="translate(0,0)"/>
<path d="" fill="#484647" transform="translate(0,0)"/>
<path d="" fill="#454542" transform="translate(0,0)"/>
<path d="" fill="#444243" transform="translate(0,0)"/>
<path d="" fill="#4B4A48" transform="translate(0,0)"/>
<path d="" fill="#4C4B4A" transform="translate(0,0)"/>
<path d="" fill="#424240" transform="translate(0,0)"/>
<path d="" fill="#464246" transform="translate(0,0)"/>
<path d="" fill="#464444" transform="translate(0,0)"/>
<path d="" fill="#474442" transform="translate(0,0)"/>
<path d="" fill="#484646" transform="translate(0,0)"/>
<path d="" fill="#464443" transform="translate(0,0)"/>
<path d="" fill="#494746" transform="translate(0,0)"/>
<path d="" fill="#434141" transform="translate(0,0)"/>
<path d="" fill="#474743" transform="translate(0,0)"/>
<path d="" fill="#4D4C4A" transform="translate(0,0)"/>
<path d="" fill="#484744" transform="translate(0,0)"/>
<path d="" fill="#4D4A4B" transform="translate(0,0)"/>
<path d="" fill="#4C4B48" transform="translate(0,0)"/>
<path d="" fill="#454443" transform="translate(0,0)"/>
<path d="" fill="#454442" transform="translate(0,0)"/>
<path d="" fill="#444143" transform="translate(0,0)"/>
<path d="" fill="#464242" transform="translate(0,0)"/>
<path d="" fill="#464543" transform="translate(0,0)"/>
<path d="" fill="#474546" transform="translate(0,0)"/>
<path d="" fill="#474643" transform="translate(0,0)"/>
<path d="" fill="#454343" transform="translate(0,0)"/>
<path d="" fill="#454344" transform="translate(0,0)"/>
<path d="" fill="#484A48" transform="translate(0,0)"/>
<path d="" fill="#42403F" transform="translate(0,0)"/>
<path d="" fill="#474344" transform="translate(0,0)"/>
<path d="" fill="#474847" transform="translate(0,0)"/>
<path d="" fill="#4B4848" transform="translate(0,0)"/>
<path d="" fill="#464243" transform="translate(0,0)"/>
<path d="" fill="#494744" transform="translate(0,0)"/>
<path d="" fill="#474444" transform="translate(0,0)"/>
<path d="" fill="#484946" transform="translate(0,0)"/>
<path d="" fill="#484A46" transform="translate(0,0)"/>
<path d="" fill="#4A4947" transform="translate(0,0)"/>
<path d="" fill="#494847" transform="translate(0,0)"/>
<path d="" fill="#484847" transform="translate(0,0)"/>
<path d="" fill="#484847" transform="translate(0,0)"/>
<path d="" fill="#494948" transform="translate(0,0)"/>
<path d="" fill="#494747" transform="translate(0,0)"/>
<path d="" fill="#484A48" transform="translate(0,0)"/>
<path d="" fill="#474746" transform="translate(0,0)"/>
<path d="" fill="#484848" transform="translate(0,0)"/>
<path d="" fill="#4A4846" transform="translate(0,0)"/>
<path d="" fill="#494947" transform="translate(0,0)"/>
<path d="" fill="#484A48" transform="translate(0,0)"/>
<path d="" fill="#484848" transform="translate(0,0)"/>
<path d="" fill="#474845" transform="translate(0,0)"/>
<path d="" fill="#474747" transform="translate(0,0)"/>
<path d="" fill="#484745" transform="translate(0,0)"/>
<path d="" fill="#4A4948" transform="translate(0,0)"/>
<path d="" fill="#474745" transform="translate(0,0)"/>
<path d="" fill="#474546" transform="translate(0,0)"/>
<path d="" fill="#494A48" transform="translate(0,0)"/>
<path d="" fill="#484844" transform="translate(0,0)"/>
<path d="" fill="#484A47" transform="translate(0,0)"/>
<path d="" fill="#494847" transform="translate(0,0)"/>
<path d="" fill="#494A47" transform="translate(0,0)"/>
<path d="" fill="#464645" transform="translate(0,0)"/>
<path d="" fill="#484847" transform="translate(0,0)"/>
<path d="" fill="#474746" transform="translate(0,0)"/>
<path d="" fill="#474944" transform="translate(0,0)"/>
<path d="" fill="#4A4A46" transform="translate(0,0)"/>
<path d="" fill="#4B4946" transform="translate(0,0)"/>
<path d="" fill="#4A4949" transform="translate(0,0)"/>
<path d="" fill="#464A46" transform="translate(0,0)"/>
<path d="" fill="#474744" transform="translate(0,0)"/>
<path d="" fill="#474744" transform="translate(0,0)"/>
<path d="" fill="#444242" transform="translate(0,0)"/>
<path d="" fill="#484646" transform="translate(0,0)"/>
<path d="" fill="#444243" transform="translate(0,0)"/>
<path d="" fill="#494746" transform="translate(0,0)"/>
<path d="" fill="#4A4847" transform="translate(0,0)"/>
<path d="" fill="#454445" transform="translate(0,0)"/>
<path d="" fill="#454544" transform="translate(0,0)"/>
<path d="" fill="#494A46" transform="translate(0,0)"/>
<path d="" fill="#4C4C4B" transform="translate(0,0)"/>
<path d="" fill="#474542" transform="translate(0,0)"/>
<path d="" fill="#484848" transform="translate(0,0)"/>
<path d="" fill="#494B48" transform="translate(0,0)"/>
<path d="" fill="#454442" transform="translate(0,0)"/>
<path d="" fill="#454546" transform="translate(0,0)"/>
<path d="" fill="#424341" transform="translate(0,0)"/>
<path d="" fill="#494747" transform="translate(0,0)"/>
<path d="" fill="#464647" transform="translate(0,0)"/>
<path d="" fill="#4C4B4A" transform="translate(0,0)"/>
<path d="" fill="#474546" transform="translate(0,0)"/>
<path d="" fill="#494646" transform="translate(0,0)"/>
<path d="" fill="#444644" transform="translate(0,0)"/>
<path d="" fill="#484847" transform="translate(0,0)"/>
<path d="" fill="#484845" transform="translate(0,0)"/>
<path d="" fill="#464445" transform="translate(0,0)"/>
<path d="" fill="#494846" transform="translate(0,0)"/>
<path d="" fill="#4A494A" transform="translate(0,0)"/>
<path d="" fill="#3A3939" transform="translate(0,0)"/>
<path d="" fill="#484644" transform="translate(0,0)"/>
<path d="" fill="#4B4847" transform="translate(0,0)"/>
<path d="" fill="#44403F" transform="translate(0,0)"/>
<path d="" fill="#494947" transform="translate(0,0)"/>
<path d="" fill="#454546" transform="translate(0,0)"/>
<path d="" fill="#484848" transform="translate(0,0)"/>
<path d="" fill="#484847" transform="translate(0,0)"/>
<path d="" fill="#46443F" transform="translate(0,0)"/>
<path d="" fill="#474A48" transform="translate(0,0)"/>
<path d="" fill="#454543" transform="translate(0,0)"/>
<path d="" fill="#494947" transform="translate(0,0)"/>
<path d="" fill="#474644" transform="translate(0,0)"/>
<path d="" fill="#494B48" transform="translate(0,0)"/>
<path d="" fill="#434543" transform="translate(0,0)"/>
<path d="" fill="#4C4A47" transform="translate(0,0)"/>
<path d="" fill="#464342" transform="translate(0,0)"/>
<path d="" fill="#4A4747" transform="translate(0,0)"/>
<path d="" fill="#484847" transform="translate(0,0)"/>
<path d="" fill="#4A4948" transform="translate(0,0)"/>
<path d="" fill="#4A4B48" transform="translate(0,0)"/>
<path d="" fill="#484848" transform="translate(0,0)"/>
<path d="" fill="#494748" transform="translate(0,0)"/>
<path d="" fill="#484948" transform="translate(0,0)"/>
<path d="" fill="#474745" transform="translate(0,0)"/>
<path d="" fill="#494848" transform="translate(0,0)"/>
<path d="" fill="#474644" transform="translate(0,0)"/>
<path d="" fill="#4B4A49" transform="translate(0,0)"/>
<path d="" fill="#4D4948" transform="translate(0,0)"/>
<path d="" fill="#484B48" transform="translate(0,0)"/>
<path d="" fill="#4C494A" transform="translate(0,0)"/>
<path d="" fill="#4D4B4A" transform="translate(0,0)"/>
<path d="" fill="#494847" transform="translate(0,0)"/>
<path d="" fill="#484747" transform="translate(0,0)"/>
<path d="" fill="#4A4A46" transform="translate(0,0)"/>
<path d="" fill="#484846" transform="translate(0,0)"/>
<path d="" fill="#464647" transform="translate(0,0)"/>
<path d="" fill="#444644" transform="translate(0,0)"/>
<path d="" fill="#464946" transform="translate(0,0)"/>
<path d="" fill="#484845" transform="translate(0,0)"/>
<path d="" fill="#494646" transform="translate(0,0)"/>
<path d="" fill="#464645" transform="translate(0,0)"/>
<path d="" fill="#484847" transform="translate(0,0)"/>
<path d="" fill="#4B4A48" transform="translate(0,0)"/>
<path d="" fill="#4C4A48" transform="translate(0,0)"/>
<path d="" fill="#474644" transform="translate(0,0)"/>
<path d="" fill="#474444" transform="translate(0,0)"/>
<path d="" fill="#4A4744" transform="translate(0,0)"/>
<path d="" fill="#484746" transform="translate(0,0)"/>
<path d="" fill="#494A47" transform="translate(0,0)"/>
<path d="" fill="#484745" transform="translate(0,0)"/>
<path d="" fill="#4A4A49" transform="translate(0,0)"/>
<path d="" fill="#4A4A48" transform="translate(0,0)"/>
<path d="" fill="#4A4847" transform="translate(0,0)"/>
<path d="" fill="#424340" transform="translate(0,0)"/>
<path d="" fill="#474644" transform="translate(0,0)"/>
<path d="" fill="#454441" transform="translate(0,0)"/>
<path d="" fill="#464545" transform="translate(0,0)"/>
<path d="" fill="#474847" transform="translate(0,0)"/>
<path d="" fill="#494846" transform="translate(0,0)"/>
<path d="" fill="#474647" transform="translate(0,0)"/>
<path d="" fill="#454240" transform="translate(0,0)"/>
<path d="" fill="#474745" transform="translate(0,0)"/>
<path d="" fill="#434241" transform="translate(0,0)"/>
<path d="" fill="#4A4744" transform="translate(0,0)"/>
<path d="" fill="#464544" transform="translate(0,0)"/>
<path d="" fill="#474646" transform="translate(0,0)"/>
<path d="" fill="#484746" transform="translate(0,0)"/>
<path d="" fill="#444645" transform="translate(0,0)"/>
<path d="" fill="#494646" transform="translate(0,0)"/>
<path d="" fill="#464544" transform="translate(0,0)"/>
<path d="" fill="#41403F" transform="translate(0,0)"/>
<path d="" fill="#444344" transform="translate(0,0)"/>
<path d="" fill="#636362" transform="translate(0,0)"/>
<path d="" fill="#494946" transform="translate(0,0)"/>
<path d="" fill="#4B4B46" transform="translate(0,0)"/>
<path d="" fill="#4D4C4B" transform="translate(0,0)"/>
<path d="" fill="#434240" transform="translate(0,0)"/>
<path d="" fill="#464443" transform="translate(0,0)"/>
<path d="" fill="#434141" transform="translate(0,0)"/>
<path d="" fill="#484848" transform="translate(0,0)"/>
<path d="" fill="#464543" transform="translate(0,0)"/>
<path d="" fill="#4B4847" transform="translate(0,0)"/>
<path d="" fill="#4B4647" transform="translate(0,0)"/>
<path d="" fill="#4D4D4B" transform="translate(0,0)"/>
<path d="" fill="#444243" transform="translate(0,0)"/>
<path d="" fill="#414140" transform="translate(0,0)"/>
<path d="" fill="#454342" transform="translate(0,0)"/>
<path d="" fill="#4B4A48" transform="translate(0,0)"/>
<path d="" fill="#424040" transform="translate(0,0)"/>
<path d="" fill="#4A4846" transform="translate(0,0)"/>
<path d="" fill="#4B4B4A" transform="translate(0,0)"/>
<path d="" fill="#444241" transform="translate(0,0)"/>
<path d="" fill="#494947" transform="translate(0,0)"/>
<path d="" fill="#474444" transform="translate(0,0)"/>
<path d="" fill="#464441" transform="translate(0,0)"/>
<path d="" fill="#4C4B4B" transform="translate(0,0)"/>
<path d="" fill="#4E4C4B" transform="translate(0,0)"/>
<path d="" fill="#454143" transform="translate(0,0)"/>
<path d="" fill="#454443" transform="translate(0,0)"/>
<path d="" fill="#4B4847" transform="translate(0,0)"/>
<path d="" fill="#494749" transform="translate(0,0)"/>
<path d="" fill="#474546" transform="translate(0,0)"/>
<path d="" fill="#454542" transform="translate(0,0)"/>
<path d="" fill="#4D4B48" transform="translate(0,0)"/>
<path d="" fill="#4C4C47" transform="translate(0,0)"/>
<path d="" fill="#484746" transform="translate(0,0)"/>
<path d="" fill="#4B4A48" transform="translate(0,0)"/>
<path d="" fill="#4C4B48" transform="translate(0,0)"/>
<path d="" fill="#3F3D3B" transform="translate(0,0)"/>
<path d="" fill="#4C4A48" transform="translate(0,0)"/>
<path d="" fill="#4C4C4C" transform="translate(0,0)"/>
<path d="" fill="#494947" transform="translate(0,0)"/>
<path d="" fill="#424341" transform="translate(0,0)"/>
<path d="" fill="#464445" transform="translate(0,0)"/>
<path d="" fill="#444746" transform="translate(0,0)"/>
<path d="" fill="#464542" transform="translate(0,0)"/>
<path d="" fill="#40403D" transform="translate(0,0)"/>
<path d="" fill="#474845" transform="translate(0,0)"/>
<path d="" fill="#484947" transform="translate(0,0)"/>
<path d="" fill="#41413F" transform="translate(0,0)"/>
<path d="" fill="#474746" transform="translate(0,0)"/>
<path d="" fill="#494747" transform="translate(0,0)"/>
<path d="" fill="#474945" transform="translate(0,0)"/>
<path d="" fill="#474744" transform="translate(0,0)"/>
<path d="" fill="#474645" transform="translate(0,0)"/>
<path d="" fill="#484645" transform="translate(0,0)"/>
<path d="" fill="#444341" transform="translate(0,0)"/>
<path d="" fill="#4A4745" transform="translate(0,0)"/>
<path d="" fill="#4B4947" transform="translate(0,0)"/>
<path d="" fill="#454342" transform="translate(0,0)"/>
<path d="" fill="#4C4847" transform="translate(0,0)"/>
<path d="" fill="#444242" transform="translate(0,0)"/>
<path d="" fill="#4A4645" transform="translate(0,0)"/>
<path d="" fill="#4C4848" transform="translate(0,0)"/>
<path d="" fill="#4B4C48" transform="translate(0,0)"/>
<path d="" fill="#494847" transform="translate(0,0)"/>
<path d="" fill="#474845" transform="translate(0,0)"/>
<path d="" fill="#494946" transform="translate(0,0)"/>
<path d="" fill="#4C4C4A" transform="translate(0,0)"/>
<path d="" fill="#484947" transform="translate(0,0)"/>
<path d="" fill="#464544" transform="translate(0,0)"/>
<path d="" fill="#4D4E4C" transform="translate(0,0)"/>
<path d="" fill="#4A4A49" transform="translate(0,0)"/>
<path d="" fill="#4C4C49" transform="translate(0,0)"/>
<path d="" fill="#4B4D49" transform="translate(0,0)"/>
<path d="" fill="#464341" transform="translate(0,0)"/>
<path d="" fill="#4B4B48" transform="translate(0,0)"/>
<path d="" fill="#4C4B48" transform="translate(0,0)"/>
<path d="" fill="#494846" transform="translate(0,0)"/>
<path d="" fill="#4D4B4A" transform="translate(0,0)"/>
<path d="" fill="#4C4D49" transform="translate(0,0)"/>
<path d="" fill="#4E504C" transform="translate(0,0)"/>
<path d="" fill="#4F4E4C" transform="translate(0,0)"/>
<path d="" fill="#4D4D4B" transform="translate(0,0)"/>
<path d="" fill="#4E4E4E" transform="translate(0,0)"/>
<path d="" fill="#50504D" transform="translate(0,0)"/>
<path d="" fill="#504F4E" transform="translate(0,0)"/>
<path d="" fill="#4F4E4D" transform="translate(0,0)"/>
<path d="" fill="#4A4B46" transform="translate(0,0)"/>
<path d="" fill="#504E4B" transform="translate(0,0)"/>
</svg>
