<?xml version="1.0" encoding="UTF-8"?>
<svg version="1.1" xmlns="http://www.w3.org/2000/svg" width="1024" height="1024">
<path d="M0 0 C11.95973945 11.50802267 20.0146497 25.02384828 20.46459961 41.95043945 C20.61933089 58.69007129 15.59931129 72.61795868 3.984375 84.90234375 C-1.43225089 90.0932769 -7.15982042 93.68004752 -13.828125 97.08984375 C-13.27847774 100.43979918 -12.52891652 103.0014448 -10.765625 105.90234375 C-10.12625 106.95421875 -9.486875 108.00609375 -8.828125 109.08984375 C-8.168125 109.08984375 -7.508125 109.08984375 -6.828125 109.08984375 C-6.745625 109.91484375 -6.663125 110.73984375 -6.578125 111.58984375 C-5.78374611 115.29694525 -4.46627451 118.0532418 -2.66796875 121.35546875 C-1.828125 123.08984375 -1.828125 123.08984375 -1.828125 125.08984375 C-0.838125 125.41984375 0.151875 125.74984375 1.171875 126.08984375 C1.171875 127.07984375 1.171875 128.06984375 1.171875 129.08984375 C2.16535892 131.26273631 3.23737543 133.40002843 4.34765625 135.515625 C4.6734819 136.14083542 4.99930756 136.76604584 5.33500671 137.41020203 C6.37907866 139.41063485 7.43150358 141.40653059 8.484375 143.40234375 C9.18221272 144.73472656 9.87948478 146.0674058 10.57617188 147.40039062 C11.86532382 149.86691545 13.15836473 152.33122916 14.4543457 154.79418945 C15.59180589 156.97678719 16.69777776 159.17610968 17.77026367 161.39135742 C19.03080395 164.14982399 19.03080395 164.14982399 21.171875 166.08984375 C22.75376967 169.06380572 24.10606707 171.89241995 25.171875 175.08984375 C26.1349537 177.04385357 27.1248428 178.98469909 28.12890625 180.91796875 C28.57718277 181.78320663 28.57718277 181.78320663 29.03451538 182.66592407 C30.01568046 184.55834009 30.99998219 186.449105 31.984375 188.33984375 C32.66919089 189.65893169 33.35384097 190.97810573 34.03833008 192.29736328 C36.07967752 196.22984122 38.12526909 200.16010052 40.171875 204.08984375 C40.7297168 205.16137695 41.28755859 206.23291016 41.86230469 207.33691406 C44.80738035 212.99168175 47.75816604 218.64344835 50.71142578 224.29394531 C52.21938725 227.18080167 53.72522447 230.06875726 55.23046875 232.95703125 C59.81886332 241.76038882 64.4140147 250.55979565 69.046875 259.33984375 C73.08139639 266.98869228 77.0693151 274.66123592 81.046875 282.33984375 C85.60320739 291.13472592 90.16025521 299.9291956 94.734375 308.71484375 C95.21052246 309.63168945 95.68666992 310.54853516 96.17724609 311.49316406 C98.74513067 316.42080038 101.38287742 321.28855573 104.17163086 326.09521484 C105.17085181 328.08780335 105.72117188 329.91342609 106.171875 332.08984375 C107.6259375 330.91421875 107.6259375 330.91421875 109.109375 329.71484375 C109.65464844 329.27398438 110.19992187 328.833125 110.76171875 328.37890625 C112.30453937 327.12320465 112.30453937 327.12320465 113.171875 325.08984375 C113.91050781 324.65027344 114.64914062 324.21070313 115.41015625 323.7578125 C118.44585517 321.92437058 120.77814408 319.83106472 123.359375 317.40234375 C127.67974329 313.40672798 132.11018143 309.6764729 136.7421875 306.05078125 C140.07720248 303.35917752 143.21968942 300.47401607 146.359375 297.55859375 C148.171875 296.08984375 148.171875 296.08984375 150.171875 296.08984375 C150.171875 295.42984375 150.171875 294.76984375 150.171875 294.08984375 C151.82421875 292.64453125 151.82421875 292.64453125 154.109375 290.96484375 C162.72070303 284.99945157 162.72070303 284.99945157 169.171875 277.08984375 C169.91179688 276.64898437 170.65171875 276.208125 171.4140625 275.75390625 C174.42535453 273.93689435 176.7362471 271.87259834 179.296875 269.46484375 C183.88948248 265.2174524 188.62197892 261.23224215 193.48828125 257.3046875 C196.11896057 255.13351548 198.65129924 252.88743018 201.171875 250.58984375 C204.49176986 247.56701954 207.86951612 244.66472214 211.359375 241.83984375 C218.44788975 236.09724952 225.29792826 230.08568152 232.171875 224.08984375 C234.75356599 221.83794961 237.33654259 219.58755673 239.921875 217.33984375 C240.85410889 216.52918457 240.85410889 216.52918457 241.80517578 215.70214844 C246.39245868 211.72852855 251.05944097 207.87421482 255.8046875 204.08984375 C258.40998794 201.88866582 260.79093478 199.53009565 263.171875 197.08984375 C262.73617187 196.62835938 262.30046875 196.166875 261.8515625 195.69140625 C254.00188215 187.09413729 249.32215311 178.2876505 246.171875 167.08984375 C245.78386719 165.83945312 245.39585937 164.5890625 244.99609375 163.30078125 C243.85352791 158.62523783 244.40074516 154.53050281 245.234375 149.83984375 C245.44646606 148.59195068 245.44646606 148.59195068 245.6628418 147.31884766 C248.55821692 131.54341237 256.85990771 117.09460241 269.796875 107.40234375 C282.94643276 98.66257699 298.34945329 95.36871492 313.796875 98.15234375 C326.3364824 101.03887008 336.25892223 106.89577744 345.171875 116.08984375 C345.73261719 116.6415625 346.29335938 117.19328125 346.87109375 117.76171875 C357.6932466 129.23717741 361.68842971 143.6328835 361.59399414 158.96142578 C361.10610534 175.10814556 353.79230222 189.07209671 342.171875 200.08984375 C334.0460058 206.93478776 324.9174524 211.30779327 314.46264648 213.1550293 C313.47191635 213.33124313 312.48118622 213.50745697 311.46043396 213.68901062 C310.32759727 213.88742302 310.32759727 213.88742302 309.171875 214.08984375 C303.22018752 242.22809283 297.4673769 270.40135688 291.86068726 298.61026001 C289.68536029 309.55284749 287.49945608 320.49332538 285.3125 331.43359375 C285.0932958 332.53022654 284.87409161 333.62685932 284.64824486 334.7567234 C280.75485592 354.22820758 276.82135787 373.69120842 272.83404541 393.14367676 C272.18518254 396.30956182 271.53821496 399.47582445 270.89300537 402.64245605 C267.53537952 419.11830538 264.09680757 435.56930734 260.42178917 451.97756958 C258.84349277 459.03233035 257.28355287 466.09113576 255.734375 473.15234375 C255.5699931 473.90059418 255.40561119 474.6488446 255.23624802 475.41976929 C250.76920223 495.81769444 247.44312663 515.54180027 248.15625 536.515625 C248.42314332 545.28391037 246.49443431 552.45504111 240.890625 559.28125 C225.74264802 575.22105305 198.60345529 579.00640709 178.171875 584.08984375 C177.07431885 584.36320557 177.07431885 584.36320557 175.95458984 584.64208984 C166.02961754 587.08984375 166.02961754 587.08984375 161.171875 587.08984375 C160.841875 587.74984375 160.511875 588.40984375 160.171875 589.08984375 C158.29760742 589.42700195 158.29760742 589.42700195 155.83984375 589.578125 C151.05112927 589.96809097 146.44503546 590.73612791 141.73168945 591.65063477 C111.27181179 597.52917818 80.31871033 600.86740071 49.421875 603.40234375 C48.44594391 603.48356476 47.47001282 603.56478577 46.46450806 603.64846802 C19.35090913 605.87289836 -7.76422147 606.29870049 -34.953125 606.27734375 C-35.71853985 606.27707687 -36.4839547 606.27681 -37.27256393 606.27653503 C-62.17028423 606.26567408 -86.99019438 605.96372307 -111.828125 604.08984375 C-113.14481171 603.99156281 -113.14481171 603.99156281 -114.48809814 603.89129639 C-135.76366501 602.28783722 -156.97537136 600.22541337 -178.140625 597.52734375 C-179.32328949 597.37753555 -179.32328949 597.37753555 -180.52984619 597.22470093 C-191.04088339 595.87932476 -201.43387968 594.15035366 -211.828125 592.08984375 C-212.158125 592.74984375 -212.488125 593.40984375 -212.828125 594.08984375 C-213.158125 593.42984375 -213.488125 592.76984375 -213.828125 592.08984375 C-216.45222333 591.35163012 -216.45222333 591.35163012 -219.6875 590.828125 C-221.55740601 590.48599976 -221.55740601 590.48599976 -223.46508789 590.13696289 C-224.1346048 590.01773468 -224.8041217 589.89850647 -225.493927 589.77566528 C-305.38415932 575.46572734 -305.38415932 575.46572734 -319.765625 556.52734375 C-323.7215662 550.84156446 -324.09434591 545.0148915 -324.03125 538.3359375 C-324.03726776 536.58910459 -324.04507018 534.84227712 -324.05444336 533.09545898 C-324.05877884 531.73068924 -324.05877884 531.73068924 -324.0632019 530.33834839 C-324.1594041 512.21712052 -324.58888367 493.36020768 -330.828125 476.08984375 C-331.488125 475.75984375 -332.148125 475.42984375 -332.828125 475.08984375 C-333.67869445 471.53291698 -333.99722307 469.59713797 -332.828125 466.08984375 C-333.09859542 463.6285936 -333.09859542 463.6285936 -333.7175293 460.87060547 C-333.93958038 459.79141846 -334.16163147 458.71223145 -334.39041138 457.6003418 C-334.64184906 456.41867432 -334.89328674 455.23700684 -335.15234375 454.01953125 C-335.40990448 452.77937256 -335.66746521 451.53921387 -335.93283081 450.26147461 C-336.63781008 446.86802622 -337.35241217 443.47666791 -338.06871414 440.08559418 C-338.81639567 436.5375803 -339.55499665 432.98767696 -340.29467773 429.43798828 C-341.9779129 421.36967913 -343.67448516 413.30420726 -345.37489319 405.23950195 C-345.81874886 403.13431436 -346.26237897 401.02907937 -346.70593262 398.92382812 C-347.54585404 394.93743915 -348.38618863 390.95113737 -349.2265625 386.96484375 C-349.49533707 385.68948761 -349.76411163 384.41413147 -350.04103088 383.10012817 C-351.31236321 377.06957416 -352.5865451 371.0396591 -353.86791992 365.01123047 C-354.33539237 362.80572099 -354.80260343 360.60015609 -355.26953125 358.39453125 C-355.49084213 357.35223358 -355.71215302 356.30993591 -355.94017029 355.23605347 C-357.01745816 350.11839883 -358.04445436 344.99741092 -358.98388672 339.85253906 C-359.16378647 338.87052521 -359.34368622 337.88851135 -359.52903748 336.8767395 C-359.86339814 335.02802216 -360.18988552 333.17785768 -360.50721741 331.32614136 C-360.88359467 329.2348561 -361.34697803 327.15953732 -361.828125 325.08984375 C-362.488125 324.75984375 -363.148125 324.42984375 -363.828125 324.08984375 C-364.515625 320.58984375 -364.515625 320.58984375 -364.828125 317.08984375 C-364.498125 316.75984375 -364.168125 316.42984375 -363.828125 316.08984375 C-364.058288 314.49640756 -364.36324551 312.91353235 -364.703125 311.33984375 C-364.88617188 310.47875 -365.06921875 309.61765625 -365.2578125 308.73046875 C-365.44601562 307.8590625 -365.63421875 306.98765625 -365.828125 306.08984375 C-366.16245508 304.42337674 -366.49579817 302.7567114 -366.828125 301.08984375 C-367.09302734 299.83494141 -367.09302734 299.83494141 -367.36328125 298.5546875 C-367.53730469 297.72066406 -367.71132813 296.88664062 -367.890625 296.02734375 C-368.15552734 294.77244141 -368.15552734 294.77244141 -368.42578125 293.4921875 C-368.828125 291.08984375 -368.828125 291.08984375 -368.828125 287.08984375 C-369.488125 286.75984375 -370.148125 286.42984375 -370.828125 286.08984375 C-371.08147945 284.0398894 -371.32126879 281.98769394 -371.50802612 279.93060303 C-372.1516059 274.21907025 -373.41740843 268.60348078 -374.55078125 262.97265625 C-374.81880603 261.6251529 -375.08641242 260.27756628 -375.35362244 258.92990112 C-376.05247433 255.40912244 -376.75531155 251.88915387 -377.45953369 248.3694458 C-378.59064473 242.71613267 -379.71860979 237.0622063 -380.84087944 231.4071312 C-381.2328667 229.43736476 -381.62850064 227.46832516 -382.02418518 225.4992981 C-382.26120651 224.30730804 -382.49822784 223.11531799 -382.74243164 221.88720703 C-382.95259415 220.83735626 -383.16275665 219.78750549 -383.37928772 218.70584106 C-383.828125 216.08984375 -383.828125 216.08984375 -383.828125 213.08984375 C-384.715 213.17234375 -385.601875 213.25484375 -386.515625 213.33984375 C-400.04697471 213.25783557 -412.18476118 205.19190772 -421.765625 196.3125 C-432.05992994 185.21882669 -437.7151233 170.87027133 -437.859375 155.83203125 C-437.0979834 140.03315562 -431.01992552 123.81906989 -419.421875 112.8046875 C-406.68556266 101.8434072 -392.43894162 96.40492143 -375.640625 97.15234375 C-358.77595558 98.97089494 -344.7945344 106.10880801 -333.828125 119.08984375 C-322.87752044 133.61358223 -320.59251782 148.38059639 -321.828125 166.08984375 C-323.98051722 178.4384254 -330.35200884 188.11218226 -338.828125 197.08984375 C-335.32674991 200.68132775 -331.68116595 204.00142876 -327.828125 207.21484375 C-326.66924854 208.18877555 -325.510395 209.16273464 -324.3515625 210.13671875 C-323.7647168 210.62849609 -323.17787109 211.12027344 -322.57324219 211.62695312 C-314.48349629 218.40839653 -306.45630578 225.25828438 -298.48706055 232.1809082 C-292.53691616 237.34860134 -286.55480871 242.4783017 -280.56640625 247.6015625 C-278.80859582 249.10656424 -277.05248054 250.61352078 -275.296875 252.12109375 C-269.65679898 256.96334716 -264.00723546 261.79340269 -258.328125 266.58984375 C-240.06022557 282.02691602 -240.06022557 282.02691602 -232.640625 288.77734375 C-228.40104457 292.6283538 -223.99880388 296.2382833 -219.546875 299.83984375 C-216.05825993 302.72697346 -212.72776263 305.76924776 -209.3828125 308.8203125 C-205.77971575 312.02122873 -202.03574268 315.03593398 -198.2734375 318.046875 C-195.828125 320.08984375 -195.828125 320.08984375 -193.6953125 322.2890625 C-191.85892065 324.31899517 -191.85892065 324.31899517 -188.828125 325.08984375 C-186.98313102 326.96602073 -185.4597651 329.01721984 -183.828125 331.08984375 C-180.68680029 327.42725118 -178.54357167 323.80654069 -176.453125 319.46484375 C-172.72993285 311.84424835 -168.86339925 304.30355925 -164.953125 296.77734375 C-164.04759888 295.03312134 -164.04759888 295.03312134 -163.1237793 293.25366211 C-159.12428649 285.55968152 -155.10005126 277.87906162 -151.04150391 270.21606445 C-148.51105273 265.42853643 -146.07178749 260.60762655 -143.765625 255.70703125 C-142.828125 254.08984375 -142.828125 254.08984375 -140.828125 253.08984375 C-140.5703125 252.29964844 -140.3125 251.50945312 -140.046875 250.6953125 C-138.33879805 245.64225152 -135.82591659 241.10530515 -133.328125 236.40234375 C-132.78841064 235.37705566 -132.24869629 234.35176758 -131.69262695 233.29541016 C-130.07530257 230.2246617 -128.45231548 227.15696485 -126.828125 224.08984375 C-125.22233112 221.04903377 -123.61859361 218.00714389 -122.015625 214.96484375 C-121.61931885 214.21323975 -121.2230127 213.46163574 -120.81469727 212.68725586 C-112.92311125 197.69647354 -105.18763393 182.62288797 -97.4375 167.55859375 C-90.36185796 153.8061733 -83.27641917 140.06169244 -76.04345703 126.39111328 C-73.64958015 121.85823191 -71.27040322 117.31763797 -68.890625 112.77734375 C-68.42930176 111.89852539 -67.96797852 111.01970703 -67.49267578 110.11425781 C-65.22800174 105.79315562 -62.9899189 101.46337399 -60.828125 97.08984375 C-61.54226563 96.82558594 -62.25640625 96.56132812 -62.9921875 96.2890625 C-71.14204209 92.84277413 -77.92723079 87.61007379 -83.828125 81.08984375 C-84.488125 80.42984375 -85.148125 79.76984375 -85.828125 79.08984375 C-95.79981192 63.10550485 -98.94270304 47.54325638 -94.91796875 28.99609375 C-91.07355725 14.21948062 -81.22287152 1.78320371 -68.47265625 -6.44921875 C-46.03790162 -18.8430123 -19.43569934 -16.9899318 0 0 Z M-63.1328125 25.64453125 C-68.4221734 33.27388591 -70.02136173 40.88487472 -68.828125 50.08984375 C-66.66452546 58.50114082 -62.20146079 66.11452136 -54.890625 70.96484375 C-46.88405011 75.4430975 -38.06519409 76.58853517 -29.11328125 74.4375 C-20.07769626 71.19359969 -14.15870914 65.63939924 -9.73828125 57.203125 C-6.50198367 49.68880315 -6.6212817 40.41079002 -9.390625 32.77734375 C-13.32886193 24.36941232 -18.92709261 19.03471743 -27.37890625 15.1640625 C-41.2179434 10.85405659 -53.93607972 14.36270926 -63.1328125 25.64453125 Z M-38.828125 116.08984375 C-39.99777492 118.25494042 -41.16377673 120.42189679 -42.328125 122.58984375 C-42.64265625 123.17121094 -42.9571875 123.75257813 -43.28125 124.3515625 C-45.79598301 129.04250676 -48.18969637 133.79074344 -50.5625 138.5546875 C-54.83072876 147.12374657 -59.19354297 155.64235293 -63.578125 164.15234375 C-63.96897278 164.91164185 -64.35982056 165.67093994 -64.76251221 166.45324707 C-70.94220068 178.45833234 -77.16056595 190.44260009 -83.42480469 202.40380859 C-84.89039038 205.20902325 -86.34834044 208.01810382 -87.8046875 210.828125 C-92.59124537 220.05425403 -97.43302317 229.23849774 -102.453125 238.33984375 C-108.2122329 248.78918929 -113.64098456 259.40014344 -119.0703125 270.02297974 C-123.99373386 279.65121741 -129.00548575 289.2080955 -134.27856445 298.65087891 C-136.83588447 303.24246452 -139.26462171 307.87101193 -141.578125 312.58984375 C-147.63827998 324.93874704 -154.27256956 336.99915533 -160.828125 349.08984375 C-161.28348633 349.93643555 -161.73884766 350.78302734 -162.20800781 351.65527344 C-163.27813117 353.64013719 -164.3614357 355.61678557 -165.453125 357.58984375 C-166.27683594 359.0903125 -166.27683594 359.0903125 -167.1171875 360.62109375 C-169.84083898 364.55111141 -172.56893939 366.70971224 -177.140625 368.08984375 C-185.82734354 368.08984375 -191.0062908 362.35560225 -196.98046875 356.7265625 C-199.64161245 354.26254056 -202.37092648 351.97812903 -205.203125 349.71484375 C-209.9987299 345.84830191 -214.49691167 341.74132392 -218.98950195 337.53393555 C-223.20223623 333.61091651 -227.59216953 329.97080656 -232.08203125 326.3671875 C-235.09131742 323.87157749 -237.96747889 321.25215908 -240.828125 318.58984375 C-245.45709405 314.28304558 -250.24279741 310.24582713 -255.16796875 306.27734375 C-258.71739292 303.35858085 -262.1122752 300.28619936 -265.51171875 297.1953125 C-271.78435533 291.49387723 -278.24628035 286.00820216 -284.68774414 280.49951172 C-287.81664255 277.82192505 -290.9309081 275.13088715 -294.015625 272.40234375 C-296.99421443 269.77865008 -300.05388347 267.27282211 -303.140625 264.77734375 C-307.95203444 260.86848836 -312.52244293 256.75209576 -317.08203125 252.5546875 C-319.74687666 250.16277078 -322.47644325 247.89729491 -325.265625 245.65234375 C-329.81847999 241.98152334 -334.11480836 238.11214519 -338.39135742 234.12988281 C-343.00712549 229.86031629 -347.85362626 225.93077309 -352.828125 222.08984375 C-353.78567745 225.14741502 -353.81820522 227.20216462 -353.13134766 230.32006836 C-352.86579575 231.55671486 -352.86579575 231.55671486 -352.59487915 232.81834412 C-352.39599091 233.70071243 -352.19710266 234.58308075 -351.9921875 235.4921875 C-351.79337982 236.40690323 -351.59457214 237.32161896 -351.38973999 238.26405334 C-350.75252483 241.18704537 -350.10306989 244.10715866 -349.453125 247.02734375 C-349.02261383 248.99005389 -348.5929169 250.95294281 -348.1640625 252.91601562 C-347.21593849 257.2527229 -346.25989598 261.58760248 -345.29678345 265.92100525 C-344.7814215 268.30597631 -344.30335416 270.6965329 -343.828125 273.08984375 C-343.27955628 275.80183023 -342.73028753 278.51366837 -342.18017578 281.2253418 C-342.01510119 282.03913142 -341.85002661 282.85292105 -341.67994976 283.69137096 C-339.44197222 294.72090266 -337.19864069 305.74934453 -334.953125 316.77734375 C-334.73308681 317.85806026 -334.51304863 318.93877678 -334.28634262 320.05224228 C-325.5031153 363.17956316 -316.48302224 406.25477807 -307.32743835 449.30447388 C-307.16469862 450.07005521 -307.00195889 450.83563654 -306.83428764 451.6244173 C-306.53512863 453.03150696 -306.23572287 454.4385442 -305.93600655 455.84551525 C-304.89312282 460.75110266 -303.90312486 465.66140131 -302.99609375 470.59375 C-302.66992147 472.28007389 -302.34308057 473.96626858 -302.015625 475.65234375 C-301.86287109 476.50248047 -301.71011719 477.35261719 -301.55273438 478.22851562 C-300.84573314 481.79146653 -300.21996555 484.50672559 -298.1796875 487.54296875 C-294.98587172 489.64388411 -291.69936201 490.4712074 -288.015625 491.27734375 C-286.98598633 491.52387695 -286.98598633 491.52387695 -285.93554688 491.77539062 C-282.64040593 492.54539991 -279.42808921 493.14176948 -276.06640625 493.578125 C-272.828125 494.08984375 -272.828125 494.08984375 -270.98632812 495.03417969 C-268.37991581 496.30908091 -265.8932179 496.87259875 -263.05859375 497.4921875 C-261.36404053 497.86609619 -261.36404053 497.86609619 -259.63525391 498.24755859 C-257.8435376 498.63355225 -257.8435376 498.63355225 -256.015625 499.02734375 C-254.80052246 499.29240723 -253.58541992 499.5574707 -252.33349609 499.83056641 C-248.83319765 500.59081011 -245.3311382 501.3422208 -241.828125 502.08984375 C-240.95269043 502.27788574 -240.07725586 502.46592773 -239.17529297 502.65966797 C-231.81147593 504.4241884 -231.81147593 504.4241884 -224.3203125 505.03515625 C-221.19406766 505.10375723 -218.79370884 506.09072443 -215.828125 507.08984375 C-212.67843766 507.7640648 -209.50921188 508.27519707 -206.328125 508.77734375 C-205.49925781 508.91978516 -204.67039062 509.06222656 -203.81640625 509.20898438 C-199.21097099 509.94482896 -195.43660424 510.20455707 -190.828125 509.08984375 C-190.828125 509.74984375 -190.828125 510.40984375 -190.828125 511.08984375 C-184.39666997 511.93901246 -177.96339755 512.77330755 -171.52880859 513.59838867 C-169.35065441 513.87933251 -167.17289966 514.16339497 -164.99560547 514.45092773 C-152.53810559 516.09370659 -140.19061652 517.42753662 -127.62338257 517.80247498 C-126.77136261 517.82842239 -125.91934265 517.85436981 -125.04150391 517.88110352 C-124.2970401 517.8982692 -123.55257629 517.91543488 -122.78555298 517.93312073 C-120.828125 518.08984375 -120.828125 518.08984375 -117.828125 519.08984375 C-115.61308109 519.300105 -113.39298362 519.4582921 -111.171875 519.58984375 C-110.15485756 519.65034409 -110.15485756 519.65034409 -109.11729431 519.71206665 C-106.85452399 519.84376236 -104.59142435 519.96759242 -102.328125 520.08984375 C-101.5462381 520.13308777 -100.7643512 520.17633179 -99.95877075 520.22088623 C-86.40018072 520.96140029 -72.84040843 521.40599947 -59.265625 521.71484375 C-58.38181152 521.73530762 -57.49799805 521.75577148 -56.58740234 521.77685547 C-38.69177146 522.18001528 -20.82242938 522.20605827 -2.9284668 521.7175293 C-0.49862423 521.65188446 1.93131971 521.59235288 4.36132812 521.53320312 C13.65982809 521.29399718 22.89780996 520.82702926 32.171875 520.08984375 C32.501875 520.08984375 32.831875 520.08984375 33.171875 520.08984375 C36.21150044 519.8357855 39.2502512 519.57220148 42.2890625 519.30859375 C45.171875 519.08984375 45.171875 519.08984375 48.171875 519.08984375 C49.161875 518.75984375 50.151875 518.42984375 51.171875 518.08984375 C52.50552921 518.04796509 53.84112146 518.05524717 55.17480469 518.09619141 C60.55056517 518.15319597 65.78963685 517.60310091 71.125 516.98828125 C72.68795555 516.81292091 72.68795555 516.81292091 74.28248596 516.63401794 C77.6631247 516.2512802 81.0425673 515.85915149 84.421875 515.46484375 C86.15297012 515.26476212 86.15297012 515.26476212 87.91903687 515.06063843 C102.99087917 513.30970082 118.01223383 511.37010855 132.984375 508.90234375 C134.07872864 508.72224762 134.07872864 508.72224762 135.19519043 508.53851318 C151.12346727 507.27611256 151.12346727 507.27611256 165.171875 502.08984375 C166.51476768 501.90165542 167.86470568 501.76287816 169.21582031 501.64770508 C173.75901894 501.18516705 178.05047838 500.29449315 182.46875 499.1640625 C183.22424133 498.97519974 183.97973267 498.78633698 184.75811768 498.5917511 C186.34531348 498.19362195 187.93179696 497.79264295 189.51757812 497.38891602 C191.90061288 496.78275212 194.28597003 496.18655062 196.671875 495.59179688 C203.70542022 493.8275636 210.72099872 491.99821914 217.6875 489.984375 C218.70618164 489.69022705 219.72486328 489.3960791 220.77441406 489.09301758 C223.48596065 488.21828498 223.48596065 488.21828498 225.171875 485.08984375 C225.65414388 483.30918259 226.06070929 481.50750316 226.42114258 479.69824219 C226.64510208 478.59148132 226.86906158 477.48472046 227.09980774 476.34442139 C227.33628525 475.14150452 227.57276276 473.93858765 227.81640625 472.69921875 C228.20136713 470.7859603 228.58632967 468.87270219 228.97137737 466.95946121 C229.511833 464.26522344 230.0461141 461.56977468 230.58050537 458.87432861 C231.75456091 452.96004824 232.94316579 447.04866427 234.12890625 441.13671875 C234.38382843 439.85953979 234.63875061 438.58236084 234.90139771 437.26647949 C236.71987998 428.19836678 238.64319984 419.15744555 240.7089386 410.14227295 C240.90255478 409.27966858 241.09617096 408.41706421 241.2956543 407.52832031 C241.55079048 406.41580902 241.55079048 406.41580902 241.81108093 405.28082275 C242.24777661 403.06451808 242.24777661 403.06451808 242.10163879 400.68743896 C242.18741515 397.51511123 243.11697757 395.07595453 244.171875 392.08984375 C244.66542537 390.02630911 245.1254221 387.95455049 245.55712891 385.87719727 C245.81176407 384.66058914 246.06639923 383.44398102 246.32875061 382.19050598 C246.60206047 380.86660402 246.87528707 379.54268487 247.1484375 378.21875 C247.43711368 376.83263507 247.72609623 375.44658391 248.0153656 374.06059265 C248.78689121 370.35931861 249.55393355 366.65712897 250.3200264 362.95472717 C251.12030349 359.0907236 251.92459287 355.22755503 252.72827148 351.36425781 C256.21274958 334.60488319 259.69070306 317.84390919 263.10375977 301.06982422 C264.93142415 292.09445935 266.78853011 283.12556721 268.66627502 274.16055298 C269.73434304 269.06080784 270.79780962 263.96010546 271.86051083 258.85923958 C272.6201609 255.21474873 273.38240768 251.5708389 274.15042114 247.92810059 C274.73550693 245.15297233 275.3172366 242.37718789 275.89477539 239.60047913 C276.42706973 237.04131248 276.96440452 234.48318787 277.50732422 231.92625427 C277.74217529 230.78938675 277.97702637 229.65251923 278.21899414 228.48120117 C278.53254601 226.98552864 278.53254601 226.98552864 278.85243225 225.4596405 C279.39989255 223.07696965 279.39989255 223.07696965 278.171875 221.08984375 C277.43324219 221.77949219 276.69460938 222.46914063 275.93359375 223.1796875 C270.0742772 228.61832518 264.11743819 233.82878069 257.88671875 238.84375 C254.10478021 241.97269196 250.5243163 245.3050182 246.9140625 248.62890625 C244.27171617 251.0002427 241.56493333 253.24237372 238.796875 255.46484375 C233.35800895 259.85328502 228.26458596 264.55430787 223.15625 269.31640625 C219.56789618 272.66121675 215.89487606 275.89586593 212.171875 279.08984375 C211.6867041 279.50669434 211.2015332 279.92354492 210.70166016 280.35302734 C207.14410856 283.40918618 203.58205013 286.46005272 200.01855469 289.50927734 C196.48779033 292.53124568 192.95974075 295.55638382 189.43212891 298.58203125 C186.46837702 301.12357498 183.50213887 303.66211341 180.53125 306.1953125 C175.29410705 310.66525314 170.07755026 315.14279565 164.984375 319.77734375 C161.6710442 322.78798854 158.28245571 325.65549553 154.796875 328.46484375 C150.7836095 331.70937107 146.94774374 335.07733699 143.171875 338.58984375 C138.62664697 342.81384653 133.94451478 346.80362126 129.10546875 350.6875 C126.89524718 352.49746839 124.73094954 354.33056287 122.58203125 356.2109375 C121.65559814 357.01930054 121.65559814 357.01930054 120.71044922 357.84399414 C119.50831824 358.89661187 118.31045552 359.95413152 117.11767578 361.01733398 C113.26070558 364.38617212 109.31867982 367.82808422 104.01171875 368.26953125 C99.00478471 367.46759931 95.26373009 366.57160082 91.8515625 362.5234375 C86.25689562 354.71230424 82.34661732 345.71123045 78.171875 337.08984375 C77.511875 337.08984375 76.851875 337.08984375 76.171875 337.08984375 C76.057229 336.20482178 75.94258301 335.3197998 75.82446289 334.40795898 C75.18528516 331.15802838 74.28088897 328.90476529 72.73046875 326 C72.23256836 325.05713135 71.73466797 324.1142627 71.22167969 323.14282227 C70.68961914 322.15596436 70.15755859 321.16910645 69.609375 320.15234375 C69.07086914 319.137771 68.53236328 318.12319824 67.97753906 317.07788086 C66.38323586 314.07774829 64.77819458 311.08355505 63.171875 308.08984375 C62.3129045 306.47573776 61.45474258 304.86120102 60.59765625 303.24609375 C58.79736042 299.85617915 56.98810907 296.47124425 55.171875 293.08984375 C54.181875 293.08984375 53.191875 293.08984375 52.171875 293.08984375 C52.40487305 292.57703857 52.63787109 292.0642334 52.87792969 291.53588867 C53.32425742 287.8218043 51.56326967 285.1482233 49.875 281.953125 C49.35084503 280.93305611 49.35084503 280.93305611 48.81610107 279.89237976 C48.07532078 278.45800637 47.32852154 277.02672773 46.57617188 275.59838867 C45.42473678 273.40778828 44.29717345 271.20607245 43.171875 269.00195312 C42.44931146 267.60995218 41.72539823 266.21865083 41 264.828125 C40.66236633 264.16774734 40.32473267 263.50736969 39.97686768 262.82698059 C38.01022761 258.9427065 38.01022761 258.9427065 34.171875 257.08984375 C34.09453125 255.67832031 34.09453125 255.67832031 34.015625 254.23828125 C33.23174496 248.81372253 30.35679277 244.40730681 27.671875 239.71484375 C26.58238639 237.76745656 25.49385623 235.81953287 24.40625 233.87109375 C23.86291016 232.90429688 23.31957031 231.9375 22.75976562 230.94140625 C20.41622062 226.73282604 18.16281824 222.47870743 15.921875 218.21484375 C15.34856445 217.12743896 15.34856445 217.12743896 14.76367188 216.01806641 C13.89838318 214.37603958 13.0348931 212.73306509 12.171875 211.08984375 C11.511875 211.08984375 10.851875 211.08984375 10.171875 211.08984375 C10.06875 210.20296875 9.965625 209.31609375 9.859375 208.40234375 C9.15996798 205.03247355 8.08444989 202.91712837 6.171875 200.08984375 C4.686875 200.58484375 4.686875 200.58484375 3.171875 201.08984375 C3.171875 200.42984375 3.171875 199.76984375 3.171875 199.08984375 C3.831875 199.08984375 4.491875 199.08984375 5.171875 199.08984375 C2.30412505 191.44251055 -1.74877182 184.28703197 -5.578125 177.08984375 C-5.98933594 176.31511719 -6.40054687 175.54039062 -6.82421875 174.7421875 C-7.82466816 172.85762001 -8.82627385 170.97366643 -9.828125 169.08984375 C-10.488125 169.08984375 -11.148125 169.08984375 -11.828125 169.08984375 C-11.97193604 167.81971436 -11.97193604 167.81971436 -12.11865234 166.52392578 C-12.91000802 162.69350287 -14.36671289 159.56695274 -16.1796875 156.14453125 C-16.51680756 155.49340363 -16.85392761 154.842276 -17.20126343 154.17141724 C-17.91528009 152.79617129 -18.63326739 151.42298042 -19.35498047 150.05175781 C-20.43676047 147.9959429 -21.50656312 145.9342728 -22.57421875 143.87109375 C-26.33037429 136.64644656 -30.22558403 129.54277515 -34.39599609 122.54736328 C-35.63135671 120.42749626 -36.76269787 118.29878201 -37.828125 116.08984375 C-38.158125 116.08984375 -38.488125 116.08984375 -38.828125 116.08984375 Z M-403.515625 136.19921875 C-409.57079517 144.87441447 -410.73137888 152.59820255 -409.828125 163.08984375 C-408.1570404 170.81067767 -404.06946012 176.33192455 -397.828125 181.08984375 C-390.17660427 185.48946817 -382.04394092 187.39641402 -373.30078125 185.55859375 C-365.03486283 183.27148249 -357.85685036 179.3367905 -353.44140625 171.6875 C-349.33566416 163.67600899 -347.28257495 156.53783919 -349.44140625 147.53125 C-352.25276074 139.59257939 -357.33576955 132.62781137 -364.890625 128.65234375 C-378.32200165 122.91848121 -393.84152294 124.10659118 -403.515625 136.19921875 Z M282.171875 133.08984375 C275.07239187 141.158629 272.55369598 148.72012275 272.734375 159.4140625 C273.66086434 167.19822736 277.28324988 173.69189166 282.921875 179.08984375 C290.95475923 185.31228627 299.12373027 187.19119656 309.171875 186.08984375 C317.23156976 184.55405939 323.90202203 180.27243377 328.984375 173.83984375 C332.98408196 167.73218312 334.94868827 160.34010098 334.171875 153.08984375 C331.90347834 142.81630815 327.2232945 135.37473555 318.421875 129.40234375 C306.56005031 122.25829025 292.66866157 124.63698592 282.171875 133.08984375 Z M-295.828125 518.08984375 C-295.99583653 521.36062468 -296.16222737 524.63147029 -296.328125 527.90234375 C-296.37582031 528.83111328 -296.42351562 529.75988281 -296.47265625 530.71679688 C-296.51777344 531.60947266 -296.56289063 532.50214844 -296.609375 533.421875 C-296.65126953 534.24405518 -296.69316406 535.06623535 -296.73632812 535.91333008 C-296.80904998 537.63757304 -296.828125 539.3640679 -296.828125 541.08984375 C-288.40385857 544.39326802 -280.147915 547.51737554 -271.28125 549.44921875 C-268.828125 550.08984375 -268.828125 550.08984375 -267.03222656 551.0378418 C-264.42839963 552.28062982 -261.91849578 552.90431016 -259.109375 553.5625 C-258.01238281 553.82224609 -256.91539062 554.08199219 -255.78515625 554.34960938 C-254.64433594 554.61451172 -253.50351562 554.87941406 -252.328125 555.15234375 C-250.06770538 555.68488329 -247.80728859 556.21743487 -245.546875 556.75 C-244.54591797 556.98340088 -243.54496094 557.21680176 -242.51367188 557.45727539 C-240.89596047 557.83831996 -239.28075441 558.23060504 -237.67114258 558.64453125 C-233.66509662 559.61247771 -229.51634984 559.96236419 -225.43359375 560.4921875 C-221.828125 561.08984375 -221.828125 561.08984375 -218.44921875 562.05859375 C-214.22873356 563.26054423 -210.03273481 563.97382281 -205.703125 564.65234375 C-204.13790653 564.90293291 -202.57279896 565.15421592 -201.0078125 565.40625 C-200.32444824 565.51396729 -199.64108398 565.62168457 -198.93701172 565.73266602 C-197.45326576 565.98396497 -195.97464725 566.26654519 -194.50102234 566.57164001 C-191.98579366 567.05927599 -189.49512243 567.42527323 -186.95288086 567.73828125 C-186.01097397 567.85510254 -185.06906708 567.97192383 -184.09861755 568.09228516 C-183.09025345 568.21522949 -182.08188934 568.33817383 -181.04296875 568.46484375 C-179.99089737 568.5942334 -178.93882599 568.72362305 -177.85487366 568.85693359 C-175.6283823 569.13018616 -173.40177076 569.40246096 -171.17504883 569.67382812 C-167.80185518 570.08542297 -164.42923351 570.50148351 -161.05664062 570.91796875 C-158.88545 571.18386606 -156.71422701 571.44949929 -154.54296875 571.71484375 C-153.54877426 571.83778809 -152.55457977 571.96073242 -151.53025818 572.08740234 C-142.46453079 573.18605453 -133.34560396 574.23948655 -124.203125 574.21484375 C-123.22085938 574.21742188 -122.23859375 574.22 -121.2265625 574.22265625 C-118.81410277 574.24828128 -118.81410277 574.24828128 -116.828125 573.08984375 C-116.828125 573.74984375 -116.828125 574.40984375 -116.828125 575.08984375 C-91.7912514 576.81012518 -66.88431294 577.35685231 -41.79309082 577.22717285 C-37.27549229 577.2061743 -32.75786833 577.19746459 -28.24023438 577.1875 C-19.43613039 577.16639169 -10.63215629 577.13102576 -1.828125 577.08984375 C-1.498125 577.08984375 -1.168125 577.08984375 -0.828125 577.08984375 C21.68778891 576.41821851 21.68778891 576.41821851 44.171875 575.08984375 C44.171875 574.42984375 44.171875 573.76984375 44.171875 573.08984375 C44.831875 573.41984375 45.491875 573.74984375 46.171875 574.08984375 C56.16390778 574.82623952 66.19723868 573.40263792 76.109375 572.27734375 C77.75690353 572.09452089 79.40444595 571.91182312 81.05200195 571.72924805 C90.00199571 570.72764936 98.94188473 569.66474739 107.859375 568.40234375 C108.70040771 568.28334717 109.54144043 568.16435059 110.40795898 568.04174805 C114.41273678 567.48940899 114.41273678 567.48940899 118.171875 566.08984375 C119.69475357 565.93190329 121.22200993 565.81544903 122.75 565.71875 C130.57652412 565.05891147 138.22587014 563.54029017 145.921875 562.02734375 C146.70378204 561.87467041 147.48568909 561.72199707 148.29129028 561.56469727 C185.89523606 555.51723658 185.89523606 555.51723658 220.171875 541.08984375 C220.58714624 538.9628971 220.58714624 538.9628971 220.46484375 536.51953125 C220.45517578 535.62363281 220.44550781 534.72773437 220.43554688 533.8046875 C220.3978418 532.39896484 220.3978418 532.39896484 220.359375 530.96484375 C220.33907227 529.54751953 220.33907227 529.54751953 220.31835938 528.1015625 C220.28293806 525.76375596 220.23354771 523.42708138 220.171875 521.08984375 C219.511875 521.41984375 218.851875 521.74984375 218.171875 522.08984375 C218.171875 521.09984375 218.171875 520.10984375 218.171875 519.08984375 C211.30728702 519.73185558 204.93580014 521.39811749 198.296875 523.21484375 C147.88279497 536.56647047 95.83803502 542.90907684 43.921875 546.83984375 C42.76125046 546.92859268 42.76125046 546.92859268 41.57717896 547.01913452 C17.56563987 548.82513117 -6.44221384 549.2982559 -30.515625 549.27734375 C-31.20857037 549.27707687 -31.90151573 549.27681 -32.61545944 549.27653503 C-74.20045987 549.25653295 -115.43594606 547.11593345 -156.828125 543.08984375 C-157.63511841 543.01227844 -158.44211182 542.93471313 -159.27355957 542.85479736 C-182.16197103 540.64702158 -204.76946351 537.16548849 -227.41159058 533.16824341 C-235.57388036 531.65794456 -235.57388036 531.65794456 -243.828125 531.08984375 C-244.35188721 530.80302734 -244.87564941 530.51621094 -245.4152832 530.22070312 C-248.95227709 528.5629721 -252.63306292 527.84801195 -256.43359375 526.99609375 C-257.27223465 526.80390259 -258.11087555 526.61171143 -258.97492981 526.41369629 C-261.65409013 525.80093287 -264.33480975 525.1953212 -267.015625 524.58984375 C-268.80023622 524.18275613 -270.58474265 523.77520882 -272.36914062 523.3671875 C-280.18336148 521.58337723 -288.00255331 519.8231904 -295.828125 518.08984375 Z " fill="#020202" transform="translate(550.828125,218.91015625)"/>
<path d="M0 0 C7.1687381 4.30953042 13.52011131 10.74217305 19 17 C19 17.66 19 18.32 19 19 C19.639375 19.268125 20.27875 19.53625 20.9375 19.8125 C23 21 23 21 24 24 C24.66 24 25.32 24 26 24 C27.33203125 25.35546875 27.33203125 25.35546875 28.8125 27.1875 C31.3946482 30.30237295 34.09937562 33.17375061 37 36 C54 53 54 53 56.359375 55.36328125 C58.1877589 57.18896044 60.02031603 59.00939062 61.859375 60.82421875 C62.82292902 61.77863337 63.78647062 62.73306052 64.75 63.6875 C65.24371094 64.17283203 65.73742187 64.65816406 66.24609375 65.15820312 C69.6077315 68.49681596 70.8876483 69.89520825 71.375 74.6875 C71.33812818 79.72972085 69.2612304 82.27287954 66 86 C65.34 86 64.68 86 64 86 C63.78085937 86.55816406 63.56171875 87.11632812 63.3359375 87.69140625 C61.56724858 90.74782481 59.28514014 92.6232494 56.625 94.9375 C53.73418238 97.45819946 51.15433036 99.80478563 48.7734375 102.81640625 C48.18820312 103.53699219 47.60296875 104.25757813 47 105 C46.34 105 45.68 105 45 105 C44.505 106.485 44.505 106.485 44 108 C42.86702653 109.19571871 41.72491129 110.38420494 40.53652954 111.52487183 C38.831912 113.16137102 37.18072163 114.84258624 35.5300293 116.53344727 C32.01745774 120.11749403 28.49248662 123.68907241 24.96313477 127.2565918 C23.44779567 128.79208989 21.93606016 130.33115273 20.42797852 131.8737793 C18.23624842 134.11427293 16.03163363 136.34137731 13.82421875 138.56640625 C13.15935959 139.25191055 12.49450043 139.93741486 11.80949402 140.64369202 C3.52858334 148.92848793 3.52858334 148.92848793 -2 150 C-7.56669452 149.00160762 -10.61656934 147.03771528 -14.6484375 143.14916992 C-15.1583725 142.66308604 -15.6683075 142.17700216 -16.19369507 141.67618847 C-17.8083805 140.1299053 -19.4049944 138.56655216 -21 137 C-22.02462913 136.00692505 -23.04968981 135.01429517 -24.07519531 134.02212524 C-27.28024797 130.90768989 -30.4551647 127.76350393 -33.625 124.61328125 C-34.19372833 124.04862844 -34.76245667 123.48397564 -35.34841919 122.90221214 C-38.34502138 119.92621416 -41.3385222 116.94713618 -44.32958984 113.96557617 C-47.39858808 110.90773495 -50.47912037 107.86178164 -53.56219482 104.81814289 C-55.95558035 102.45095034 -58.33999082 100.07486824 -60.72210693 97.69634056 C-61.85415703 96.56913027 -62.98955494 95.44527093 -64.128479 94.32500648 C-77.68917278 80.97323549 -77.68917278 80.97323549 -78.1875 73 C-74.64736549 64.05650229 -65.14076135 57.02159489 -58.375 50.3125 C-57.34090959 49.28344047 -56.30705398 48.25414493 -55.2734375 47.22460938 C-53.37302143 45.33227605 -51.471024 43.4415879 -49.56787109 41.55200195 C-48.72047363 40.70984131 -47.87307617 39.86768066 -47 39 C-46.11135254 38.12496826 -45.22270508 37.24993652 -44.30712891 36.34838867 C-41.92068522 34.00948733 -41.92068522 34.00948733 -39.8125 31.1875 C-39.214375 30.465625 -38.61625 29.74375 -38 29 C-37.34 29 -36.68 29 -36 29 C-36 28.34 -36 27.68 -36 27 C-35.34 27 -34.68 27 -34 27 C-34 26.34 -34 25.68 -34 25 C-29.69767442 20.23255814 -29.69767442 20.23255814 -26 19 C-26 18.34 -26 17.68 -26 17 C-24.92136317 15.8517737 -23.82869137 14.71498327 -22.6875 13.62890625 C-21.3877743 12.37430991 -20.12335363 11.08306657 -18.875 9.77734375 C-7.96075667 -1.56093268 -7.96075667 -1.56093268 0 0 Z M-11 42 C-12.0037858 43.13113924 -12.99010409 44.27795509 -13.9609375 45.4375 C-19.14231335 51.42529688 -24.81998013 56.92638642 -30.4375 62.5 C-31.5620833 63.61955632 -32.68643405 64.73934629 -33.81054688 65.859375 C-36.53769344 68.57561534 -39.26795907 71.28868292 -42 74 C-40.13407212 78.07895437 -37.38729539 80.8028869 -34.1875 83.875 C-31.09625478 86.86307634 -28.08199278 89.82393408 -25.36328125 93.16015625 C-23.35110683 95.57809147 -21.40170531 97.55300866 -19 99.5625 C-14.8707678 103.08745431 -11.0661285 106.77395222 -7.5 110.875 C-5.24594606 113.27003985 -5.24594606 113.27003985 -2.6328125 112.9375 C0.8233418 111.70682191 2.27117617 109.91561588 4.625 107.125 C5.38039063 106.24070312 6.13578125 105.35640625 6.9140625 104.4453125 C7.60242188 103.63835937 8.29078125 102.83140625 9 102 C9.58523438 101.44054687 10.17046875 100.88109375 10.7734375 100.3046875 C12.22831878 99.05559135 12.22831878 99.05559135 12 97 C12.57145752 96.75306396 13.14291504 96.50612793 13.73168945 96.25170898 C16.36672409 94.79763272 18.16199271 93.09701802 20.29296875 90.97265625 C21.08767578 90.18052734 21.88238281 89.38839844 22.70117188 88.57226562 C23.52166016 87.74404297 24.34214844 86.91582031 25.1875 86.0625 C26.01958984 85.23814453 26.85167969 84.41378906 27.70898438 83.56445312 C28.49982422 82.77103516 29.29066406 81.97761719 30.10546875 81.16015625 C31.19057739 80.07166382 31.19057739 80.07166382 32.29760742 78.96118164 C34.20861816 77.01260907 34.20861816 77.01260907 35 74 C34.07058594 73.0821875 33.14117188 72.164375 32.18359375 71.21875 C20.03459323 59.17148341 20.03459323 59.17148341 15.234375 53.2578125 C14.82703125 52.84273437 14.4196875 52.42765625 14 52 C13.34 52 12.68 52 12 52 C11.79375 51.46890625 11.5875 50.9378125 11.375 50.390625 C9.42038808 46.99226564 6.77876283 44.48944072 4 41.75 C3.18015625 40.91855469 3.18015625 40.91855469 2.34375 40.0703125 C-3.75013826 34.00629625 -5.47880908 36.78920202 -11 42 Z " fill="#020202" transform="translate(516,543)"/>
<path d="M0 0 C2.96706229 2.00459242 5.4302178 4.51792368 8 7 C8.81726563 7.72960937 9.63453125 8.45921875 10.4765625 9.2109375 C17.44188594 15.43067703 24.0754883 21.9698114 30.6875 28.5625 C31.5856543 29.45606201 32.48380859 30.34962402 33.40917969 31.27026367 C34.66649902 32.53060425 34.66649902 32.53060425 35.94921875 33.81640625 C36.70549561 34.57381104 37.46177246 35.33121582 38.2409668 36.11157227 C40.53999452 38.57971653 40.95982808 39.74892551 41.5 43.125 C40.27973644 52.5820426 28.00097973 61.11223906 21.375 67.6875 C20.24455619 68.81291457 19.11434628 69.93856412 17.984375 71.06445312 C15.90817762 73.13255747 13.8306341 75.19928792 11.75146484 77.2644043 C9.91156855 79.09368894 8.08052541 80.93191984 6.25830078 82.77880859 C3.20081551 85.78605194 1.09429291 86.75708965 -3 88 C-13.20314606 85.0969401 -21.61958698 73.56684449 -29.00830078 66.17700195 C-30.65250532 64.53503206 -32.30462522 62.90128959 -33.95703125 61.26757812 C-35.00569437 60.22184133 -36.05389004 59.17563553 -37.1015625 58.12890625 C-37.84196274 57.39928429 -37.84196274 57.39928429 -38.59732056 56.65492249 C-42 53.22888675 -42 53.22888675 -42 51 C-42.66 51 -43.32 51 -44 51 C-46.42199536 48.98167053 -47.78515831 46.89693018 -49 44 C-49 43.34 -49 42.68 -49 42 C-48.01 42 -47.02 42 -46 42 C-45.74565186 41.25596924 -45.49130371 40.51193848 -45.22924805 39.74536133 C-43.92568684 36.83403148 -42.61198557 35.27758762 -40.33203125 33.07421875 C-39.60306641 32.35943359 -38.87410156 31.64464844 -38.12304688 30.90820312 C-37.36056641 30.17537109 -36.59808594 29.44253906 -35.8125 28.6875 C-30.76048647 23.78446171 -25.89627058 18.88348187 -21.41674805 13.44458008 C-20.94922119 12.96786865 -20.48169434 12.49115723 -20 12 C-19.34 12 -18.68 12 -18 12 C-17.67 11.01 -17.34 10.02 -17 9 C-15.2578125 7.24609375 -15.2578125 7.24609375 -13.125 5.4375 C-12.42632812 4.83808594 -11.72765625 4.23867188 -11.0078125 3.62109375 C-7.10764026 0.472122 -5.03165924 -0.8544327 0 0 Z M-4 34 C-5.50596108 35.45217676 -7.00462104 36.91192861 -8.5 38.375 C-9.3353125 39.18710937 -10.170625 39.99921875 -11.03125 40.8359375 C-13.22431286 42.7589659 -13.22431286 42.7589659 -13 45 C-11.35979454 46.81436736 -11.35979454 46.81436736 -9.25 48.625 C-8.55390625 49.25664063 -7.8578125 49.88828125 -7.140625 50.5390625 C-4.88129241 52.37580728 -4.88129241 52.37580728 -1 52 C-1 51.34 -1 50.68 -1 50 C-0.13375 49.6596875 -0.13375 49.6596875 0.75 49.3125 C3.5663661 47.66961977 5.08077114 45.60466773 7 43 C6.11687962 41.86499306 5.21781145 40.74238693 4.3125 39.625 C3.56419922 38.68527344 3.56419922 38.68527344 2.80078125 37.7265625 C0.6945772 35.70716512 -1.25591363 34.92560324 -4 34 Z " fill="#010101" transform="translate(337,598)"/>
<path d="M0 0 C1.85926819 1.38273621 1.85926819 1.38273621 3.77758789 3.11791992 C4.47699493 3.75023529 5.17640198 4.38255066 5.89700317 5.0340271 C9.09443488 8.02312533 12.21881612 11.0757804 15.30859375 14.17578125 C15.96078384 14.82701462 16.61297394 15.47824799 17.28492737 16.1492157 C18.64650136 17.51011535 20.00683824 18.8722538 21.3659668 20.2355957 C23.45312274 22.32816325 25.54563632 24.41526824 27.63867188 26.50195312 C28.96646705 27.83040819 30.29395247 29.15917293 31.62109375 30.48828125 C32.24704941 31.11221268 32.87300507 31.7361441 33.51792908 32.37898254 C38.88196524 37.7724385 38.88196524 37.7724385 39.3125 42.25 C38.7768409 48.67790923 35.34444381 51.79818742 30.6875 55.875 C29.96949219 56.47054687 29.25148438 57.06609375 28.51171875 57.6796875 C26.41661905 59.61512953 24.61301634 61.5443671 22.7578125 63.69921875 C18.77406812 68.3248095 14.51371996 72.63379289 10.1875 76.9375 C9.42501953 77.70384766 8.66253906 78.47019531 7.87695312 79.25976562 C7.14798828 79.98744141 6.41902344 80.71511719 5.66796875 81.46484375 C5.01078857 82.120896 4.3536084 82.77694824 3.67651367 83.45288086 C0.77434218 86.13106067 -1.86231896 86.52090746 -5.80038452 86.47419739 C-8.55864318 85.87956661 -9.75684238 84.82223062 -11.81884766 82.9128418 C-12.51262512 82.2754306 -13.20640259 81.63801941 -13.92120361 80.98129272 C-14.60720642 80.32746613 -15.29320923 79.67363953 -16 79 C-16.61010925 78.41892487 -17.22021851 77.83784973 -17.84881592 77.23916626 C-19.67329761 75.47334625 -21.47641223 73.68827093 -23.2734375 71.89453125 C-24.24816513 70.92479622 -24.24816513 70.92479622 -25.24258423 69.93547058 C-26.60003349 68.58303877 -27.95617331 67.22929145 -29.31103516 65.87426758 C-31.38555423 63.801957 -33.46797553 61.73780595 -35.55078125 59.67382812 C-36.8754883 58.35205171 -38.19972417 57.02980284 -39.5234375 55.70703125 C-40.14423187 55.09342239 -40.76502625 54.47981354 -41.40463257 53.84761047 C-41.97928253 53.26988388 -42.5539325 52.69215729 -43.14599609 52.09692383 C-43.65037201 51.59397293 -44.15474792 51.09102203 -44.67440796 50.5728302 C-47.14060586 47.64665803 -47.98851113 45.59742102 -48.0625 41.75 C-45.31931269 32.06816244 -34.29499422 24.10882478 -27.30151367 17.11621094 C-25.3016301 15.11411809 -23.30991231 13.10412576 -21.31835938 11.09375 C-20.04215584 9.81461593 -18.76547992 8.53595294 -17.48828125 7.2578125 C-16.89654617 6.65889191 -16.3048111 6.05997131 -15.69514465 5.44290161 C-14.85858589 4.61095779 -14.85858589 4.61095779 -14.00512695 3.76220703 C-13.27734795 3.0322905 -13.27734795 3.0322905 -12.53486633 2.28762817 C-8.33640471 -1.23454008 -5.28752994 -1.49813348 0 0 Z M-8.88671875 34.42578125 C-9.48097656 35.04839844 -10.07523438 35.67101562 -10.6875 36.3125 C-11.28949219 36.92738281 -11.89148438 37.54226563 -12.51171875 38.17578125 C-14.20909105 40.03613004 -14.20909105 40.03613004 -15 43 C-14.16855469 43.83144531 -14.16855469 43.83144531 -13.3203125 44.6796875 C-10.546875 47.453125 -7.7734375 50.2265625 -5 53 C-3.48807379 51.59606852 -1.99078112 50.17636465 -0.5 48.75 C0.75296875 47.56664062 0.75296875 47.56664062 2.03125 46.359375 C4.42712294 44.00027807 4.42712294 44.00027807 4 40 C3.34 40 2.68 40 2 40 C1.731875 39.401875 1.46375 38.80375 1.1875 38.1875 C-0.02300334 35.95762543 -0.991379 34.54509308 -3 33 C-6.86226699 32.59806454 -6.86226699 32.59806454 -8.88671875 34.42578125 Z " fill="#020202" transform="translate(696,599)"/>
<path d="M0 0 C0 7.92 0 15.84 0 24 C-0.33 24 -0.66 24 -1 24 C-1.03738281 22.89140625 -1.07476563 21.7828125 -1.11328125 20.640625 C-1.17895448 19.17705026 -1.24540135 17.71351009 -1.3125 16.25 C-1.33505859 15.52039063 -1.35761719 14.79078125 -1.38085938 14.0390625 C-1.59856828 9.68488442 -2.14293505 7.27834799 -5 4 C-5 3.01 -5 2.02 -5 1 C-2 0 -2 0 0 0 Z " fill="#252625" transform="translate(772,736)"/>
<path d="M0 0 C0.33 0 0.66 0 1 0 C1 2.64 1 5.28 1 8 C0.01 8 -0.98 8 -2 8 C-2.33 6.02 -2.66 4.04 -3 2 C-2.01 2 -1.02 2 0 2 C0 1.34 0 0.68 0 0 Z " fill="#171717" transform="translate(291,638)"/>
<path d="M0 0 C0.33 0 0.66 0 1 0 C1 2.31 1 4.62 1 7 C0.34 6.67 -0.32 6.34 -1 6 C-0.67 4.02 -0.34 2.04 0 0 Z " fill="#181717" transform="translate(225,746)"/>
<path d="M0 0 C1.0625 1.8125 1.0625 1.8125 2 4 C1.67 4.99 1.34 5.98 1 7 C0.67 4.69 0.34 2.38 0 0 Z " fill="#141413" transform="translate(184,526)"/>
<path d="M0 0 C1.32 0.33 2.64 0.66 4 1 C3.67 1.66 3.34 2.32 3 3 C2.34 3 1.68 3 1 3 C0.67 2.01 0.34 1.02 0 0 Z " fill="#161515" transform="translate(344,813)"/>
<path d="M0 0 C0.33 0 0.66 0 1 0 C1 2.31 1 4.62 1 7 C0.67 7 0.34 7 0 7 C0 4.69 0 2.38 0 0 Z " fill="#141412" transform="translate(769,745)"/>
<path d="M0 0 C1.98 0 3.96 0 6 0 C6 0.33 6 0.66 6 1 C4.02 1 2.04 1 0 1 C0 0.67 0 0.34 0 0 Z " fill="#111010" transform="translate(594,767)"/>
<path d="M0 0 C0.33 0 0.66 0 1 0 C1 1.98 1 3.96 1 6 C0.67 6 0.34 6 0 6 C0 4.02 0 2.04 0 0 Z " fill="#151315" transform="translate(224,718)"/>
<path d="M0 0 C1.32 0.33 2.64 0.66 4 1 C3.34 1.66 2.68 2.32 2 3 C2 2.34 2 1.68 2 1 C1.34 0.67 0.68 0.34 0 0 Z " fill="#202020" transform="translate(482,208)"/>
<path d="M0 0 C1.65 0 3.3 0 5 0 C5 0.33 5 0.66 5 1 C3.35 1 1.7 1 0 1 C0 0.67 0 0.34 0 0 Z " fill="#191817" transform="translate(601,823)"/>
<path d="M0 0 C1.65 0 3.3 0 5 0 C5 0.33 5 0.66 5 1 C3.35 1 1.7 1 0 1 C0 0.67 0 0.34 0 0 Z " fill="#0F0F0F" transform="translate(426,767)"/>
<path d="M0 0 C0.33 0 0.66 0 1 0 C1 1.65 1 3.3 1 5 C0.67 5 0.34 5 0 5 C0 3.35 0 1.7 0 0 Z " fill="#171717" transform="translate(225,731)"/>
<path d="M0 0 C1.65 0 3.3 0 5 0 C5 0.33 5 0.66 5 1 C3.35 1 1.7 1 0 1 C0 0.67 0 0.34 0 0 Z " fill="#121210" transform="translate(663,728)"/>
<path d="M0 0 C0.66 0 1.32 0 2 0 C1.67 1.32 1.34 2.64 1 4 C0.67 2.68 0.34 1.36 0 0 Z " fill="#161617" transform="translate(224,725)"/>
<path d="M0 0 C0.66 0 1.32 0 2 0 C1.67 0.99 1.34 1.98 1 3 C0.67 2.01 0.34 1.02 0 0 Z " fill="#100F0F" transform="translate(418,449)"/>
<path d="M0 0 C0.66 1.32 1.32 2.64 2 4 C1.34 3.67 0.68 3.34 0 3 C0 2.01 0 1.02 0 0 Z " fill="#0E0D0D" transform="translate(568,443)"/>
<path d="M0 0 C0.66 0 1.32 0 2 0 C1.67 1.32 1.34 2.64 1 4 C0.67 2.68 0.34 1.36 0 0 Z " fill="#131213" transform="translate(150,353)"/>
<path d="M0 0 C0.99 0.495 0.99 0.495 2 1 C1.01 2.485 1.01 2.485 0 4 C0 2.68 0 1.36 0 0 Z " fill="#1A1A18" transform="translate(456,240)"/>
<path d="M0 0 C4 1 4 1 4 1 Z " fill="#181817" transform="translate(609,822)"/>
<path d="M0 0 C4 1 4 1 4 1 Z " fill="#0D0C0D" transform="translate(477,794)"/>
<path d="M0 0 C4 1 4 1 4 1 Z " fill="#0F0F0E" transform="translate(458,793)"/>
<path d="M0 0 C4 1 4 1 4 1 Z " fill="#0F0F0E" transform="translate(608,766)"/>
<path d="M0 0 C4 1 4 1 4 1 Z " fill="#10100E" transform="translate(417,766)"/>
<path d="M0 0 C1 4 1 4 1 4 Z " fill="#181717" transform="translate(225,754)"/>
<path d="M0 0 C0.99 0.33 1.98 0.66 3 1 C2.01 1 1.02 1 0 1 C0 0.67 0 0.34 0 0 Z " fill="#131413" transform="translate(755,742)"/>
<path d="M0 0 C4 1 4 1 4 1 Z " fill="#0E0E0E" transform="translate(453,737)"/>
<path d="M0 0 C0.66 0.33 1.32 0.66 2 1 C1.01 1 0.02 1 -1 1 C-0.67 0.67 -0.34 0.34 0 0 Z " fill="#141415" transform="translate(209,656)"/>
<path d="M0 0 C1 4 1 4 1 4 Z " fill="#0E0E0E" transform="translate(239,638)"/>
<path d="M0 0 C1 4 1 4 1 4 Z " fill="#151515" transform="translate(194,574)"/>
<path d="M0 0 C0.99 1.485 0.99 1.485 2 3 C1.34 3 0.68 3 0 3 C0 2.01 0 1.02 0 0 Z " fill="#110F0F" transform="translate(619,541)"/>
<path d="M0 0 C0.66 0.33 1.32 0.66 2 1 C1.01 1 0.02 1 -1 1 C-0.67 0.67 -0.34 0.34 0 0 Z " fill="#0E0E0E" transform="translate(228,470)"/>
<path d="M0 0 C0.66 0 1.32 0 2 0 C1.67 0.99 1.34 1.98 1 3 C0.67 2.01 0.34 1.02 0 0 Z " fill="#131212" transform="translate(169,456)"/>
<path d="M0 0 C0.99 0.495 0.99 0.495 2 1 C1.67 1.66 1.34 2.32 1 3 C0.67 2.01 0.34 1.02 0 0 Z " fill="#131210" transform="translate(882,371)"/>
<path d="M0 0 C3 1 3 1 3 1 Z " fill="#161515" transform="translate(427,823)"/>
<path d="M0 0 C3 1 3 1 3 1 Z " fill="#181818" transform="translate(415,822)"/>
<path d="M0 0 C3 1 3 1 3 1 Z " fill="#161515" transform="translate(350,814)"/>
<path d="M0 0 C3 1 3 1 3 1 Z " fill="#181616" transform="translate(306,806)"/>
<path d="M0 0 C3 1 3 1 3 1 Z " fill="#0E0D0C" transform="translate(649,786)"/>
<path d="M0 0 C3 1 3 1 3 1 Z " fill="#100E0F" transform="translate(664,784)"/>
<path d="M0 0 C3 1 3 1 3 1 Z " fill="#100F0E" transform="translate(660,784)"/>
<path d="" fill="#131212" transform="translate(0,0)"/>
<path d="" fill="#171716" transform="translate(0,0)"/>
<path d="M0 0 C3 1 3 1 3 1 Z " fill="#11100F" transform="translate(257,739)"/>
<path d="M0 0 C0.66 0.66 1.32 1.32 2 2 C1.34 2 0.68 2 0 2 C0 1.34 0 0.68 0 0 Z " fill="#0F0E0F" transform="translate(572,736)"/>
<path d="M0 0 C3 1 3 1 3 1 Z " fill="#0E0E0E" transform="translate(587,736)"/>
<path d="M0 0 C0.99 0.495 0.99 0.495 2 1 C1.01 1.495 1.01 1.495 0 2 C0 1.34 0 0.68 0 0 Z " fill="#0E0F0E" transform="translate(660,728)"/>
<path d="M0 0 C0.99 0.495 0.99 0.495 2 1 C1.01 1.495 1.01 1.495 0 2 C0 1.34 0 0.68 0 0 Z " fill="#111210" transform="translate(656,728)"/>
<path d="M0 0 C3 1 3 1 3 1 Z " fill="#111110" transform="translate(738,714)"/>
<path d="M0 0 C3 1 3 1 3 1 Z " fill="#101110" transform="translate(737,712)"/>
<path d="" fill="#1A1A1A" transform="translate(0,0)"/>
<path d="M0 0 C3 1 3 1 3 1 Z " fill="#131413" transform="translate(509,693)"/>
<path d="" fill="#181615" transform="translate(0,0)"/>
<path d="M0 0 C0.66 0.66 1.32 1.32 2 2 C1.34 2 0.68 2 0 2 C0 1.34 0 0.68 0 0 Z " fill="#110F11" transform="translate(313,670)"/>
<path d="" fill="#11100F" transform="translate(0,0)"/>
<path d="" fill="#111210" transform="translate(0,0)"/>
<path d="" fill="#121111" transform="translate(0,0)"/>
<path d="" fill="#131514" transform="translate(0,0)"/>
<path d="M0 0 C0.99 0.495 0.99 0.495 2 1 C1.01 1.495 1.01 1.495 0 2 C0 1.34 0 0.68 0 0 Z " fill="#0F0F0E" transform="translate(472,576)"/>
<path d="M0 0 C0.66 0 1.32 0 2 0 C1.67 0.66 1.34 1.32 1 2 C0.67 1.34 0.34 0.68 0 0 Z " fill="#151413" transform="translate(192,570)"/>
<path d="M0 0 C0.66 0 1.32 0 2 0 C1.67 0.66 1.34 1.32 1 2 C0.67 1.34 0.34 0.68 0 0 Z " fill="#0F0F0E" transform="translate(336,563)"/>
<path d="M0 0 C0.66 0 1.32 0 2 0 C1.67 0.66 1.34 1.32 1 2 C0.67 1.34 0.34 0.68 0 0 Z " fill="#11100F" transform="translate(608,524)"/>
<path d="" fill="#120F10" transform="translate(0,0)"/>
<path d="" fill="#131313" transform="translate(0,0)"/>
<path d="M0 0 C0.99 0.495 0.99 0.495 2 1 C1.01 1.495 1.01 1.495 0 2 C0 1.34 0 0.68 0 0 Z " fill="#100F0E" transform="translate(235,478)"/>
<path d="M0 0 C0.66 0 1.32 0 2 0 C1.67 0.66 1.34 1.32 1 2 C0.67 1.34 0.34 0.68 0 0 Z " fill="#161615" transform="translate(150,430)"/>
<path d="M0 0 C0.33 0.66 0.66 1.32 1 2 C0.34 1.67 -0.32 1.34 -1 1 C-0.67 0.67 -0.34 0.34 0 0 Z " fill="#202020" transform="translate(114,391)"/>
<path d="" fill="#222221" transform="translate(0,0)"/>
<path d="M0 0 C0.66 0.66 1.32 1.32 2 2 C1.34 2 0.68 2 0 2 C0 1.34 0 0.68 0 0 Z " fill="#0F0F0E" transform="translate(531,373)"/>
<path d="M0 0 C0.33 0.66 0.66 1.32 1 2 C0.34 1.67 -0.32 1.34 -1 1 C-0.67 0.67 -0.34 0.34 0 0 Z " fill="#131312" transform="translate(881,369)"/>
<path d="M0 0 C3 1 3 1 3 1 Z " fill="#141514" transform="translate(843,350)"/>
<path d="M0 0 C0.66 0.66 1.32 1.32 2 2 C1.34 2 0.68 2 0 2 C0 1.34 0 0.68 0 0 Z " fill="#131312" transform="translate(464,300)"/>
<path d="M0 0 C3 1 3 1 3 1 Z " fill="#111110" transform="translate(526,288)"/>
<path d="M0 0 C2 1 2 1 2 1 Z " fill="#151313" transform="translate(436,823)"/>
<path d="M0 0 C2 1 2 1 2 1 Z " fill="#161616" transform="translate(403,822)"/>
<path d="M0 0 C2 1 2 1 2 1 Z " fill="#191916" transform="translate(629,820)"/>
<path d="M0 0 C2 1 2 1 2 1 Z " fill="#161616" transform="translate(676,814)"/>
<path d="M0 0 C2 1 2 1 2 1 Z " fill="#191817" transform="translate(681,813)"/>
<path d="M0 0 C2 1 2 1 2 1 Z " fill="#171615" transform="translate(299,806)"/>
<path d="M0 0 C2 1 2 1 2 1 Z " fill="#161615" transform="translate(298,804)"/>
<path d="M0 0 C2 1 2 1 2 1 Z " fill="#1A1918" transform="translate(274,798)"/>
<path d="M0 0 C2 1 2 1 2 1 Z " fill="#191917" transform="translate(271,797)"/>
<path d="" fill="#0E0C0E" transform="translate(0,0)"/>
<path d="" fill="#0C0C0C" transform="translate(0,0)"/>
<path d="M0 0 C2 1 2 1 2 1 Z " fill="#0E0D0A" transform="translate(455,793)"/>
<path d="M0 0 C2 1 2 1 2 1 Z " fill="#0E0D0C" transform="translate(592,792)"/>
<path d="M0 0 C2 1 2 1 2 1 Z " fill="#100F0F" transform="translate(587,792)"/>
<path d="M0 0 C2 1 2 1 2 1 Z " fill="#11100F" transform="translate(584,792)"/>
<path d="M0 0 C2 1 2 1 2 1 Z " fill="#0E0D0F" transform="translate(563,792)"/>
<path d="M0 0 C2 1 2 1 2 1 Z " fill="#0F0D0C" transform="translate(440,792)"/>
<path d="M0 0 C2 1 2 1 2 1 Z " fill="#0C0D0C" transform="translate(437,792)"/>
<path d="M0 0 C2 1 2 1 2 1 Z " fill="#1E1E1C" transform="translate(245,791)"/>
<path d="M0 0 C2 1 2 1 2 1 Z " fill="#1C1C1B" transform="translate(245,788)"/>
<path d="M0 0 C2 1 2 1 2 1 Z " fill="#0F0F0E" transform="translate(646,786)"/>
<path d="M0 0 C2 1 2 1 2 1 Z " fill="#100F0C" transform="translate(656,785)"/>
<path d="M0 0 C2 1 2 1 2 1 Z " fill="#0F0F0F" transform="translate(363,784)"/>
<path d="M0 0 C2 1 2 1 2 1 Z " fill="#0E0F0D" transform="translate(332,779)"/>
<path d="M0 0 C2 1 2 1 2 1 Z " fill="#0F110F" transform="translate(698,778)"/>
<path d="" fill="#0D0E0E" transform="translate(0,0)"/>
<path d="M0 0 C2 1 2 1 2 1 Z " fill="#100F0E" transform="translate(287,769)"/>
<path d="M0 0 C2 1 2 1 2 1 Z " fill="#110F0F" transform="translate(620,765)"/>
<path d="M0 0 C2 1 2 1 2 1 Z " fill="#11100F" transform="translate(265,762)"/>
<path d="" fill="#181817" transform="translate(0,0)"/>
<path d="M0 0 C2 1 2 1 2 1 Z " fill="#10100E" transform="translate(679,758)"/>
<path d="M0 0 C2 1 2 1 2 1 Z " fill="#100F0F" transform="translate(347,758)"/>
<path d="M0 0 C2 1 2 1 2 1 Z " fill="#0D0E0E" transform="translate(339,758)"/>
<path d="M0 0 C2 1 2 1 2 1 Z " fill="#0E0F0F" transform="translate(330,755)"/>
<path d="M0 0 C2 1 2 1 2 1 Z " fill="#111010" transform="translate(716,751)"/>
<path d="M0 0 C2 1 2 1 2 1 Z " fill="#100E0E" transform="translate(303,750)"/>
<path d="" fill="#151617" transform="translate(0,0)"/>
<path d="M0 0 C2 1 2 1 2 1 Z " fill="#0E0F0E" transform="translate(557,738)"/>
<path d="M0 0 C2 1 2 1 2 1 Z " fill="#0F100F" transform="translate(575,737)"/>
<path d="M0 0 C2 1 2 1 2 1 Z " fill="#0F0F0D" transform="translate(592,736)"/>
<path d="M0 0 C2 1 2 1 2 1 Z " fill="#0E0E0D" transform="translate(584,736)"/>
<path d="M0 0 C2 1 2 1 2 1 Z " fill="#0F1110" transform="translate(467,736)"/>
<path d="" fill="#0F110F" transform="translate(0,0)"/>
<path d="M0 0 C2 1 2 1 2 1 Z " fill="#0D0D0B" transform="translate(315,720)"/>
<path d="" fill="#121211" transform="translate(0,0)"/>
<path d="" fill="#171617" transform="translate(0,0)"/>
<path d="" fill="#111010" transform="translate(0,0)"/>
<path d="" fill="#191B1B" transform="translate(0,0)"/>
<path d="" fill="#131211" transform="translate(0,0)"/>
<path d="" fill="#131312" transform="translate(0,0)"/>
<path d="" fill="#10100F" transform="translate(0,0)"/>
<path d="" fill="#10100F" transform="translate(0,0)"/>
<path d="" fill="#161716" transform="translate(0,0)"/>
<path d="" fill="#151413" transform="translate(0,0)"/>
<path d="" fill="#121211" transform="translate(0,0)"/>
<path d="" fill="#110E0E" transform="translate(0,0)"/>
<path d="M0 0 C2 1 2 1 2 1 Z " fill="#131414" transform="translate(370,589)"/>
<path d="" fill="#111010" transform="translate(0,0)"/>
<path d="M0 0 C2 1 2 1 2 1 Z " fill="#101110" transform="translate(344,571)"/>
<path d="" fill="#101110" transform="translate(0,0)"/>
<path d="" fill="#100E0E" transform="translate(0,0)"/>
<path d="M0 0 C2 1 2 1 2 1 Z " fill="#10100F" transform="translate(322,551)"/>
<path d="" fill="#0D0E0D" transform="translate(0,0)"/>
<path d="M0 0 C2 1 2 1 2 1 Z " fill="#100F0F" transform="translate(721,535)"/>
<path d="" fill="#0F0E0E" transform="translate(0,0)"/>
<path d="" fill="#0E0E0E" transform="translate(0,0)"/>
<path d="" fill="#0E0F0E" transform="translate(0,0)"/>
<path d="" fill="#131514" transform="translate(0,0)"/>
<path d="" fill="#12100E" transform="translate(0,0)"/>
<path d="M0 0 C2 1 2 1 2 1 Z " fill="#111010" transform="translate(725,490)"/>
<path d="" fill="#101010" transform="translate(0,0)"/>
<path d="" fill="#100F0F" transform="translate(0,0)"/>
<path d="M0 0 C2 1 2 1 2 1 Z " fill="#11110F" transform="translate(408,467)"/>
<path d="" fill="#151414" transform="translate(0,0)"/>
<path d="" fill="#121110" transform="translate(0,0)"/>
<path d="" fill="#101011" transform="translate(0,0)"/>
<path d="" fill="#0F0F0E" transform="translate(0,0)"/>
<path d="M0 0 C2 1 2 1 2 1 Z " fill="#111010" transform="translate(793,432)"/>
<path d="" fill="#0F0E0E" transform="translate(0,0)"/>
<path d="M0 0 C2 1 2 1 2 1 Z " fill="#110F0F" transform="translate(861,402)"/>
<path d="" fill="#121111" transform="translate(0,0)"/>
<path d="M0 0 C2 1 2 1 2 1 Z " fill="#121011" transform="translate(840,400)"/>
<path d="" fill="#161616" transform="translate(0,0)"/>
<path d="" fill="#0B0B0B" transform="translate(0,0)"/>
<path d="" fill="#121211" transform="translate(0,0)"/>
<path d="" fill="#111010" transform="translate(0,0)"/>
<path d="" fill="#0D0D0B" transform="translate(0,0)"/>
<path d="" fill="#121210" transform="translate(0,0)"/>
<path d="M0 0 C2 1 2 1 2 1 Z " fill="#171615" transform="translate(184,349)"/>
<path d="M0 0 C2 1 2 1 2 1 Z " fill="#151413" transform="translate(182,348)"/>
<path d="" fill="#181918" transform="translate(0,0)"/>
<path d="M0 0 C2 1 2 1 2 1 Z " fill="#272526" transform="translate(140,320)"/>
<path d="" fill="#202120" transform="translate(0,0)"/>
<path d="M0 0 C2 1 2 1 2 1 Z " fill="#222424" transform="translate(159,315)"/>
<path d="" fill="#242422" transform="translate(0,0)"/>
<path d="M0 0 C2 1 2 1 2 1 Z " fill="#11130F" transform="translate(522,290)"/>
<path d="" fill="#141314" transform="translate(0,0)"/>
<path d="" fill="#151414" transform="translate(0,0)"/>
<path d="" fill="#191A1B" transform="translate(0,0)"/>
<path d="" fill="#120F0F" transform="translate(0,0)"/>
<path d="M0 0 C2 1 2 1 2 1 Z " fill="#121210" transform="translate(523,236)"/>
<path d="" fill="#1D1D1D" transform="translate(0,0)"/>
<path d="" fill="#1E1F1F" transform="translate(0,0)"/>
<path d="" fill="#191819" transform="translate(0,0)"/>
<path d="" fill="#151614" transform="translate(0,0)"/>
<path d="" fill="#1A1618" transform="translate(0,0)"/>
<path d="" fill="#191916" transform="translate(0,0)"/>
<path d="" fill="#171716" transform="translate(0,0)"/>
<path d="" fill="#181717" transform="translate(0,0)"/>
<path d="" fill="#171815" transform="translate(0,0)"/>
<path d="" fill="#151511" transform="translate(0,0)"/>
<path d="" fill="#181818" transform="translate(0,0)"/>
<path d="" fill="#151716" transform="translate(0,0)"/>
<path d="" fill="#1B1817" transform="translate(0,0)"/>
<path d="" fill="#181515" transform="translate(0,0)"/>
<path d="" fill="#151413" transform="translate(0,0)"/>
<path d="" fill="#181615" transform="translate(0,0)"/>
<path d="" fill="#171615" transform="translate(0,0)"/>
<path d="" fill="#161615" transform="translate(0,0)"/>
<path d="" fill="#151415" transform="translate(0,0)"/>
<path d="" fill="#161615" transform="translate(0,0)"/>
<path d="" fill="#161614" transform="translate(0,0)"/>
<path d="" fill="#171515" transform="translate(0,0)"/>
<path d="" fill="#191416" transform="translate(0,0)"/>
<path d="" fill="#171716" transform="translate(0,0)"/>
<path d="" fill="#171617" transform="translate(0,0)"/>
<path d="" fill="#171816" transform="translate(0,0)"/>
<path d="" fill="#191819" transform="translate(0,0)"/>
<path d="" fill="#161816" transform="translate(0,0)"/>
<path d="" fill="#1E1E1D" transform="translate(0,0)"/>
<path d="" fill="#1C1B1B" transform="translate(0,0)"/>
<path d="" fill="#0F1211" transform="translate(0,0)"/>
<path d="" fill="#111011" transform="translate(0,0)"/>
<path d="" fill="#11100F" transform="translate(0,0)"/>
<path d="" fill="#10100E" transform="translate(0,0)"/>
<path d="" fill="#0E0F0E" transform="translate(0,0)"/>
<path d="" fill="#0E0E0F" transform="translate(0,0)"/>
<path d="" fill="#100F0F" transform="translate(0,0)"/>
<path d="" fill="#100E0E" transform="translate(0,0)"/>
<path d="" fill="#100F0C" transform="translate(0,0)"/>
<path d="" fill="#100F0F" transform="translate(0,0)"/>
<path d="" fill="#0F110F" transform="translate(0,0)"/>
<path d="" fill="#0D0D0E" transform="translate(0,0)"/>
<path d="" fill="#0E0E0E" transform="translate(0,0)"/>
<path d="" fill="#0F0F0F" transform="translate(0,0)"/>
<path d="" fill="#0B0D0A" transform="translate(0,0)"/>
<path d="" fill="#201E1D" transform="translate(0,0)"/>
<path d="" fill="#0E0F0E" transform="translate(0,0)"/>
<path d="" fill="#0E0E0F" transform="translate(0,0)"/>
<path d="" fill="#0F110D" transform="translate(0,0)"/>
<path d="" fill="#0C0C0C" transform="translate(0,0)"/>
<path d="" fill="#0B0D0A" transform="translate(0,0)"/>
<path d="" fill="#0E0E0C" transform="translate(0,0)"/>
<path d="" fill="#0D0D0C" transform="translate(0,0)"/>
<path d="" fill="#0F0C0C" transform="translate(0,0)"/>
<path d="" fill="#0F0E0E" transform="translate(0,0)"/>
<path d="" fill="#0C0F0C" transform="translate(0,0)"/>
<path d="" fill="#11100F" transform="translate(0,0)"/>
<path d="" fill="#0F0C0A" transform="translate(0,0)"/>
<path d="" fill="#1F1D1C" transform="translate(0,0)"/>
<path d="" fill="#0D0E0C" transform="translate(0,0)"/>
<path d="" fill="#1F1E1C" transform="translate(0,0)"/>
<path d="" fill="#110F10" transform="translate(0,0)"/>
<path d="" fill="#1E1D1E" transform="translate(0,0)"/>
<path d="" fill="#110F0E" transform="translate(0,0)"/>
<path d="" fill="#0E0D0D" transform="translate(0,0)"/>
<path d="" fill="#0E0F10" transform="translate(0,0)"/>
<path d="" fill="#0E0F0E" transform="translate(0,0)"/>
<path d="" fill="#100F0D" transform="translate(0,0)"/>
<path d="" fill="#202122" transform="translate(0,0)"/>
<path d="" fill="#10100E" transform="translate(0,0)"/>
<path d="" fill="#1E1E1C" transform="translate(0,0)"/>
<path d="" fill="#221F20" transform="translate(0,0)"/>
<path d="" fill="#1E1C1C" transform="translate(0,0)"/>
<path d="" fill="#111011" transform="translate(0,0)"/>
<path d="" fill="#0F0F0F" transform="translate(0,0)"/>
<path d="" fill="#1E201E" transform="translate(0,0)"/>
<path d="" fill="#0F0C0B" transform="translate(0,0)"/>
<path d="" fill="#10100E" transform="translate(0,0)"/>
<path d="" fill="#12100F" transform="translate(0,0)"/>
<path d="" fill="#100F0F" transform="translate(0,0)"/>
<path d="" fill="#111110" transform="translate(0,0)"/>
<path d="" fill="#1C201E" transform="translate(0,0)"/>
<path d="" fill="#121210" transform="translate(0,0)"/>
<path d="" fill="#131211" transform="translate(0,0)"/>
<path d="" fill="#11100E" transform="translate(0,0)"/>
<path d="" fill="#100F0D" transform="translate(0,0)"/>
<path d="" fill="#100F10" transform="translate(0,0)"/>
<path d="" fill="#1C1D1C" transform="translate(0,0)"/>
<path d="" fill="#131111" transform="translate(0,0)"/>
<path d="" fill="#110F0F" transform="translate(0,0)"/>
<path d="" fill="#0D0F0C" transform="translate(0,0)"/>
<path d="" fill="#101010" transform="translate(0,0)"/>
<path d="" fill="#0E0F0D" transform="translate(0,0)"/>
<path d="" fill="#1B1B1B" transform="translate(0,0)"/>
<path d="" fill="#161412" transform="translate(0,0)"/>
<path d="" fill="#0E0D0F" transform="translate(0,0)"/>
<path d="" fill="#10110D" transform="translate(0,0)"/>
<path d="" fill="#111011" transform="translate(0,0)"/>
<path d="" fill="#10100E" transform="translate(0,0)"/>
<path d="" fill="#0F0C0E" transform="translate(0,0)"/>
<path d="" fill="#100F0E" transform="translate(0,0)"/>
<path d="" fill="#0E0E0E" transform="translate(0,0)"/>
<path d="" fill="#0E0E0C" transform="translate(0,0)"/>
<path d="" fill="#121112" transform="translate(0,0)"/>
<path d="" fill="#0F0E0F" transform="translate(0,0)"/>
<path d="" fill="#121011" transform="translate(0,0)"/>
<path d="" fill="#121311" transform="translate(0,0)"/>
<path d="" fill="#0F0E0F" transform="translate(0,0)"/>
<path d="" fill="#0E0D0D" transform="translate(0,0)"/>
<path d="" fill="#111113" transform="translate(0,0)"/>
<path d="" fill="#110F0D" transform="translate(0,0)"/>
<path d="" fill="#121111" transform="translate(0,0)"/>
<path d="" fill="#101111" transform="translate(0,0)"/>
<path d="" fill="#101011" transform="translate(0,0)"/>
<path d="" fill="#131312" transform="translate(0,0)"/>
<path d="" fill="#121211" transform="translate(0,0)"/>
<path d="" fill="#0C0C0C" transform="translate(0,0)"/>
<path d="" fill="#0F0C0B" transform="translate(0,0)"/>
<path d="" fill="#110F11" transform="translate(0,0)"/>
<path d="" fill="#0B0D0A" transform="translate(0,0)"/>
<path d="" fill="#0D0D0B" transform="translate(0,0)"/>
<path d="" fill="#0F100E" transform="translate(0,0)"/>
<path d="" fill="#0E100C" transform="translate(0,0)"/>
<path d="" fill="#0F1211" transform="translate(0,0)"/>
<path d="" fill="#11120F" transform="translate(0,0)"/>
<path d="" fill="#161615" transform="translate(0,0)"/>
<path d="" fill="#0F0F0E" transform="translate(0,0)"/>
<path d="" fill="#100F10" transform="translate(0,0)"/>
<path d="" fill="#11100E" transform="translate(0,0)"/>
<path d="" fill="#100F0F" transform="translate(0,0)"/>
<path d="" fill="#191915" transform="translate(0,0)"/>
<path d="" fill="#0E0F0D" transform="translate(0,0)"/>
<path d="" fill="#0D0E0C" transform="translate(0,0)"/>
<path d="" fill="#12120F" transform="translate(0,0)"/>
<path d="" fill="#11110E" transform="translate(0,0)"/>
<path d="" fill="#110E0F" transform="translate(0,0)"/>
<path d="" fill="#10100E" transform="translate(0,0)"/>
<path d="" fill="#101011" transform="translate(0,0)"/>
<path d="" fill="#110F0F" transform="translate(0,0)"/>
<path d="" fill="#0E0E0E" transform="translate(0,0)"/>
<path d="" fill="#0F0D0F" transform="translate(0,0)"/>
<path d="" fill="#0F0F0D" transform="translate(0,0)"/>
<path d="" fill="#130F10" transform="translate(0,0)"/>
<path d="" fill="#100F0C" transform="translate(0,0)"/>
<path d="" fill="#0E100C" transform="translate(0,0)"/>
<path d="" fill="#120F11" transform="translate(0,0)"/>
<path d="" fill="#100E11" transform="translate(0,0)"/>
<path d="" fill="#110F0C" transform="translate(0,0)"/>
<path d="" fill="#101110" transform="translate(0,0)"/>
<path d="" fill="#12120F" transform="translate(0,0)"/>
<path d="" fill="#11110F" transform="translate(0,0)"/>
<path d="" fill="#111010" transform="translate(0,0)"/>
<path d="" fill="#10110F" transform="translate(0,0)"/>
<path d="" fill="#101010" transform="translate(0,0)"/>
<path d="" fill="#10120F" transform="translate(0,0)"/>
<path d="" fill="#101011" transform="translate(0,0)"/>
<path d="" fill="#171715" transform="translate(0,0)"/>
<path d="" fill="#0F0B0B" transform="translate(0,0)"/>
<path d="" fill="#131111" transform="translate(0,0)"/>
<path d="" fill="#0C0B0A" transform="translate(0,0)"/>
<path d="" fill="#0F1010" transform="translate(0,0)"/>
<path d="" fill="#100F0E" transform="translate(0,0)"/>
<path d="" fill="#161616" transform="translate(0,0)"/>
<path d="" fill="#101011" transform="translate(0,0)"/>
<path d="" fill="#111010" transform="translate(0,0)"/>
<path d="" fill="#151612" transform="translate(0,0)"/>
<path d="" fill="#101010" transform="translate(0,0)"/>
<path d="" fill="#131210" transform="translate(0,0)"/>
<path d="" fill="#0E1011" transform="translate(0,0)"/>
<path d="" fill="#11100E" transform="translate(0,0)"/>
<path d="" fill="#12100F" transform="translate(0,0)"/>
<path d="" fill="#131311" transform="translate(0,0)"/>
<path d="" fill="#131111" transform="translate(0,0)"/>
<path d="" fill="#121413" transform="translate(0,0)"/>
<path d="" fill="#12110F" transform="translate(0,0)"/>
<path d="" fill="#161517" transform="translate(0,0)"/>
<path d="" fill="#121113" transform="translate(0,0)"/>
<path d="" fill="#121310" transform="translate(0,0)"/>
<path d="" fill="#121213" transform="translate(0,0)"/>
<path d="" fill="#100F0E" transform="translate(0,0)"/>
<path d="" fill="#111111" transform="translate(0,0)"/>
<path d="" fill="#141312" transform="translate(0,0)"/>
<path d="" fill="#131013" transform="translate(0,0)"/>
<path d="" fill="#161514" transform="translate(0,0)"/>
<path d="" fill="#0E0F0D" transform="translate(0,0)"/>
<path d="" fill="#161514" transform="translate(0,0)"/>
<path d="" fill="#101010" transform="translate(0,0)"/>
<path d="" fill="#131111" transform="translate(0,0)"/>
<path d="" fill="#0F0F0E" transform="translate(0,0)"/>
<path d="" fill="#0F100E" transform="translate(0,0)"/>
<path d="" fill="#111110" transform="translate(0,0)"/>
<path d="" fill="#100E10" transform="translate(0,0)"/>
<path d="" fill="#10100B" transform="translate(0,0)"/>
<path d="" fill="#0F1010" transform="translate(0,0)"/>
<path d="" fill="#151213" transform="translate(0,0)"/>
<path d="" fill="#101011" transform="translate(0,0)"/>
<path d="" fill="#13110F" transform="translate(0,0)"/>
<path d="" fill="#0F0D0C" transform="translate(0,0)"/>
<path d="" fill="#121211" transform="translate(0,0)"/>
<path d="" fill="#131414" transform="translate(0,0)"/>
<path d="" fill="#131012" transform="translate(0,0)"/>
<path d="" fill="#0F0E11" transform="translate(0,0)"/>
<path d="" fill="#111010" transform="translate(0,0)"/>
<path d="" fill="#12110F" transform="translate(0,0)"/>
<path d="" fill="#131312" transform="translate(0,0)"/>
<path d="" fill="#11100F" transform="translate(0,0)"/>
<path d="" fill="#131113" transform="translate(0,0)"/>
<path d="" fill="#0F100E" transform="translate(0,0)"/>
<path d="" fill="#141113" transform="translate(0,0)"/>
<path d="" fill="#121310" transform="translate(0,0)"/>
<path d="" fill="#131113" transform="translate(0,0)"/>
<path d="" fill="#111010" transform="translate(0,0)"/>
<path d="" fill="#131011" transform="translate(0,0)"/>
<path d="" fill="#111312" transform="translate(0,0)"/>
<path d="" fill="#181818" transform="translate(0,0)"/>
<path d="" fill="#161515" transform="translate(0,0)"/>
<path d="" fill="#111110" transform="translate(0,0)"/>
<path d="" fill="#101110" transform="translate(0,0)"/>
<path d="" fill="#141211" transform="translate(0,0)"/>
<path d="" fill="#141415" transform="translate(0,0)"/>
<path d="" fill="#11120F" transform="translate(0,0)"/>
<path d="" fill="#110F0F" transform="translate(0,0)"/>
<path d="" fill="#161414" transform="translate(0,0)"/>
<path d="" fill="#111110" transform="translate(0,0)"/>
<path d="" fill="#151414" transform="translate(0,0)"/>
<path d="" fill="#131112" transform="translate(0,0)"/>
<path d="" fill="#111011" transform="translate(0,0)"/>
<path d="" fill="#141414" transform="translate(0,0)"/>
<path d="" fill="#100F0E" transform="translate(0,0)"/>
<path d="" fill="#101010" transform="translate(0,0)"/>
<path d="" fill="#11100E" transform="translate(0,0)"/>
<path d="" fill="#12100F" transform="translate(0,0)"/>
<path d="" fill="#141110" transform="translate(0,0)"/>
<path d="" fill="#110F10" transform="translate(0,0)"/>
<path d="" fill="#111112" transform="translate(0,0)"/>
<path d="" fill="#191718" transform="translate(0,0)"/>
<path d="" fill="#121012" transform="translate(0,0)"/>
<path d="" fill="#121013" transform="translate(0,0)"/>
<path d="" fill="#111112" transform="translate(0,0)"/>
<path d="" fill="#171615" transform="translate(0,0)"/>
<path d="" fill="#0D0E0D" transform="translate(0,0)"/>
<path d="" fill="#141515" transform="translate(0,0)"/>
<path d="" fill="#121111" transform="translate(0,0)"/>
<path d="" fill="#131614" transform="translate(0,0)"/>
<path d="" fill="#151416" transform="translate(0,0)"/>
<path d="" fill="#141514" transform="translate(0,0)"/>
<path d="" fill="#121311" transform="translate(0,0)"/>
<path d="" fill="#101110" transform="translate(0,0)"/>
<path d="" fill="#12100E" transform="translate(0,0)"/>
<path d="" fill="#191918" transform="translate(0,0)"/>
<path d="" fill="#0F0F0E" transform="translate(0,0)"/>
<path d="" fill="#151415" transform="translate(0,0)"/>
<path d="" fill="#0E0E0F" transform="translate(0,0)"/>
<path d="" fill="#131313" transform="translate(0,0)"/>
<path d="" fill="#141214" transform="translate(0,0)"/>
<path d="" fill="#121312" transform="translate(0,0)"/>
<path d="" fill="#101310" transform="translate(0,0)"/>
<path d="" fill="#0F110F" transform="translate(0,0)"/>
<path d="" fill="#100E0F" transform="translate(0,0)"/>
<path d="" fill="#121111" transform="translate(0,0)"/>
<path d="" fill="#111211" transform="translate(0,0)"/>
<path d="" fill="#100E0E" transform="translate(0,0)"/>
<path d="" fill="#141313" transform="translate(0,0)"/>
<path d="" fill="#100E0E" transform="translate(0,0)"/>
<path d="" fill="#111011" transform="translate(0,0)"/>
<path d="" fill="#111112" transform="translate(0,0)"/>
<path d="" fill="#171413" transform="translate(0,0)"/>
<path d="" fill="#0D0E10" transform="translate(0,0)"/>
<path d="" fill="#0F0F0E" transform="translate(0,0)"/>
<path d="" fill="#10100F" transform="translate(0,0)"/>
<path d="" fill="#131214" transform="translate(0,0)"/>
<path d="" fill="#11100E" transform="translate(0,0)"/>
<path d="" fill="#121311" transform="translate(0,0)"/>
<path d="" fill="#101110" transform="translate(0,0)"/>
<path d="" fill="#131311" transform="translate(0,0)"/>
<path d="" fill="#0F0F0F" transform="translate(0,0)"/>
<path d="" fill="#161213" transform="translate(0,0)"/>
<path d="" fill="#121413" transform="translate(0,0)"/>
<path d="" fill="#0F0F10" transform="translate(0,0)"/>
<path d="" fill="#0F1010" transform="translate(0,0)"/>
<path d="" fill="#0E0E0E" transform="translate(0,0)"/>
<path d="" fill="#110F10" transform="translate(0,0)"/>
<path d="" fill="#100F0F" transform="translate(0,0)"/>
<path d="" fill="#131312" transform="translate(0,0)"/>
<path d="" fill="#161716" transform="translate(0,0)"/>
<path d="" fill="#0F0F0C" transform="translate(0,0)"/>
<path d="" fill="#0E0F0F" transform="translate(0,0)"/>
<path d="" fill="#0B0D0B" transform="translate(0,0)"/>
<path d="" fill="#0E100F" transform="translate(0,0)"/>
<path d="" fill="#141314" transform="translate(0,0)"/>
<path d="" fill="#0E100D" transform="translate(0,0)"/>
<path d="" fill="#100F10" transform="translate(0,0)"/>
<path d="" fill="#0F1110" transform="translate(0,0)"/>
<path d="" fill="#131415" transform="translate(0,0)"/>
<path d="" fill="#121212" transform="translate(0,0)"/>
<path d="" fill="#161413" transform="translate(0,0)"/>
<path d="" fill="#131311" transform="translate(0,0)"/>
<path d="" fill="#120F11" transform="translate(0,0)"/>
<path d="" fill="#141515" transform="translate(0,0)"/>
<path d="" fill="#161415" transform="translate(0,0)"/>
<path d="" fill="#121313" transform="translate(0,0)"/>
<path d="" fill="#110F0F" transform="translate(0,0)"/>
<path d="" fill="#181619" transform="translate(0,0)"/>
<path d="" fill="#11110F" transform="translate(0,0)"/>
<path d="" fill="#110F0F" transform="translate(0,0)"/>
<path d="" fill="#110E0F" transform="translate(0,0)"/>
<path d="" fill="#120F11" transform="translate(0,0)"/>
<path d="" fill="#0D0C0F" transform="translate(0,0)"/>
<path d="" fill="#111112" transform="translate(0,0)"/>
<path d="" fill="#120F11" transform="translate(0,0)"/>
<path d="" fill="#111211" transform="translate(0,0)"/>
<path d="" fill="#11120E" transform="translate(0,0)"/>
<path d="" fill="#121010" transform="translate(0,0)"/>
<path d="" fill="#120F0F" transform="translate(0,0)"/>
<path d="" fill="#0F0E0F" transform="translate(0,0)"/>
<path d="" fill="#100F0F" transform="translate(0,0)"/>
<path d="" fill="#111210" transform="translate(0,0)"/>
<path d="" fill="#121113" transform="translate(0,0)"/>
<path d="" fill="#0D0D10" transform="translate(0,0)"/>
<path d="" fill="#121111" transform="translate(0,0)"/>
<path d="" fill="#161517" transform="translate(0,0)"/>
<path d="" fill="#121111" transform="translate(0,0)"/>
<path d="" fill="#0E0F0F" transform="translate(0,0)"/>
<path d="" fill="#12120F" transform="translate(0,0)"/>
<path d="" fill="#111011" transform="translate(0,0)"/>
<path d="" fill="#101110" transform="translate(0,0)"/>
<path d="" fill="#121110" transform="translate(0,0)"/>
<path d="" fill="#101112" transform="translate(0,0)"/>
<path d="" fill="#10100D" transform="translate(0,0)"/>
<path d="" fill="#13110F" transform="translate(0,0)"/>
<path d="" fill="#0D0D0D" transform="translate(0,0)"/>
<path d="" fill="#131210" transform="translate(0,0)"/>
<path d="" fill="#0F1110" transform="translate(0,0)"/>
<path d="" fill="#141212" transform="translate(0,0)"/>
<path d="" fill="#121514" transform="translate(0,0)"/>
<path d="" fill="#100E10" transform="translate(0,0)"/>
<path d="" fill="#0F100F" transform="translate(0,0)"/>
<path d="" fill="#111110" transform="translate(0,0)"/>
<path d="" fill="#10110F" transform="translate(0,0)"/>
<path d="" fill="#11120F" transform="translate(0,0)"/>
<path d="" fill="#0F0F0D" transform="translate(0,0)"/>
<path d="" fill="#0C0C0C" transform="translate(0,0)"/>
<path d="" fill="#151615" transform="translate(0,0)"/>
<path d="" fill="#110F11" transform="translate(0,0)"/>
<path d="" fill="#141516" transform="translate(0,0)"/>
<path d="" fill="#0F0F0E" transform="translate(0,0)"/>
<path d="" fill="#0F0F10" transform="translate(0,0)"/>
<path d="" fill="#100F0E" transform="translate(0,0)"/>
<path d="" fill="#0D0E0D" transform="translate(0,0)"/>
<path d="" fill="#171718" transform="translate(0,0)"/>
<path d="" fill="#0E100F" transform="translate(0,0)"/>
<path d="" fill="#131311" transform="translate(0,0)"/>
<path d="" fill="#151313" transform="translate(0,0)"/>
<path d="" fill="#100F0F" transform="translate(0,0)"/>
<path d="" fill="#121010" transform="translate(0,0)"/>
<path d="" fill="#11100E" transform="translate(0,0)"/>
<path d="" fill="#0E0E10" transform="translate(0,0)"/>
<path d="" fill="#110D0D" transform="translate(0,0)"/>
<path d="" fill="#0F1011" transform="translate(0,0)"/>
<path d="" fill="#0E0E0D" transform="translate(0,0)"/>
<path d="" fill="#131313" transform="translate(0,0)"/>
<path d="" fill="#131413" transform="translate(0,0)"/>
<path d="" fill="#131311" transform="translate(0,0)"/>
<path d="" fill="#121110" transform="translate(0,0)"/>
<path d="" fill="#101110" transform="translate(0,0)"/>
<path d="" fill="#111011" transform="translate(0,0)"/>
<path d="" fill="#0F100F" transform="translate(0,0)"/>
<path d="" fill="#0B0C0C" transform="translate(0,0)"/>
<path d="" fill="#0D0F0F" transform="translate(0,0)"/>
<path d="" fill="#0E0F0F" transform="translate(0,0)"/>
<path d="" fill="#101010" transform="translate(0,0)"/>
<path d="" fill="#110F0D" transform="translate(0,0)"/>
<path d="" fill="#0D0F0D" transform="translate(0,0)"/>
<path d="" fill="#0E0D0C" transform="translate(0,0)"/>
<path d="" fill="#100D10" transform="translate(0,0)"/>
<path d="" fill="#101111" transform="translate(0,0)"/>
<path d="" fill="#121411" transform="translate(0,0)"/>
<path d="" fill="#0E0D0F" transform="translate(0,0)"/>
<path d="" fill="#0D0B0C" transform="translate(0,0)"/>
<path d="" fill="#101010" transform="translate(0,0)"/>
<path d="" fill="#121111" transform="translate(0,0)"/>
<path d="" fill="#11110E" transform="translate(0,0)"/>
<path d="" fill="#121010" transform="translate(0,0)"/>
<path d="" fill="#121210" transform="translate(0,0)"/>
<path d="" fill="#0D0C0D" transform="translate(0,0)"/>
<path d="" fill="#0C0B0A" transform="translate(0,0)"/>
<path d="" fill="#110F10" transform="translate(0,0)"/>
<path d="" fill="#121011" transform="translate(0,0)"/>
<path d="" fill="#0F0F0F" transform="translate(0,0)"/>
<path d="" fill="#0E0E0D" transform="translate(0,0)"/>
<path d="" fill="#151414" transform="translate(0,0)"/>
<path d="" fill="#11100F" transform="translate(0,0)"/>
<path d="" fill="#171514" transform="translate(0,0)"/>
<path d="" fill="#12110F" transform="translate(0,0)"/>
<path d="" fill="#111311" transform="translate(0,0)"/>
<path d="" fill="#0F0C0E" transform="translate(0,0)"/>
<path d="" fill="#101010" transform="translate(0,0)"/>
<path d="" fill="#171415" transform="translate(0,0)"/>
<path d="" fill="#111211" transform="translate(0,0)"/>
<path d="" fill="#10100F" transform="translate(0,0)"/>
<path d="" fill="#121112" transform="translate(0,0)"/>
<path d="" fill="#121110" transform="translate(0,0)"/>
<path d="" fill="#100F0F" transform="translate(0,0)"/>
<path d="" fill="#101010" transform="translate(0,0)"/>
<path d="" fill="#0E0F0E" transform="translate(0,0)"/>
<path d="" fill="#100E0D" transform="translate(0,0)"/>
<path d="" fill="#151413" transform="translate(0,0)"/>
<path d="" fill="#0E0C0B" transform="translate(0,0)"/>
<path d="" fill="#10100E" transform="translate(0,0)"/>
<path d="" fill="#151411" transform="translate(0,0)"/>
<path d="" fill="#0F0D0C" transform="translate(0,0)"/>
<path d="" fill="#090B0D" transform="translate(0,0)"/>
<path d="" fill="#0F0E10" transform="translate(0,0)"/>
<path d="" fill="#141515" transform="translate(0,0)"/>
<path d="" fill="#100E0E" transform="translate(0,0)"/>
<path d="" fill="#141514" transform="translate(0,0)"/>
<path d="" fill="#111010" transform="translate(0,0)"/>
<path d="" fill="#121311" transform="translate(0,0)"/>
<path d="" fill="#0D0E10" transform="translate(0,0)"/>
<path d="" fill="#101110" transform="translate(0,0)"/>
<path d="" fill="#121412" transform="translate(0,0)"/>
<path d="" fill="#121412" transform="translate(0,0)"/>
<path d="" fill="#070908" transform="translate(0,0)"/>
<path d="" fill="#101212" transform="translate(0,0)"/>
<path d="" fill="#111010" transform="translate(0,0)"/>
<path d="" fill="#11110F" transform="translate(0,0)"/>
<path d="" fill="#0E100F" transform="translate(0,0)"/>
<path d="" fill="#0E0E0E" transform="translate(0,0)"/>
<path d="" fill="#121110" transform="translate(0,0)"/>
<path d="" fill="#0E0F0D" transform="translate(0,0)"/>
<path d="" fill="#10100E" transform="translate(0,0)"/>
<path d="" fill="#100F0E" transform="translate(0,0)"/>
<path d="" fill="#151516" transform="translate(0,0)"/>
<path d="" fill="#161514" transform="translate(0,0)"/>
<path d="" fill="#0E0E10" transform="translate(0,0)"/>
<path d="" fill="#131111" transform="translate(0,0)"/>
<path d="" fill="#10100E" transform="translate(0,0)"/>
<path d="" fill="#111310" transform="translate(0,0)"/>
<path d="" fill="#0E0F0F" transform="translate(0,0)"/>
<path d="" fill="#0D0A0C" transform="translate(0,0)"/>
<path d="" fill="#111112" transform="translate(0,0)"/>
<path d="" fill="#121211" transform="translate(0,0)"/>
<path d="" fill="#161517" transform="translate(0,0)"/>
<path d="" fill="#181616" transform="translate(0,0)"/>
<path d="" fill="#191717" transform="translate(0,0)"/>
<path d="" fill="#131613" transform="translate(0,0)"/>
<path d="" fill="#171717" transform="translate(0,0)"/>
<path d="" fill="#191717" transform="translate(0,0)"/>
<path d="" fill="#0C0C0B" transform="translate(0,0)"/>
<path d="" fill="#191A18" transform="translate(0,0)"/>
<path d="" fill="#0F0F0F" transform="translate(0,0)"/>
<path d="" fill="#181818" transform="translate(0,0)"/>
<path d="" fill="#0F1011" transform="translate(0,0)"/>
<path d="" fill="#1D1D1E" transform="translate(0,0)"/>
<path d="" fill="#11100D" transform="translate(0,0)"/>
<path d="" fill="#0E0D0F" transform="translate(0,0)"/>
<path d="" fill="#10110F" transform="translate(0,0)"/>
<path d="" fill="#101210" transform="translate(0,0)"/>
<path d="" fill="#100E0E" transform="translate(0,0)"/>
<path d="" fill="#1B1A1A" transform="translate(0,0)"/>
<path d="" fill="#11100E" transform="translate(0,0)"/>
<path d="" fill="#10100F" transform="translate(0,0)"/>
<path d="" fill="#212022" transform="translate(0,0)"/>
<path d="" fill="#0F110E" transform="translate(0,0)"/>
<path d="" fill="#0F0E0B" transform="translate(0,0)"/>
<path d="" fill="#0F0F10" transform="translate(0,0)"/>
<path d="" fill="#111211" transform="translate(0,0)"/>
<path d="" fill="#0F0E0D" transform="translate(0,0)"/>
<path d="" fill="#0F0E0E" transform="translate(0,0)"/>
<path d="" fill="#121110" transform="translate(0,0)"/>
<path d="" fill="#100F0F" transform="translate(0,0)"/>
<path d="" fill="#12110F" transform="translate(0,0)"/>
<path d="" fill="#131411" transform="translate(0,0)"/>
<path d="" fill="#0D0F0E" transform="translate(0,0)"/>
<path d="" fill="#121311" transform="translate(0,0)"/>
<path d="" fill="#151212" transform="translate(0,0)"/>
<path d="" fill="#111212" transform="translate(0,0)"/>
<path d="" fill="#131011" transform="translate(0,0)"/>
<path d="" fill="#101111" transform="translate(0,0)"/>
<path d="" fill="#141314" transform="translate(0,0)"/>
<path d="" fill="#111412" transform="translate(0,0)"/>
<path d="" fill="#121214" transform="translate(0,0)"/>
<path d="" fill="#121310" transform="translate(0,0)"/>
<path d="" fill="#100E0E" transform="translate(0,0)"/>
<path d="" fill="#101211" transform="translate(0,0)"/>
<path d="" fill="#100F0F" transform="translate(0,0)"/>
<path d="" fill="#121311" transform="translate(0,0)"/>
<path d="" fill="#141412" transform="translate(0,0)"/>
<path d="" fill="#1D1E1D" transform="translate(0,0)"/>
<path d="" fill="#161613" transform="translate(0,0)"/>
<path d="" fill="#121314" transform="translate(0,0)"/>
<path d="" fill="#131313" transform="translate(0,0)"/>
<path d="" fill="#151616" transform="translate(0,0)"/>
<path d="" fill="#10100F" transform="translate(0,0)"/>
<path d="" fill="#0E0E0E" transform="translate(0,0)"/>
<path d="" fill="#10100E" transform="translate(0,0)"/>
<path d="" fill="#111110" transform="translate(0,0)"/>
<path d="" fill="#111313" transform="translate(0,0)"/>
<path d="" fill="#101110" transform="translate(0,0)"/>
<path d="" fill="#0E0F0C" transform="translate(0,0)"/>
<path d="" fill="#111112" transform="translate(0,0)"/>
<path d="" fill="#0C0B0B" transform="translate(0,0)"/>
<path d="" fill="#212121" transform="translate(0,0)"/>
<path d="" fill="#141413" transform="translate(0,0)"/>
<path d="" fill="#151714" transform="translate(0,0)"/>
<path d="" fill="#111111" transform="translate(0,0)"/>
<path d="" fill="#12120F" transform="translate(0,0)"/>
<path d="" fill="#101211" transform="translate(0,0)"/>
<path d="" fill="#161716" transform="translate(0,0)"/>
<path d="" fill="#0E0D0B" transform="translate(0,0)"/>
<path d="" fill="#0F0D0E" transform="translate(0,0)"/>
<path d="" fill="#111213" transform="translate(0,0)"/>
<path d="" fill="#0E0D0C" transform="translate(0,0)"/>
<path d="" fill="#131413" transform="translate(0,0)"/>
<path d="" fill="#1A1A1A" transform="translate(0,0)"/>
<path d="" fill="#161716" transform="translate(0,0)"/>
<path d="" fill="#252324" transform="translate(0,0)"/>
<path d="" fill="#0E0F0F" transform="translate(0,0)"/>
<path d="" fill="#101012" transform="translate(0,0)"/>
<path d="" fill="#0F0F10" transform="translate(0,0)"/>
<path d="" fill="#141313" transform="translate(0,0)"/>
<path d="" fill="#0F0F0E" transform="translate(0,0)"/>
<path d="" fill="#110F0F" transform="translate(0,0)"/>
<path d="" fill="#100E0F" transform="translate(0,0)"/>
<path d="" fill="#121313" transform="translate(0,0)"/>
<path d="" fill="#131213" transform="translate(0,0)"/>
<path d="" fill="#110F11" transform="translate(0,0)"/>
<path d="" fill="#100E0F" transform="translate(0,0)"/>
<path d="" fill="#0F0E0E" transform="translate(0,0)"/>
<path d="" fill="#151415" transform="translate(0,0)"/>
<path d="" fill="#141311" transform="translate(0,0)"/>
<path d="" fill="#100F10" transform="translate(0,0)"/>
<path d="" fill="#111112" transform="translate(0,0)"/>
<path d="" fill="#242524" transform="translate(0,0)"/>
<path d="" fill="#161515" transform="translate(0,0)"/>
<path d="" fill="#131314" transform="translate(0,0)"/>
<path d="" fill="#10110F" transform="translate(0,0)"/>
<path d="" fill="#171515" transform="translate(0,0)"/>
<path d="" fill="#141312" transform="translate(0,0)"/>
<path d="" fill="#161716" transform="translate(0,0)"/>
<path d="" fill="#141513" transform="translate(0,0)"/>
<path d="" fill="#171715" transform="translate(0,0)"/>
<path d="" fill="#131311" transform="translate(0,0)"/>
<path d="" fill="#191919" transform="translate(0,0)"/>
<path d="" fill="#242222" transform="translate(0,0)"/>
<path d="" fill="#232422" transform="translate(0,0)"/>
<path d="" fill="#100E0F" transform="translate(0,0)"/>
<path d="" fill="#0F0F0E" transform="translate(0,0)"/>
<path d="" fill="#10110F" transform="translate(0,0)"/>
<path d="" fill="#11100E" transform="translate(0,0)"/>
<path d="" fill="#111210" transform="translate(0,0)"/>
<path d="" fill="#111010" transform="translate(0,0)"/>
<path d="" fill="#121210" transform="translate(0,0)"/>
<path d="" fill="#272628" transform="translate(0,0)"/>
<path d="" fill="#232425" transform="translate(0,0)"/>
<path d="" fill="#101010" transform="translate(0,0)"/>
<path d="" fill="#1E1F1D" transform="translate(0,0)"/>
<path d="" fill="#110E0F" transform="translate(0,0)"/>
<path d="" fill="#1B1A1A" transform="translate(0,0)"/>
<path d="" fill="#252528" transform="translate(0,0)"/>
<path d="" fill="#272827" transform="translate(0,0)"/>
<path d="" fill="#242423" transform="translate(0,0)"/>
<path d="" fill="#101210" transform="translate(0,0)"/>
<path d="" fill="#242425" transform="translate(0,0)"/>
<path d="" fill="#252627" transform="translate(0,0)"/>
<path d="" fill="#222122" transform="translate(0,0)"/>
<path d="" fill="#222321" transform="translate(0,0)"/>
<path d="" fill="#212020" transform="translate(0,0)"/>
<path d="" fill="#201F1F" transform="translate(0,0)"/>
<path d="" fill="#222323" transform="translate(0,0)"/>
<path d="" fill="#222221" transform="translate(0,0)"/>
<path d="" fill="#212321" transform="translate(0,0)"/>
<path d="" fill="#22221F" transform="translate(0,0)"/>
<path d="" fill="#222221" transform="translate(0,0)"/>
<path d="" fill="#111412" transform="translate(0,0)"/>
<path d="" fill="#131112" transform="translate(0,0)"/>
<path d="" fill="#10110F" transform="translate(0,0)"/>
<path d="" fill="#141312" transform="translate(0,0)"/>
<path d="" fill="#151515" transform="translate(0,0)"/>
<path d="" fill="#131314" transform="translate(0,0)"/>
<path d="" fill="#11130F" transform="translate(0,0)"/>
<path d="" fill="#12100F" transform="translate(0,0)"/>
<path d="" fill="#151313" transform="translate(0,0)"/>
<path d="" fill="#111311" transform="translate(0,0)"/>
<path d="" fill="#151313" transform="translate(0,0)"/>
<path d="" fill="#11120F" transform="translate(0,0)"/>
<path d="" fill="#161616" transform="translate(0,0)"/>
<path d="" fill="#131112" transform="translate(0,0)"/>
<path d="" fill="#111012" transform="translate(0,0)"/>
<path d="" fill="#161616" transform="translate(0,0)"/>
<path d="" fill="#111110" transform="translate(0,0)"/>
<path d="" fill="#131113" transform="translate(0,0)"/>
<path d="" fill="#171919" transform="translate(0,0)"/>
<path d="" fill="#111211" transform="translate(0,0)"/>
<path d="" fill="#131210" transform="translate(0,0)"/>
<path d="" fill="#110E10" transform="translate(0,0)"/>
<path d="" fill="#151414" transform="translate(0,0)"/>
<path d="" fill="#141212" transform="translate(0,0)"/>
<path d="" fill="#1E1F1D" transform="translate(0,0)"/>
<path d="" fill="#1E1D1E" transform="translate(0,0)"/>
<path d="" fill="#1D1D1E" transform="translate(0,0)"/>
<path d="" fill="#1C1C1D" transform="translate(0,0)"/>
<path d="" fill="#1D1F20" transform="translate(0,0)"/>
<path d="" fill="#201F1F" transform="translate(0,0)"/>
<path d="" fill="#201F1E" transform="translate(0,0)"/>
<path d="" fill="#212120" transform="translate(0,0)"/>
<path d="" fill="#1A1B1C" transform="translate(0,0)"/>
<path d="" fill="#1D1F20" transform="translate(0,0)"/>
<path d="" fill="#212421" transform="translate(0,0)"/>
<path d="" fill="#242525" transform="translate(0,0)"/>
<path d="" fill="#252624" transform="translate(0,0)"/>
</svg>
